<svg id="Layer_1" data-name="Layer 1" xmlns="http://www.w3.org/2000/svg" viewBox="0 0 153.24 152.3"><defs><style>.cls-1,.cls-2{fill:none;stroke:#104d63;stroke-linejoin:round;stroke-width:4px;}.cls-2{fill-rule:evenodd;}</style></defs><title>ZCW-icon-green-room</title><circle class="cls-1" cx="76.15" cy="76.15" r="71.6"/><path class="cls-2" d="M71,94.66l14.62,5,10.11-7.9c4.17-3.4,9.24-4.87,12.74-.52l.93,1.18-1.19.93-20.35,16-42.06-.67M53.3,90m70.62-13.25H29.33M69,43.73a7.87,7.87,0,1,1,15.26,0m-45.57,33h75.88a38.31,38.31,0,0,0-75.88,0Zm14.1,13.51-9.37-3.5-8.24,22.07,9.37,3.5Z"/><path class="cls-2" d="M53.41,90.81l21.28-6.32C79.9,83,84.5,82.75,86,88.19l.36,1.36L85.05,90,65.71,96.41"/></svg>