<svg xmlns="http://www.w3.org/2000/svg" viewBox="0 0 109.67 100.64"><defs><style>.cls-1{fill:#fff;}</style></defs><title>ZCW-icon-buildings</title><g id="ZCW-icon-buildings.svg"><path d="M0 96.64h109.67v4H0zM102.76 91.14h-4V57.52L80.42 45l2.26-3.3 19.2 13.12a2 2 0 0 1 .88 1.65zM86.8 60.65h4v7.26h-4zM86.8 75.44h4v7.26h-4zM58.7 60.65h4v7.26h-4zM58.7 45.1h4v7.26h-4zM58.7 75.44h4v7.26h-4zM47.6 60.65h4v7.26h-4zM47.6 45.1h4v7.26h-4zM58.7 29.7h4v7.25h-4zM47.6 29.7h4v7.25h-4zM47.6 75.44h4v7.26h-4zM12.22 91.14h-4V56.46a2 2 0 0 1 .87-1.65l19.2-13.1 2.26 3.3-18.34 12.52zM73.58 91.14h-4V5.8l-30.1 20.54v64.8h-4V25.3a2 2 0 0 1 .87-1.66L70.45.34A2 2 0 0 1 73.58 2zM20.17 60.65h4v7.26h-4zM20.17 75.44h4v7.26h-4z" class="cls-1"/></g></svg>