<svg xmlns="http://www.w3.org/2000/svg" viewBox="0 0 415.5 98"><defs><style>.cls-1{fill:#104d63;}.cls-2{fill:#37aa7c;}</style></defs><title>ZCW-logohorizontal</title><path d="M137 82.63v-.46l13.06-7v4.1l-6.4 3.2 6.34 3.15v4.14z" class="cls-1"/><path d="M152.14 68.68h5.68l3.8 10.48a13.35 13.35 0 0 1 .5 1.48q.23.83.42 1.56l.46 1.7q.23-.86.5-1.7t.52-1.56a15.27 15.27 0 0 1 .6-1.48l5-10.7h.54l5.1 10.7a15.55 15.55 0 0 1 .6 1.48q.3.83.53 1.56t.5 1.7l.45-1.7q.2-.73.44-1.56t.47-1.48L182 68.68h5.22L177.78 95h-.54l-5.87-12.6q-.27-.53-.54-1.2t-.46-1.3l-.46-1.37q-.22.7-.5 1.38l-.47 1.3a12.57 12.57 0 0 1-.52 1.2L162.3 95h-.53zM190.9 68.68h5.38v26.1h-5.37zM201.8 68.68h5.38v21.38H219v4.72h-17.2zM223.35 68.4h.42l12.86 14.14L249.3 68.4h.46V94.8h-5.18V85q0-.65 0-1.46t.08-1.5c0-.54.05-1.07.08-1.6q-.46.6-.92 1.3t-.92 1.2q-.5.64-1 1.18l-5.18 5.8h-.5l-5.18-5.8q-.46-.54-.94-1.17l-.9-1.2c-.3-.47-.63-.9-1-1.32q.08.8.12 1.6t.06 1.5q0 .82 0 1.47v9.8h-5.14zM255.33 68.68h5.37v26.1h-5.37zM274 82.65a12.43 12.43 0 0 1-1-1.1l-1-1.16-1.08-1.3q.08.84.2 1.68t.12 1.53q.06.82.06 1.55v10.93h-5V68.45h.54L280 80.8a8.2 8.2 0 0 1 1 1.07l1 1.17q.55.65 1.08 1.34l-.15-1.7q-.08-.72-.13-1.56t-.06-1.5V68.68h5V95h-.54zM306.42 95.13a15.84 15.84 0 0 1-5.8-1 13.4 13.4 0 0 1-4.47-2.8 12.34 12.34 0 0 1-2.88-4.24 13.8 13.8 0 0 1-1-5.35 14.3 14.3 0 0 1 1-5.34 12.74 12.74 0 0 1 2.73-4.25 12.26 12.26 0 0 1 4.2-2.78 14.25 14.25 0 0 1 5.4-1q6.34 0 9.5 3.6l-3.66 3.62a8.9 8.9 0 0 0-2.27-1.7 8.87 8.87 0 0 0-6.78 0 7.33 7.33 0 0 0-2.47 1.8 8 8 0 0 0-1.57 2.68 10 10 0 0 0-.56 3.4 9.87 9.87 0 0 0 .58 3.42 7.66 7.66 0 0 0 1.62 2.67 7.84 7.84 0 0 0 2.7 1.8 9.6 9.6 0 0 0 3.68.65 16.86 16.86 0 0 0 2.7-.23 8.43 8.43 0 0 0 2.4-.74v-3.83h-6.3V80.8h11.22v11.3a11.47 11.47 0 0 1-1.54 1 13.6 13.6 0 0 1-2.25 1 21.5 21.5 0 0 1-2.85.74 17.65 17.65 0 0 1-3.33.3zM325.54 73.4h-7.45v-4.72h20.26v4.72h-7.45v21.38h-5.36zM353.4 95.13a13.76 13.76 0 0 1-5.27-1 13.3 13.3 0 0 1-4.3-2.8 13.1 13.1 0 0 1-2.83-4.26 14 14 0 0 1 0-10.67 13.1 13.1 0 0 1 2.88-4.24 13.32 13.32 0 0 1 4.3-2.8 14.25 14.25 0 0 1 10.58 0 13.37 13.37 0 0 1 4.28 2.8 13.1 13.1 0 0 1 2.88 4.24 14 14 0 0 1 0 10.67A13.1 13.1 0 0 1 363 91.3a13.35 13.35 0 0 1-4.28 2.8 13.7 13.7 0 0 1-5.3 1.03zm0-4.8a7.9 7.9 0 0 0 3.27-.65 7.56 7.56 0 0 0 2.5-1.8 8.1 8.1 0 0 0 1.64-2.73 10.42 10.42 0 0 0 0-6.83 8.1 8.1 0 0 0-1.62-2.73 7.56 7.56 0 0 0-2.5-1.8 8.43 8.43 0 0 0-6.52 0 7.5 7.5 0 0 0-2.53 1.8 8.1 8.1 0 0 0-1.63 2.7 10.43 10.43 0 0 0 0 6.84 8.1 8.1 0 0 0 1.63 2.73 7.5 7.5 0 0 0 2.53 1.8 7.94 7.94 0 0 0 3.25.66zM379.25 82.65a12.43 12.43 0 0 1-1-1.1l-1-1.16-1.08-1.3q.08.84.2 1.68t.12 1.53q.05.82.05 1.55v10.93h-5V68.45h.45l13.2 12.36a8.2 8.2 0 0 1 1 1.07l1 1.17q.54.65 1.07 1.34l-.15-1.7Q388 82 388 81.13t-.06-1.5V68.68h5V95h-.54z" class="cls-2"/><path d="M397.85 85.67l6.35-3.22-6.35-3.17v-4.15l13.06 7.13v.46l-13.05 7zM135.7 18.7h13l-15.87 27.7v1.26h27.57v-7.4h-14.93l15.8-27.7V11.3H135.7v7.4zM176.35 11.3h8.28v36.37h-8.28zM223.72 15.07a14.43 14.43 0 0 0-5.14-2.8 22.4 22.4 0 0 0-6.78-1h-10.28v36.4h8.28V39.6h2a22.42 22.42 0 0 0 6.78-1 14.63 14.63 0 0 0 5.14-2.77A12.14 12.14 0 0 0 227 31.4a15 15 0 0 0 1.13-5.92 14.9 14.9 0 0 0-1.13-5.94 12.44 12.44 0 0 0-3.28-4.47zM209.8 18.7h1.8c2.8 0 4.87.56 6.14 1.67a6.46 6.46 0 0 1 1.88 5.1 6.43 6.43 0 0 1-1.86 5.07c-1.25 1.1-3.33 1.67-6.17 1.67h-1.8zM269.36 35.66a13.3 13.3 0 0 1-3.46 3.6 9 9 0 0 1-5.23 1.37 10.12 10.12 0 0 1-4.16-.84 9.5 9.5 0 0 1-3.2-2.33 10.76 10.76 0 0 1-2.1-3.53 12.92 12.92 0 0 1-.74-4.46 12.7 12.7 0 0 1 .75-4.43 10.54 10.54 0 0 1 2.1-3.48 9.7 9.7 0 0 1 3.2-2.3 10.14 10.14 0 0 1 4.17-.84 9.37 9.37 0 0 1 4.94 1.23 9.57 9.57 0 0 1 3.22 3.16l.28.45 6.4-4.54-.27-.4a15.5 15.5 0 0 0-6-5.66 18.85 18.85 0 0 0-8.52-1.8 19.33 19.33 0 0 0-7.3 1.4 18.05 18.05 0 0 0-5.94 3.88A18.58 18.58 0 0 0 242 29.5a18.58 18.58 0 0 0 5.45 13.32 18.36 18.36 0 0 0 5.93 3.9 19 19 0 0 0 7.32 1.42 17.84 17.84 0 0 0 9-2.17 18.13 18.13 0 0 0 6.15-5.85l.27-.4-6.5-4.47zM321.16 16.15a18.68 18.68 0 0 0-6-3.9 19.8 19.8 0 0 0-14.7 0 18.58 18.58 0 0 0-6 3.9 18.3 18.3 0 0 0-4 5.9A18.7 18.7 0 0 0 289 29.5a18.67 18.67 0 0 0 1.47 7.4 18.3 18.3 0 0 0 4 5.92 18.58 18.58 0 0 0 6 3.9 19.8 19.8 0 0 0 14.7 0 18.66 18.66 0 0 0 6-3.9 18.32 18.32 0 0 0 4-5.9 18.7 18.7 0 0 0 1.48-7.43 18.7 18.7 0 0 0-1.47-7.44 18.35 18.35 0 0 0-4.02-5.9zm-13.32 24.48a10.3 10.3 0 0 1-4.2-.84 9.73 9.73 0 0 1-3.26-2.33 10.54 10.54 0 0 1-2.1-3.53 13.63 13.63 0 0 1 0-8.9 10.55 10.55 0 0 1 2.1-3.54 9.72 9.72 0 0 1 3.27-2.32 10.92 10.92 0 0 1 8.4 0 9.8 9.8 0 0 1 3.25 2.32 10.53 10.53 0 0 1 2.1 3.5 13.6 13.6 0 0 1 0 8.9 10.53 10.53 0 0 1-2.1 3.54 9.8 9.8 0 0 1-3.24 2.33 10.25 10.25 0 0 1-4.22.86zM367.33 16.38a18.06 18.06 0 0 0-6.07-3.74 21.58 21.58 0 0 0-7.67-1.33h-11.37v36.36h11.37a21.5 21.5 0 0 0 7.7-1.33 18.1 18.1 0 0 0 6-3.74 17 17 0 0 0 4-5.77 18.72 18.72 0 0 0 1.4-7.35 18.72 18.72 0 0 0-1.4-7.35 17 17 0 0 0-3.97-5.75zM350.5 18.7h2.73a13.83 13.83 0 0 1 4.94.8 9 9 0 0 1 3.38 2.2 9.07 9.07 0 0 1 2 3.4 14.08 14.08 0 0 1 .65 4.38 14.08 14.08 0 0 1-.65 4.4 9.07 9.07 0 0 1-2 3.37 8.93 8.93 0 0 1-3.37 2.2 13.8 13.8 0 0 1-4.94.8h-2.72zM396.53 40.27v-4.1h14.2v-7.24h-14.2V18.7h16.12v-7.4h-24.4v36.36h25.13v-7.4h-16.85zM36.3 34.08V20.05L19.65 2.87v31.2H2.12l25.86 44.07 25.85-44.06H36.3z" class="cls-1"/><path d="M73.02 64.1v14.04l16.63 14.32V64.1h17.54L81.32 20.06 55.47 64.1h17.55z" class="cls-2"/></svg>