<?xml version="1.0" standalone="no"?>
<!DOCTYPE svg PUBLIC "-//W3C//DTD SVG 20010904//EN"
 "http://www.w3.org/TR/2001/REC-SVG-20010904/DTD/svg10.dtd">
<svg version="1.0" xmlns="http://www.w3.org/2000/svg"
 width="749.000000pt" height="615.000000pt" viewBox="0 0 749.000000 615.000000"
 preserveAspectRatio="xMidYMid meet">

<g transform="translate(0.000000,615.000000) scale(0.100000,-0.100000)"
fill="#000000" stroke="none">
<path d="M5470 5463 c0 -5 42 -13 93 -16 190 -14 359 -69 486 -157 258 -182
318 -496 170 -895 l-34 -90 -597 -3 -598 -2 0 -220 0 -220 455 0 c250 0 455
-4 455 -8 0 -12 -114 -149 -182 -218 l-63 -64 -563 0 -562 0 2 -222 3 -223
307 -5 308 -5 -97 -70 c-53 -38 -105 -78 -115 -88 -11 -10 -56 -43 -101 -73
l-81 -54 -541 -1 c-297 -1 -550 -2 -563 -2 l-23 -2 0 -220 0 -220 402 -3 401
-2 107 57 c260 139 698 428 782 516 13 14 67 60 119 103 452 372 752 726 941
1109 118 240 166 429 156 620 -18 353 -263 592 -675 659 -119 19 -392 33 -392
19z"/>
<path d="M6121 4504 c0 -11 3 -14 6 -6 3 7 2 16 -1 19 -3 4 -6 -2 -5 -13z"/>
<path d="M1999 3353 c-175 -277 -279 -581 -279 -812 0 -83 22 -217 37 -232 5
-4 351 -9 770 -11 419 -2 760 -2 758 0 -2 3 -1322 121 -1357 122 -13 0 -47 76
-68 151 -54 195 -8 458 126 727 33 67 60 122 58 122 -1 0 -21 -30 -45 -67z"/>
<path d="M610 1635 l0 -65 115 0 115 0 0 -320 0 -320 80 0 80 0 0 320 0 320
115 0 115 0 0 65 0 65 -310 0 -310 0 0 -65z"/>
<path d="M2530 1315 l0 -385 75 0 75 0 0 180 c0 191 5 214 49 254 31 28 104
28 133 -2 22 -22 23 -30 26 -227 l3 -205 75 0 74 0 0 190 c0 268 -15 321 -104
361 -75 34 -174 18 -238 -39 -17 -14 -18 -8 -18 121 l0 137 -75 0 -75 0 0
-385z"/>
<path d="M3490 1315 l0 -385 275 0 275 0 0 65 0 65 -195 0 -195 0 0 320 0 320
-80 0 -80 0 0 -385z"/>
<path d="M5110 1570 c0 -120 -7 -150 -26 -119 -13 22 -90 49 -138 49 -99 0
-182 -66 -212 -169 -23 -78 -15 -221 15 -280 73 -140 235 -175 344 -73 l27 26
0 -37 0 -37 70 0 70 0 0 385 0 385 -75 0 -75 0 0 -130z m-62 -200 c44 -27 62
-74 62 -161 0 -114 -41 -172 -120 -172 -78 0 -120 63 -120 181 0 83 22 130 70
154 45 23 67 23 108 -2z"/>
<path d="M5780 1563 l0 -136 -22 20 c-60 53 -171 68 -245 32 -96 -46 -138
-141 -131 -293 3 -80 8 -99 34 -146 74 -131 237 -160 347 -61 l27 25 0 -37 0
-37 70 0 70 0 0 385 0 385 -75 0 -75 0 0 -137z m-69 -194 c52 -26 69 -66 69
-160 0 -88 -19 -133 -68 -156 -107 -51 -182 17 -182 165 0 83 22 130 70 154
45 23 62 23 111 -3z"/>
<path d="M1434 1476 c-103 -48 -149 -144 -142 -295 3 -70 9 -95 32 -137 46
-85 119 -124 229 -124 76 0 127 15 172 52 36 31 81 103 67 111 -4 3 -29 8 -57
11 -27 4 -58 9 -67 12 -10 3 -19 -3 -23 -16 -28 -89 -168 -75 -196 20 -7 22
-10 43 -7 46 11 10 43 12 206 13 l162 1 0 30 c0 45 -20 131 -40 170 -59 115
-213 163 -336 106z m167 -102 c17 -8 37 -30 45 -49 27 -64 26 -65 -96 -65
-120 0 -120 0 -99 59 13 36 61 71 97 71 13 0 37 -7 53 -16z"/>
<path d="M2068 1486 c-79 -28 -130 -81 -154 -162 -16 -55 -18 -173 -4 -226 17
-59 69 -120 130 -151 50 -26 62 -28 141 -25 71 3 93 9 132 31 47 28 89 85 102
139 8 30 2 32 -82 43 l-52 7 -14 -35 c-27 -64 -96 -86 -157 -50 -38 22 -52 55
-58 139 -8 126 29 184 117 184 50 0 84 -21 96 -60 7 -23 8 -24 91 -8 l63 11
-15 36 c-22 52 -81 108 -132 126 -55 18 -154 19 -204 1z"/>
<path d="M4260 1489 c-52 -16 -94 -52 -115 -98 -10 -23 -16 -43 -13 -46 3 -3
31 -10 63 -16 l57 -10 27 31 c48 58 153 50 174 -14 13 -40 0 -48 -125 -75 -57
-13 -119 -32 -139 -43 -102 -57 -104 -198 -5 -272 23 -17 42 -21 111 -21 78 0
87 2 128 32 l46 32 10 -30 c10 -28 11 -29 80 -29 39 0 71 2 71 4 0 3 -5 17
-12 33 -6 16 -14 112 -17 230 -5 184 -8 204 -27 230 -39 52 -79 67 -184 70
-52 1 -111 -2 -130 -8z m197 -351 c-10 -85 -87 -140 -153 -109 -50 22 -57 98
-12 122 26 14 113 36 147 38 23 1 24 -1 18 -51z"/>
<path d="M6184 1476 c-103 -48 -150 -144 -142 -295 9 -171 99 -261 261 -261
76 0 127 15 172 52 36 31 81 103 67 111 -4 3 -29 8 -57 11 -27 4 -58 9 -67 12
-10 3 -19 -3 -23 -16 -28 -89 -168 -75 -196 20 -7 22 -10 43 -7 46 11 10 43
12 206 13 l162 1 0 30 c0 45 -20 131 -41 171 -57 113 -213 162 -335 105z m167
-102 c17 -8 37 -30 45 -49 27 -64 26 -65 -96 -65 -123 0 -125 1 -94 66 28 59
87 78 145 48z"/>
<path d="M6885 1489 c-11 -6 -32 -25 -47 -42 l-28 -31 0 37 0 37 -70 0 -70 0
0 -280 0 -280 74 0 74 0 4 178 c3 144 7 183 21 210 20 37 60 56 97 47 14 -3
31 -7 39 -8 12 -2 48 75 50 109 2 28 -102 45 -144 23z"/>
<path d="M1320 310 c0 -123 1 -130 20 -130 19 0 20 7 20 130 0 123 -1 130 -20
130 -19 0 -20 -7 -20 -130z"/>
<path d="M1410 420 c0 -17 7 -20 40 -20 l40 0 0 -110 c0 -103 1 -110 20 -110
19 0 20 7 20 110 l0 110 40 0 c33 0 40 3 40 20 0 19 -7 20 -100 20 -93 0 -100
-1 -100 -20z"/>
<path d="M1730 420 c0 -17 7 -20 40 -20 l40 0 0 -110 c0 -103 1 -110 20 -110
19 0 20 7 20 110 l0 110 40 0 c33 0 40 3 40 20 0 19 -7 20 -100 20 -93 0 -100
-1 -100 -20z"/>
<path d="M2300 420 c0 -13 7 -20 20 -20 13 0 20 7 20 20 0 13 -7 20 -20 20
-13 0 -20 -7 -20 -20z"/>
<path d="M2620 420 c0 -13 7 -20 20 -20 13 0 20 7 20 20 0 13 -7 20 -20 20
-13 0 -20 -7 -20 -20z"/>
<path d="M3800 395 l0 -45 -24 15 c-52 34 -106 -8 -106 -83 0 -74 46 -115 104
-92 17 6 26 6 26 0 0 -6 9 -10 20 -10 19 0 20 7 20 130 0 123 -1 130 -20 130
-17 0 -20 -7 -20 -45z m-6 -87 c14 -40 -3 -82 -34 -86 -42 -6 -65 51 -39 99
16 30 61 22 73 -13z"/>
<path d="M4000 311 c0 -124 1 -131 20 -131 17 0 20 7 20 49 l0 48 58 6 c66 7
92 30 92 82 0 51 -29 69 -116 73 l-74 4 0 -131z m135 49 c0 -35 0 -35 -47 -38
l-48 -3 0 41 0 41 48 -3 c47 -3 47 -3 47 -38z"/>
<path d="M4240 310 c0 -123 1 -130 20 -130 19 0 20 7 20 130 0 123 -1 130 -20
130 -19 0 -20 -7 -20 -130z"/>
<path d="M5698 419 c-10 -5 -18 -17 -18 -24 0 -8 -4 -15 -10 -15 -5 0 -10 -9
-10 -20 0 -11 5 -20 10 -20 6 0 10 -24 10 -52 0 -94 18 -118 75 -104 26 7 25
36 -1 36 -10 0 -14 15 -14 59 0 50 3 59 20 64 23 6 17 37 -6 37 -8 0 -14 10
-14 25 0 26 -14 31 -42 14z"/>
<path d="M1960 280 c0 -93 1 -100 20 -100 17 0 20 7 20 53 0 75 8 97 35 97 25
0 41 28 26 43 -7 7 -19 7 -36 -1 -15 -7 -25 -8 -25 -2 0 6 -9 10 -20 10 -19 0
-20 -7 -20 -100z"/>
<path d="M2124 370 c-29 -12 -37 -37 -14 -43 10 -3 23 0 28 5 14 14 57 6 57
-10 0 -8 -22 -21 -50 -30 -47 -16 -50 -19 -53 -55 -3 -33 0 -38 25 -48 22 -8
35 -7 60 5 29 14 33 14 33 1 0 -9 9 -15 21 -15 17 0 20 4 15 23 -3 12 -6 52
-6 88 0 61 -2 67 -25 77 -30 14 -61 14 -91 2z m76 -109 c0 -40 -61 -56 -68
-18 -2 10 5 21 20 26 36 15 48 13 48 -8z"/>
<path d="M2300 280 c0 -93 1 -100 20 -100 19 0 20 7 20 100 0 93 -1 100 -20
100 -19 0 -20 -7 -20 -100z"/>
<path d="M2400 280 c0 -93 1 -100 20 -100 18 0 20 7 20 61 0 72 12 99 44 99
30 0 36 -16 36 -96 0 -58 2 -64 20 -64 20 0 21 5 18 87 -3 82 -5 88 -29 102
-22 12 -29 12 -57 -2 -27 -13 -32 -13 -32 -1 0 8 -9 14 -20 14 -19 0 -20 -7
-20 -100z"/>
<path d="M2620 280 c0 -93 1 -100 20 -100 19 0 20 7 20 100 0 93 -1 100 -20
100 -19 0 -20 -7 -20 -100z"/>
<path d="M2720 280 c0 -93 1 -100 20 -100 18 0 20 7 20 61 0 72 12 99 44 99
30 0 36 -16 36 -96 0 -58 2 -64 20 -64 20 0 21 5 18 87 -3 84 -4 88 -31 103
-25 14 -30 13 -57 -2 -25 -14 -30 -15 -30 -3 0 8 -9 15 -20 15 -19 0 -20 -7
-20 -100z"/>
<path d="M2955 355 c-20 -19 -25 -34 -25 -75 0 -80 54 -122 108 -84 21 14 22
14 22 -11 0 -33 -19 -40 -79 -28 -44 9 -48 8 -44 -8 11 -41 132 -48 154 -8 8
15 13 134 10 222 -1 22 -41 23 -41 1 0 -14 -2 -14 -22 0 -32 22 -55 20 -83 -9z
m99 -47 c14 -40 -3 -82 -34 -86 -42 -6 -65 51 -39 99 16 30 61 22 73 -13z"/>
<path d="M3288 369 c-14 -6 -29 -17 -32 -25 -5 -12 4 -14 47 -12 69 4 70 -18
2 -40 -49 -17 -50 -18 -50 -56 0 -34 4 -41 27 -48 20 -7 36 -5 58 5 26 13 30
13 30 1 0 -8 8 -14 18 -14 17 0 18 8 14 83 -3 67 -8 85 -24 100 -22 19 -49 21
-90 6z m72 -108 c0 -40 -61 -56 -68 -18 -2 10 5 21 20 26 36 15 48 13 48 -8z"/>
<path d="M3460 280 c0 -93 1 -100 20 -100 18 0 20 7 20 61 0 72 12 99 44 99
30 0 36 -16 36 -96 0 -58 2 -64 20 -64 20 0 21 5 18 87 -3 84 -4 88 -31 103
-25 14 -30 13 -57 -2 -25 -14 -30 -15 -30 -3 0 8 -9 15 -20 15 -19 0 -20 -7
-20 -100z"/>
<path d="M4364 370 c-29 -12 -37 -37 -14 -43 10 -3 23 0 28 5 14 14 57 6 57
-10 0 -8 -22 -21 -50 -30 -47 -16 -50 -19 -53 -55 -3 -33 0 -38 25 -48 22 -8
35 -7 60 5 29 14 33 14 33 1 0 -9 9 -15 21 -15 17 0 20 4 15 23 -3 12 -6 52
-6 88 0 61 -2 67 -25 77 -30 14 -61 14 -91 2z m76 -109 c0 -40 -61 -56 -68
-18 -2 10 5 21 20 26 36 15 48 13 48 -8z"/>
<path d="M4559 351 c-23 -24 -29 -38 -29 -73 1 -46 12 -68 47 -86 36 -19 63
-14 96 20 l32 32 -25 6 c-19 5 -27 2 -32 -13 -6 -13 -16 -17 -35 -15 -34 4
-52 44 -37 86 11 31 52 43 66 19 8 -15 48 -12 48 3 0 16 -53 50 -77 50 -14 0
-37 -13 -54 -29z"/>
<path d="M4773 370 c-30 -12 -43 -41 -43 -93 0 -62 25 -92 79 -92 28 0 47 7
62 21 l21 21 -26 5 c-14 3 -26 1 -26 -3 0 -13 -44 -11 -58 3 -27 27 -13 38 48
38 57 0 60 1 60 24 0 38 -10 56 -41 71 -32 17 -44 18 -76 5z m65 -42 c21 -21
13 -28 -28 -28 -43 0 -43 0 -34 24 7 19 45 21 62 4z"/>
<path d="M4930 280 l0 -100 25 0 c24 0 25 2 25 68 0 70 10 92 41 92 21 0 29
-28 29 -102 0 -51 2 -58 20 -58 18 0 20 7 20 68 0 70 10 92 41 92 23 0 29 -20
29 -96 0 -57 2 -64 20 -64 18 0 20 7 20 85 0 80 -1 85 -26 102 -25 16 -28 16
-56 0 -27 -15 -31 -15 -53 -1 -20 13 -31 14 -57 5 -22 -8 -34 -8 -36 -1 -2 5
-12 10 -23 10 -17 0 -19 -8 -19 -100z"/>
<path d="M5293 370 c-30 -12 -43 -41 -43 -93 0 -62 25 -92 78 -92 26 0 48 7
62 20 l22 20 -24 6 c-12 3 -31 1 -41 -5 -20 -13 -50 2 -55 28 -3 13 6 16 57
16 58 0 61 1 61 24 0 38 -10 56 -41 71 -32 17 -44 18 -76 5z m65 -42 c21 -21
13 -28 -28 -28 -43 0 -43 0 -34 24 7 19 45 21 62 4z"/>
<path d="M5460 280 c0 -93 1 -100 20 -100 18 0 20 7 20 61 0 72 12 99 44 99
30 0 36 -16 36 -96 0 -58 2 -64 20 -64 20 0 21 5 18 87 -3 84 -4 88 -31 103
-25 14 -30 13 -57 -2 -25 -14 -30 -15 -30 -3 0 8 -9 15 -20 15 -19 0 -20 -7
-20 -100z"/>
</g>
</svg>
