<svg id="Layer_1" data-name="Layer 1" xmlns="http://www.w3.org/2000/svg" viewBox="0 0 153.24 152.3"><defs><style>.cls-1{fill:none;stroke:#37aa7c;stroke-linejoin:round;stroke-width:4px;}</style></defs><title>ZCW-icon-cocina</title><circle class="cls-1" cx="76.15" cy="76.15" r="71.6"/><path class="cls-1" d="M83.74,113.26s-1.63-7.56,2.79-11.73,19.9-14.11,24.07-21.72,7.39-9.9,6.73-13.34-.8-3.83-2.46-6.52-3.25-6.2-1.17-8.76a50.24,50.24,0,0,1,8.88-7.61,2.82,2.82,0,0,0,.68-4.24c-1-.91-2.73-.29-5.38,1.63s-6.76,3.72-8.62,6.87-2.88,6.4-5.12,6.7-5.08-.77-8.27,1.72S91.56,64.72,90.92,70s-1.72,9.56-5,14.36-6.83,9.41-6.85,14S78.25,109.43,83.74,113.26Z"/><path class="cls-1" d="M100.39,54.58s4.78,4.8,8.11,6.43,5.61,3.23,7.34.6"/><path class="cls-1" d="M25.6,104.18a13.58,13.58,0,0,0,13.85,1.42c7.92-3.54,16.78-14.07,23.19-19.23s14.55-5.06,17.84-9.6,4.59-6.58,3.57-9.8-1.35-5.72.7-7.94,5.47-5.8,6.84-11.64,1.84-9.24-1.25-9.39-3.17,4.06-3.8,8.12-4,8.14-6.29,8.45S75.7,54,71.13,53.43s-9.21.25-13.59,5.91-7.62,9.21-10.7,16.84-3.77,14.16-8.19,19S33.54,103.71,25.6,104.18Z"/><path class="cls-1" d="M71.08,53.47c-4.21,3.72,4.34,9.56,13,13.45"/></svg>