<svg id="Layer_1" data-name="Layer 1" xmlns="http://www.w3.org/2000/svg" viewBox="0 0 153.24 152.3"><defs><style>.cls-1{fill:none;stroke:#37aa7c;stroke-linejoin:round;stroke-width:4px;}.cls-2{fill:#37aa7c;}</style></defs><title>ZCW-icon-el-diablo</title><circle class="cls-1" cx="76.15" cy="76.15" r="71.6"/><circle class="cls-2" cx="54.69" cy="104.43" r="2.18" transform="translate(-20.22 13.41) rotate(-11.81)"/><circle class="cls-2" cx="50.82" cy="75.25" r="2.18" transform="translate(-14.33 12) rotate(-11.81)"/><circle class="cls-2" cx="61.88" cy="89.44" r="2.18" transform="translate(-17 14.56) rotate(-11.81)"/><circle class="cls-2" cx="73.52" cy="112.4" r="2.18" transform="translate(-21.46 17.43) rotate(-11.81)"/><circle class="cls-2" cx="65.62" cy="63.97" r="2.18" transform="translate(-11.71 14.79) rotate(-11.81)"/><path class="cls-1" d="M55.61,122.87c-1.34,0-4.48,0-11.44-19.82C40.28,92,37,79.51,35.87,71.34c-1.06-7.53-.39-11.07,2.25-11.83a16.94,16.94,0,0,1,4.69-.66c11.18,0,22.42,10.88,26.74,25.87,5,17.44-.9,34.52-13.2,38.06A2.63,2.63,0,0,1,55.61,122.87Z"/><path class="cls-1" d="M53.5,63c3.32-5.76,8.2-9.47,13.74-10.43,1.66-.29,3.16.72,4.48,3,3.4,5.85,6.33,21.08,7.93,33.37.89,6.8,1.46,13.32,1.6,18.35.23,7.86-.57,9.93-1.38,10.91-2.93,3.55-11.66,6.46-18.37,6.46-2.77,0-5.2-.49-6.74-1.64"/><path class="cls-1" d="M39.39,58.8c-1.33-4.07-.43-7.53,2.43-9.25a7.57,7.57,0,0,1,9.05,1.11c2.21,2.28,2.18,5.71-.07,9.17"/><path class="cls-1" d="M51,51.29c-.61-2.93,2-6.16,5.69-7S65,45,66.89,52.12"/><path class="cls-1" d="M35.29,61.4a7.33,7.33,0,0,1-1-4.63,6.08,6.08,0,0,0-.08-1.63,8.56,8.56,0,0,0-1.15-1.88c-.86-1.19-1.84-2.53-1.65-4.2.23-1.95,1.74-3.11,3-4.05a8,8,0,0,0,1.34-1.18,7.09,7.09,0,0,0,.74-1.64,6.9,6.9,0,0,1,2.64-3.92,6.76,6.76,0,0,1,4.24-.53,6.56,6.56,0,0,0,2.09,0,6.21,6.21,0,0,0,1.65-1.12,7.1,7.1,0,0,1,3.81-2A7.1,7.1,0,0,1,55,36a6.22,6.22,0,0,0,1.79.81,6.76,6.76,0,0,0,2.08-.33,6.67,6.67,0,0,1,4.31-.11c1.72.73,2.53,2.36,3.17,3.67a7.53,7.53,0,0,0,.88,1.53,8,8,0,0,0,1.33,1c1.3.88,2.92,2,3.26,4,.27,1.58-.57,2.94-1.31,4.15a8.14,8.14,0,0,0-1,2"/><circle class="cls-2" cx="90.49" cy="70.86" r="2.18" transform="translate(-0.04 141.68) rotate(-76.1)"/><circle class="cls-2" cx="94.3" cy="88.45" r="2.18" transform="translate(-14.22 158.73) rotate(-76.1)"/><circle class="cls-2" cx="94.82" cy="114.18" r="2.18" transform="translate(-38.8 178.79) rotate(-76.1)"/><circle class="cls-2" cx="108.72" cy="67.12" r="2.18" transform="translate(17.44 156.53) rotate(-76.1)"/><path class="cls-1" d="M78.65,58.95c1.6-4.93,3.68-9.89,7-9.33C98.22,51.75,106,68,102.94,85.75c-2,11.52-8.13,21.49-16.11,26a1.78,1.78,0,0,1-1,.23"/><path class="cls-1" d="M98.14,59.8c5.72-3.91,12-5.18,17.62-3.58,1.69.48,2.65,2.1,2.86,4.83.55,7-3.59,22.66-7.64,34.93-2.53,7.65-8.86,25.66-13,27.58a15.72,15.72,0,0,1-7.15,1,38.09,38.09,0,0,1-8.14-1.4"/><path class="cls-1" d="M88.61,49.74c.5-3.78,2.57-6.2,5.52-6.48A6.74,6.74,0,0,1,101,47.64c.89,2.68-.46,5.42-3.59,7.33"/><path class="cls-1" d="M101.34,48.79c.67-2.7,4.15-4.35,7.6-3.6s6.62,3.94,5.36,10.7"/><path class="cls-1" d="M82.76,50.6a7.24,7.24,0,0,1,1.11-4.55,6,6,0,0,0,.62-1.49,8.46,8.46,0,0,0-.22-2.16c-.26-1.43-.55-3,.33-4.44,1-1.64,2.88-2,4.36-2.34a7.89,7.89,0,0,0,1.7-.48A7,7,0,0,0,92,34a6.82,6.82,0,0,1,4-2.36,6.69,6.69,0,0,1,4,1.35,6.48,6.48,0,0,0,1.86.9,6.16,6.16,0,0,0,1.95-.29,7,7,0,0,1,4.23-.12,7,7,0,0,1,3.11,2.93,6.15,6.15,0,0,0,1.24,1.49,6.66,6.66,0,0,0,2,.6,6.59,6.59,0,0,1,3.88,1.75c1.22,1.39,1.24,3.18,1.25,4.63a7.44,7.44,0,0,0,.13,1.74,7.89,7.89,0,0,0,.75,1.48c.78,1.34,1.75,3,1.19,4.95-.44,1.52-1.77,2.37-2.94,3.13a8.06,8.06,0,0,0-1.78,1.38"/></svg>