<svg xmlns="http://www.w3.org/2000/svg" viewBox="0 0 300 191" width="300" height="191" preserveAspectRatio="xMinYMax meet"><defs><style>.cls-1{fill:#37aa7c;}.cls-2{opacity:0.1;}.cls-3{fill:#fff;}</style></defs><title>ZCW-arrows-pattern</title><path d="M0 0h300v191H0z" class="cls-1"/><g class="cls-2"><path d="M100.58 36.57v-9.45l-11.2-11.56v21h-11.8l17.4 29.67 17.4-29.66h-11.8zM125.3 56.78v9.45l11.2 9.63V56.78h11.8l-17.4-29.66-17.4 29.66h11.8z" class="cls-3"/></g><g class="cls-2"><path d="M250.57 36.57v-9.45l-11.2-11.56v21h-11.8l17.4 29.67 17.4-29.66h-11.8zM275.3 56.78v9.45l11.2 9.63V56.78h11.8l-17.4-29.66-17.4 29.66h11.8z" class="cls-3"/></g><g class="cls-2"><path d="M25.02 131.9v-9.45l-11.2-11.56v21H2.03l17.4 29.66 17.4-29.66h-11.8zM49.74 152.1v9.46l11.2 9.64v-19.1h11.8l-17.4-29.65-17.4 29.66h11.8z" class="cls-3"/></g><g class="cls-2"><path d="M175.02 131.9v-9.45l-11.2-11.56v21h-11.8l17.4 29.66 17.4-29.66h-11.8zM199.74 152.1v9.46l11.2 9.64v-19.1h11.8l-17.4-29.65-17.4 29.66h11.8z" class="cls-3"/></g></svg>