<svg id="Layer_1" data-name="Layer 1" xmlns="http://www.w3.org/2000/svg" viewBox="0 0 153.24 152.3"><defs><style>.cls-1{fill:none;stroke:#37aa7c;stroke-linejoin:round;stroke-width:4px;}.cls-2{fill:#37aa7c;}</style></defs><title>ZCW-icon-purebread</title><circle class="cls-1" cx="76.15" cy="76.15" r="71.6"/><path class="cls-1" d="M76.62,35a41.11,41.11,0,1,0,41.11,41.11A41.16,41.16,0,0,0,76.62,35Z"/><path class="cls-1" d="M76.62,89.71A13.56,13.56,0,1,1,90.18,76.15,13.58,13.58,0,0,1,76.62,89.71Z"/><path class="cls-1" d="M43.37,85.95c4.45,14.6,17.83,24.8,32.55,24.8"/><circle class="cls-2" cx="87.47" cy="46.32" r="1.36"/><circle class="cls-2" cx="94.25" cy="54.45" r="1.36"/><circle class="cls-2" cx="96.96" cy="58.52" r="1.36"/><circle class="cls-2" cx="103.74" cy="65.3" r="1.36"/><circle class="cls-2" cx="101.03" cy="72.08" r="1.36"/><circle class="cls-2" cx="106.46" cy="77.51" r="1.36"/><circle class="cls-2" cx="98.32" cy="82.93" r="1.36"/><circle class="cls-2" cx="106.46" cy="88.35" r="1.36"/><circle class="cls-2" cx="99.68" cy="92.42" r="1.36"/><circle class="cls-2" cx="94.25" cy="95.14" r="1.36"/><circle class="cls-2" cx="88.83" cy="97.85" r="1.36"/><circle class="cls-2" cx="73.91" cy="97.85" r="1.36"/><circle class="cls-2" cx="61.7" cy="95.14" r="1.36"/><circle class="cls-2" cx="53.57" cy="84.29" r="1.36"/><circle class="cls-2" cx="49.5" cy="73.44" r="1.36"/><circle class="cls-2" cx="49.5" cy="59.88" r="1.36"/><circle class="cls-2" cx="60.34" cy="53.1" r="1.36"/><circle class="cls-2" cx="53.57" cy="66.66" r="1.36"/><circle class="cls-2" cx="60.35" cy="59.88" r="1.36"/><circle class="cls-2" cx="64.42" cy="49.03" r="1.36"/><circle class="cls-2" cx="65.77" cy="101.92" r="1.36" transform="translate(-44.42 152.61) rotate(-81.87)"/><circle class="cls-2" cx="54.92" cy="93.78" r="1.36" transform="translate(-45.68 134.89) rotate(-81.87)"/><circle class="cls-2" cx="49.5" cy="80.22" r="1.36" transform="translate(-36.91 117.87) rotate(-81.87)"/><circle class="cls-2" cx="44.08" cy="76.15" r="1.36" transform="translate(-37.54 109.01) rotate(-81.87)"/><circle class="cls-2" cx="80.69" cy="103.27" r="1.36"/><circle class="cls-2" cx="75.27" cy="104.63" r="1.36"/><circle class="cls-2" cx="90.18" cy="104.63" r="1.36"/><circle class="cls-2" cx="84.76" cy="53.1" r="1.36"/><circle class="cls-2" cx="77.98" cy="47.67" r="1.36"/><circle class="cls-2" cx="73.91" cy="51.74" r="1.36"/></svg>