<svg xmlns="http://www.w3.org/2000/svg" viewBox="0 0 152.3 152.3"><defs><style>.cls-1{fill:#fff;}</style></defs><title>zcw-icon-pricing</title><path d="M68.83 68.4a2 2 0 0 0 1.4-.58L104 34.1l-2.83-2.84-32.34 32.32L51.15 45.9l-2.83 2.84 19.1 19.1a2 2 0 0 0 1.4.57zM15.92 132.13h120.83v4H15.92zM16.52 138.78h119.63v4H16.52zM17.7 145.44h117.27v4H17.7zM138.65 126.84l-13.65-41a2 2 0 0 0-1.9-1.37H29.18a2 2 0 0 0-1.9 1.37l-13.63 41a2 2 0 0 0 1.9 2.63h121.2a2 2 0 0 0 1.9-2.63zm-20.1-10.76a13.16 13.16 0 0 0-2.76 9.4H80.45c.8-.13 1.62-.27 2.4-.45a25.28 25.28 0 0 0 10.93-5.4c.32-.27.62-.55.9-.84 4-3.93 5.92-8.87 5.24-13.92-1.08-8.06-8.8-14.63-18.5-16.4h26c.1.14.17.3.26.44 2.18 4.25 7.4 7.75 13.43 9.24a22.52 22.52 0 0 0 4 .83l3.9 11.68a15.47 15.47 0 0 0-10.47 5.4zm-84.76 0a15.5 15.5 0 0 0-10.56-5.4l4-12v.13c6.1-.54 11.85-3.24 15.28-6.93a14 14 0 0 0 2.6-3.43H70.9c-9.7 1.8-17.42 8.35-18.5 16.42a16.12 16.12 0 0 0 5.22 13.9 15.16 15.16 0 0 0 1.6 1.44 25.66 25.66 0 0 0 10.2 4.8c.8.2 1.6.32 2.42.44H36.56a13.16 13.16 0 0 0-2.77-9.35zM76.16 92C86.27 92 95 97.88 96 105.42a12.27 12.27 0 0 1-4.05 10.5c-.24.24-.48.46-.75.7a21.28 21.28 0 0 1-9.2 4.52 26.4 26.4 0 0 1-11.63 0 21.7 21.7 0 0 1-8.63-4.06 11.62 11.62 0 0 1-1.26-1.12 12.25 12.25 0 0 1-4.07-10.53C57.4 97.88 66.08 92 76.18 92zm47.55 2.64c-.6-.1-1.2-.23-1.77-.38a23.38 23.38 0 0 1-9.52-5.77h9.25zm-93.1-6.14h9.58a11.4 11.4 0 0 1-1 1.1 22.42 22.42 0 0 1-10.6 5zm-8.68 26.1c3.75.26 6.84 1.67 8.72 4a9.2 9.2 0 0 1 1.88 6.9H18.32zm97.86 10.9a9.2 9.2 0 0 1 1.87-6.9c1.87-2.33 4.95-3.73 8.68-4l3.65 10.87zM71.88 110.2h-4c0 3.12 2.93 5.18 6.23 5.75v2.5h4v-2.5c3.63-.6 5.87-2.7 5.87-5.68 0-2.18-1.08-4.8-5.86-5.7v-2.82c.78.23 1.45.66 1.45 1.44h4c0-2.9-2.08-4.95-5.44-5.55v-2.47h-4v2.4c-4.2.56-5.77 3-5.77 5.33 0 1.66.8 4.36 5.78 5.2v3.77c-1.35-.4-2.22-1.12-2.22-1.67zm8.1.07c0 .9-.9 1.36-1.87 1.6v-3.23c1.9.5 1.9 1.36 1.9 1.63zm-7.65-7.37c0-.72.88-1.08 1.78-1.26V104c-1.1-.26-1.77-.66-1.77-1.1z" class="cls-1"/></svg>