<svg xmlns="http://www.w3.org/2000/svg" viewBox="0 0 152.3 152.3"><defs><style>.cls-1{fill:#fff;}</style></defs><title>zcw-icon-fast-car</title><path d="M93 59.77C79.65 50 67.73 45.5 55.56 45.5H41.43c-6.33 0-13.75 3-20.92 5.9-6.6 2.65-13.42 5.4-18.63 5.4H0v4h1.88c6 0 13.18-2.9 20.13-5.7s13.87-5.6 19.43-5.6h14.13c11.44 0 22.7 4.4 35.54 13.82a2 2 0 0 0 1 .38c13.5 1.3 29.27 6 29.27 15v12h-10.44a13.22 13.22 0 0 0-26.1 0H40.3a13.22 13.22 0 0 0-26.1 0H0v4h14.16a13.22 13.22 0 0 0 26.15 0h44.5a13.22 13.22 0 0 0 26.14 0h12.42a2 2 0 0 0 2-2v-14c0-3.7-2.36-15.92-32.36-18.93zM27.24 102a9.23 9.23 0 1 1 9.23-9.23 9.24 9.24 0 0 1-9.23 9.23zm70.63 0a9.23 9.23 0 1 1 9.23-9.23 9.24 9.24 0 0 1-9.23 9.23zM84.82 66.9l-1.48-3.73L78 65.3H38.6v4h39.83a2 2 0 0 0 .74-.15zM61.2 113.32h28.26v4H61.2zM44.26 113.32h11.3v4h-11.3zM25.7 31.4h24.24v4H25.7zM4.74 31.4h15.3v4H4.74z" class="cls-1"/></svg>