<svg xmlns="http://www.w3.org/2000/svg" viewBox="0 0 152.3 152.3"><defs><style>.cls-1{fill:#fff;}</style></defs><title>zcw-icon-code-laptop</title><path d="M53.3 46.26a6.45 6.45 0 0 1 6.45-6.44h87a6.43 6.43 0 0 1 4.25 1.6l2.63-3a10.43 10.43 0 0 0-6.87-2.6h-87A10.45 10.45 0 0 0 49.3 46.27v59.8H37.2a2 2 0 0 0-1.8 2.94c3.58 7 8.77 11 14.25 11H152.3v-4H49.64c-3.18 0-6.35-2.1-9-5.9H152.3v-4h-99zM64.92 50.83h4.2v4h-4.2zM64.92 58.9h4.2v4h-4.2zM64.92 66.95h4.2v4h-4.2zM64.92 75h4.2v4h-4.2zM64.92 83.07h4.2v4h-4.2zM64.92 91.13h4.2v4h-4.2zM80.75 50.83h13.58v4H80.75zM80.75 58.9h13.58v4H80.75zM103.82 66.95h13.58v4h-13.58zM103.82 50.83h6.8v4h-6.8zM103.82 58.9h30.43v4h-30.43zM126.9 66.95h6.78v4h-6.8zM80.75 75h13.58v4H80.75zM97.03 83.07h13.58v4H97.04zM103.82 91.13h13.58v4h-13.58zM80.75 83.07h6.8v4h-6.8zM103.82 75h30.43v4h-30.43zM126.9 91.13h6.78v4h-6.8z" class="cls-1"/></svg>