<svg xmlns="http://www.w3.org/2000/svg" viewBox="0 0 153.24 152.3"><defs><style>.cls-1{fill:#fff;}</style></defs><title>zcw-icon-company-network</title><path d="M52.5 92h4v7.26h-4zM52.5 76.44h4v7.26h-4zM52.5 106.8h4v7.25h-4zM41.4 92h4v7.26h-4zM41.4 76.44h4v7.26h-4zM52.5 61.04h4v7.26h-4zM41.4 61.04h4v7.26h-4zM41.4 106.8h4v7.25h-4zM105.52 86.75a20.07 20.07 0 0 0-17.08 9.56l-21.06-8.84V65l21.07-8.85a20.22 20.22 0 1 0-1.75-3.6l-19.32 8.13V33.35a2 2 0 0 0-3.13-1.65L30.15 55a2 2 0 0 0-.87 1.65v95.65h4V57.7l30.1-20.56V152.3h4V91.8l19.3 8.12a20.07 20.07 0 1 0 18.84-13.17zm-8.1-27.24v-3.36a5 5 0 0 1 5-5h6.2a5 5 0 0 1 5 5v3.38a15.94 15.94 0 0 1-16.2 0zm8.1-13.08a4.33 4.33 0 1 1 4.33-4.33 4.34 4.34 0 0 1-4.33 4.32zm0-16.86a16.06 16.06 0 0 1 12.1 26.65v-.06a9 9 0 0 0-5.94-8.45 8.33 8.33 0 1 0-12.3 0 9 9 0 0 0-5.95 8.44v.07a16.06 16.06 0 0 1 12.1-26.64zm-8.1 91.15v-3.36a5 5 0 0 1 5-5h6.2a5 5 0 0 1 5 5v3.38a15.94 15.94 0 0 1-16.2 0zm8.1-13.08a4.33 4.33 0 1 1 4.33-4.33 4.34 4.34 0 0 1-4.33 4.32zm12.1 9.78v-.07a9 9 0 0 0-5.94-8.45 8.33 8.33 0 1 0-12.3 0 9 9 0 0 0-5.95 8.45v.07a16.08 16.08 0 1 1 24.2 0z" class="cls-1"/></svg>