<svg id="Layer_1" data-name="Layer 1" xmlns="http://www.w3.org/2000/svg" viewBox="0 0 153.24 152.3"><defs><style>.cls-1{fill:none;stroke:#37aa7c;stroke-linejoin:round;stroke-width:4px;}</style></defs><title>ZCW-icon-libbys</title><circle class="cls-1" cx="76.15" cy="76.15" r="71.6"/><path class="cls-1" d="M106,33.51,84.67,54.83a5.91,5.91,0,0,0,0,8.36L94.44,73a5.92,5.92,0,0,0,8.36,0l21.63-21.63"/><path class="cls-1" d="M66.43,68.59a8.72,8.72,0,0,1-1.29,1.7,8.54,8.54,0,0,1-1.75,1.33A11,11,0,0,1,57.82,73h0c-5.32,0-11.35-2.86-16.14-7.65-7.83-7.83-10-18.35-4.94-23.45a10.06,10.06,0,0,1,7.31-2.71c5.31,0,11.35,2.86,16.14,7.65C67.24,53.88,69.72,63.09,66.43,68.59Z"/><line class="cls-1" x1="63.49" y1="68.65" x2="111.42" y2="116.58"/><line class="cls-1" x1="38.94" y1="118.79" x2="115.15" y2="42.57"/></svg>