<svg id="Layer_1" data-name="Layer 1" xmlns="http://www.w3.org/2000/svg" viewBox="0 0 153.24 152.3"><defs><style>.cls-1,.cls-2{fill:none;stroke:#104d63;stroke-linejoin:round;stroke-width:4px;}.cls-2{fill-rule:evenodd;}</style></defs><title>ZCW-icon-domaine-hudson</title><line class="cls-1" x1="53.86" y1="84.07" x2="46.75" y2="69.97"/><polyline class="cls-2" points="67.87 87.69 54.02 83.72 38.88 97.1"/><path class="cls-2" d="M30,104h0a7.28,7.28,0,0,0,1,.63,9.6,9.6,0,0,0,4.72.91,38.91,38.91,0,0,0,8.37-1.82,69,69,0,0,1,8.18-2,57.07,57.07,0,0,1,6.64-.58,46.17,46.17,0,0,0,5.79-.51,15,15,0,0,0,6.43-2.78A18.44,18.44,0,0,0,78,87.52"/><path class="cls-2" d="M78.7,89.86a19.08,19.08,0,0,1-2,11.1c-3.12,5.6-7.81,6.92-13.7,7.41-3.26.28-6.81.58-10.58,1.16a64.85,64.85,0,0,0-7.68,1.88,23,23,0,0,1-5.59,1.21,8.34,8.34,0,0,1-6.47-2.52c-2.78-2.85-3.65-7.42-3.77-11.28a10.79,10.79,0,0,1,1.14-5.23c.36-.72.76-1.39,1.19-2.12a36.64,36.64,0,0,0,3.38-7c1.75-4.9,1.88-9.5,2-14.23.12-4.35.2-8.54,4.49-11,3.13-1.79,7-1.42,10.2-.13a80.07,80.07,0,0,1,13.52,8.28,47.57,47.57,0,0,1,9.49,8.89C76.86,79.58,78.36,85.93,78.7,89.86Z"/><path class="cls-1" d="M99.41,80c11.66-1.07,20.92-14.86,20.92-31.67a44.56,44.56,0,0,0-1-9.53l-.25-1.14H76.86l-.25,1.14a44.44,44.44,0,0,0-1,9.53C75.59,65.17,84.85,79,96.51,80Zm20.79-28.24H75.71m8,.31c1.31,8.3,4.54,14.14,9.62,17.35M98,82v25m-14.77-.49h30"/><circle class="cls-1" cx="76.15" cy="76.15" r="71.6"/></svg>