<svg xmlns="http://www.w3.org/2000/svg" viewBox="0 0 81.26 99.69"><defs><style>.cls-1{fill:#fff;}</style></defs><title>ZCW-icon-people</title><g id="ZCW-icon-people.svg"><path d="M40.7 35.42a10.68 10.68 0 1 1 10.68-10.68A10.7 10.7 0 0 1 40.7 35.42zm0-17.36a6.68 6.68 0 1 0 6.68 6.68 6.7 6.7 0 0 0-6.68-6.7zM49.3 99.7h-4.44v-4h2.45V69.83a2 2 0 0 1 2-2h3.57l3-24.24-5.67-3.75 2.22-3.33L59.07 41a2 2 0 0 1 .88 1.9L56.62 70.1a2 2 0 0 1-2 1.76h-3.3V97.7a2 2 0 0 1-2 2zM36.54 99.7H32.1a2 2 0 0 1-2-2V71.83h-3.34a2 2 0 0 1-2-1.76l-3.3-27.22a2 2 0 0 1 .87-1.86L29 36.52l2.22 3.33-5.65 3.75 3 24.24h3.56a2 2 0 0 1 2 2V95.7h2.45zM19.26 21.36a10.68 10.68 0 1 1 10.68-10.68 10.7 10.7 0 0 1-10.68 10.68zm0-17.36a6.68 6.68 0 1 0 6.68 6.68A6.7 6.7 0 0 0 19.26 4zM62 21.36a10.68 10.68 0 1 1 10.68-10.68A10.7 10.7 0 0 1 62 21.36zM62 4a6.68 6.68 0 1 0 6.68 6.68A6.7 6.7 0 0 0 62 4zM70.6 84.12h-3.7v-4h1.7V54.27a2 2 0 0 1 2-2h3.56l3-24.24-5.66-3.75L73.72 21l6.65 4.43a2 2 0 0 1 .88 1.9l-3.33 27.18a2 2 0 0 1-2 1.77H72.6v25.85a2 2 0 0 1-2 2zM14.34 84.12h-3.7a2 2 0 0 1-2-2V56.27H5.33a2 2 0 0 1-2-1.76L0 27.3a2 2 0 0 1 .88-1.92L7.54 21l2.22 3.33L4.13 28l3 24.24h3.56a2 2 0 0 1 2 2v25.88h1.68z" class="cls-1"/></g></svg>