<svg xmlns="http://www.w3.org/2000/svg" width="319.542" height="350.969" viewBox="0 0 319.542 350.969"><g id="Group_10026" data-name="Group 10026" transform="translate(-882.465 -173.914)"><path id="Path_14847" data-name="Path 14847" d="M272.5,298.258a1,1,0,0,1-.46-.112l-21.6-11.227a2.42,2.42,0,0,1-.046-4.269l21.429-11.728a.42.42,0,0,0,0-.734L250.658,258.41a2.42,2.42,0,0,1-.07-4.188l29.788-17.9a7.229,7.229,0,0,1,7.272-.092l16.553,9.382a1,1,0,1,1-.986,1.74l-16.553-9.381a5.217,5.217,0,0,0-5.256.066l-29.787,17.894a.419.419,0,0,0,.011.726L272.8,268.44a2.419,2.419,0,0,1-.014,4.236L251.358,284.4a.42.42,0,0,0,.009.74l21.6,11.226a1,1,0,0,1-.462,1.888Z" transform="translate(633.324 140)" fill="#5793ce"></path><g id="Group_9908" data-name="Group 9908" transform="translate(633.324 140)"><g id="Group_9907" data-name="Group 9907"><g id="Group_9906" data-name="Group 9906"><g id="Group_9904" data-name="Group 9904"><rect id="Rectangle_451" data-name="Rectangle 451" width="5.362" height="11.57" transform="translate(277.561 297.81) rotate(119.831)" fill="#5793ce"></rect><path id="Path_14848" data-name="Path 14848" d="M264.3,295.481a4.191,4.191,0,0,1,1.886-3.289c1.045-.608,1.9-.12,1.9,1.089a4.188,4.188,0,0,1-1.886,3.288C265.152,297.177,264.3,296.689,264.3,295.481Z" fill="#5793ce"></path></g><g id="Group_9905" data-name="Group 9905"><rect id="Rectangle_452" data-name="Rectangle 452" width="8.688" height="18.146" transform="translate(292.376 304.389) rotate(119.831)" fill="#5793ce"></rect><path id="Path_14849" data-name="Path 14849" d="M275.91,296.863l-3.4-1.947a6.933,6.933,0,0,0-2.667,4.651l3.4,1.948A6.938,6.938,0,0,0,275.91,296.863Z" fill="#396caa"></path><path id="Path_14850" data-name="Path 14850" d="M271.408,300.913a6.786,6.786,0,0,1,3.056-5.329c1.693-.985,3.071-.2,3.076,1.764a6.786,6.786,0,0,1-3.056,5.329C272.791,303.662,271.413,302.872,271.408,300.913Z" fill="#5793ce"></path></g></g></g><ellipse id="Ellipse_9" data-name="Ellipse 9" cx="1.258" cy="0.726" rx="1.258" ry="0.726" transform="matrix(1, -0.003, 0.003, 1, 267.092, 293)" fill="#d4ecff"></ellipse></g><g id="Group_9970" data-name="Group 9970" transform="translate(633.324 140)"><g id="Group_9928" data-name="Group 9928"><g id="Group_9920" data-name="Group 9920"><g id="Group_9911" data-name="Group 9911"><path id="Path_14852" data-name="Path 14852" d="M340.385,225.472l-52.99-30.215c-1.938-1.119-1.695-3.074.543-4.366l30.489-17.6c2.238-1.292,5.623-1.433,7.561-.314l52.99,30.216c1.938,1.118,1.7,3.073-.543,4.365l-30.489,17.6C345.708,226.45,342.323,226.591,340.385,225.472Z" fill="#b2d3ea"></path><path id="Path_14853" data-name="Path 14853" d="M383.7,193.019h0V69.311l-49.18-12.872-9.059-5.23c-2.079-1.2-5.71-1.05-8.111.336l-8.451,4.88-26.231-.015,7.767,119.423a2.351,2.351,0,0,0,1.393,2.173l49.078,37.032c2.079,1.2,5.71,1.05,8.111-.336l32.708-18.884C383.112,195.019,383.78,193.983,383.7,193.019Z" fill="#396caa"></path><path id="Path_14854" data-name="Path 14854" d="M321.7,50.4a9.362,9.362,0,0,0-4.348,1.14l-8.451,4.88-26.231-.015V180.451a2.347,2.347,0,0,0,1.392,2.173l56.846,32.414a7.331,7.331,0,0,0,3.764.8l.586-124.816Z" fill="#d4ecff"></path><path id="Path_14855" data-name="Path 14855" d="M341.431,215.294a9.246,9.246,0,0,0,6.484-.074V89.551h-6.484Z" fill="#5793ce"></path><path id="Path_14856" data-name="Path 14856" d="M340.909,91.041,284.063,58.627c-2.079-1.2-1.818-3.3.583-4.683L317.353,35.06c2.4-1.386,6.032-1.536,8.111-.336L382.31,67.138c2.079,1.2,1.818,3.3-.582,4.683L349.02,90.705C346.619,92.091,342.988,92.241,340.909,91.041Z" fill="#d4ecff"></path><path id="Path_14857" data-name="Path 14857" d="M381.728,69.521,349.02,88.4c-2.4,1.386-6.032,1.536-8.111.336L284.063,56.327a3.149,3.149,0,0,1-1.037-.92c-.714,1.149-.39,2.4,1.037,3.22l56.846,32.414c2.079,1.2,5.71,1.05,8.111-.336l32.708-18.884c1.865-1.077,2.432-2.582,1.619-3.763A4.527,4.527,0,0,1,381.728,69.521Z" fill="#fafdff"></path><g id="Group_9910" data-name="Group 9910"><path id="Path_14858" data-name="Path 14858" d="M342.517,77.9,304.671,55.965c-.973-.561-.851-1.542.272-2.191l15.306-8.837a4.218,4.218,0,0,1,3.8-.157l37.847,21.939c.973.561.851,1.542-.273,2.191l-15.305,8.837A4.22,4.22,0,0,1,342.517,77.9Z" fill="#173d7a"></path><g id="Group_9909" data-name="Group 9909"><path id="Path_14859" data-name="Path 14859" d="M322.085,56.951l-2.193-1.267c-.135-.077-.118-.213.038-.3l2.117-1.222a.582.582,0,0,1,.525-.022l2.193,1.266c.135.078.118.214-.037.3l-2.118,1.223A.585.585,0,0,1,322.085,56.951Z" fill="#d4ecff"></path><path id="Path_14860" data-name="Path 14860" d="M329.412,61.164,327.219,59.9c-.135-.077-.118-.213.037-.3l2.118-1.222a.582.582,0,0,1,.525-.022l2.193,1.266c.135.078.118.213-.038.3l-2.117,1.223A.585.585,0,0,1,329.412,61.164Z" fill="#d4ecff"></path><path id="Path_14861" data-name="Path 14861" d="M336.738,65.377l-2.193-1.267c-.134-.077-.117-.213.038-.3l2.118-1.223a.585.585,0,0,1,.525-.021l2.193,1.266c.134.078.118.213-.038.3l-2.117,1.223A.59.59,0,0,1,336.738,65.377Z" fill="#d4ecff"></path><path id="Path_14862" data-name="Path 14862" d="M344.065,69.589l-2.193-1.266c-.135-.078-.118-.213.038-.3l2.117-1.223a.587.587,0,0,1,.526-.021l2.193,1.266c.134.077.117.213-.038.3l-2.118,1.223A.585.585,0,0,1,344.065,69.589Z" fill="#d4ecff"></path></g><path id="Path_14863" data-name="Path 14863" d="M304.671,55.965l.044.026a2.677,2.677,0,0,1,.228-.156L320.249,47a4.218,4.218,0,0,1,3.8-.157l37.8,21.912c.9-.642.944-1.515.045-2.034L324.044,44.78a4.218,4.218,0,0,0-3.8.157l-15.306,8.837C303.82,54.423,303.7,55.4,304.671,55.965Z" fill="#5793ce"></path></g></g><g id="Group_9913" data-name="Group 9913"><path id="Path_14864" data-name="Path 14864" d="M355.406,115.55l21.519-12.32a5.25,5.25,0,0,0,2.192-4.189v-7.7c0-1.614-.981-2.356-2.192-1.657l-21.519,12.32a5.251,5.251,0,0,0-2.192,4.19v7.695C353.214,115.507,354.2,116.249,355.406,115.55Z" fill="#173d7a"></path><path id="Path_14865" data-name="Path 14865" d="M377.99,89.456a2.15,2.15,0,0,1,.55,1.6v7.695a5.252,5.252,0,0,1-2.192,4.189l-21.519,12.321a1.581,1.581,0,0,1-1.065.232,1.307,1.307,0,0,0,1.642.056l21.519-12.32a5.25,5.25,0,0,0,2.192-4.189v-7.7C379.117,90.249,378.659,89.57,377.99,89.456Z" fill="#fff"></path><g id="Group_9912" data-name="Group 9912"><path id="Path_14866" data-name="Path 14866" d="M361.878,107.191l1.974-1.14a1.143,1.143,0,0,0,.478-.913V103.03c0-.352-.214-.514-.478-.362l-1.974,1.14a1.144,1.144,0,0,0-.478.913v2.109C361.4,107.182,361.614,107.343,361.878,107.191Z" fill="#396caa"></path><path id="Path_14867" data-name="Path 14867" d="M368.479,103.38l1.974-1.139a1.146,1.146,0,0,0,.477-.914V99.219c0-.352-.213-.514-.477-.361L368.479,100a1.146,1.146,0,0,0-.478.913v2.109C368,103.371,368.215,103.533,368.479,103.38Z" fill="#fff"></path></g></g><g id="Group_9915" data-name="Group 9915"><path id="Path_14868" data-name="Path 14868" d="M355.406,171.157l21.519-12.32a5.252,5.252,0,0,0,2.192-4.19v-7.7c0-1.614-.981-2.357-2.192-1.657l-21.519,12.32a5.25,5.25,0,0,0-2.192,4.189V169.5C353.214,171.114,354.2,171.856,355.406,171.157Z" fill="#173d7a"></path><path id="Path_14869" data-name="Path 14869" d="M377.99,145.063a2.15,2.15,0,0,1,.55,1.6v7.695a5.253,5.253,0,0,1-2.192,4.189l-21.519,12.321a1.586,1.586,0,0,1-1.065.232,1.309,1.309,0,0,0,1.642.056l21.519-12.32a5.251,5.251,0,0,0,2.192-4.19v-7.7C379.117,145.856,378.659,145.176,377.99,145.063Z" fill="#fff"></path><g id="Group_9914" data-name="Group 9914"><path id="Path_14870" data-name="Path 14870" d="M361.878,162.8l1.974-1.14a1.143,1.143,0,0,0,.478-.913v-2.108c0-.353-.214-.514-.478-.362l-1.974,1.14a1.144,1.144,0,0,0-.478.913v2.108C361.4,162.788,361.614,162.95,361.878,162.8Z" fill="#396caa"></path><path id="Path_14871" data-name="Path 14871" d="M368.479,158.987l1.974-1.14a1.143,1.143,0,0,0,.477-.913v-2.108c0-.352-.213-.514-.477-.361l-1.974,1.139a1.143,1.143,0,0,0-.478.913v2.109C368,158.978,368.215,159.139,368.479,158.987Z" fill="#fff"></path></g></g><g id="Group_9917" data-name="Group 9917"><path id="Path_14872" data-name="Path 14872" d="M355.406,198.96l21.519-12.32a5.25,5.25,0,0,0,2.192-4.189v-7.7c0-1.615-.981-2.357-2.192-1.658l-21.519,12.32a5.252,5.252,0,0,0-2.192,4.19V197.3C353.214,198.917,354.2,199.659,355.406,198.96Z" fill="#173d7a"></path><path id="Path_14873" data-name="Path 14873" d="M377.99,172.866a2.15,2.15,0,0,1,.55,1.6v7.7a5.252,5.252,0,0,1-2.192,4.189l-21.519,12.321a1.581,1.581,0,0,1-1.065.232,1.307,1.307,0,0,0,1.642.056l21.519-12.32a5.25,5.25,0,0,0,2.192-4.189v-7.7C379.117,173.659,378.659,172.98,377.99,172.866Z" fill="#fff"></path><g id="Group_9916" data-name="Group 9916"><path id="Path_14874" data-name="Path 14874" d="M361.878,190.6l1.974-1.14a1.143,1.143,0,0,0,.478-.913V186.44c0-.352-.214-.514-.478-.361l-1.974,1.139a1.145,1.145,0,0,0-.478.913v2.109C361.4,190.592,361.614,190.753,361.878,190.6Z" fill="#396caa"></path><path id="Path_14875" data-name="Path 14875" d="M368.479,186.79l1.974-1.139a1.144,1.144,0,0,0,.477-.913v-2.109c0-.352-.213-.514-.477-.361l-1.974,1.139a1.147,1.147,0,0,0-.478.914v2.108C368,186.781,368.215,186.943,368.479,186.79Z" fill="#fff"></path></g></g><g id="Group_9919" data-name="Group 9919"><path id="Path_14876" data-name="Path 14876" d="M355.406,143.354l21.519-12.321a5.249,5.249,0,0,0,2.192-4.189v-7.695c0-1.615-.981-2.357-2.192-1.658l-21.519,12.321A5.249,5.249,0,0,0,353.214,134V141.7C353.214,143.311,354.2,144.053,355.406,143.354Z" fill="#173d7a"></path><path id="Path_14877" data-name="Path 14877" d="M377.99,117.259a2.15,2.15,0,0,1,.55,1.6v7.7a5.253,5.253,0,0,1-2.192,4.189l-21.519,12.32a1.575,1.575,0,0,1-1.065.232,1.308,1.308,0,0,0,1.642.057l21.519-12.321a5.25,5.25,0,0,0,2.192-4.189v-7.695C379.117,118.053,378.659,117.373,377.99,117.259Z" fill="#fff"></path><g id="Group_9918" data-name="Group 9918"><path id="Path_14878" data-name="Path 14878" d="M361.878,134.994l1.974-1.139a1.147,1.147,0,0,0,.478-.914v-2.108c0-.352-.214-.514-.478-.361l-1.974,1.139a1.147,1.147,0,0,0-.478.913v2.109C361.4,134.985,361.614,135.147,361.878,134.994Z" fill="#396caa"></path><path id="Path_14879" data-name="Path 14879" d="M368.479,131.184l1.974-1.14a1.143,1.143,0,0,0,.477-.913v-2.109c0-.351-.213-.513-.477-.361l-1.974,1.14a1.143,1.143,0,0,0-.478.913v2.108C368,131.174,368.215,131.336,368.479,131.184Z" fill="#fff"></path></g></g></g><g id="Group_9921" data-name="Group 9921"><path id="Path_14880" data-name="Path 14880" d="M336.769,107.673,287.124,79.01a4.814,4.814,0,0,1-2.012-3.844V65.7c0-1.482.9-2.163,2.012-1.521l49.645,28.662a4.82,4.82,0,0,1,2.011,3.845v9.466C338.78,107.633,337.88,108.315,336.769,107.673Z" fill="#5793ce"></path><path id="Path_14881" data-name="Path 14881" d="M335.343,104.354,288.549,77.337a2.445,2.445,0,0,1-1.021-1.95V68.27c0-.752.457-1.1,1.021-.772l46.794,27.017a2.444,2.444,0,0,1,1.021,1.95v7.117C336.364,104.334,335.907,104.679,335.343,104.354Z" fill="#d4ecff" opacity="0.4"></path><path id="Path_14882" data-name="Path 14882" d="M298.3,79.369l-6.984-4.032a2.375,2.375,0,0,1-.991-1.894h0c0-.729.444-1.065.991-.749l6.984,4.032a2.375,2.375,0,0,1,.991,1.894h0C299.292,79.35,298.848,79.685,298.3,79.369Z" fill="#d4ecff"></path><ellipse id="Ellipse_10" data-name="Ellipse 10" cx="0.935" cy="1.619" rx="0.935" ry="1.619" transform="matrix(0.866, -0.5, 0.5, 0.866, 301.488, 79.888)" fill="#173d7a"></ellipse><path id="Path_14883" data-name="Path 14883" d="M308.29,83.815c0,.73-.513,1.026-1.145.661A2.532,2.532,0,0,1,306,82.493c0-.73.513-1.026,1.145-.661A2.532,2.532,0,0,1,308.29,83.815Z" fill="#173d7a"></path><path id="Path_14884" data-name="Path 14884" d="M312.328,86.146c0,.73-.513,1.026-1.145.661a2.531,2.531,0,0,1-1.145-1.982c0-.73.513-1.026,1.145-.661A2.53,2.53,0,0,1,312.328,86.146Z" fill="#d4ecff"></path><path id="Path_14885" data-name="Path 14885" d="M316.365,88.477c0,.73-.512,1.026-1.144.661a2.53,2.53,0,0,1-1.145-1.982c0-.73.513-1.026,1.145-.661A2.529,2.529,0,0,1,316.365,88.477Z" fill="#173d7a"></path><path id="Path_14886" data-name="Path 14886" d="M333.375,100.391l-2.352-1.359a1.523,1.523,0,0,1-.636-1.215V95.328c0-.468.285-.683.636-.481l2.352,1.358a1.522,1.522,0,0,1,.636,1.216V99.91C334.011,100.378,333.727,100.593,333.375,100.391Z" fill="#173d7a"></path></g><g id="Group_9922" data-name="Group 9922"><path id="Path_14887" data-name="Path 14887" d="M336.769,124.366,287.124,95.7a4.818,4.818,0,0,1-2.012-3.845V82.393c0-1.482.9-2.163,2.012-1.521l49.645,28.662a4.82,4.82,0,0,1,2.011,3.845v9.466C338.78,124.327,337.88,125.008,336.769,124.366Z" fill="#5793ce"></path><path id="Path_14888" data-name="Path 14888" d="M335.343,121.047,288.549,94.03a2.445,2.445,0,0,1-1.021-1.95V84.963c0-.752.457-1.1,1.021-.772l46.794,27.017a2.445,2.445,0,0,1,1.021,1.95v7.117C336.364,121.027,335.907,121.372,335.343,121.047Z" fill="#d4ecff" opacity="0.4"></path><path id="Path_14889" data-name="Path 14889" d="M298.3,96.063l-6.984-4.032a2.375,2.375,0,0,1-.991-1.894h0c0-.73.444-1.066.991-.75l6.984,4.032a2.375,2.375,0,0,1,.991,1.894h0C299.292,96.043,298.848,96.379,298.3,96.063Z" fill="#d4ecff"></path><path id="Path_14890" data-name="Path 14890" d="M304.252,98.177c0,.73-.513,1.026-1.145.661a2.531,2.531,0,0,1-1.144-1.983c0-.73.512-1.026,1.144-.661A2.532,2.532,0,0,1,304.252,98.177Z" fill="#fff"></path><path id="Path_14891" data-name="Path 14891" d="M308.29,100.508c0,.73-.513,1.026-1.145.661A2.532,2.532,0,0,1,306,99.186c0-.729.513-1.025,1.145-.66A2.53,2.53,0,0,1,308.29,100.508Z" fill="#173d7a"></path><path id="Path_14892" data-name="Path 14892" d="M312.328,102.839c0,.73-.513,1.026-1.145.661a2.53,2.53,0,0,1-1.145-1.982c0-.73.513-1.026,1.145-.661A2.53,2.53,0,0,1,312.328,102.839Z" fill="#d4ecff"></path><ellipse id="Ellipse_11" data-name="Ellipse 11" cx="0.935" cy="1.619" rx="0.935" ry="1.619" transform="matrix(0.866, -0.5, 0.5, 0.866, 313.602, 103.575)" fill="#173d7a"></ellipse><path id="Path_14893" data-name="Path 14893" d="M333.375,117.084l-2.352-1.358a1.525,1.525,0,0,1-.636-1.216v-2.489c0-.468.285-.683.636-.48l2.352,1.358a1.52,1.52,0,0,1,.636,1.215V116.6C334.011,117.071,333.727,117.287,333.375,117.084Z" fill="#173d7a"></path></g><g id="Group_9923" data-name="Group 9923"><path id="Path_14894" data-name="Path 14894" d="M336.769,141.059,287.124,112.4a4.817,4.817,0,0,1-2.012-3.844V99.086c0-1.481.9-2.162,2.012-1.521l49.645,28.663a4.816,4.816,0,0,1,2.011,3.844v9.466C338.78,141.02,337.88,141.7,336.769,141.059Z" fill="#5793ce"></path><path id="Path_14895" data-name="Path 14895" d="M335.343,137.74l-46.794-27.017a2.444,2.444,0,0,1-1.021-1.95v-7.117c0-.752.457-1.1,1.021-.772L335.343,127.9a2.446,2.446,0,0,1,1.021,1.951v7.116C336.364,137.72,335.907,138.066,335.343,137.74Z" fill="#d4ecff" opacity="0.4"></path><path id="Path_14896" data-name="Path 14896" d="M298.3,112.756l-6.984-4.032a2.375,2.375,0,0,1-.991-1.894h0c0-.73.444-1.066.991-.749l6.984,4.031a2.375,2.375,0,0,1,.991,1.894h0C299.292,112.736,298.848,113.072,298.3,112.756Z" fill="#d4ecff"></path><path id="Path_14897" data-name="Path 14897" d="M304.252,114.87c0,.73-.513,1.026-1.145.661a2.531,2.531,0,0,1-1.144-1.983c0-.73.512-1.025,1.144-.661A2.533,2.533,0,0,1,304.252,114.87Z" fill="#fff"></path><path id="Path_14898" data-name="Path 14898" d="M308.29,117.2c0,.73-.513,1.026-1.145.661A2.53,2.53,0,0,1,306,115.88c0-.73.513-1.026,1.145-.661A2.53,2.53,0,0,1,308.29,117.2Z" fill="#173d7a"></path><path id="Path_14899" data-name="Path 14899" d="M312.328,119.532c0,.73-.513,1.026-1.145.661a2.53,2.53,0,0,1-1.145-1.982c0-.73.513-1.026,1.145-.661A2.531,2.531,0,0,1,312.328,119.532Z" fill="#d4ecff"></path><path id="Path_14900" data-name="Path 14900" d="M316.365,121.864c0,.73-.512,1.026-1.144.661a2.532,2.532,0,0,1-1.145-1.983c0-.73.513-1.026,1.145-.661A2.531,2.531,0,0,1,316.365,121.864Z" fill="#173d7a"></path><path id="Path_14901" data-name="Path 14901" d="M333.375,133.777l-2.352-1.358a1.525,1.525,0,0,1-.636-1.216v-2.488c0-.469.285-.684.636-.481l2.352,1.358a1.522,1.522,0,0,1,.636,1.215V133.3C334.011,133.764,333.727,133.98,333.375,133.777Z" fill="#173d7a"></path></g><g id="Group_9924" data-name="Group 9924"><path id="Path_14902" data-name="Path 14902" d="M336.769,157.753,287.124,129.09a4.817,4.817,0,0,1-2.012-3.844v-9.467c0-1.481.9-2.162,2.012-1.521l49.645,28.663a4.818,4.818,0,0,1,2.011,3.844v9.466C338.78,157.713,337.88,158.394,336.769,157.753Z" fill="#5793ce"></path><path id="Path_14903" data-name="Path 14903" d="M335.343,154.433l-46.794-27.017a2.442,2.442,0,0,1-1.021-1.95v-7.117c0-.751.457-1.1,1.021-.771L335.343,144.6a2.442,2.442,0,0,1,1.021,1.95v7.117C336.364,154.413,335.907,154.759,335.343,154.433Z" fill="#d4ecff" opacity="0.4"></path><path id="Path_14904" data-name="Path 14904" d="M298.3,129.449l-6.984-4.032a2.375,2.375,0,0,1-.991-1.894h0c0-.73.444-1.065.991-.749l6.984,4.032a2.375,2.375,0,0,1,.991,1.894h0C299.292,129.43,298.848,129.765,298.3,129.449Z" fill="#d4ecff"></path><path id="Path_14905" data-name="Path 14905" d="M304.252,131.563c0,.73-.513,1.026-1.145.661a2.53,2.53,0,0,1-1.144-1.982c0-.73.512-1.026,1.144-.661A2.53,2.53,0,0,1,304.252,131.563Z" fill="#173d7a"></path><ellipse id="Ellipse_12" data-name="Ellipse 12" cx="0.935" cy="1.619" rx="0.935" ry="1.619" transform="matrix(0.866, -0.5, 0.5, 0.866, 305.526, 132.299)" fill="#173d7a"></ellipse><path id="Path_14906" data-name="Path 14906" d="M312.328,136.226c0,.73-.513,1.026-1.145.661a2.533,2.533,0,0,1-1.145-1.983c0-.73.513-1.026,1.145-.661A2.532,2.532,0,0,1,312.328,136.226Z" fill="#d4ecff"></path><path id="Path_14907" data-name="Path 14907" d="M316.365,138.557c0,.73-.512,1.026-1.144.661a2.532,2.532,0,0,1-1.145-1.983c0-.73.513-1.025,1.145-.66A2.529,2.529,0,0,1,316.365,138.557Z" fill="#173d7a"></path><path id="Path_14908" data-name="Path 14908" d="M333.375,150.47l-2.352-1.358a1.524,1.524,0,0,1-.636-1.215v-2.489c0-.469.285-.684.636-.481l2.352,1.358a1.522,1.522,0,0,1,.636,1.215v2.489C334.011,150.458,333.727,150.673,333.375,150.47Z" fill="#d4ecff"></path></g><g id="Group_9925" data-name="Group 9925"><path id="Path_14909" data-name="Path 14909" d="M336.769,174.446l-49.645-28.663a4.814,4.814,0,0,1-2.012-3.844v-9.467c0-1.481.9-2.162,2.012-1.52l49.645,28.662a4.819,4.819,0,0,1,2.011,3.844v9.467C338.78,174.406,337.88,175.087,336.769,174.446Z" fill="#5793ce"></path><path id="Path_14910" data-name="Path 14910" d="M335.343,171.127,288.549,144.11a2.446,2.446,0,0,1-1.021-1.951v-7.117c0-.751.457-1.1,1.021-.771l46.794,27.017a2.442,2.442,0,0,1,1.021,1.95v7.117C336.364,171.106,335.907,171.452,335.343,171.127Z" fill="#d4ecff" opacity="0.4"></path><path id="Path_14911" data-name="Path 14911" d="M298.3,146.142l-6.984-4.032a2.375,2.375,0,0,1-.991-1.894h0c0-.73.444-1.065.991-.749L298.3,143.5a2.375,2.375,0,0,1,.991,1.894h0C299.292,146.123,298.848,146.458,298.3,146.142Z" fill="#d4ecff"></path><path id="Path_14912" data-name="Path 14912" d="M304.252,148.256c0,.73-.513,1.026-1.145.661a2.529,2.529,0,0,1-1.144-1.982c0-.73.512-1.026,1.144-.661A2.53,2.53,0,0,1,304.252,148.256Z" fill="#173d7a"></path><path id="Path_14913" data-name="Path 14913" d="M308.29,150.588c0,.73-.513,1.025-1.145.66A2.53,2.53,0,0,1,306,149.266c0-.73.513-1.026,1.145-.661A2.532,2.532,0,0,1,308.29,150.588Z" fill="#fff"></path><path id="Path_14914" data-name="Path 14914" d="M312.328,152.919c0,.73-.513,1.026-1.145.661a2.532,2.532,0,0,1-1.145-1.983c0-.73.513-1.025,1.145-.661A2.532,2.532,0,0,1,312.328,152.919Z" fill="#d4ecff"></path><path id="Path_14915" data-name="Path 14915" d="M316.365,155.25c0,.73-.512,1.026-1.144.661a2.531,2.531,0,0,1-1.145-1.982c0-.73.513-1.026,1.145-.661A2.529,2.529,0,0,1,316.365,155.25Z" fill="#fff"></path><path id="Path_14916" data-name="Path 14916" d="M333.375,167.163l-2.352-1.358a1.524,1.524,0,0,1-.636-1.215V162.1c0-.469.285-.684.636-.481l2.352,1.358a1.522,1.522,0,0,1,.636,1.216v2.488C334.011,167.151,333.727,167.366,333.375,167.163Z" fill="#d4ecff"></path></g><g id="Group_9926" data-name="Group 9926"><path id="Path_14917" data-name="Path 14917" d="M336.769,191.139l-49.645-28.663a4.814,4.814,0,0,1-2.012-3.844v-9.466c0-1.482.9-2.163,2.012-1.521l49.645,28.662a4.819,4.819,0,0,1,2.011,3.844v9.467C338.78,191.1,337.88,191.78,336.769,191.139Z" fill="#5793ce"></path><path id="Path_14918" data-name="Path 14918" d="M335.343,187.82,288.549,160.8a2.446,2.446,0,0,1-1.021-1.951v-7.116c0-.752.457-1.1,1.021-.772l46.794,27.017a2.444,2.444,0,0,1,1.021,1.95v7.117C336.364,187.8,335.907,188.145,335.343,187.82Z" fill="#d4ecff" opacity="0.4"></path><path id="Path_14919" data-name="Path 14919" d="M298.3,162.835l-6.984-4.032a2.375,2.375,0,0,1-.991-1.894h0c0-.729.444-1.065.991-.749l6.984,4.032a2.375,2.375,0,0,1,.991,1.894h0C299.292,162.816,298.848,163.151,298.3,162.835Z" fill="#d4ecff"></path><ellipse id="Ellipse_13" data-name="Ellipse 13" cx="0.935" cy="1.619" rx="0.935" ry="1.619" transform="matrix(0.866, -0.5, 0.5, 0.866, 301.488, 163.354)" fill="#173d7a"></ellipse><path id="Path_14920" data-name="Path 14920" d="M308.29,167.281c0,.73-.513,1.026-1.145.661A2.532,2.532,0,0,1,306,165.959c0-.73.513-1.026,1.145-.661A2.532,2.532,0,0,1,308.29,167.281Z" fill="#173d7a"></path><path id="Path_14921" data-name="Path 14921" d="M312.328,169.612c0,.73-.513,1.026-1.145.661a2.532,2.532,0,0,1-1.145-1.983c0-.73.513-1.025,1.145-.66A2.53,2.53,0,0,1,312.328,169.612Z" fill="#d4ecff"></path><path id="Path_14922" data-name="Path 14922" d="M316.365,171.943c0,.73-.512,1.026-1.144.661a2.53,2.53,0,0,1-1.145-1.982c0-.73.513-1.026,1.145-.661A2.529,2.529,0,0,1,316.365,171.943Z" fill="#173d7a"></path><path id="Path_14923" data-name="Path 14923" d="M333.375,183.856l-2.352-1.358a1.523,1.523,0,0,1-.636-1.215v-2.489c0-.468.285-.684.636-.481l2.352,1.358a1.522,1.522,0,0,1,.636,1.216v2.489C334.011,183.844,333.727,184.059,333.375,183.856Z" fill="#173d7a"></path></g><g id="Group_9927" data-name="Group 9927"><path id="Path_14924" data-name="Path 14924" d="M336.769,207.832l-49.645-28.663a4.814,4.814,0,0,1-2.012-3.844v-9.466c0-1.482.9-2.163,2.012-1.521L336.769,193a4.82,4.82,0,0,1,2.011,3.845v9.466C338.78,207.793,337.88,208.474,336.769,207.832Z" fill="#5793ce"></path><path id="Path_14925" data-name="Path 14925" d="M335.343,204.513,288.549,177.5a2.445,2.445,0,0,1-1.021-1.95v-7.117c0-.752.457-1.1,1.021-.772l46.794,27.017a2.444,2.444,0,0,1,1.021,1.95v7.117C336.364,204.493,335.907,204.838,335.343,204.513Z" fill="#d4ecff" opacity="0.4"></path><path id="Path_14926" data-name="Path 14926" d="M298.3,179.528l-6.984-4.032a2.373,2.373,0,0,1-.991-1.893h0c0-.73.444-1.066.991-.75l6.984,4.032a2.375,2.375,0,0,1,.991,1.894h0C299.292,179.509,298.848,179.845,298.3,179.528Z" fill="#d4ecff"></path><path id="Path_14927" data-name="Path 14927" d="M305.528,182.546c0,1.379-.968,1.938-2.162,1.248a4.777,4.777,0,0,1-2.162-3.744c0-1.379.968-1.938,2.162-1.248A4.777,4.777,0,0,1,305.528,182.546Z" fill="#fff"></path><path id="Path_14928" data-name="Path 14928" d="M313.891,187.44c0,.73-.512,1.026-1.144.661a2.531,2.531,0,0,1-1.145-1.982c0-.73.513-1.026,1.145-.661A2.529,2.529,0,0,1,313.891,187.44Z" fill="#173d7a"></path><path id="Path_14929" data-name="Path 14929" d="M317.929,189.771c0,.73-.512,1.026-1.144.661a2.53,2.53,0,0,1-1.145-1.982c0-.73.513-1.026,1.145-.661A2.529,2.529,0,0,1,317.929,189.771Z" fill="#d4ecff"></path><path id="Path_14930" data-name="Path 14930" d="M321.967,192.1c0,.73-.512,1.025-1.144.661a2.531,2.531,0,0,1-1.145-1.983c0-.73.512-1.026,1.145-.661A2.531,2.531,0,0,1,321.967,192.1Z" fill="#173d7a"></path><path id="Path_14931" data-name="Path 14931" d="M333.375,200.55l-2.352-1.358a1.525,1.525,0,0,1-.636-1.216v-2.489c0-.468.285-.683.636-.481l2.352,1.358a1.522,1.522,0,0,1,.636,1.216v2.489C334.011,200.537,333.727,200.753,333.375,200.55Z" fill="#d4ecff"></path></g></g><path id="Path_14932" data-name="Path 14932" d="M333.473,249.748a.993.993,0,0,1-.493-.131l-56.436-32.073a2.188,2.188,0,0,1-.032-3.786l24.211-14.288a2.828,2.828,0,0,0,1.384-2.425V181.3a1,1,0,1,1,2,0v15.747a4.838,4.838,0,0,1-2.367,4.147L277.529,215.48a.189.189,0,0,0,0,.326l56.436,32.073a1,1,0,0,1-.495,1.869Z" fill="#5793ce"></path><g id="Group_9933" data-name="Group 9933"><g id="Group_9932" data-name="Group 9932"><g id="Group_9931" data-name="Group 9931"><g id="Group_9929" data-name="Group 9929"><rect id="Rectangle_453" data-name="Rectangle 453" width="5.361" height="11.57" transform="translate(325.39 241.197) rotate(119.831)" fill="#5793ce"></rect><path id="Path_14933" data-name="Path 14933" d="M312.128,238.867a4.187,4.187,0,0,1,1.886-3.289c1.045-.607,1.895-.12,1.9,1.089a4.187,4.187,0,0,1-1.886,3.289C312.981,240.563,312.131,240.076,312.128,238.867Z" fill="#5793ce"></path></g><g id="Group_9930" data-name="Group 9930"><rect id="Rectangle_454" data-name="Rectangle 454" width="8.688" height="18.146" transform="matrix(-0.497, 0.867, -0.867, -0.497, 340.206, 247.775)" fill="#5793ce"></rect><path id="Path_14934" data-name="Path 14934" d="M323.739,240.25l-3.4-1.948a6.939,6.939,0,0,0-2.668,4.651l3.4,1.948A6.935,6.935,0,0,0,323.739,240.25Z" fill="#396caa"></path><path id="Path_14935" data-name="Path 14935" d="M319.237,244.3a6.789,6.789,0,0,1,3.056-5.329c1.693-.984,3.071-.194,3.077,1.764a6.792,6.792,0,0,1-3.056,5.33C320.62,247.048,319.243,246.258,319.237,244.3Z" fill="#5793ce"></path></g></g></g><path id="Path_14936" data-name="Path 14936" d="M315.294,237.625a.541.541,0,0,1,0-1.026,1.965,1.965,0,0,1,1.778-.006.542.542,0,0,1,0,1.027A1.965,1.965,0,0,1,315.294,237.625Z" fill="#d4ecff"></path></g><g id="Group_9938" data-name="Group 9938"><g id="Group_9937" data-name="Group 9937"><g id="Group_9936" data-name="Group 9936"><g id="Group_9934" data-name="Group 9934"><rect id="Rectangle_455" data-name="Rectangle 455" width="5.362" height="11.57" transform="translate(313.186 248.572) rotate(119.831)" fill="#5793ce"></rect><path id="Path_14937" data-name="Path 14937" d="M299.923,246.243a4.191,4.191,0,0,1,1.886-3.289c1.045-.608,1.9-.12,1.9,1.089a4.19,4.19,0,0,1-1.886,3.289C300.777,247.939,299.927,247.452,299.923,246.243Z" fill="#5793ce"></path></g><g id="Group_9935" data-name="Group 9935"><rect id="Rectangle_456" data-name="Rectangle 456" width="8.688" height="18.146" transform="matrix(-0.497, 0.868, -0.868, -0.497, 328.001, 255.151)" fill="#5793ce"></rect><path id="Path_14938" data-name="Path 14938" d="M311.535,247.626l-3.4-1.948a6.935,6.935,0,0,0-2.667,4.651l3.4,1.948A6.937,6.937,0,0,0,311.535,247.626Z" fill="#396caa"></path><path id="Path_14939" data-name="Path 14939" d="M307.033,251.675a6.786,6.786,0,0,1,3.056-5.329c1.693-.985,3.071-.195,3.076,1.764a6.786,6.786,0,0,1-3.056,5.329C308.416,254.424,307.038,253.634,307.033,251.675Z" fill="#5793ce"></path></g></g></g><path id="Path_14940" data-name="Path 14940" d="M303.089,245a.542.542,0,0,1,0-1.027,1.967,1.967,0,0,1,1.779-.005.542.542,0,0,1,0,1.027A1.967,1.967,0,0,1,303.089,245Z" fill="#d4ecff"></path></g><g id="Group_9954" data-name="Group 9954"><path id="Path_14941" data-name="Path 14941" d="M505.551,159.924a.98.98,0,0,1-.226-.026,1,1,0,0,1-.75-1.2l9.753-42.343a1,1,0,1,1,1.949.45l-9.753,42.342A1,1,0,0,1,505.551,159.924Z" fill="#5793ce"></path><path id="Path_14942" data-name="Path 14942" d="M492.588,156.938a.987.987,0,0,1-.226-.026,1,1,0,0,1-.75-1.2l9.753-42.342a1,1,0,0,1,1.95.449l-9.753,42.342A1,1,0,0,1,492.588,156.938Z" fill="#5793ce"></path><path id="Path_14943" data-name="Path 14943" d="M479.624,153.952a1.043,1.043,0,0,1-.226-.025,1,1,0,0,1-.75-1.2l9.753-42.342a1,1,0,0,1,1.95.449L480.6,153.177A1,1,0,0,1,479.624,153.952Z" fill="#5793ce"></path><g id="Group_9943" data-name="Group 9943"><g id="Group_9942" data-name="Group 9942"><g id="Group_9941" data-name="Group 9941"><g id="Group_9939" data-name="Group 9939"><rect id="Rectangle_457" data-name="Rectangle 457" width="5.362" height="11.57" transform="translate(484.455 120.517) rotate(13.191)" fill="#5793ce"></rect><path id="Path_14944" data-name="Path 14944" d="M486.021,133.891a4.189,4.189,0,0,1-3.691-.865,1.155,1.155,0,0,1,.5-2.131,4.189,4.189,0,0,1,3.691.865A1.155,1.155,0,0,1,486.021,133.891Z" fill="#5793ce"></path></g><g id="Group_9940" data-name="Group 9940"><rect id="Rectangle_458" data-name="Rectangle 458" width="8.688" height="18.146" transform="matrix(0.974, 0.228, -0.228, 0.974, 486.516, 104.438)" fill="#5793ce"></rect><path id="Path_14945" data-name="Path 14945" d="M484.021,122.37l-.894,3.812a6.934,6.934,0,0,0,5.22,1.223l.894-3.812A6.937,6.937,0,0,0,484.021,122.37Z" fill="#396caa"></path><path id="Path_14946" data-name="Path 14946" d="M489.19,125.524a6.787,6.787,0,0,1-5.981-1.4c-1.428-1.341-1.066-2.887.809-3.453a6.787,6.787,0,0,1,5.981,1.4C491.427,123.412,491.065,124.958,489.19,125.524Z" fill="#5793ce"></path></g></g></g><path id="Path_14947" data-name="Path 14947" d="M483.925,131.213a.542.542,0,0,1-.983.3,1.965,1.965,0,0,1-.515-1.7c.13-.553.57-.686.983-.3A1.965,1.965,0,0,1,483.925,131.213Z" fill="#d4ecff"></path></g><g id="Group_9948" data-name="Group 9948"><g id="Group_9947" data-name="Group 9947"><g id="Group_9946" data-name="Group 9946"><g id="Group_9944" data-name="Group 9944"><rect id="Rectangle_459" data-name="Rectangle 459" width="5.361" height="11.57" transform="translate(496.475 127.674) rotate(13.191)" fill="#5793ce"></rect><path id="Path_14948" data-name="Path 14948" d="M498.041,141.048a4.186,4.186,0,0,1-3.691-.865,1.155,1.155,0,0,1,.5-2.131,4.192,4.192,0,0,1,3.691.865A1.155,1.155,0,0,1,498.041,141.048Z" fill="#5793ce"></path></g><g id="Group_9945" data-name="Group 9945"><rect id="Rectangle_460" data-name="Rectangle 460" width="8.688" height="18.146" transform="translate(498.536 111.595) rotate(13.192)" fill="#5793ce"></rect><path id="Path_14949" data-name="Path 14949" d="M496.041,129.527l-.894,3.812a6.935,6.935,0,0,0,5.22,1.224l.894-3.812A6.938,6.938,0,0,0,496.041,129.527Z" fill="#396caa"></path><path id="Path_14950" data-name="Path 14950" d="M501.21,132.682a6.793,6.793,0,0,1-5.981-1.4c-1.428-1.341-1.066-2.887.809-3.454a6.79,6.79,0,0,1,5.981,1.4C503.448,130.569,503.085,132.115,501.21,132.682Z" fill="#5793ce"></path></g></g></g><path id="Path_14951" data-name="Path 14951" d="M495.945,138.371a.542.542,0,0,1-.983.3,1.967,1.967,0,0,1-.515-1.7.542.542,0,0,1,.983-.3A1.967,1.967,0,0,1,495.945,138.371Z" fill="#d4ecff"></path></g><g id="Group_9953" data-name="Group 9953"><g id="Group_9952" data-name="Group 9952"><g id="Group_9951" data-name="Group 9951"><g id="Group_9949" data-name="Group 9949"><rect id="Rectangle_461" data-name="Rectangle 461" width="5.361" height="11.57" transform="translate(508.63 134.777) rotate(13.191)" fill="#5793ce"></rect><path id="Path_14952" data-name="Path 14952" d="M510.2,148.151a4.19,4.19,0,0,1-3.691-.865,1.155,1.155,0,0,1,.5-2.131,4.19,4.19,0,0,1,3.691.865A1.155,1.155,0,0,1,510.2,148.151Z" fill="#5793ce"></path></g><g id="Group_9950" data-name="Group 9950"><rect id="Rectangle_462" data-name="Rectangle 462" width="8.688" height="18.146" transform="translate(510.69 118.698) rotate(13.192)" fill="#5793ce"></rect><path id="Path_14953" data-name="Path 14953" d="M508.2,136.63l-.893,3.812a6.938,6.938,0,0,0,5.22,1.224l.893-3.813A6.936,6.936,0,0,0,508.2,136.63Z" fill="#396caa"></path><path id="Path_14954" data-name="Path 14954" d="M513.364,139.784a6.79,6.79,0,0,1-5.981-1.4c-1.428-1.341-1.066-2.887.81-3.453a6.787,6.787,0,0,1,5.981,1.4C515.6,137.672,515.24,139.217,513.364,139.784Z" fill="#5793ce"></path></g></g></g><path id="Path_14955" data-name="Path 14955" d="M508.1,145.473a.542.542,0,0,1-.983.3,1.961,1.961,0,0,1-.514-1.7.542.542,0,0,1,.983-.3A1.967,1.967,0,0,1,508.1,145.473Z" fill="#d4ecff"></path></g></g><g id="Group_9960" data-name="Group 9960"><g id="Group_9956" data-name="Group 9956"><path id="Path_14956" data-name="Path 14956" d="M425.982,346.556,309.84,279.5c-3.285-1.9-2.873-5.21.92-7.4l79.084-45.644c3.794-2.191,9.533-2.428,12.819-.532L518.8,292.98c3.285,1.9,2.873,5.21-.921,7.4L438.8,346.025C435.006,348.215,429.268,348.453,425.982,346.556Z" fill="#b2d3ea"></path><path id="Path_14957" data-name="Path 14957" d="M546.007,174.194,429.865,107.139a4.692,4.692,0,0,0-3.936-.482l.007-.012-.211.08-.051.019-4.2,1.606,3.767,1.844c-.017.07-.039.135-.054.205l-18.918,86.113c-.946,4.309.949,9.34,4.235,11.237l113.349,65.442-.4,4.8,4.587-1.777a6.447,6.447,0,0,0,3.285-4.673l18.918-86.112C551.188,181.122,549.292,176.091,546.007,174.194Z" fill="#173d7a"></path><path id="Path_14958" data-name="Path 14958" d="M546.007,174.194,429.865,107.139a4.692,4.692,0,0,0-3.936-.482l.007-.012-.211.08-.051.019-4.2,1.606,3.767,1.844c-.017.07-.039.135-.054.205l-12.468,56.754,56.827,44.273,80.127-32.6A9.024,9.024,0,0,0,546.007,174.194Z" fill="#396caa"></path><path id="Path_14959" data-name="Path 14959" d="M541.628,187.431l8.841-3.764a11.076,11.076,0,0,0-3.582-8.853L532.892,180.7Z" fill="#274f89"></path><path id="Path_14960" data-name="Path 14960" d="M519.417,277.538,403.275,210.483c-3.286-1.9-5.182-6.928-4.235-11.237l18.917-86.112c.947-4.31,4.378-6.266,7.664-4.369L541.763,175.82c3.285,1.9,5.181,6.928,4.234,11.237L527.08,273.17C526.133,277.479,522.7,279.435,519.417,277.538Z" fill="#d4ecff"></path><path id="Path_14961" data-name="Path 14961" d="M516.9,271.133,407.67,208.1c-3.007-1.736-4.742-6.34-3.875-10.283l17.311-78.8c.866-3.944,4.006-5.733,7.012-4l109.23,63.032c3.006,1.736,4.741,6.34,3.875,10.284l-17.312,78.8C523.045,271.079,519.906,272.869,516.9,271.133Z" fill="#fff"></path><path id="Path_14962" data-name="Path 14962" d="M516.9,271.133,407.67,208.1c-3.007-1.736-4.742-6.34-3.875-10.283l17.311-78.8c.866-3.944,4.006-5.733,7.012-4l109.23,63.032c3.006,1.736,4.741,6.34,3.875,10.284l-17.312,78.8C523.045,271.079,519.906,272.869,516.9,271.133Z" fill="#fff"></path><path id="Path_14963" data-name="Path 14963" d="M521.02,280.458l-15.876-2.1L402.663,219.194c-3.286-1.9-9.025-1.659-12.819.531l-72.618,41.911-9.6-1.267v5.447h.009a3.738,3.738,0,0,0,2.2,3.364l116.142,67.055c3.286,1.9,9.024,1.659,12.818-.531l79.084-45.644c2.135-1.233,3.2-2.82,3.136-4.311h0Z" fill="#173d7a"></path><path id="Path_14964" data-name="Path 14964" d="M444.019,243.071l-7.281-4.2H356.689l-39.463,22.768-9.6-1.267v5.447h.009a3.738,3.738,0,0,0,2.2,3.364l116.142,67.055a12.02,12.02,0,0,0,6.615,1.24Z" fill="#396caa"></path><path id="Path_14965" data-name="Path 14965" d="M311.887,260.931l-4.26-.562v5.447h.009a3.738,3.738,0,0,0,2.2,3.364l2.047,1.182Z" fill="#5793ce"></path><path id="Path_14966" data-name="Path 14966" d="M427.152,336.779a14.876,14.876,0,0,0,10.891-.676V323.954H427.152Z" fill="#274f89"></path><path id="Path_14967" data-name="Path 14967" d="M425.982,330.8,309.84,263.741c-3.285-1.9-2.873-5.21.92-7.4L389.844,210.7c3.794-2.19,9.533-2.428,12.819-.531L518.8,277.22c3.285,1.9,2.873,5.21-.921,7.4L438.8,330.264C435.006,332.454,429.268,332.692,425.982,330.8Z" fill="#d4ecff"></path><path id="Path_14968" data-name="Path 14968" d="M517.884,282.631,438.8,328.275c-3.794,2.19-9.532,2.428-12.818.531L309.84,261.752a4.323,4.323,0,0,1-2.042-2.235c-.514,1.554.141,3.126,2.042,4.224L425.982,330.8c3.286,1.9,9.024,1.659,12.818-.532l79.084-45.644c2.55-1.472,3.565-3.45,2.963-5.166A6.174,6.174,0,0,1,517.884,282.631Z" fill="#fff"></path><g id="Group_9955" data-name="Group 9955"><path id="Path_14969" data-name="Path 14969" d="M359.237,241.542l-5.255-3.034c-.422-.244-.369-.669.118-.951l6.2-3.581a1.829,1.829,0,0,1,1.646-.068l5.255,3.034c.422.244.369.669-.118.95l-6.2,3.582A1.832,1.832,0,0,1,359.237,241.542Z" fill="#173d7a"></path><path id="Path_14970" data-name="Path 14970" d="M367.352,246.227l-5.255-3.034c-.422-.243-.369-.669.118-.95l6.2-3.581a1.829,1.829,0,0,1,1.646-.069l5.255,3.034c.422.244.369.67-.118.951l-6.2,3.581A1.829,1.829,0,0,1,367.352,246.227Z" fill="#173d7a"></path><path id="Path_14971" data-name="Path 14971" d="M375.467,250.913l-5.255-3.035c-.422-.243-.369-.669.119-.95l6.2-3.581a1.829,1.829,0,0,1,1.646-.068l5.255,3.034c.422.243.369.669-.118.95l-6.2,3.581A1.829,1.829,0,0,1,375.467,250.913Z" fill="#173d7a"></path><path id="Path_14972" data-name="Path 14972" d="M386.691,247.043l-5.255-3.034c-.422-.243-.369-.669.118-.95l5.207-3.006a1.826,1.826,0,0,1,1.646-.068l5.255,3.033c.422.244.369.67-.118.951l-5.207,3.006A1.829,1.829,0,0,1,386.691,247.043Z" fill="#173d7a"></path><path id="Path_14973" data-name="Path 14973" d="M394.806,251.729l-5.255-3.034c-.421-.244-.369-.67.119-.951l5.206-3.006a1.831,1.831,0,0,1,1.647-.068l5.254,3.034c.422.243.37.669-.118.95l-5.206,3.006A1.831,1.831,0,0,1,394.806,251.729Z" fill="#173d7a"></path><path id="Path_14974" data-name="Path 14974" d="M402.922,256.414l-5.255-3.034c-.422-.244-.369-.669.118-.95l5.207-3.007a1.829,1.829,0,0,1,1.646-.068l5.255,3.034c.422.244.369.669-.118.951l-5.207,3.006A1.832,1.832,0,0,1,402.922,256.414Z" fill="#173d7a"></path><path id="Path_14975" data-name="Path 14975" d="M411.037,261.1l-5.255-3.034c-.422-.243-.369-.669.118-.95l5.207-3.006a1.829,1.829,0,0,1,1.646-.069l5.255,3.034c.422.244.369.67-.118.951l-5.207,3.006A1.829,1.829,0,0,1,411.037,261.1Z" fill="#173d7a"></path><path id="Path_14976" data-name="Path 14976" d="M419.152,265.784l-5.255-3.033c-.422-.244-.369-.669.118-.951l5.207-3.006a1.829,1.829,0,0,1,1.646-.068l5.255,3.034c.422.243.369.669-.118.95l-5.207,3.006A1.826,1.826,0,0,1,419.152,265.784Z" fill="#173d7a"></path><path id="Path_14977" data-name="Path 14977" d="M427.267,270.47l-5.255-3.034c-.422-.244-.369-.669.119-.951l5.206-3.006a1.831,1.831,0,0,1,1.647-.068l5.254,3.034c.422.244.369.669-.118.951l-5.207,3.006A1.832,1.832,0,0,1,427.267,270.47Z" fill="#173d7a"></path><path id="Path_14978" data-name="Path 14978" d="M435.383,275.155l-5.255-3.034c-.422-.243-.369-.669.118-.95l5.207-3.006a1.829,1.829,0,0,1,1.646-.069l5.255,3.034c.422.244.369.67-.118.951l-5.207,3.006A1.829,1.829,0,0,1,435.383,275.155Z" fill="#173d7a"></path><path id="Path_14979" data-name="Path 14979" d="M443.5,279.841l-5.255-3.034c-.422-.244-.369-.669.118-.951l5.207-3.006a1.829,1.829,0,0,1,1.646-.068l5.255,3.034c.422.243.369.669-.118.95l-5.207,3.006A1.829,1.829,0,0,1,443.5,279.841Z" fill="#173d7a"></path><path id="Path_14980" data-name="Path 14980" d="M451.613,284.526l-5.255-3.034c-.422-.244-.369-.669.118-.951l5.207-3.006a1.832,1.832,0,0,1,1.646-.068l5.255,3.034c.422.244.369.669-.118.95l-5.207,3.007A1.829,1.829,0,0,1,451.613,284.526Z" fill="#173d7a"></path><path id="Path_14981" data-name="Path 14981" d="M459.728,289.211l-5.255-3.034c-.422-.243-.369-.669.119-.95l5.206-3.006a1.826,1.826,0,0,1,1.646-.068l5.255,3.033c.422.244.369.669-.118.951l-5.207,3.006A1.829,1.829,0,0,1,459.728,289.211Z" fill="#173d7a"></path><path id="Path_14982" data-name="Path 14982" d="M398.648,244.825l-5.255-3.034c-.421-.244-.369-.669.119-.95l5.206-3.006a1.831,1.831,0,0,1,1.647-.069l5.255,3.034c.421.244.369.669-.119.951l-5.206,3.006A1.831,1.831,0,0,1,398.648,244.825Z" fill="#396caa"></path><path id="Path_14983" data-name="Path 14983" d="M390.412,240.07l-5.255-3.034c-.422-.244-.369-.669.118-.951l5.207-3.006a1.829,1.829,0,0,1,1.646-.068l5.255,3.034c.422.244.369.669-.118.95L392.058,240A1.832,1.832,0,0,1,390.412,240.07Z" fill="#396caa"></path><path id="Path_14984" data-name="Path 14984" d="M382.162,235.307l-11.318-6.535c-.422-.243-.369-.669.119-.95l5.206-3.006a1.831,1.831,0,0,1,1.647-.069l11.317,6.535c.422.243.369.669-.118.95l-5.207,3.006A1.829,1.829,0,0,1,382.162,235.307Z" fill="#173d7a"></path><path id="Path_14985" data-name="Path 14985" d="M387.929,229.514l-9.185-5.3c-.422-.243-.369-.669.118-.95l5.207-3.006a1.829,1.829,0,0,1,1.646-.068l9.185,5.3c.422.244.369.669-.118.951l-5.207,3.006A1.829,1.829,0,0,1,387.929,229.514Z" fill="#173d7a"></path><path id="Path_14986" data-name="Path 14986" d="M406.764,249.51l-5.255-3.034c-.422-.243-.369-.669.118-.95l5.207-3.006a1.826,1.826,0,0,1,1.646-.068l5.255,3.033c.422.244.369.67-.118.951l-5.207,3.006A1.829,1.829,0,0,1,406.764,249.51Z" fill="#396caa"></path><path id="Path_14987" data-name="Path 14987" d="M414.879,254.2l-5.255-3.034c-.422-.244-.369-.669.118-.951l5.207-3.006a1.829,1.829,0,0,1,1.646-.068l5.255,3.034c.422.243.369.669-.118.95l-5.207,3.006A1.829,1.829,0,0,1,414.879,254.2Z" fill="#173d7a"></path><path id="Path_14988" data-name="Path 14988" d="M422.994,258.881l-5.255-3.034c-.422-.244-.369-.669.118-.95l5.207-3.007a1.832,1.832,0,0,1,1.646-.068l5.255,3.034c.422.244.369.669-.118.951l-5.207,3.006A1.829,1.829,0,0,1,422.994,258.881Z" fill="#173d7a"></path><path id="Path_14989" data-name="Path 14989" d="M431.109,263.566l-5.255-3.034c-.421-.243-.369-.669.119-.95l5.206-3.006a1.828,1.828,0,0,1,1.647-.068l5.255,3.033c.421.244.369.67-.119.951l-5.206,3.006A1.831,1.831,0,0,1,431.109,263.566Z" fill="#173d7a"></path><path id="Path_14990" data-name="Path 14990" d="M439.225,268.252l-5.255-3.034c-.422-.244-.369-.669.118-.951l5.207-3.006a1.829,1.829,0,0,1,1.646-.068l5.255,3.034c.422.243.369.669-.118.95l-5.207,3.006A1.829,1.829,0,0,1,439.225,268.252Z" fill="#173d7a"></path><path id="Path_14991" data-name="Path 14991" d="M447.34,272.937l-5.255-3.034c-.422-.244-.369-.669.118-.95l5.207-3.006a1.829,1.829,0,0,1,1.646-.069l5.255,3.034c.422.244.369.669-.118.951l-5.207,3.006A1.829,1.829,0,0,1,447.34,272.937Z" fill="#173d7a"></path><path id="Path_14992" data-name="Path 14992" d="M455.455,277.622l-5.255-3.034c-.422-.243-.369-.669.118-.95l5.207-3.006a1.829,1.829,0,0,1,1.646-.068l5.255,3.034c.422.243.369.669-.118.95l-5.207,3.006A1.829,1.829,0,0,1,455.455,277.622Z" fill="#173d7a"></path><path id="Path_14993" data-name="Path 14993" d="M463.57,282.308l-5.255-3.034c-.421-.244-.369-.669.119-.951l5.206-3.006a1.831,1.831,0,0,1,1.647-.068l5.255,3.034c.421.243.369.669-.119.95l-5.206,3.006A1.831,1.831,0,0,1,463.57,282.308Z" fill="#173d7a"></path><path id="Path_14994" data-name="Path 14994" d="M471.686,286.993l-5.255-3.034c-.422-.244-.369-.669.118-.95L471.756,280a1.829,1.829,0,0,1,1.646-.069l5.255,3.034c.422.244.369.669-.118.951l-5.207,3.006A1.829,1.829,0,0,1,471.686,286.993Z" fill="#173d7a"></path><path id="Path_14995" data-name="Path 14995" d="M486.113,295.323l-11.466-6.62c-.422-.244-.369-.669.118-.951l5.207-3.006a1.829,1.829,0,0,1,1.646-.068l11.466,6.62c.422.243.369.669-.118.95l-5.207,3.006A1.832,1.832,0,0,1,486.113,295.323Z" fill="#173d7a"></path><path id="Path_14996" data-name="Path 14996" d="M501.912,286.2l-9.678-5.588c-.421-.243-.369-.669.119-.95l5.206-3.006a1.831,1.831,0,0,1,1.647-.068l9.677,5.587c.422.244.369.669-.118.95l-5.207,3.006A1.829,1.829,0,0,1,501.912,286.2Z" fill="#173d7a"></path><path id="Path_14997" data-name="Path 14997" d="M420.975,248.594l-5.255-3.034c-.422-.244-.369-.67.118-.951l5.207-3.006a1.829,1.829,0,0,1,1.646-.068l5.255,3.034c.422.243.369.669-.118.95l-5.207,3.006A1.829,1.829,0,0,1,420.975,248.594Z" fill="#173d7a"></path><path id="Path_14998" data-name="Path 14998" d="M412.658,243.792l-5.255-3.034c-.422-.244-.369-.669.118-.951l5.207-3.006a1.829,1.829,0,0,1,1.646-.068l5.255,3.034c.422.244.369.669-.118.95l-5.207,3.006A1.829,1.829,0,0,1,412.658,243.792Z" fill="#173d7a"></path><path id="Path_14999" data-name="Path 14999" d="M404.341,238.99l-5.255-3.034c-.422-.244-.369-.669.118-.951L404.411,232a1.832,1.832,0,0,1,1.646-.068l5.255,3.034c.422.244.369.669-.118.95l-5.207,3.007A1.832,1.832,0,0,1,404.341,238.99Z" fill="#396caa"></path><path id="Path_15000" data-name="Path 15000" d="M396.024,234.188l-5.255-3.034c-.422-.244-.369-.669.118-.95l5.207-3.007a1.832,1.832,0,0,1,1.646-.068l5.255,3.034c.422.244.369.669-.118.95l-5.207,3.007A1.829,1.829,0,0,1,396.024,234.188Z" fill="#173d7a"></path><path id="Path_15001" data-name="Path 15001" d="M429.09,253.279l-5.254-3.034c-.422-.244-.369-.669.118-.95l5.207-3.007a1.832,1.832,0,0,1,1.646-.068l5.255,3.034c.422.244.369.669-.119.95l-5.206,3.007A1.834,1.834,0,0,1,429.09,253.279Z" fill="#173d7a"></path><path id="Path_15002" data-name="Path 15002" d="M437.206,257.964l-5.255-3.034c-.422-.243-.369-.669.118-.95l5.207-3.006a1.829,1.829,0,0,1,1.646-.068l5.255,3.034c.422.243.369.669-.118.95l-5.207,3.006A1.829,1.829,0,0,1,437.206,257.964Z" fill="#173d7a"></path><path id="Path_15003" data-name="Path 15003" d="M445.321,262.65l-5.255-3.034c-.422-.244-.369-.669.118-.951l5.207-3.006a1.829,1.829,0,0,1,1.646-.068l5.255,3.034c.422.243.369.669-.118.95l-5.207,3.006A1.829,1.829,0,0,1,445.321,262.65Z" fill="#173d7a"></path><path id="Path_15004" data-name="Path 15004" d="M453.436,267.335l-5.255-3.034c-.422-.244-.369-.669.118-.95l5.207-3.007a1.832,1.832,0,0,1,1.646-.068l5.255,3.034c.422.244.369.669-.118.951l-5.207,3.006A1.832,1.832,0,0,1,453.436,267.335Z" fill="#173d7a"></path><path id="Path_15005" data-name="Path 15005" d="M461.551,272.02l-5.255-3.034c-.421-.243-.369-.669.119-.95l5.206-3.006a1.831,1.831,0,0,1,1.647-.069L468.523,268c.421.243.369.669-.119.95l-5.206,3.006A1.831,1.831,0,0,1,461.551,272.02Z" fill="#173d7a"></path><path id="Path_15006" data-name="Path 15006" d="M469.667,276.706l-5.255-3.034c-.422-.244-.369-.669.118-.951l5.207-3.006a1.829,1.829,0,0,1,1.646-.068l5.255,3.034c.422.243.369.669-.118.95l-5.207,3.006A1.829,1.829,0,0,1,469.667,276.706Z" fill="#173d7a"></path><path id="Path_15007" data-name="Path 15007" d="M477.782,281.391l-5.255-3.034c-.422-.244-.369-.669.118-.95l5.207-3.007a1.832,1.832,0,0,1,1.646-.068l5.255,3.034c.422.244.369.669-.118.951l-5.207,3.006A1.829,1.829,0,0,1,477.782,281.391Z" fill="#173d7a"></path><path id="Path_15008" data-name="Path 15008" d="M485.9,286.076l-5.255-3.034c-.422-.243-.369-.669.118-.95l5.207-3.006a1.832,1.832,0,0,1,1.646-.069l5.255,3.034c.422.244.369.67-.118.951l-5.207,3.006A1.829,1.829,0,0,1,485.9,286.076Z" fill="#173d7a"></path><path id="Path_15009" data-name="Path 15009" d="M494.012,290.762l-5.255-3.034c-.421-.244-.369-.669.119-.951l5.206-3.006a1.831,1.831,0,0,1,1.647-.068l5.255,3.034c.421.243.369.669-.119.95l-5.206,3.006A1.831,1.831,0,0,1,494.012,290.762Z" fill="#173d7a"></path><path id="Path_15010" data-name="Path 15010" d="M416.7,237.005l-5.255-3.034c-.422-.244-.369-.669.118-.951l5.207-3.006a1.829,1.829,0,0,1,1.646-.068l5.255,3.034c.422.244.369.669-.118.95l-5.207,3.006A1.829,1.829,0,0,1,416.7,237.005Z" fill="#173d7a"></path><path id="Path_15011" data-name="Path 15011" d="M408.627,232.343l-5.255-3.034c-.422-.244-.369-.669.118-.951l5.207-3.006a1.829,1.829,0,0,1,1.646-.068l5.255,3.034c.422.243.369.669-.118.95l-5.207,3.006A1.829,1.829,0,0,1,408.627,232.343Z" fill="#173d7a"></path><path id="Path_15012" data-name="Path 15012" d="M400.552,227.681l-5.255-3.034c-.422-.244-.369-.669.119-.951l5.206-3.006a1.829,1.829,0,0,1,1.646-.068l5.255,3.034c.422.243.369.669-.118.95l-5.207,3.006A1.829,1.829,0,0,1,400.552,227.681Z" fill="#173d7a"></path><path id="Path_15013" data-name="Path 15013" d="M392.477,223.019l-5.255-3.034c-.421-.244-.369-.669.119-.951l5.206-3.006a1.831,1.831,0,0,1,1.647-.068l5.255,3.034c.421.243.369.669-.119.95l-5.206,3.006A1.831,1.831,0,0,1,392.477,223.019Z" fill="#173d7a"></path><path id="Path_15014" data-name="Path 15014" d="M400.781,218.225l-5.255-3.034c-.422-.244-.369-.669.118-.951l1.721-.994a1.832,1.832,0,0,1,1.646-.068l5.255,3.034c.422.244.369.669-.118.951l-1.721.993A1.829,1.829,0,0,1,400.781,218.225Z" fill="#173d7a"></path><path id="Path_15015" data-name="Path 15015" d="M411.319,224.309l-5.255-3.034c-.422-.244-.369-.67.118-.951l1.721-.993a1.829,1.829,0,0,1,1.646-.069L414.8,222.3c.422.244.369.669-.118.951l-1.721.993A1.829,1.829,0,0,1,411.319,224.309Z" fill="#173d7a"></path><path id="Path_15016" data-name="Path 15016" d="M419.36,228.951l-5.255-3.034c-.422-.243-.369-.669.118-.95l1.721-.994a1.829,1.829,0,0,1,1.646-.068l5.255,3.034c.422.243.369.669-.118.95l-1.721.994A1.829,1.829,0,0,1,419.36,228.951Z" fill="#173d7a"></path><path id="Path_15017" data-name="Path 15017" d="M427.4,233.594l-5.255-3.034c-.422-.244-.369-.669.118-.951l1.721-.993a1.831,1.831,0,0,1,1.647-.069l5.255,3.034c.421.244.369.67-.119.951l-1.721.993A1.829,1.829,0,0,1,427.4,233.594Z" fill="#173d7a"></path><path id="Path_15018" data-name="Path 15018" d="M435.442,238.236l-5.255-3.034c-.422-.243-.369-.669.118-.95l1.722-.994a1.829,1.829,0,0,1,1.646-.068l5.255,3.034c.422.244.369.669-.118.95l-1.722.994A1.829,1.829,0,0,1,435.442,238.236Z" fill="#173d7a"></path><path id="Path_15019" data-name="Path 15019" d="M480.335,264.155l-5.255-3.034c-.422-.243-.369-.669.118-.95l1.722-.994a1.829,1.829,0,0,1,1.646-.068l5.255,3.034c.422.244.369.669-.118.95l-1.722.994A1.829,1.829,0,0,1,480.335,264.155Z" fill="#173d7a"></path><path id="Path_15020" data-name="Path 15020" d="M488.376,268.8l-5.255-3.034c-.422-.244-.369-.669.119-.95l1.721-.994a1.829,1.829,0,0,1,1.646-.068l5.255,3.033c.422.244.369.67-.118.951l-1.722.994A1.832,1.832,0,0,1,488.376,268.8Z" fill="#173d7a"></path><path id="Path_15021" data-name="Path 15021" d="M496.418,273.441l-5.255-3.034c-.422-.244-.369-.67.118-.951l1.721-.994a1.832,1.832,0,0,1,1.646-.068l5.255,3.034c.422.244.369.669-.118.95l-1.721.994A1.829,1.829,0,0,1,496.418,273.441Z" fill="#173d7a"></path><path id="Path_15022" data-name="Path 15022" d="M504.459,278.083l-5.255-3.034c-.422-.243-.369-.669.118-.95l1.721-.994a1.829,1.829,0,0,1,1.646-.068l5.255,3.034c.422.243.369.669-.118.95l-1.721.994A1.829,1.829,0,0,1,504.459,278.083Z" fill="#173d7a"></path><path id="Path_15023" data-name="Path 15023" d="M424.817,241.69l-5.255-3.034c-.422-.243-.369-.669.119-.95l5.206-3.006a1.829,1.829,0,0,1,1.646-.069l5.255,3.034c.422.244.369.669-.118.951l-5.207,3.006A1.829,1.829,0,0,1,424.817,241.69Z" fill="#173d7a"></path><path id="Path_15024" data-name="Path 15024" d="M432.933,246.375l-5.255-3.034c-.422-.243-.369-.669.118-.95L433,239.385a1.829,1.829,0,0,1,1.646-.068l5.255,3.034c.422.243.369.669-.119.95l-5.206,3.006A1.829,1.829,0,0,1,432.933,246.375Z" fill="#173d7a"></path><path id="Path_15025" data-name="Path 15025" d="M441.048,251.061l-5.255-3.034c-.422-.244-.369-.669.118-.951l5.207-3.006a1.829,1.829,0,0,1,1.646-.068l5.255,3.034c.422.244.369.669-.118.95l-5.207,3.007A1.832,1.832,0,0,1,441.048,251.061Z" fill="#173d7a"></path><path id="Path_15026" data-name="Path 15026" d="M449.163,255.746l-5.255-3.034c-.422-.244-.369-.669.118-.95l5.207-3.007a1.832,1.832,0,0,1,1.646-.068l5.255,3.034c.422.244.369.669-.118.951l-5.207,3.006A1.829,1.829,0,0,1,449.163,255.746Z" fill="#173d7a"></path><path id="Path_15027" data-name="Path 15027" d="M457.278,260.431l-5.255-3.034c-.422-.243-.369-.669.118-.95l5.207-3.006a1.829,1.829,0,0,1,1.646-.068l5.255,3.034c.422.243.369.669-.118.95l-5.207,3.006A1.829,1.829,0,0,1,457.278,260.431Z" fill="#173d7a"></path><path id="Path_15028" data-name="Path 15028" d="M465.394,265.117l-5.255-3.034c-.422-.244-.369-.669.118-.951l5.207-3.006a1.829,1.829,0,0,1,1.646-.068l5.255,3.034c.422.244.369.669-.119.95l-5.206,3.007A1.832,1.832,0,0,1,465.394,265.117Z" fill="#173d7a"></path><path id="Path_15029" data-name="Path 15029" d="M473.509,269.8l-5.255-3.034c-.422-.244-.369-.669.118-.95l5.207-3.006a1.829,1.829,0,0,1,1.646-.069l5.255,3.034c.422.244.369.669-.118.951l-5.207,3.006A1.829,1.829,0,0,1,473.509,269.8Z" fill="#173d7a"></path><path id="Path_15030" data-name="Path 15030" d="M481.624,274.487l-5.255-3.034c-.422-.243-.369-.669.118-.95l5.207-3.006a1.829,1.829,0,0,1,1.646-.068l5.255,3.034c.422.243.369.669-.118.95l-5.207,3.006A1.829,1.829,0,0,1,481.624,274.487Z" fill="#173d7a"></path><path id="Path_15031" data-name="Path 15031" d="M489.739,279.173l-5.255-3.034c-.422-.244-.369-.669.118-.951l5.207-3.006a1.829,1.829,0,0,1,1.646-.068l5.255,3.034c.422.243.369.669-.118.95l-5.207,3.006A1.829,1.829,0,0,1,489.739,279.173Z" fill="#173d7a"></path><path id="Path_15032" data-name="Path 15032" d="M378.421,242.269l-15.476-8.936c-.422-.243-.369-.669.118-.95l5.207-3.006a1.829,1.829,0,0,1,1.646-.069l15.476,8.936c.422.243.369.669-.118.95l-5.207,3.006A1.832,1.832,0,0,1,378.421,242.269Z" fill="#173d7a"></path><path id="Path_15033" data-name="Path 15033" d="M478.119,299.829l-15.477-8.935c-.421-.244-.369-.669.119-.951l5.206-3.006a1.831,1.831,0,0,1,1.647-.068L485.09,295.8c.422.244.369.669-.118.951l-5.207,3.006A1.829,1.829,0,0,1,478.119,299.829Z" fill="#173d7a"></path><path id="Path_15034" data-name="Path 15034" d="M445.665,291.441l-5.255-3.034c-.422-.243-.369-.669.118-.95l6.2-3.581a1.829,1.829,0,0,1,1.646-.069l5.255,3.034c.422.244.369.669-.118.951l-6.2,3.581A1.829,1.829,0,0,1,445.665,291.441Z" fill="#173d7a"></path><path id="Path_15035" data-name="Path 15035" d="M386.732,257.416l-8.4-4.852c-.422-.244-.369-.669.118-.951l6.2-3.581a1.834,1.834,0,0,1,1.647-.068l8.4,4.852c.422.244.369.669-.118.951l-6.2,3.581A1.829,1.829,0,0,1,386.732,257.416Z" fill="#173d7a"></path><path id="Path_15036" data-name="Path 15036" d="M437.846,286.927l-8.4-4.852c-.422-.244-.369-.67.118-.951l6.2-3.581a1.831,1.831,0,0,1,1.647-.068l8.4,4.852c.422.243.369.669-.119.95l-6.2,3.581A1.829,1.829,0,0,1,437.846,286.927Z" fill="#173d7a"></path><path id="Path_15037" data-name="Path 15037" d="M398.44,264.176l-8.4-4.852c-.422-.244-.369-.669.118-.951l6.2-3.581a1.829,1.829,0,0,1,1.646-.068l8.4,4.852c.422.244.369.669-.118.951l-6.2,3.581A1.829,1.829,0,0,1,398.44,264.176Z" fill="#173d7a"></path><path id="Path_15038" data-name="Path 15038" d="M398.06,254.757l36.539,21.1a.5.5,0,0,1,0,.948l-6.325,3.651a1.813,1.813,0,0,1-1.642,0l-36.539-21.1Z" fill="#173d7a"></path><path id="Path_15039" data-name="Path 15039" d="M468.346,299.936l5.853,3.38c.346.2.3.548-.1.779l-2.537,1.464a1.5,1.5,0,0,1-1.349.056l-5.854-3.379c-.346-.2-.3-.548.1-.779L467,299.992A1.5,1.5,0,0,1,468.346,299.936Z" fill="#173d7a"></path><path id="Path_15040" data-name="Path 15040" d="M460.163,295.212l5.854,3.379c.345.2.3.549-.1.779l-2.538,1.465a1.5,1.5,0,0,1-1.349.056l-5.853-3.379c-.346-.2-.3-.549.1-.779l2.537-1.465A1.5,1.5,0,0,1,460.163,295.212Z" fill="#173d7a"></path><path id="Path_15041" data-name="Path 15041" d="M452.048,290.527l5.853,3.379c.346.2.3.548-.1.779l-2.537,1.465a1.5,1.5,0,0,1-1.349.056l-5.854-3.38c-.345-.2-.3-.548.1-.779l2.538-1.464A1.5,1.5,0,0,1,452.048,290.527Z" fill="#173d7a"></path><path id="Path_15042" data-name="Path 15042" d="M464.645,292.625,470.5,296c.346.2.3.548-.1.779l-2.537,1.465a1.5,1.5,0,0,1-1.349.056l-5.854-3.38c-.346-.2-.3-.548.1-.779l2.537-1.464A1.5,1.5,0,0,1,464.645,292.625Z" fill="#173d7a"></path></g></g><g id="Group_9959" data-name="Group 9959"><g id="Group_9957" data-name="Group 9957"><path id="Path_15043" data-name="Path 15043" d="M453.893,149.005l-7.766-4.484a2.22,2.22,0,0,1-.948-2.3h0a1.081,1.081,0,0,1,1.662-.793l7.765,4.484a2.22,2.22,0,0,1,.948,2.3h0A1.08,1.08,0,0,1,453.893,149.005Z" fill="#d4ecff"></path><path id="Path_15044" data-name="Path 15044" d="M472.391,159.685l-11.451-6.611a2.221,2.221,0,0,1-.948-2.3h0a1.081,1.081,0,0,1,1.662-.793l11.451,6.611a2.222,2.222,0,0,1,.947,2.3h0A1.08,1.08,0,0,1,472.391,159.685Z" fill="#d4ecff"></path><path id="Path_15045" data-name="Path 15045" d="M440.356,185.254l-7.766-4.484a2.22,2.22,0,0,1-.948-2.3h0a1.081,1.081,0,0,1,1.662-.793l7.766,4.484a2.221,2.221,0,0,1,.947,2.3h0A1.08,1.08,0,0,1,440.356,185.254Z" fill="#d4ecff"></path><path id="Path_15046" data-name="Path 15046" d="M456.845,194.774l-11.451-6.611a2.222,2.222,0,0,1-.947-2.3h0a1.08,1.08,0,0,1,1.661-.793l11.451,6.611a2.221,2.221,0,0,1,.948,2.3h0A1.081,1.081,0,0,1,456.845,194.774Z" fill="#d4ecff"></path><path id="Path_15047" data-name="Path 15047" d="M430.984,143.122l-4.851-2.8a2.222,2.222,0,0,1-.948-2.3h0a1.081,1.081,0,0,1,1.662-.793l4.851,2.8a2.221,2.221,0,0,1,.948,2.3h0A1.081,1.081,0,0,1,430.984,143.122Z" fill="#d4ecff"></path><path id="Path_15048" data-name="Path 15048" d="M445.935,159.1l-14.822-8.558a2.221,2.221,0,0,1-.947-2.3h0a1.08,1.08,0,0,1,1.661-.793l14.822,8.558a2.221,2.221,0,0,1,.948,2.3h0A1.081,1.081,0,0,1,445.935,159.1Z" fill="#d4ecff"></path><path id="Path_15049" data-name="Path 15049" d="M432.973,166.3l-4.852-2.8a2.222,2.222,0,0,1-.947-2.3h0a1.08,1.08,0,0,1,1.661-.793l4.852,2.8a2.221,2.221,0,0,1,.947,2.3h0A1.08,1.08,0,0,1,432.973,166.3Z" fill="#d4ecff"></path><path id="Path_15050" data-name="Path 15050" d="M459.341,210.9l-12.957-7.481a2.22,2.22,0,0,1-.948-2.3h0a1.082,1.082,0,0,1,1.662-.794l12.957,7.481a2.221,2.221,0,0,1,.948,2.3h0A1.081,1.081,0,0,1,459.341,210.9Z" fill="#d4ecff"></path><path id="Path_15051" data-name="Path 15051" d="M428.243,178.261l-3.113-1.8a2.221,2.221,0,0,1-.948-2.3h0a1.081,1.081,0,0,1,1.662-.793l3.113,1.8a2.22,2.22,0,0,1,.948,2.3h0A1.081,1.081,0,0,1,428.243,178.261Z" fill="#d4ecff"></path><path id="Path_15052" data-name="Path 15052" d="M426.005,191.656l-3.867-2.232a2.221,2.221,0,0,1-.948-2.3h0a1.081,1.081,0,0,1,1.662-.793l3.867,2.232a2.22,2.22,0,0,1,.947,2.3h0A1.08,1.08,0,0,1,426.005,191.656Z" fill="#d4ecff"></path><path id="Path_15053" data-name="Path 15053" d="M441.049,200.342l-10.2-5.886a2.221,2.221,0,0,1-.948-2.3h0a1.08,1.08,0,0,1,1.661-.793l10.2,5.886a2.221,2.221,0,0,1,.947,2.3h0A1.08,1.08,0,0,1,441.049,200.342Z" fill="#d4ecff"></path><path id="Path_15054" data-name="Path 15054" d="M427.972,200.136l-7.33-4.232a2.221,2.221,0,0,1-.948-2.3h0a1.081,1.081,0,0,1,1.662-.793l7.33,4.232a2.221,2.221,0,0,1,.948,2.3h0A1.081,1.081,0,0,1,427.972,200.136Z" fill="#d4ecff"></path><path id="Path_15055" data-name="Path 15055" d="M470.459,217.354l-4.708-2.718a2.221,2.221,0,0,1-.947-2.3h0a1.08,1.08,0,0,1,1.661-.793l4.708,2.718a2.221,2.221,0,0,1,.947,2.3h0A1.08,1.08,0,0,1,470.459,217.354Z" fill="#d4ecff"></path><path id="Path_15056" data-name="Path 15056" d="M451.018,176.722l-12.957-7.481a2.221,2.221,0,0,1-.948-2.3h0a1.081,1.081,0,0,1,1.662-.793l12.957,7.481a2.22,2.22,0,0,1,.948,2.3h0A1.081,1.081,0,0,1,451.018,176.722Z" fill="#d4ecff"></path><path id="Path_15057" data-name="Path 15057" d="M452.2,170.06l-22.583-13.039a2.219,2.219,0,0,1-.947-2.3h0a1.08,1.08,0,0,1,1.661-.793l22.583,13.038a2.223,2.223,0,0,1,.948,2.3h0A1.081,1.081,0,0,1,452.2,170.06Z" fill="#d4ecff"></path><path id="Path_15058" data-name="Path 15058" d="M439.583,177.463l-12.958-7.481a2.221,2.221,0,0,1-.947-2.3h0a1.081,1.081,0,0,1,1.661-.794L440.3,174.37a2.222,2.222,0,0,1,.947,2.3h0A1.08,1.08,0,0,1,439.583,177.463Z" fill="#d4ecff"></path><path id="Path_15059" data-name="Path 15059" d="M460.846,182.4l-4.708-2.718a2.221,2.221,0,0,1-.948-2.3h0a1.081,1.081,0,0,1,1.662-.793l4.708,2.718a2.221,2.221,0,0,1,.947,2.3h0A1.08,1.08,0,0,1,460.846,182.4Z" fill="#d4ecff"></path><path id="Path_15060" data-name="Path 15060" d="M507.316,179.85l-27.878-16.1a2.221,2.221,0,0,1-.948-2.3h0a1.081,1.081,0,0,1,1.662-.793l27.878,16.1a2.22,2.22,0,0,1,.948,2.3h0A1.081,1.081,0,0,1,507.316,179.85Z" fill="#d4ecff"></path><path id="Path_15061" data-name="Path 15061" d="M439.209,191.936l-15.575-8.993a2.22,2.22,0,0,1-.948-2.3h0a1.081,1.081,0,0,1,1.662-.794l15.575,8.993a2.221,2.221,0,0,1,.948,2.3h0A1.081,1.081,0,0,1,439.209,191.936Z" fill="#d4ecff"></path><path id="Path_15062" data-name="Path 15062" d="M439.079,140.452l-11.45-6.611a2.22,2.22,0,0,1-.948-2.3h0a1.081,1.081,0,0,1,1.662-.793l11.45,6.611a2.221,2.221,0,0,1,.948,2.3h0A1.081,1.081,0,0,1,439.079,140.452Z" fill="#d4ecff"></path><path id="Path_15063" data-name="Path 15063" d="M425.932,206.3l-13.262-7.657a2.22,2.22,0,0,1-.948-2.3h0a1.082,1.082,0,0,1,1.662-.794l13.262,7.658a2.218,2.218,0,0,1,.947,2.3h0A1.08,1.08,0,0,1,425.932,206.3Z" fill="#d4ecff"></path></g><g id="Group_9958" data-name="Group 9958"><path id="Path_15064" data-name="Path 15064" d="M515.683,234.255l-7.766-4.484a2.222,2.222,0,0,1-.947-2.3h0a1.08,1.08,0,0,1,1.661-.793l7.766,4.484a2.22,2.22,0,0,1,.948,2.3h0A1.081,1.081,0,0,1,515.683,234.255Z" fill="#d4ecff"></path><path id="Path_15065" data-name="Path 15065" d="M521.263,208.1l-14.822-8.558a2.221,2.221,0,0,1-.948-2.3h0a1.08,1.08,0,0,1,1.661-.793l14.823,8.558a2.221,2.221,0,0,1,.947,2.3h0A1.081,1.081,0,0,1,521.263,208.1Z" fill="#d4ecff"></path><path id="Path_15066" data-name="Path 15066" d="M508.3,215.3l-4.851-2.8a2.221,2.221,0,0,1-.948-2.3h0a1.081,1.081,0,0,1,1.662-.793l4.851,2.8a2.221,2.221,0,0,1,.948,2.3h0A1.082,1.082,0,0,1,508.3,215.3Z" fill="#d4ecff"></path><path id="Path_15067" data-name="Path 15067" d="M503.571,227.262l-3.114-1.8a2.223,2.223,0,0,1-.948-2.3h0a1.081,1.081,0,0,1,1.662-.793l3.114,1.8a2.221,2.221,0,0,1,.947,2.3h0A1.081,1.081,0,0,1,503.571,227.262Z" fill="#d4ecff"></path><path id="Path_15068" data-name="Path 15068" d="M526.346,225.722l-12.958-7.48a2.223,2.223,0,0,1-.947-2.3h0a1.08,1.08,0,0,1,1.661-.793l12.958,7.48a2.223,2.223,0,0,1,.947,2.3h0A1.08,1.08,0,0,1,526.346,225.722Z" fill="#d4ecff"></path><path id="Path_15069" data-name="Path 15069" d="M527.528,219.061l-22.583-13.039a2.22,2.22,0,0,1-.948-2.3h0a1.081,1.081,0,0,1,1.662-.794l22.582,13.039a2.22,2.22,0,0,1,.948,2.3h0A1.08,1.08,0,0,1,527.528,219.061Z" fill="#d4ecff"></path><path id="Path_15070" data-name="Path 15070" d="M514.91,226.464l-12.957-7.481a2.22,2.22,0,0,1-.948-2.3h0a1.081,1.081,0,0,1,1.662-.793l12.957,7.481a2.221,2.221,0,0,1,.948,2.3h0A1.081,1.081,0,0,1,514.91,226.464Z" fill="#d4ecff"></path><path id="Path_15071" data-name="Path 15071" d="M514.537,240.937l-15.576-8.993a2.221,2.221,0,0,1-.947-2.3h0a1.08,1.08,0,0,1,1.661-.793l15.576,8.993a2.221,2.221,0,0,1,.947,2.3h0A1.081,1.081,0,0,1,514.537,240.937Z" fill="#d4ecff"></path></g></g></g><g id="Group_9967" data-name="Group 9967"><g id="Group_9963" data-name="Group 9963"><path id="Path_15072" data-name="Path 15072" d="M549.4,147.634l12.238-4.868-2.753-18-5.941,5.263Z" fill="#5793ce"></path><path id="Path_15073" data-name="Path 15073" d="M467.493,63.692l29.565-11.815s-5.447,11.791-5.456,11.815-15.787,3.654-15.787,3.654Z" fill="#5793ce"></path><path id="Path_15074" data-name="Path 15074" d="M560.212,112.682a13.012,13.012,0,0,0-4.791-1.647c1.632-10.882-3.069-22.367-12.091-27.58a19.687,19.687,0,0,0-8.454-2.656c3.535-13.19-1.926-28.179-13.054-34.609a20.5,20.5,0,0,0-17.637-1.7l.005-.01-.272.109c-.143.055-.285.111-.426.17L494.228,48.4l3.7,3.178c-5.01,1.579-9.342,5.63-11.63,11.618-4.219,11.043.109,24.471,9.666,29.993l56.811,47.888c7.176,4.146,11.532,2.415,14.7-5.877S567.389,116.828,560.212,112.682Z" fill="#5793ce"></path><path id="Path_15075" data-name="Path 15075" d="M488.88,58.338l31.868-12.732a20.362,20.362,0,0,0-16.563-1.115l.005-.01-.272.109c-.143.055-.285.111-.426.17L494.228,48.4l3.7,3.178A17.682,17.682,0,0,0,488.88,58.338Z" fill="#5793ce"></path><path id="Path_15076" data-name="Path 15076" d="M533.243,106.111l21.044-8.393a25.359,25.359,0,0,0-11.078-14.333,20.5,20.5,0,0,0-2.125-1.069L512.1,93.893Z" fill="#5793ce"></path><path id="Path_15077" data-name="Path 15077" d="M500.691,49.733l9.031,5.217L525.4,48.71a25,25,0,0,0-3.573-2.52,22.158,22.158,0,0,0-6.127-2.429Z" fill="#d4ecff"></path><path id="Path_15078" data-name="Path 15078" d="M552.9,94.216l-15.147,6.03,4.469,6.278,13-5.167A29.18,29.18,0,0,0,552.9,94.216Z" fill="#d4ecff"></path><path id="Path_15079" data-name="Path 15079" d="M550.083,116.663a13.031,13.031,0,0,0-4.791-1.647c1.631-10.881-3.191-22.438-12.213-27.65a19.059,19.059,0,0,0-8.332-2.586c3.535-13.189-1.926-28.179-13.054-34.608-11.969-6.915-25.954-1.31-31.237,12.519q-.268.7-.5,1.418c-9.132-4.062-19.228.515-23.191,10.889-4.219,11.043.109,24.471,9.665,29.992l72.179,41.7c7.177,4.146,15.562.785,18.73-7.507S557.259,120.809,550.083,116.663Z" fill="#d4ecff"></path><g id="Group_9961" data-name="Group 9961"><path id="Path_15080" data-name="Path 15080" d="M551.572,115.83a13.006,13.006,0,0,0-4.791-1.647c1.632-10.882-3.19-22.438-12.212-27.651a19.075,19.075,0,0,0-8.333-2.585c3.536-13.19-1.925-28.179-13.054-34.609a20.377,20.377,0,0,0-21.32.1,20.4,20.4,0,0,1,19.831.735c11.128,6.43,16.589,21.42,13.054,34.609a19.059,19.059,0,0,1,8.332,2.586c9.022,5.213,13.844,16.769,12.213,27.65a13.031,13.031,0,0,1,4.791,1.647c7.176,4.146,10.426,14.23,7.258,22.522a14.882,14.882,0,0,1-5.641,7.243,14.454,14.454,0,0,0,7.131-8.076C562,130.059,558.749,119.976,551.572,115.83Z" fill="#fff"></path><path id="Path_15081" data-name="Path 15081" d="M479.958,64.109c.135-.415.282-.828.435-1.238a16.071,16.071,0,0,0-14.332,1.461A16.117,16.117,0,0,1,479.958,64.109Z" fill="#fff"></path></g><g id="Group_9962" data-name="Group 9962"><path id="Path_15082" data-name="Path 15082" d="M471.8,66.269a9.485,9.485,0,0,0-3.806.77c-2.866,1.251-5.343,4.152-6.8,7.959-3.706,9.7.256,22,8.652,26.849l72.179,41.7a7.518,7.518,0,0,0,6.44.911c1.825-.731,3.446-2.654,4.447-5.274,2.675-7-.185-15.876-6.245-19.378a9.377,9.377,0,0,0-3.432-1.205l-2.931-.395.377-2.512c1.505-10.035-3.129-20.627-11.018-25.185a15.2,15.2,0,0,0-6.64-2.11l-3.632-.235.817-3.047c3.241-12.095-2-26.064-11.932-31.8-4.618-2.668-9.484-3.206-13.7-1.519s-7.657,5.558-9.7,10.9c-.158.414-.3.831-.439,1.251L482.5,69.92,476.836,67.4A12.436,12.436,0,0,0,471.8,66.269Z" fill="#396caa"></path></g></g><g id="Group_9966" data-name="Group 9966"><path id="Path_15083" data-name="Path 15083" d="M507.17,112.654l2.487-1-1.934-1.487Z" fill="#5793ce"></path><path id="Path_15084" data-name="Path 15084" d="M505.927,85.713l2.415-.979-.17,1.013Z" fill="#5793ce"></path><path id="Path_15085" data-name="Path 15085" d="M514.979,106.357l2.52-1.016-3.674-3.7Z" fill="#5793ce"></path><g id="Group_9964" data-name="Group 9964"><path id="Path_15086" data-name="Path 15086" d="M509,111.589l-9.632-5.561a1.56,1.56,0,0,1-.658-1.588l2.308-10.931,11.4,6.583-2.308,10.932A.726.726,0,0,1,509,111.589Z" fill="#5793ce"></path><path id="Path_15087" data-name="Path 15087" d="M508.316,84.746,495.3,91.309c-.553.278-.369,1.316.3,1.7l10.625,6.135,10.625,6.134c.67.387,1.205-.236.877-1.023l-7.718-18.533C509.678,84.924,508.878,84.463,508.316,84.746Z" fill="#5793ce"></path></g><g id="Group_9965" data-name="Group 9965"><path id="Path_15088" data-name="Path 15088" d="M506.478,112.609l-9.633-5.561a1.562,1.562,0,0,1-.658-1.588l2.308-10.932,11.4,6.584-2.308,10.931A.725.725,0,0,1,506.478,112.609Z" fill="#d4ecff"></path><path id="Path_15089" data-name="Path 15089" d="M505.791,85.766l-13.017,6.562c-.552.279-.368,1.317.3,1.7l10.625,6.134,10.625,6.135c.671.387,1.205-.236.878-1.023l-7.718-18.534C507.152,85.944,506.353,85.482,505.791,85.766Z" fill="#d4ecff"></path></g></g></g><g id="Group_9968" data-name="Group 9968"><path id="Path_15090" data-name="Path 15090" d="M262.14,330.543l38.51-22.125c3.037-1.745,8.335-1.514,11.833.515l78.975,45.818c3.5,2.029,3.872,5.089.835,6.834l-38.51,22.126c-3.037,1.745-8.335,1.514-11.833-.516l-78.974-45.817C259.477,335.348,259.1,332.288,262.14,330.543Z" fill="#b2d3ea"></path><path id="Path_15091" data-name="Path 15091" d="M355.318,376.4l39.435-22.657a4.566,4.566,0,0,0,2.639-3.706h0l.033-6.789-1.267,2.185a9.476,9.476,0,0,0-2.474-1.993l-79.412-46.071c-4.5-2.611-11.314-2.907-15.22-.663L259.618,319.36a7.027,7.027,0,0,0-1.1.777l-1.512-1.937-.032,6.382v0c-.056,1.758,1.2,3.627,3.713,5.084L340.1,375.734C344.6,378.345,351.412,378.641,355.318,376.4Z" fill="#396caa"></path><path id="Path_15092" data-name="Path 15092" d="M259.646,314.315l39.435-22.657c3.906-2.245,10.72-1.948,15.22.662l79.412,46.072c4.5,2.61,4.98,6.546,1.074,8.79l-39.435,22.657c-3.906,2.244-10.72,1.948-15.219-.663l-79.412-46.071C256.221,320.495,255.74,316.559,259.646,314.315Z" fill="#d4ecff"></path><path id="Path_15093" data-name="Path 15093" d="M394.787,347.182l-39.435,22.657c-3.906,2.245-10.72,1.948-15.219-.663l-79.412-46.071c-2.18-1.264-3.407-2.839-3.659-4.383-.314,1.887.926,3.96,3.659,5.545l79.412,46.072c4.5,2.61,11.313,2.907,15.219.662l39.435-22.657c2.014-1.157,2.852-2.764,2.584-4.407A4.774,4.774,0,0,1,394.787,347.182Z" fill="#fff"></path><path id="Path_15094" data-name="Path 15094" d="M262.14,315.228,300.65,293.1c3.037-1.745,8.335-1.514,11.833.515l78.975,45.818c3.5,2.029,3.872,5.089.835,6.834l-38.51,22.126c-3.037,1.745-8.335,1.514-11.833-.516l-78.974-45.817C259.477,320.032,259.1,316.973,262.14,315.228Z" fill="#fff"></path></g><g id="Group_9969" data-name="Group 9969"><path id="Path_15095" data-name="Path 15095" d="M324.182,323.277l-14.256-8.231c-.528-.3-.462-.838.148-1.19h0a2.292,2.292,0,0,1,2.063-.086L326.392,322c.529.3.463.838-.148,1.19h0A2.29,2.29,0,0,1,324.182,323.277Z" fill="#b2d3ea"></path><path id="Path_15096" data-name="Path 15096" d="M310.67,320.489l-5.086-2.936c-.528-.305-.462-.838.148-1.191h0a2.3,2.3,0,0,1,2.063-.085l5.085,2.936c.529.3.462.838-.148,1.191h0A2.293,2.293,0,0,1,310.67,320.489Z" fill="#b2d3ea"></path><path id="Path_15097" data-name="Path 15097" d="M319.2,325.416l-5.086-2.936c-.528-.305-.462-.838.149-1.19h0a2.29,2.29,0,0,1,2.062-.086l5.085,2.936c.529.3.462.838-.148,1.191h0A2.293,2.293,0,0,1,319.2,325.416Z" fill="#396caa"></path><path id="Path_15098" data-name="Path 15098" d="M336.46,335.379l-13.807-7.972c-.529-.305-.463-.838.148-1.19h0a2.29,2.29,0,0,1,2.062-.086l13.808,7.972c.528.3.462.838-.148,1.191h0A2.3,2.3,0,0,1,336.46,335.379Z" fill="#b2d3ea"></path><path id="Path_15099" data-name="Path 15099" d="M319.054,330.343,301.242,320.06c-.528-.3-.462-.839.149-1.191h0a2.293,2.293,0,0,1,2.062-.085l17.812,10.283c.528.305.462.839-.149,1.191h0A2.29,2.29,0,0,1,319.054,330.343Z" fill="#b2d3ea"></path><path id="Path_15100" data-name="Path 15100" d="M340.476,347.727,296.9,322.567c-.529-.306-.463-.839.148-1.191h0a2.29,2.29,0,0,1,2.062-.086l43.575,25.161c.529.305.462.838-.148,1.19h0A2.29,2.29,0,0,1,340.476,347.727Z" fill="#396caa"></path><path id="Path_15101" data-name="Path 15101" d="M353.191,340.025l-25.074-14.476c-.528-.305-.462-.838.148-1.191h0a2.3,2.3,0,0,1,2.063-.085L355.4,338.749c.529.3.462.838-.148,1.191h0A2.293,2.293,0,0,1,353.191,340.025Z" fill="#b2d3ea"></path></g><path id="Path_15102" data-name="Path 15102" d="M322.477,363.663l-3.667-2.116a1.581,1.581,0,0,1-.661-1.262h0c0-.486.3-.71.661-.5l3.667,2.115a1.579,1.579,0,0,1,.66,1.262h0C323.137,363.649,322.842,363.873,322.477,363.663Z" fill="#d4ecff"></path><path id="Path_15103" data-name="Path 15103" d="M328.246,367l-3.666-2.115a1.583,1.583,0,0,1-.661-1.263h0c0-.486.3-.71.661-.5l3.666,2.115a1.581,1.581,0,0,1,.661,1.262h0C328.907,366.991,328.611,367.214,328.246,367Z" fill="#d4ecff"></path></g></g></svg>