<svg xmlns="http://www.w3.org/2000/svg" width="306.218" height="322.076" viewBox="0 0 306.218 322.076"><g id="Group_10025" data-name="Group 10025" transform="translate(-829.782 -213.924)"><path id="Path_695" data-name="Path 695" d="M519.49,259.729a4.634,4.634,0,0,1-2.387-.661l-14.309-8.578.866-1.445,14.309,8.578a2.947,2.947,0,0,0,3.011.017l23.289-13.621a1.17,1.17,0,0,0-.035-2.042L513.2,225.357l.794-1.486,31.039,16.622a2.853,2.853,0,0,1,.089,4.981l-23.287,13.62A4.631,4.631,0,0,1,519.49,259.729Z" transform="translate(589.464 147.406)" fill="#b2d3ea"></path><path id="Path_696" data-name="Path 696" d="M466.984,384.36a6.011,6.011,0,0,1-2.929-.759L406.95,351.815a2.627,2.627,0,0,1-.015-4.584l25.844-14.575a.9.9,0,0,0,.005-1.559l-28.753-16.51a2.581,2.581,0,0,1-.094-4.418l11.745-7.442.9,1.421-11.747,7.444a.9.9,0,0,0,.033,1.535l28.753,16.51a2.582,2.582,0,0,1-.017,4.484L407.763,348.7a.944.944,0,0,0,.006,1.646l57.1,31.788a4.356,4.356,0,0,0,4.362-.08L490.949,368.7a.4.4,0,0,0,.2-.353.413.413,0,0,0-.2-.353l-15.716-9.553.875-1.439,15.716,9.554a2.1,2.1,0,0,1,.01,3.578l-21.719,13.352A6.037,6.037,0,0,1,466.984,384.36Z" transform="translate(581.765 151.64)" fill="#b2d3ea"></path><g id="Group_179" data-name="Group 179" transform="translate(1039.065 303.613)"><path id="Path_697" data-name="Path 697" d="M488.579,260.558l-27.532-15.9c-1.69-.976-1.477-2.68.473-3.806L488.1,225.508a7.328,7.328,0,0,1,6.593-.273l27.531,15.895c1.69.976,1.478,2.68-.473,3.806l-26.584,15.348A7.33,7.33,0,0,1,488.579,260.558Z" transform="translate(-451.903 -156.169)" fill="#b2d3ea"></path><g id="Group_173" data-name="Group 173" transform="translate(0 38.019)"><path id="Path_698" data-name="Path 698" d="M531.768,229.717h0v-11.9l-26.673-.015-9.22-5.323c-2.116-1.222-5.812-1.068-8.255.342l-8.6,4.966-26.7-.015v12.233a2.393,2.393,0,0,0,1.418,2.212l34.474,19.9c2.116,1.222,5.812,1.068,8.256-.342l33.288-19.218C531.168,231.752,531.847,230.7,531.768,229.717Z" transform="translate(-452.311 -194.881)" fill="#396caa"></path><path id="Path_699" data-name="Path 699" d="M492.045,211.665a9.518,9.518,0,0,0-4.424,1.161l-8.6,4.966-26.7-.015v12.233a2.393,2.393,0,0,0,1.418,2.212l34.474,19.9a7.475,7.475,0,0,0,3.831.819Z" transform="translate(-452.311 -194.881)" fill="#396caa"></path><path id="Path_700" data-name="Path 700" d="M455.343,217.467h-3.022V229.7a2.393,2.393,0,0,0,1.418,2.212l1.6.926Z" transform="translate(-452.311 -194.569)" fill="#5793ce"></path><path id="Path_701" data-name="Path 701" d="M486.889,251.024a9.408,9.408,0,0,0,6.6-.075V237.058h-6.6Z" transform="translate(-450.455 -193.518)" fill="#5793ce"></path><path id="Path_702" data-name="Path 702" d="M488.214,240.793l-34.475-19.9c-2.116-1.222-1.851-3.356.592-4.767L487.621,196.9c2.442-1.41,6.139-1.564,8.255-.341l34.476,19.9c2.116,1.221,1.85,3.355-.593,4.766L496.47,240.45C494.026,241.861,490.33,242.014,488.214,240.793Z" transform="translate(-452.311 -195.736)" fill="#d4ecff"></path><path id="Path_703" data-name="Path 703" d="M488.507,237.021l-28.89-16.68c-1.773-1.024-1.551-2.812.5-3.995l27.9-16.106a7.686,7.686,0,0,1,6.917-.287l28.891,16.68c1.773,1.023,1.55,2.811-.5,3.993l-27.9,16.107A7.693,7.693,0,0,1,488.507,237.021Z" transform="translate(-451.983 -195.547)" fill="#5793ce"></path><g id="Group_172" data-name="Group 172" transform="translate(63.992 31.808)"><path id="Path_704" data-name="Path 704" d="M515.828,231.827a3.077,3.077,0,0,1-1.393,2.412c-.769.444-1.392.084-1.392-.8a3.077,3.077,0,0,1,1.392-2.412C515.2,230.579,515.828,230.938,515.828,231.827Z" transform="translate(-513.043 -225.66)" fill="#d4ecff"></path><path id="Path_705" data-name="Path 705" d="M520.08,229.372a3.077,3.077,0,0,1-1.393,2.412c-.769.445-1.393.084-1.393-.8a3.08,3.08,0,0,1,1.393-2.412C519.456,228.124,520.08,228.484,520.08,229.372Z" transform="translate(-512.815 -225.791)" fill="#d4ecff"></path><path id="Path_706" data-name="Path 706" d="M524.331,226.918a3.079,3.079,0,0,1-1.392,2.412c-.769.444-1.393.083-1.393-.805a3.077,3.077,0,0,1,1.393-2.411C523.708,225.669,524.331,226.029,524.331,226.918Z" transform="translate(-512.587 -225.923)" fill="#d4ecff"></path></g></g><g id="Group_175" data-name="Group 175" transform="translate(0 19.009)"><path id="Path_707" data-name="Path 707" d="M531.768,211.676h0v-11.9l-26.673-.015-9.22-5.323c-2.116-1.221-5.812-1.068-8.255.342l-8.6,4.966-26.7-.015V211.97a2.393,2.393,0,0,0,1.418,2.212l34.474,19.9c2.116,1.222,5.812,1.068,8.256-.341l33.288-19.219C531.168,213.711,531.847,212.657,531.768,211.676Z" transform="translate(-452.311 -176.84)" fill="#396caa"></path><path id="Path_708" data-name="Path 708" d="M492.045,193.624a9.518,9.518,0,0,0-4.424,1.161l-8.6,4.966-26.7-.015V211.97a2.393,2.393,0,0,0,1.418,2.212l34.474,19.9a7.475,7.475,0,0,0,3.831.819Z" transform="translate(-452.311 -176.84)" fill="#396caa"></path><path id="Path_709" data-name="Path 709" d="M455.343,199.426h-3.022v12.233a2.393,2.393,0,0,0,1.418,2.212l1.6.926Z" transform="translate(-452.311 -176.528)" fill="#5793ce"></path><path id="Path_710" data-name="Path 710" d="M486.889,232.983a9.408,9.408,0,0,0,6.6-.075V219.017h-6.6Z" transform="translate(-450.455 -175.477)" fill="#5793ce"></path><path id="Path_711" data-name="Path 711" d="M488.214,222.752l-34.475-19.9c-2.116-1.222-1.851-3.356.592-4.767l33.289-19.219c2.442-1.41,6.139-1.564,8.255-.341l34.476,19.9c2.116,1.221,1.85,3.355-.593,4.766L496.47,222.409C494.026,223.82,490.33,223.973,488.214,222.752Z" transform="translate(-452.311 -177.695)" fill="#d4ecff"></path><path id="Path_712" data-name="Path 712" d="M488.507,218.98l-28.89-16.68c-1.773-1.024-1.551-2.812.5-3.995l27.9-16.106a7.686,7.686,0,0,1,6.917-.287l28.891,16.68c1.773,1.023,1.55,2.812-.5,3.993l-27.9,16.107A7.69,7.69,0,0,1,488.507,218.98Z" transform="translate(-451.983 -177.506)" fill="#5793ce"></path><g id="Group_174" data-name="Group 174" transform="translate(63.992 31.808)"><path id="Path_713" data-name="Path 713" d="M515.828,213.786a3.077,3.077,0,0,1-1.393,2.412c-.769.444-1.392.084-1.392-.8a3.077,3.077,0,0,1,1.392-2.412C515.2,212.538,515.828,212.9,515.828,213.786Z" transform="translate(-513.043 -207.619)" fill="#d4ecff"></path><path id="Path_714" data-name="Path 714" d="M520.08,211.331a3.077,3.077,0,0,1-1.393,2.412c-.769.445-1.393.084-1.393-.8a3.08,3.08,0,0,1,1.393-2.412C519.456,210.083,520.08,210.443,520.08,211.331Z" transform="translate(-512.815 -207.75)" fill="#d4ecff"></path><path id="Path_715" data-name="Path 715" d="M524.331,208.877a3.076,3.076,0,0,1-1.392,2.411c-.769.445-1.393.084-1.393-.8a3.077,3.077,0,0,1,1.393-2.412C523.708,207.628,524.331,207.988,524.331,208.877Z" transform="translate(-512.587 -207.882)" fill="#d4ecff"></path></g></g><g id="Group_178" data-name="Group 178"><path id="Path_716" data-name="Path 716" d="M531.768,193.635h0v-11.9l-26.673-.015-9.22-5.323c-2.116-1.222-5.812-1.068-8.255.342l-8.6,4.966-26.7-.015v12.233a2.393,2.393,0,0,0,1.418,2.212l34.474,19.9c2.116,1.222,5.812,1.068,8.256-.341l33.288-19.219C531.168,195.67,531.847,194.616,531.768,193.635Z" transform="translate(-452.311 -158.799)" fill="#396caa"></path><path id="Path_717" data-name="Path 717" d="M492.045,175.583a9.518,9.518,0,0,0-4.424,1.161l-8.6,4.966-26.7-.015v12.233a2.393,2.393,0,0,0,1.418,2.212l34.474,19.9a7.475,7.475,0,0,0,3.831.819Z" transform="translate(-452.311 -158.799)" fill="#396caa"></path><path id="Path_718" data-name="Path 718" d="M455.343,181.385h-3.022v12.233a2.393,2.393,0,0,0,1.418,2.212l1.6.926Z" transform="translate(-452.311 -158.487)" fill="#5793ce"></path><path id="Path_719" data-name="Path 719" d="M486.889,214.942a9.408,9.408,0,0,0,6.6-.075V200.976h-6.6Z" transform="translate(-450.455 -157.436)" fill="#5793ce"></path><path id="Path_720" data-name="Path 720" d="M488.214,204.711l-34.475-19.9c-2.116-1.222-1.851-3.356.592-4.766l33.289-19.219c2.442-1.411,6.139-1.565,8.255-.342l34.476,19.9c2.116,1.221,1.85,3.355-.593,4.766L496.47,204.368C494.026,205.779,490.33,205.932,488.214,204.711Z" transform="translate(-452.311 -159.654)" fill="#d4ecff"></path><path id="Path_721" data-name="Path 721" d="M529.758,181.7,496.47,200.923c-2.444,1.411-6.14,1.565-8.256.342l-34.474-19.9a3.182,3.182,0,0,1-1.056-.937c-.727,1.17-.4,2.439,1.056,3.278l34.474,19.9c2.116,1.221,5.812,1.068,8.256-.342l33.288-19.219c1.9-1.1,2.475-2.627,1.649-3.829A4.615,4.615,0,0,1,529.758,181.7Z" transform="translate(-452.311 -158.55)" fill="#fff"></path><g id="Group_176" data-name="Group 176" transform="translate(63.992 31.808)"><path id="Path_722" data-name="Path 722" d="M515.828,195.745a3.077,3.077,0,0,1-1.393,2.412c-.769.445-1.392.084-1.392-.8a3.079,3.079,0,0,1,1.392-2.412C515.2,194.5,515.828,194.856,515.828,195.745Z" transform="translate(-513.043 -189.578)" fill="#d4ecff"></path><path id="Path_723" data-name="Path 723" d="M520.08,193.29a3.077,3.077,0,0,1-1.393,2.412c-.769.445-1.393.084-1.393-.8a3.08,3.08,0,0,1,1.393-2.412C519.456,192.042,520.08,192.4,520.08,193.29Z" transform="translate(-512.815 -189.709)" fill="#d4ecff"></path><path id="Path_724" data-name="Path 724" d="M524.331,190.836a3.079,3.079,0,0,1-1.392,2.412c-.769.444-1.393.083-1.393-.8a3.077,3.077,0,0,1,1.393-2.412C523.708,189.587,524.331,189.947,524.331,190.836Z" transform="translate(-512.587 -189.841)" fill="#d4ecff"></path></g><g id="Group_177" data-name="Group 177" transform="translate(21.141 11.632)"><path id="Path_725" data-name="Path 725" d="M489.176,191.777l-16.133-9.314c-.989-.572-.866-1.571.277-2.231l15.578-8.994a4.293,4.293,0,0,1,3.863-.159l16.133,9.314c.99.572.866,1.57-.277,2.231l-15.578,8.993A4.29,4.29,0,0,1,489.176,191.777Z" transform="translate(-472.375 -170.693)" fill="#5793ce"></path><path id="Path_726" data-name="Path 726" d="M489.9,183.451l-2.233-1.289c-.137-.079-.119-.217.039-.309l2.155-1.244a.6.6,0,0,1,.535-.022l2.232,1.289c.137.079.12.217-.039.309l-2.155,1.244A.593.593,0,0,1,489.9,183.451Z" transform="translate(-471.558 -170.165)" fill="#d4ecff"></path><path id="Path_727" data-name="Path 727" d="M473.043,182.464l.046.026a2.6,2.6,0,0,1,.231-.16l15.578-8.993a4.29,4.29,0,0,1,3.863-.16l16.088,9.288c.912-.654.96-1.544.045-2.072l-16.133-9.315a4.3,4.3,0,0,0-3.863.16l-15.578,8.994C472.177,180.893,472.054,181.892,473.043,182.464Z" transform="translate(-472.375 -170.693)" fill="#396caa"></path></g></g></g><g id="Group_199" data-name="Group 199" transform="translate(945.635 249.936)"><g id="Group_191" data-name="Group 191"><g id="Group_182" data-name="Group 182"><path id="Path_728" data-name="Path 728" d="M431.369,315.9l-59.5-33.929c-2.177-1.257-1.9-3.452.609-4.9l34.236-19.766c2.513-1.451,6.314-1.608,8.491-.352l59.5,33.93c2.177,1.256,1.9,3.451-.609,4.9l-34.236,19.766C437.346,317,433.544,317.159,431.369,315.9Z" transform="translate(-366.548 -100.799)" fill="#b2d3ea"></path><path id="Path_729" data-name="Path 729" d="M480.205,286.431h0V147.517l-55.225-14.453-10.171-5.873c-2.335-1.348-6.413-1.179-9.108.377l-9.491,5.479-29.456-.016,8.722,134.1a2.641,2.641,0,0,0,1.564,2.44l55.111,41.584c2.335,1.348,6.413,1.178,9.108-.378l36.728-21.2C479.543,288.676,480.293,287.513,480.205,286.431Z" transform="translate(-366.743 -107.769)" fill="#396caa"></path><path id="Path_730" data-name="Path 730" d="M410.583,126.287a10.517,10.517,0,0,0-4.882,1.28l-9.491,5.479-29.456-.016V272.317a2.64,2.64,0,0,0,1.565,2.44l63.832,36.4a8.258,8.258,0,0,0,4.227.9l.657-140.158Z" transform="translate(-366.744 -107.769)" fill="#d4ecff"></path><path id="Path_731" data-name="Path 731" d="M429.377,309.2a10.374,10.374,0,0,0,7.28-.083V168h-7.28Z" transform="translate(-363.381 -105.529)" fill="#5793ce"></path><path id="Path_732" data-name="Path 732" d="M432.153,172.861l-63.832-36.4c-2.335-1.348-2.042-3.7.653-5.258L405.7,110c2.7-1.556,6.773-1.725,9.108-.377l63.832,36.4c2.335,1.349,2.042,3.7-.653,5.259l-36.728,21.2C438.565,174.039,434.488,174.209,432.153,172.861Z" transform="translate(-366.744 -108.712)" fill="#d4ecff"></path><path id="Path_733" data-name="Path 733" d="M477.989,147.467l-36.728,21.2c-2.7,1.556-6.773,1.726-9.108.377l-63.832-36.4a3.526,3.526,0,0,1-1.165-1.034c-.8,1.291-.438,2.691,1.165,3.616l63.832,36.4c2.335,1.348,6.413,1.178,9.108-.378l36.728-21.2c2.094-1.21,2.73-2.9,1.819-4.225A5.1,5.1,0,0,1,477.989,147.467Z" transform="translate(-366.744 -107.483)" fill="#fafdff"></path><g id="Group_181" data-name="Group 181" transform="translate(23.979 11.776)"><path id="Path_734" data-name="Path 734" d="M432.737,157.51l-42.5-24.635c-1.093-.631-.956-1.732.306-2.461l17.187-9.923a4.74,4.74,0,0,1,4.262-.177l42.5,24.636c1.093.63.956,1.732-.306,2.46L437,157.333A4.74,4.74,0,0,1,432.737,157.51Z" transform="translate(-389.501 -119.888)" fill="#173d7a"></path><g id="Group_180" data-name="Group 180" transform="translate(17.728 10.874)"><path id="Path_735" data-name="Path 735" d="M408.89,133.427,406.427,132c-.151-.086-.132-.239.042-.34l2.378-1.373a.658.658,0,0,1,.59-.024l2.462,1.422c.151.086.132.239-.042.34L409.48,133.4A.658.658,0,0,1,408.89,133.427Z" transform="translate(-406.325 -130.208)" fill="#d4ecff"></path><path id="Path_736" data-name="Path 736" d="M416.7,137.917l-2.462-1.422c-.151-.087-.132-.239.042-.34l2.378-1.373a.654.654,0,0,1,.59-.024l2.462,1.421c.151.087.132.24-.042.34l-2.378,1.373A.658.658,0,0,1,416.7,137.917Z" transform="translate(-405.906 -129.967)" fill="#d4ecff"></path><path id="Path_737" data-name="Path 737" d="M424.507,142.406l-2.464-1.421c-.151-.087-.132-.24.043-.34l2.377-1.373a.654.654,0,0,1,.59-.024l2.463,1.421c.152.087.133.239-.042.34l-2.378,1.373A.652.652,0,0,1,424.507,142.406Z" transform="translate(-405.487 -129.726)" fill="#d4ecff"></path><path id="Path_738" data-name="Path 738" d="M432.315,146.9l-2.464-1.422c-.151-.086-.132-.239.043-.34l2.377-1.373a.658.658,0,0,1,.59-.024l2.462,1.422c.152.086.133.239-.042.34l-2.378,1.373A.656.656,0,0,1,432.315,146.9Z" transform="translate(-405.068 -129.485)" fill="#d4ecff"></path></g><path id="Path_739" data-name="Path 739" d="M390.239,132.875l.051.028a2.847,2.847,0,0,1,.255-.175l17.187-9.924a4.736,4.736,0,0,1,4.262-.176l42.449,24.606c1.006-.721,1.059-1.7.05-2.285l-42.5-24.635a4.74,4.74,0,0,0-4.262.177l-17.187,9.923C389.283,131.142,389.146,132.243,390.239,132.875Z" transform="translate(-389.501 -119.888)" fill="#5793ce"></path></g></g><g id="Group_184" data-name="Group 184" transform="translate(79.226 62.334)"><path id="Path_740" data-name="Path 740" d="M444.4,197.207l24.163-13.834a5.9,5.9,0,0,0,2.462-4.7v-8.641c0-1.812-1.1-2.646-2.462-1.861L444.4,182a5.9,5.9,0,0,0-2.462,4.7v8.641C441.933,197.159,443.035,197.993,444.4,197.207Z" transform="translate(-441.933 -167.871)" fill="#173d7a"></path><path id="Path_741" data-name="Path 741" d="M469.723,167.9a2.41,2.41,0,0,1,.619,1.8v8.641a5.9,5.9,0,0,1-2.462,4.7l-24.163,13.835a1.777,1.777,0,0,1-1.2.26,1.467,1.467,0,0,0,1.844.063l24.163-13.834a5.9,5.9,0,0,0,2.462-4.7v-8.641C470.99,168.794,470.475,168.031,469.723,167.9Z" transform="translate(-441.902 -167.869)" fill="#fff"></path><g id="Group_183" data-name="Group 183" transform="translate(9.193 10.528)"><path id="Path_742" data-name="Path 742" d="M451.194,187.066l2.217-1.28a1.285,1.285,0,0,0,.536-1.025v-2.368c0-.4-.24-.576-.536-.406l-2.217,1.28a1.285,1.285,0,0,0-.536,1.025v2.368C450.658,187.055,450.9,187.237,451.194,187.066Z" transform="translate(-450.658 -177.644)" fill="#396caa"></path><path id="Path_743" data-name="Path 743" d="M458.228,183.005l2.217-1.28a1.285,1.285,0,0,0,.536-1.025v-2.368c0-.4-.24-.576-.536-.406l-2.217,1.28a1.285,1.285,0,0,0-.536,1.025V182.6C457.692,182.994,457.932,183.176,458.228,183.005Z" transform="translate(-450.28 -177.862)" fill="#fff"></path></g></g><g id="Group_186" data-name="Group 186" transform="translate(79.226 124.776)"><path id="Path_744" data-name="Path 744" d="M444.4,256.468l24.163-13.835a5.9,5.9,0,0,0,2.462-4.7v-8.641c0-1.812-1.1-2.646-2.462-1.861L444.4,241.261a5.9,5.9,0,0,0-2.462,4.7v8.641C441.933,256.419,443.035,257.253,444.4,256.468Z" transform="translate(-441.933 -227.131)" fill="#173d7a"></path><path id="Path_745" data-name="Path 745" d="M469.723,227.164a2.41,2.41,0,0,1,.619,1.8V237.6a5.9,5.9,0,0,1-2.462,4.7l-24.163,13.835a1.772,1.772,0,0,1-1.2.26,1.468,1.468,0,0,0,1.844.064l24.163-13.835a5.9,5.9,0,0,0,2.462-4.7v-8.641C470.99,228.054,470.475,227.292,469.723,227.164Z" transform="translate(-441.902 -227.129)" fill="#fff"></path><g id="Group_185" data-name="Group 185" transform="translate(9.193 10.528)"><path id="Path_746" data-name="Path 746" d="M451.194,246.326l2.217-1.279a1.289,1.289,0,0,0,.536-1.026v-2.368c0-.4-.24-.576-.536-.406l-2.217,1.28a1.285,1.285,0,0,0-.536,1.025v2.368C450.658,246.315,450.9,246.5,451.194,246.326Z" transform="translate(-450.658 -236.904)" fill="#396caa"></path><path id="Path_747" data-name="Path 747" d="M458.228,242.265l2.217-1.28a1.285,1.285,0,0,0,.536-1.025v-2.368c0-.4-.24-.576-.536-.406l-2.217,1.28a1.285,1.285,0,0,0-.536,1.025v2.368C457.692,242.254,457.932,242.436,458.228,242.265Z" transform="translate(-450.28 -237.122)" fill="#396caa"></path></g></g><g id="Group_188" data-name="Group 188" transform="translate(79.226 155.996)"><path id="Path_748" data-name="Path 748" d="M444.4,286.1l24.163-13.835a5.9,5.9,0,0,0,2.462-4.7v-8.64c0-1.813-1.1-2.647-2.462-1.862L444.4,270.891a5.9,5.9,0,0,0-2.462,4.7v8.64C441.933,286.049,443.035,286.883,444.4,286.1Z" transform="translate(-441.933 -256.761)" fill="#173d7a"></path><path id="Path_749" data-name="Path 749" d="M469.723,256.794a2.41,2.41,0,0,1,.619,1.8v8.641a5.9,5.9,0,0,1-2.462,4.7l-24.163,13.835a1.772,1.772,0,0,1-1.2.26,1.468,1.468,0,0,0,1.844.064l24.163-13.835a5.9,5.9,0,0,0,2.462-4.7v-8.641C470.99,257.684,470.475,256.921,469.723,256.794Z" transform="translate(-441.902 -256.759)" fill="#fff"></path><g id="Group_187" data-name="Group 187" transform="translate(9.193 10.528)"><path id="Path_750" data-name="Path 750" d="M451.194,275.956l2.217-1.279a1.289,1.289,0,0,0,.536-1.026v-2.367c0-.4-.24-.577-.536-.407l-2.217,1.28a1.285,1.285,0,0,0-.536,1.025v2.368C450.658,275.945,450.9,276.127,451.194,275.956Z" transform="translate(-450.658 -266.534)" fill="#fff"></path><path id="Path_751" data-name="Path 751" d="M458.228,271.9l2.217-1.28a1.285,1.285,0,0,0,.536-1.025v-2.368c0-.4-.24-.576-.536-.406l-2.217,1.28a1.285,1.285,0,0,0-.536,1.025v2.368C457.692,271.884,457.932,272.067,458.228,271.9Z" transform="translate(-450.28 -266.752)" fill="#396caa"></path></g></g><g id="Group_190" data-name="Group 190" transform="translate(79.226 93.555)"><path id="Path_752" data-name="Path 752" d="M444.4,226.837,468.559,213a5.9,5.9,0,0,0,2.462-4.7v-8.641c0-1.812-1.1-2.646-2.462-1.861L444.4,211.631a5.9,5.9,0,0,0-2.462,4.7v8.641C441.933,226.789,443.035,227.623,444.4,226.837Z" transform="translate(-441.933 -197.501)" fill="#173d7a"></path><path id="Path_753" data-name="Path 753" d="M469.723,197.534a2.41,2.41,0,0,1,.619,1.8v8.641a5.9,5.9,0,0,1-2.462,4.7l-24.163,13.835a1.772,1.772,0,0,1-1.2.26,1.467,1.467,0,0,0,1.844.063L468.527,213a5.9,5.9,0,0,0,2.462-4.7v-8.641C470.99,198.424,470.475,197.661,469.723,197.534Z" transform="translate(-441.902 -197.499)" fill="#fff"></path><g id="Group_189" data-name="Group 189" transform="translate(9.193 10.528)"><path id="Path_754" data-name="Path 754" d="M451.194,216.7l2.217-1.28a1.285,1.285,0,0,0,.536-1.025v-2.368c0-.4-.24-.576-.536-.406l-2.217,1.28a1.285,1.285,0,0,0-.536,1.025v2.368C450.658,216.685,450.9,216.867,451.194,216.7Z" transform="translate(-450.658 -207.274)" fill="#fff"></path><path id="Path_755" data-name="Path 755" d="M458.228,212.635l2.217-1.28a1.285,1.285,0,0,0,.536-1.025v-2.368c0-.4-.24-.576-.536-.406l-2.217,1.28a1.285,1.285,0,0,0-.536,1.025v2.368C457.692,212.624,457.932,212.806,458.228,212.635Z" transform="translate(-450.28 -207.492)" fill="#fff"></path></g></g></g><g id="Group_192" data-name="Group 192" transform="translate(2.753 33.714)"><path id="Path_756" data-name="Path 756" d="M427.363,189.82l-55.747-32.186a5.412,5.412,0,0,1-2.259-4.317v-10.63c0-1.664,1.012-2.429,2.259-1.708l55.747,32.186a5.408,5.408,0,0,1,2.259,4.316v10.631C429.623,189.775,428.611,190.54,427.363,189.82Z" transform="translate(-369.357 -140.709)" fill="#5793ce"></path><path id="Path_757" data-name="Path 757" d="M425.625,185.9l-52.546-30.338a2.744,2.744,0,0,1-1.146-2.19v-7.992c0-.844.513-1.232,1.146-.866l52.546,30.338a2.745,2.745,0,0,1,1.146,2.19v7.992C426.771,185.874,426.258,186.261,425.625,185.9Z" transform="translate(-369.219 -140.512)" fill="#d4ecff" opacity="0.4"></path><path id="Path_758" data-name="Path 758" d="M383.868,157.543l-7.841-4.527a2.668,2.668,0,0,1-1.113-2.127h0c0-.82.5-1.2,1.113-.841l7.841,4.527a2.666,2.666,0,0,1,1.114,2.127h0C384.982,157.522,384.484,157.9,383.868,157.543Z" transform="translate(-369.059 -140.214)" fill="#d4ecff"></path><path id="Path_759" data-name="Path 759" d="M389.885,159.529c0,.82-.575,1.153-1.284.743a2.841,2.841,0,0,1-1.286-2.226c0-.82.575-1.152,1.286-.742A2.842,2.842,0,0,1,389.885,159.529Z" transform="translate(-368.393 -139.827)" fill="#173d7a"></path><path id="Path_760" data-name="Path 760" d="M394.189,162.014c0,.82-.575,1.152-1.285.742a2.84,2.84,0,0,1-1.286-2.225c0-.82.575-1.153,1.286-.743A2.841,2.841,0,0,1,394.189,162.014Z" transform="translate(-368.162 -139.694)" fill="#173d7a"></path><path id="Path_761" data-name="Path 761" d="M398.492,164.5c0,.82-.575,1.153-1.285.743a2.841,2.841,0,0,1-1.286-2.226c0-.82.575-1.152,1.286-.742A2.84,2.84,0,0,1,398.492,164.5Z" transform="translate(-367.931 -139.56)" fill="#d4ecff"></path><path id="Path_762" data-name="Path 762" d="M402.795,166.983c0,.82-.575,1.152-1.286.742a2.844,2.844,0,0,1-1.286-2.226c0-.819.576-1.152,1.286-.742A2.841,2.841,0,0,1,402.795,166.983Z" transform="translate(-367.7 -139.427)" fill="#173d7a"></path><path id="Path_763" data-name="Path 763" d="M420.962,179.879l-2.642-1.526a1.71,1.71,0,0,1-.713-1.365v-2.794c0-.526.319-.768.713-.541l2.642,1.526a1.709,1.709,0,0,1,.714,1.365v2.794C421.676,179.864,421.357,180.106,420.962,179.879Z" transform="translate(-366.767 -138.944)" fill="#173d7a"></path></g><g id="Group_193" data-name="Group 193" transform="translate(2.753 52.459)"><path id="Path_764" data-name="Path 764" d="M427.363,207.61l-55.747-32.186a5.412,5.412,0,0,1-2.259-4.317v-10.63c0-1.664,1.012-2.429,2.259-1.708l55.747,32.185a5.412,5.412,0,0,1,2.259,4.317V205.9C429.623,207.566,428.611,208.33,427.363,207.61Z" transform="translate(-369.357 -158.499)" fill="#5793ce"></path><path id="Path_765" data-name="Path 765" d="M425.625,203.686l-52.546-30.338a2.744,2.744,0,0,1-1.146-2.19v-7.992c0-.844.513-1.232,1.146-.866l52.546,30.338a2.744,2.744,0,0,1,1.146,2.191v7.991C426.771,203.664,426.258,204.051,425.625,203.686Z" transform="translate(-369.219 -158.302)" fill="#d4ecff" opacity="0.4"></path><path id="Path_766" data-name="Path 766" d="M383.868,175.333l-7.841-4.528a2.664,2.664,0,0,1-1.113-2.126h0c0-.82.5-1.2,1.113-.841l7.841,4.527a2.666,2.666,0,0,1,1.114,2.127h0C384.982,175.312,384.484,175.688,383.868,175.333Z" transform="translate(-369.059 -158.004)" fill="#d4ecff"></path><path id="Path_767" data-name="Path 767" d="M389.885,177.32c0,.819-.575,1.152-1.284.742a2.841,2.841,0,0,1-1.286-2.226c0-.82.575-1.152,1.286-.742A2.842,2.842,0,0,1,389.885,177.32Z" transform="translate(-368.393 -157.617)" fill="#fff"></path><path id="Path_768" data-name="Path 768" d="M394.189,179.8c0,.82-.575,1.152-1.285.742a2.841,2.841,0,0,1-1.286-2.226c0-.819.575-1.152,1.286-.742A2.841,2.841,0,0,1,394.189,179.8Z" transform="translate(-368.162 -157.484)" fill="#173d7a"></path><path id="Path_769" data-name="Path 769" d="M398.492,182.288c0,.82-.575,1.153-1.285.743a2.841,2.841,0,0,1-1.286-2.226c0-.82.575-1.152,1.286-.742A2.84,2.84,0,0,1,398.492,182.288Z" transform="translate(-367.931 -157.35)" fill="#d4ecff"></path><path id="Path_770" data-name="Path 770" d="M402.795,184.773c0,.82-.575,1.152-1.286.742a2.843,2.843,0,0,1-1.286-2.226c0-.82.576-1.152,1.286-.742A2.841,2.841,0,0,1,402.795,184.773Z" transform="translate(-367.7 -157.217)" fill="#173d7a"></path><path id="Path_771" data-name="Path 771" d="M420.962,197.669l-2.642-1.526a1.711,1.711,0,0,1-.713-1.365v-2.794c0-.527.319-.768.713-.541l2.642,1.526a1.709,1.709,0,0,1,.714,1.365v2.794C421.676,197.654,421.357,197.9,420.962,197.669Z" transform="translate(-366.767 -156.734)" fill="#173d7a"></path></g><g id="Group_194" data-name="Group 194" transform="translate(2.753 71.204)"><path id="Path_772" data-name="Path 772" d="M427.363,225.4l-55.747-32.185a5.412,5.412,0,0,1-2.259-4.317v-10.63c0-1.664,1.012-2.429,2.259-1.708l55.747,32.185a5.412,5.412,0,0,1,2.259,4.317v10.63C429.623,225.355,428.611,226.12,427.363,225.4Z" transform="translate(-369.357 -176.289)" fill="#5793ce"></path><path id="Path_773" data-name="Path 773" d="M425.625,221.476l-52.546-30.338a2.744,2.744,0,0,1-1.146-2.19v-7.992c0-.844.513-1.232,1.146-.866l52.546,30.338a2.744,2.744,0,0,1,1.146,2.19v7.992C426.771,221.454,426.258,221.841,425.625,221.476Z" transform="translate(-369.219 -176.092)" fill="#d4ecff" opacity="0.4"></path><path id="Path_774" data-name="Path 774" d="M383.868,193.123l-7.841-4.528a2.664,2.664,0,0,1-1.113-2.126h0c0-.82.5-1.2,1.113-.841l7.841,4.527a2.666,2.666,0,0,1,1.114,2.127h0C384.982,193.1,384.484,193.478,383.868,193.123Z" transform="translate(-369.059 -175.794)" fill="#d4ecff"></path><path id="Path_775" data-name="Path 775" d="M389.885,195.109c0,.82-.575,1.153-1.284.743a2.841,2.841,0,0,1-1.286-2.226c0-.82.575-1.152,1.286-.742A2.842,2.842,0,0,1,389.885,195.109Z" transform="translate(-368.393 -175.407)" fill="#fff"></path><path id="Path_776" data-name="Path 776" d="M394.189,197.594c0,.82-.575,1.152-1.285.742a2.841,2.841,0,0,1-1.286-2.226c0-.82.575-1.152,1.286-.742A2.841,2.841,0,0,1,394.189,197.594Z" transform="translate(-368.162 -175.274)" fill="#173d7a"></path><path id="Path_777" data-name="Path 777" d="M398.492,200.078c0,.82-.575,1.153-1.285.742a2.837,2.837,0,0,1-1.286-2.225c0-.82.575-1.152,1.286-.742A2.839,2.839,0,0,1,398.492,200.078Z" transform="translate(-367.931 -175.14)" fill="#d4ecff"></path><path id="Path_778" data-name="Path 778" d="M402.795,202.563c0,.82-.575,1.152-1.286.742a2.844,2.844,0,0,1-1.286-2.226c0-.82.576-1.152,1.286-.742A2.841,2.841,0,0,1,402.795,202.563Z" transform="translate(-367.7 -175.007)" fill="#173d7a"></path><path id="Path_779" data-name="Path 779" d="M420.962,215.459l-2.642-1.526a1.71,1.71,0,0,1-.713-1.365v-2.794c0-.526.319-.768.713-.541l2.642,1.525a1.712,1.712,0,0,1,.714,1.366v2.794C421.676,215.444,421.357,215.686,420.962,215.459Z" transform="translate(-366.767 -174.524)" fill="#173d7a"></path></g><g id="Group_195" data-name="Group 195" transform="translate(2.753 89.949)"><path id="Path_780" data-name="Path 780" d="M427.363,243.189,371.616,211a5.412,5.412,0,0,1-2.259-4.317v-10.63c0-1.664,1.012-2.429,2.259-1.708l55.747,32.185a5.412,5.412,0,0,1,2.259,4.317v10.63C429.623,243.145,428.611,243.91,427.363,243.189Z" transform="translate(-369.357 -194.079)" fill="#5793ce"></path><path id="Path_781" data-name="Path 781" d="M425.625,239.266l-52.546-30.338a2.744,2.744,0,0,1-1.146-2.19v-7.992c0-.844.513-1.232,1.146-.866l52.546,30.338a2.744,2.744,0,0,1,1.146,2.19V238.4C426.771,239.244,426.258,239.631,425.625,239.266Z" transform="translate(-369.219 -193.882)" fill="#d4ecff" opacity="0.4"></path><path id="Path_782" data-name="Path 782" d="M383.868,210.913l-7.841-4.528a2.666,2.666,0,0,1-1.113-2.126h0c0-.82.5-1.2,1.113-.842l7.841,4.528a2.666,2.666,0,0,1,1.114,2.127h0C384.982,210.891,384.484,211.268,383.868,210.913Z" transform="translate(-369.059 -193.584)" fill="#d4ecff"></path><path id="Path_783" data-name="Path 783" d="M389.885,212.9c0,.82-.575,1.153-1.284.743a2.841,2.841,0,0,1-1.286-2.226c0-.82.575-1.152,1.286-.742A2.841,2.841,0,0,1,389.885,212.9Z" transform="translate(-368.393 -193.197)" fill="#173d7a"></path><path id="Path_784" data-name="Path 784" d="M394.189,215.384c0,.82-.575,1.152-1.285.742a2.841,2.841,0,0,1-1.286-2.226c0-.82.575-1.152,1.286-.742A2.841,2.841,0,0,1,394.189,215.384Z" transform="translate(-368.162 -193.064)" fill="#173d7a"></path><path id="Path_785" data-name="Path 785" d="M398.492,217.868c0,.82-.575,1.152-1.285.742a2.839,2.839,0,0,1-1.286-2.225c0-.82.575-1.152,1.286-.743A2.841,2.841,0,0,1,398.492,217.868Z" transform="translate(-367.931 -192.93)" fill="#d4ecff"></path><path id="Path_786" data-name="Path 786" d="M402.795,220.353c0,.82-.575,1.152-1.286.742a2.844,2.844,0,0,1-1.286-2.226c0-.82.576-1.152,1.286-.742A2.841,2.841,0,0,1,402.795,220.353Z" transform="translate(-367.7 -192.797)" fill="#173d7a"></path><path id="Path_787" data-name="Path 787" d="M420.962,233.249l-2.642-1.526a1.71,1.71,0,0,1-.713-1.365v-2.794c0-.527.319-.768.713-.541l2.642,1.525a1.712,1.712,0,0,1,.714,1.366v2.794C421.676,233.234,421.357,233.476,420.962,233.249Z" transform="translate(-366.767 -192.314)" fill="#d4ecff"></path></g><g id="Group_196" data-name="Group 196" transform="translate(2.753 108.694)"><path id="Path_788" data-name="Path 788" d="M427.363,260.979l-55.747-32.185a5.412,5.412,0,0,1-2.259-4.317V213.847c0-1.663,1.012-2.428,2.259-1.707l55.747,32.185a5.412,5.412,0,0,1,2.259,4.317v10.63C429.623,260.935,428.611,261.7,427.363,260.979Z" transform="translate(-369.357 -211.869)" fill="#5793ce"></path><path id="Path_789" data-name="Path 789" d="M425.625,257.056l-52.546-30.338a2.744,2.744,0,0,1-1.146-2.19v-7.992c0-.844.513-1.232,1.146-.866l52.546,30.338a2.744,2.744,0,0,1,1.146,2.19v7.992C426.771,257.033,426.258,257.421,425.625,257.056Z" transform="translate(-369.219 -211.672)" fill="#d4ecff" opacity="0.4"></path><path id="Path_790" data-name="Path 790" d="M383.868,228.7l-7.841-4.528a2.666,2.666,0,0,1-1.113-2.126h0c0-.82.5-1.2,1.113-.842l7.841,4.528a2.666,2.666,0,0,1,1.114,2.127h0C384.982,228.681,384.484,229.058,383.868,228.7Z" transform="translate(-369.059 -211.374)" fill="#d4ecff"></path><path id="Path_791" data-name="Path 791" d="M389.885,230.689c0,.82-.575,1.152-1.284.742a2.837,2.837,0,0,1-1.286-2.225c0-.82.575-1.152,1.286-.742A2.839,2.839,0,0,1,389.885,230.689Z" transform="translate(-368.393 -210.987)" fill="#173d7a"></path><path id="Path_792" data-name="Path 792" d="M394.189,233.174c0,.82-.575,1.152-1.285.742a2.841,2.841,0,0,1-1.286-2.226c0-.82.575-1.152,1.286-.742A2.841,2.841,0,0,1,394.189,233.174Z" transform="translate(-368.162 -210.854)" fill="#fff"></path><path id="Path_793" data-name="Path 793" d="M398.492,235.658c0,.82-.575,1.152-1.285.742a2.837,2.837,0,0,1-1.286-2.225c0-.82.575-1.153,1.286-.742A2.837,2.837,0,0,1,398.492,235.658Z" transform="translate(-367.931 -210.72)" fill="#d4ecff"></path><path id="Path_794" data-name="Path 794" d="M402.795,238.143c0,.82-.575,1.152-1.286.742a2.844,2.844,0,0,1-1.286-2.226c0-.82.576-1.152,1.286-.742A2.841,2.841,0,0,1,402.795,238.143Z" transform="translate(-367.7 -210.587)" fill="#fff"></path><path id="Path_795" data-name="Path 795" d="M420.962,251.039l-2.642-1.526a1.71,1.71,0,0,1-.713-1.365v-2.794c0-.527.319-.768.713-.541l2.642,1.525a1.709,1.709,0,0,1,.714,1.366V250.5C421.676,251.024,421.357,251.266,420.962,251.039Z" transform="translate(-366.767 -210.104)" fill="#d4ecff"></path></g><g id="Group_197" data-name="Group 197" transform="translate(2.753 127.439)"><path id="Path_796" data-name="Path 796" d="M427.363,278.769l-55.747-32.185a5.412,5.412,0,0,1-2.259-4.317V231.637c0-1.663,1.012-2.428,2.259-1.708l55.747,32.186a5.412,5.412,0,0,1,2.259,4.317v10.63C429.623,278.725,428.611,279.49,427.363,278.769Z" transform="translate(-369.357 -229.658)" fill="#5793ce"></path><path id="Path_797" data-name="Path 797" d="M425.625,274.846l-52.546-30.338a2.744,2.744,0,0,1-1.146-2.19v-7.992c0-.844.513-1.232,1.146-.866L425.625,263.8a2.744,2.744,0,0,1,1.146,2.19v7.992C426.771,274.824,426.258,275.211,425.625,274.846Z" transform="translate(-369.219 -229.461)" fill="#d4ecff" opacity="0.4"></path><path id="Path_798" data-name="Path 798" d="M383.868,246.493l-7.841-4.528a2.666,2.666,0,0,1-1.113-2.126h0c0-.82.5-1.2,1.113-.842l7.841,4.528a2.666,2.666,0,0,1,1.114,2.127h0C384.982,246.471,384.484,246.848,383.868,246.493Z" transform="translate(-369.059 -229.164)" fill="#d4ecff"></path><path id="Path_799" data-name="Path 799" d="M389.885,248.479c0,.82-.575,1.152-1.284.742A2.837,2.837,0,0,1,387.315,247c0-.82.575-1.152,1.286-.742A2.839,2.839,0,0,1,389.885,248.479Z" transform="translate(-368.393 -228.777)" fill="#173d7a"></path><path id="Path_800" data-name="Path 800" d="M394.189,250.964c0,.82-.575,1.152-1.285.742a2.841,2.841,0,0,1-1.286-2.226c0-.82.575-1.152,1.286-.742A2.841,2.841,0,0,1,394.189,250.964Z" transform="translate(-368.162 -228.643)" fill="#173d7a"></path><path id="Path_801" data-name="Path 801" d="M398.492,253.448c0,.82-.575,1.152-1.285.742a2.84,2.84,0,0,1-1.286-2.225c0-.82.575-1.152,1.286-.743A2.841,2.841,0,0,1,398.492,253.448Z" transform="translate(-367.931 -228.51)" fill="#d4ecff"></path><path id="Path_802" data-name="Path 802" d="M402.795,255.933c0,.819-.575,1.152-1.286.742a2.844,2.844,0,0,1-1.286-2.226c0-.82.576-1.152,1.286-.742A2.841,2.841,0,0,1,402.795,255.933Z" transform="translate(-367.7 -228.376)" fill="#173d7a"></path><path id="Path_803" data-name="Path 803" d="M420.962,268.828,418.32,267.3a1.71,1.71,0,0,1-.713-1.365v-2.8c0-.526.319-.767.713-.539l2.642,1.525a1.711,1.711,0,0,1,.714,1.366v2.794C421.676,268.814,421.357,269.056,420.962,268.828Z" transform="translate(-366.767 -227.894)" fill="#173d7a"></path></g><g id="Group_198" data-name="Group 198" transform="translate(2.753 146.184)"><path id="Path_804" data-name="Path 804" d="M427.363,296.559l-55.747-32.185a5.412,5.412,0,0,1-2.259-4.317V249.427c0-1.664,1.012-2.428,2.259-1.708L427.363,279.9a5.412,5.412,0,0,1,2.259,4.317v10.63C429.623,296.515,428.611,297.28,427.363,296.559Z" transform="translate(-369.357 -247.448)" fill="#5793ce"></path><path id="Path_805" data-name="Path 805" d="M425.625,292.636,373.078,262.3a2.746,2.746,0,0,1-1.146-2.191v-7.991c0-.844.513-1.232,1.146-.866l52.546,30.338a2.742,2.742,0,0,1,1.146,2.19v7.992C426.771,292.613,426.258,293,425.625,292.636Z" transform="translate(-369.219 -247.251)" fill="#d4ecff" opacity="0.4"></path><path id="Path_806" data-name="Path 806" d="M383.868,264.283l-7.841-4.528a2.666,2.666,0,0,1-1.113-2.126h0c0-.82.5-1.2,1.113-.842l7.841,4.528a2.665,2.665,0,0,1,1.114,2.126h0C384.982,264.261,384.484,264.638,383.868,264.283Z" transform="translate(-369.059 -246.954)" fill="#d4ecff"></path><path id="Path_807" data-name="Path 807" d="M389.885,266.269c0,.82-.575,1.152-1.284.742a2.839,2.839,0,0,1-1.286-2.225c0-.82.575-1.152,1.286-.743A2.842,2.842,0,0,1,389.885,266.269Z" transform="translate(-368.393 -246.566)" fill="#fff"></path><path id="Path_808" data-name="Path 808" d="M394.189,268.754c0,.819-.575,1.152-1.285.742a2.841,2.841,0,0,1-1.286-2.226c0-.82.575-1.152,1.286-.742A2.841,2.841,0,0,1,394.189,268.754Z" transform="translate(-368.162 -246.433)" fill="#173d7a"></path><path id="Path_809" data-name="Path 809" d="M398.492,271.238c0,.82-.575,1.152-1.285.742a2.84,2.84,0,0,1-1.286-2.225c0-.82.575-1.153,1.286-.743A2.841,2.841,0,0,1,398.492,271.238Z" transform="translate(-367.931 -246.3)" fill="#d4ecff"></path><path id="Path_810" data-name="Path 810" d="M402.795,273.723c0,.819-.575,1.152-1.286.742a2.844,2.844,0,0,1-1.286-2.226c0-.82.576-1.152,1.286-.742A2.841,2.841,0,0,1,402.795,273.723Z" transform="translate(-367.7 -246.166)" fill="#173d7a"></path><path id="Path_811" data-name="Path 811" d="M420.962,286.617l-2.642-1.525a1.711,1.711,0,0,1-.713-1.365v-2.8c0-.526.319-.767.713-.539l2.642,1.525a1.709,1.709,0,0,1,.714,1.366v2.794C421.676,286.6,421.357,286.846,420.962,286.617Z" transform="translate(-366.767 -245.684)" fill="#d4ecff"></path></g></g><g id="Group_203" data-name="Group 203" transform="translate(984.658 218.704)"><path id="Path_812" data-name="Path 812" d="M409.062,133.862a.841.841,0,0,1-.841-.842V98.367a.841.841,0,1,1,1.683,0v34.654A.842.842,0,0,1,409.062,133.862Z" transform="translate(-404.184 -78.081)" fill="#5793ce"></path><g id="Group_202" data-name="Group 202"><g id="Group_200" data-name="Group 200" transform="translate(1.867 18.107)"><rect id="Rectangle_380" data-name="Rectangle 380" width="6.021" height="12.992" transform="translate(0)" fill="#5793ce"></rect><path id="Path_813" data-name="Path 813" d="M411.3,109.9a4.705,4.705,0,0,1-4.257,0,1.3,1.3,0,0,1,0-2.458,4.705,4.705,0,0,1,4.257,0A1.3,1.3,0,0,1,411.3,109.9Z" transform="translate(-406.162 -95.683)" fill="#5793ce"></path></g><g id="Group_201" data-name="Group 201"><path id="Path_814" data-name="Path 814" d="M406.162,98.315v4.4a7.788,7.788,0,0,0,6.021,0v-4.4A7.788,7.788,0,0,0,406.162,98.315Z" transform="translate(-404.295 -78.071)" fill="#396caa"></path><path id="Path_815" data-name="Path 815" d="M412.717,100.545a7.623,7.623,0,0,1-6.9,0c-1.905-1.1-1.905-2.883,0-3.983a7.62,7.62,0,0,1,6.9,0C414.621,97.662,414.621,99.445,412.717,100.545Z" transform="translate(-404.39 -78.177)" fill="#5793ce"></path></g></g></g><g id="Group_207" data-name="Group 207" transform="translate(993.119 223.617)"><path id="Path_816" data-name="Path 816" d="M416.87,138.524a.842.842,0,0,1-.842-.842V103.029a.842.842,0,0,1,1.684,0v34.654A.842.842,0,0,1,416.87,138.524Z" transform="translate(-411.992 -82.743)" fill="#5793ce"></path><g id="Group_206" data-name="Group 206" transform="translate(0 0)"><g id="Group_204" data-name="Group 204" transform="translate(1.867 18.107)"><rect id="Rectangle_382" data-name="Rectangle 382" width="6.021" height="12.992" transform="translate(0)" fill="#5793ce"></rect><path id="Path_817" data-name="Path 817" d="M419.109,114.565a4.7,4.7,0,0,1-4.257,0,1.3,1.3,0,0,1,0-2.457,4.705,4.705,0,0,1,4.257,0A1.3,1.3,0,0,1,419.109,114.565Z" transform="translate(-413.97 -100.345)" fill="#5793ce"></path></g><g id="Group_205" data-name="Group 205"><path id="Path_818" data-name="Path 818" d="M413.97,102.978v4.4a7.788,7.788,0,0,0,6.021,0v-4.4A7.788,7.788,0,0,0,413.97,102.978Z" transform="translate(-412.103 -82.733)" fill="#396caa"></path><path id="Path_819" data-name="Path 819" d="M420.525,105.207a7.623,7.623,0,0,1-6.9,0c-1.9-1.1-1.9-2.883,0-3.983a7.629,7.629,0,0,1,6.9,0C422.429,102.324,422.43,104.107,420.525,105.207Z" transform="translate(-412.198 -82.839)" fill="#5793ce"></path></g></g></g><g id="Group_211" data-name="Group 211" transform="translate(1001.58 228.53)"><path id="Path_820" data-name="Path 820" d="M424.679,143.187a.841.841,0,0,1-.842-.842V107.692a.842.842,0,0,1,1.684,0v34.654A.842.842,0,0,1,424.679,143.187Z" transform="translate(-419.8 -87.406)" fill="#5793ce"></path><g id="Group_210" data-name="Group 210"><g id="Group_208" data-name="Group 208" transform="translate(1.867 18.107)"><rect id="Rectangle_384" data-name="Rectangle 384" width="6.021" height="12.992" transform="translate(0)" fill="#5793ce"></rect><path id="Path_821" data-name="Path 821" d="M426.917,119.228a4.705,4.705,0,0,1-4.257,0,1.3,1.3,0,0,1,0-2.458,4.705,4.705,0,0,1,4.257,0A1.3,1.3,0,0,1,426.917,119.228Z" transform="translate(-421.778 -105.007)" fill="#5793ce"></path></g><g id="Group_209" data-name="Group 209"><path id="Path_822" data-name="Path 822" d="M421.778,107.64v4.4a7.788,7.788,0,0,0,6.021,0v-4.4A7.788,7.788,0,0,0,421.778,107.64Z" transform="translate(-419.911 -87.396)" fill="#396caa"></path><path id="Path_823" data-name="Path 823" d="M428.333,109.87a7.629,7.629,0,0,1-6.9,0c-1.905-1.1-1.905-2.883,0-3.983a7.623,7.623,0,0,1,6.9,0C430.238,106.987,430.238,108.77,428.333,109.87Z" transform="translate(-420.006 -87.502)" fill="#5793ce"></path></g></g></g><g id="Group_215" data-name="Group 215" transform="translate(1010.041 233.442)"><path id="Path_824" data-name="Path 824" d="M432.486,147.849a.842.842,0,0,1-.842-.842V112.354a.842.842,0,0,1,1.684,0v34.654A.841.841,0,0,1,432.486,147.849Z" transform="translate(-427.608 -92.068)" fill="#5793ce"></path><g id="Group_214" data-name="Group 214"><g id="Group_212" data-name="Group 212" transform="translate(1.868 18.107)"><rect id="Rectangle_386" data-name="Rectangle 386" width="6.021" height="12.992" fill="#5793ce"></rect><path id="Path_825" data-name="Path 825" d="M434.725,123.89a4.705,4.705,0,0,1-4.257,0,1.3,1.3,0,0,1,0-2.457,4.7,4.7,0,0,1,4.257,0A1.3,1.3,0,0,1,434.725,123.89Z" transform="translate(-429.586 -109.67)" fill="#5793ce"></path></g><g id="Group_213" data-name="Group 213"><path id="Path_826" data-name="Path 826" d="M429.586,112.3v4.4a7.788,7.788,0,0,0,6.021,0v-4.4A7.8,7.8,0,0,0,429.586,112.3Z" transform="translate(-427.719 -92.058)" fill="#396caa"></path><path id="Path_827" data-name="Path 827" d="M436.141,114.532a7.623,7.623,0,0,1-6.9,0c-1.905-1.1-1.905-2.883,0-3.983a7.623,7.623,0,0,1,6.9,0C438.046,111.649,438.046,113.432,436.141,114.532Z" transform="translate(-427.814 -92.164)" fill="#5793ce"></path></g></g></g><g id="Group_221" data-name="Group 221" transform="translate(997.997 213.924)"><path id="Path_839" data-name="Path 839" d="M421.882,94.806l1.937-.973-1.907-1.445Z" transform="translate(-405.869 -67.621)" fill="#5793ce"></path><path id="Path_840" data-name="Path 840" d="M416.362,69.9l1.88-.951.034.984Z" transform="translate(-406.165 -68.879)" fill="#5793ce"></path><path id="Path_841" data-name="Path 841" d="M427.219,89.112l1.962-.987L425.4,84.533Z" transform="translate(-405.68 -68.043)" fill="#5793ce"></path><g id="Group_219" data-name="Group 219" transform="translate(1.966)"><path id="Path_842" data-name="Path 842" d="M423.693,94.6l-9.171-5.4a1.959,1.959,0,0,1-.84-1.543l.031-10.617,10.856,6.394-.031,10.617C424.537,94.624,424.158,94.871,423.693,94.6Z" transform="translate(-408.275 -68.445)" fill="#5793ce"></path><path id="Path_843" data-name="Path 843" d="M418.641,68.964l-9.9,6.374c-.42.27-.081,1.278.557,1.654l10.115,5.958,10.115,5.958c.639.376.983-.23.566-.994l-9.836-18C419.83,69.137,419.069,68.689,418.641,68.964Z" transform="translate(-408.551 -68.883)" fill="#5793ce"></path></g><g id="Group_220" data-name="Group 220" transform="translate(0 0.99)"><path id="Path_844" data-name="Path 844" d="M421.826,95.536l-9.17-5.4a1.951,1.951,0,0,1-.84-1.542l.031-10.617L422.7,84.37l-.03,10.617C422.67,95.564,422.292,95.81,421.826,95.536Z" transform="translate(-406.409 -69.385)" fill="#396caa"></path><path id="Path_845" data-name="Path 845" d="M416.774,69.9l-9.9,6.373c-.42.271-.081,1.279.557,1.655l10.115,5.958,10.115,5.958c.639.376.983-.23.565-.994l-9.835-18C417.964,70.077,417.2,69.629,416.774,69.9Z" transform="translate(-406.685 -69.823)" fill="#396caa"></path></g></g><path id="Path_846" data-name="Path 846" d="M452.809,278.274h-1.124V215.509l7.412-4.28v-30.9h1.124v31.545l-7.412,4.28Z" transform="translate(584.2 145.069)" fill="#fff"></path><g id="Group_223" data-name="Group 223" transform="translate(829.782 390.57)"><path id="Path_847" data-name="Path 847" d="M284.844,288.514a3.85,3.85,0,0,1-1.9-.5l-20.48-11.6a1.966,1.966,0,0,1-.017-3.413l51.086-29.551a9.522,9.522,0,0,1,9.5,0l58.39,33.747-.843,1.459-58.389-33.747a7.839,7.839,0,0,0-7.817,0l-51.085,29.55a.282.282,0,0,0,0,.49l20.482,11.6a2.157,2.157,0,0,0,2.245-.065l8.654-5.6.915,1.414-8.655,5.6A3.845,3.845,0,0,1,284.844,288.514Z" transform="translate(-261.467 -242.18)" fill="#b2d3ea"></path></g><g id="Group_234" data-name="Group 234" transform="translate(843.153 336.995)"><path id="Path_848" data-name="Path 848" d="M310.423,292.239l-27.531-15.895c-1.69-.976-1.477-2.68.473-3.806l26.583-15.349a7.328,7.328,0,0,1,6.593-.273l27.531,15.895c1.69.976,1.478,2.681-.473,3.807l-26.583,15.348A7.328,7.328,0,0,1,310.423,292.239Z" transform="translate(-273.748 -187.85)" fill="#b2d3ea"></path><g id="Group_225" data-name="Group 225" transform="translate(0 38.019)"><path id="Path_849" data-name="Path 849" d="M353.613,261.4h0V249.5l-26.673-.015-9.22-5.323c-2.116-1.221-5.812-1.068-8.255.342l-8.6,4.966-26.7-.015v12.234a2.392,2.392,0,0,0,1.418,2.211l34.474,19.905c2.116,1.221,5.812,1.068,8.256-.342L351.6,264.247C353.013,263.434,353.692,262.379,353.613,261.4Z" transform="translate(-274.156 -226.563)" fill="#396caa"></path><path id="Path_850" data-name="Path 850" d="M313.89,243.347a9.514,9.514,0,0,0-4.424,1.16l-8.6,4.966-26.7-.015v12.234a2.392,2.392,0,0,0,1.418,2.211l34.474,19.905a7.464,7.464,0,0,0,3.831.818Z" transform="translate(-274.156 -226.562)" fill="#396caa"></path><path id="Path_851" data-name="Path 851" d="M277.188,249.149l-3.022,0v12.234a2.392,2.392,0,0,0,1.418,2.211l1.6.926Z" transform="translate(-274.156 -226.251)" fill="#5793ce"></path><path id="Path_852" data-name="Path 852" d="M308.734,282.706a9.408,9.408,0,0,0,6.6-.076V268.739h-6.6Z" transform="translate(-272.3 -225.199)" fill="#5793ce"></path><path id="Path_853" data-name="Path 853" d="M310.059,272.474l-34.475-19.9c-2.116-1.221-1.851-3.355.592-4.766l33.289-19.219c2.442-1.411,6.139-1.564,8.255-.342l34.476,19.9c2.116,1.222,1.85,3.356-.593,4.766l-33.288,19.219C315.871,273.542,312.175,273.695,310.059,272.474Z" transform="translate(-274.156 -227.417)" fill="#d4ecff"></path><path id="Path_854" data-name="Path 854" d="M310.352,268.7l-28.89-16.68c-1.773-1.023-1.551-2.812.5-3.993l27.9-16.107a7.69,7.69,0,0,1,6.917-.287l28.891,16.68c1.772,1.024,1.55,2.812-.5,3.994l-27.9,16.106A7.686,7.686,0,0,1,310.352,268.7Z" transform="translate(-273.828 -227.228)" fill="#5793ce"></path><g id="Group_224" data-name="Group 224" transform="translate(63.992 31.808)"><path id="Path_855" data-name="Path 855" d="M337.673,263.509a3.08,3.08,0,0,1-1.393,2.412c-.769.444-1.392.083-1.392-.8a3.076,3.076,0,0,1,1.392-2.412C337.049,262.26,337.673,262.62,337.673,263.509Z" transform="translate(-334.888 -257.341)" fill="#d4ecff"></path><path id="Path_856" data-name="Path 856" d="M341.924,261.054a3.078,3.078,0,0,1-1.392,2.412c-.769.444-1.393.083-1.393-.8a3.077,3.077,0,0,1,1.393-2.412C341.3,259.805,341.924,260.165,341.924,261.054Z" transform="translate(-334.66 -257.473)" fill="#d4ecff"></path><path id="Path_857" data-name="Path 857" d="M346.176,258.6a3.078,3.078,0,0,1-1.392,2.412c-.769.444-1.393.084-1.393-.8a3.079,3.079,0,0,1,1.393-2.412C345.553,257.351,346.176,257.71,346.176,258.6Z" transform="translate(-334.431 -257.605)" fill="#d4ecff"></path></g></g><g id="Group_227" data-name="Group 227" transform="translate(0 19.01)"><path id="Path_858" data-name="Path 858" d="M353.613,243.357h0v-11.9l-26.673-.015-9.22-5.323c-2.116-1.221-5.812-1.068-8.255.342l-8.6,4.966-26.7-.015v12.234a2.4,2.4,0,0,0,1.418,2.212l34.474,19.9c2.116,1.221,5.812,1.068,8.256-.342L351.6,246.206C353.013,245.393,353.692,244.339,353.613,243.357Z" transform="translate(-274.156 -208.522)" fill="#396caa"></path><path id="Path_859" data-name="Path 859" d="M313.89,225.306a9.5,9.5,0,0,0-4.424,1.16l-8.6,4.966-26.7-.015v12.234a2.4,2.4,0,0,0,1.418,2.212l34.474,19.9a7.474,7.474,0,0,0,3.831.818Z" transform="translate(-274.156 -208.521)" fill="#396caa"></path><path id="Path_860" data-name="Path 860" d="M277.188,231.108l-3.022,0V243.34a2.4,2.4,0,0,0,1.418,2.212l1.6.925Z" transform="translate(-274.156 -208.21)" fill="#5793ce"></path><path id="Path_861" data-name="Path 861" d="M308.734,264.665a9.409,9.409,0,0,0,6.6-.076V250.7h-6.6Z" transform="translate(-272.3 -207.158)" fill="#5793ce"></path><path id="Path_862" data-name="Path 862" d="M310.059,254.433l-34.475-19.9c-2.116-1.221-1.851-3.355.592-4.766l33.289-19.219c2.442-1.411,6.139-1.564,8.255-.342l34.476,19.9c2.116,1.222,1.85,3.356-.593,4.767l-33.288,19.219C315.871,255.5,312.175,255.655,310.059,254.433Z" transform="translate(-274.156 -209.376)" fill="#d4ecff"></path><path id="Path_863" data-name="Path 863" d="M310.352,250.661l-28.89-16.68c-1.773-1.024-1.551-2.812.5-3.993l27.9-16.107a7.693,7.693,0,0,1,6.917-.287l28.891,16.68c1.772,1.024,1.55,2.812-.5,3.994l-27.9,16.106A7.686,7.686,0,0,1,310.352,250.661Z" transform="translate(-273.828 -209.187)" fill="#5793ce"></path><g id="Group_226" data-name="Group 226" transform="translate(63.992 31.808)"><path id="Path_864" data-name="Path 864" d="M337.673,245.468a3.08,3.08,0,0,1-1.393,2.412c-.769.444-1.392.083-1.392-.8a3.076,3.076,0,0,1,1.392-2.412C337.049,244.219,337.673,244.579,337.673,245.468Z" transform="translate(-334.888 -239.3)" fill="#d4ecff"></path><path id="Path_865" data-name="Path 865" d="M341.924,243.013a3.078,3.078,0,0,1-1.392,2.412c-.769.444-1.393.084-1.393-.8a3.077,3.077,0,0,1,1.393-2.412C341.3,241.765,341.924,242.124,341.924,243.013Z" transform="translate(-334.66 -239.432)" fill="#d4ecff"></path><path id="Path_866" data-name="Path 866" d="M346.176,240.558a3.076,3.076,0,0,1-1.392,2.412c-.769.444-1.393.084-1.393-.8a3.077,3.077,0,0,1,1.393-2.412C345.553,239.31,346.176,239.669,346.176,240.558Z" transform="translate(-334.431 -239.564)" fill="#d4ecff"></path></g></g><g id="Group_230" data-name="Group 230"><path id="Path_867" data-name="Path 867" d="M353.613,225.316h0v-11.9l-26.673-.015-9.22-5.323c-2.116-1.221-5.812-1.068-8.255.342l-8.6,4.966-26.7-.015v12.234a2.394,2.394,0,0,0,1.418,2.212l34.474,19.9c2.116,1.221,5.812,1.068,8.256-.342L351.6,228.165C353.013,227.352,353.692,226.3,353.613,225.316Z" transform="translate(-274.156 -190.481)" fill="#396caa"></path><path id="Path_868" data-name="Path 868" d="M313.89,207.265a9.513,9.513,0,0,0-4.424,1.16l-8.6,4.966-26.7-.015v12.234a2.394,2.394,0,0,0,1.418,2.212l34.474,19.9a7.474,7.474,0,0,0,3.831.819Z" transform="translate(-274.156 -190.48)" fill="#396caa"></path><path id="Path_869" data-name="Path 869" d="M277.188,213.067l-3.022,0V225.3a2.394,2.394,0,0,0,1.418,2.212l1.6.925Z" transform="translate(-274.156 -190.169)" fill="#5793ce"></path><path id="Path_870" data-name="Path 870" d="M308.734,246.624a9.409,9.409,0,0,0,6.6-.076V232.657h-6.6Z" transform="translate(-272.3 -189.117)" fill="#5793ce"></path><path id="Path_871" data-name="Path 871" d="M310.059,236.392l-34.475-19.9c-2.116-1.221-1.851-3.355.592-4.766L309.466,192.5c2.442-1.411,6.139-1.564,8.255-.342l34.476,19.9c2.116,1.222,1.85,3.356-.593,4.767l-33.288,19.218C315.871,237.46,312.175,237.614,310.059,236.392Z" transform="translate(-274.156 -191.335)" fill="#d4ecff"></path><path id="Path_872" data-name="Path 872" d="M351.6,213.386l-33.288,19.219c-2.444,1.411-6.14,1.564-8.256.342l-34.475-19.905a3.17,3.17,0,0,1-1.056-.937c-.727,1.171-.4,2.439,1.056,3.278l34.475,19.9c2.116,1.222,5.812,1.068,8.256-.342L351.6,215.727c1.9-1.1,2.475-2.628,1.649-3.83A4.617,4.617,0,0,1,351.6,213.386Z" transform="translate(-274.156 -190.232)" fill="#fff"></path><g id="Group_228" data-name="Group 228" transform="translate(63.992 31.808)"><path id="Path_873" data-name="Path 873" d="M337.673,227.427a3.08,3.08,0,0,1-1.393,2.412c-.769.444-1.392.083-1.392-.8a3.076,3.076,0,0,1,1.392-2.412C337.049,226.178,337.673,226.538,337.673,227.427Z" transform="translate(-334.888 -221.259)" fill="#d4ecff"></path><path id="Path_874" data-name="Path 874" d="M341.924,224.972a3.078,3.078,0,0,1-1.392,2.412c-.769.444-1.393.084-1.393-.8a3.077,3.077,0,0,1,1.393-2.412C341.3,223.724,341.924,224.083,341.924,224.972Z" transform="translate(-334.66 -221.391)" fill="#d4ecff"></path><path id="Path_875" data-name="Path 875" d="M346.176,222.517a3.076,3.076,0,0,1-1.392,2.412c-.769.444-1.393.084-1.393-.8a3.077,3.077,0,0,1,1.393-2.412C345.553,221.269,346.176,221.628,346.176,222.517Z" transform="translate(-334.431 -221.523)" fill="#d4ecff"></path></g><g id="Group_229" data-name="Group 229" transform="translate(21.141 11.632)"><path id="Path_876" data-name="Path 876" d="M311.021,223.459l-16.133-9.315c-.989-.571-.866-1.57.277-2.231l15.578-8.993a4.293,4.293,0,0,1,3.863-.16l16.133,9.315c.99.571.866,1.57-.277,2.23L314.884,223.3A4.3,4.3,0,0,1,311.021,223.459Z" transform="translate(-294.22 -202.375)" fill="#5793ce"></path><path id="Path_877" data-name="Path 877" d="M311.749,215.132l-2.233-1.289c-.137-.079-.119-.217.039-.309l2.155-1.243a.593.593,0,0,1,.534-.023l2.233,1.289c.137.08.119.218-.039.309l-2.155,1.244A.593.593,0,0,1,311.749,215.132Z" transform="translate(-293.404 -201.847)" fill="#d4ecff"></path><path id="Path_878" data-name="Path 878" d="M294.888,214.145l.046.026a2.6,2.6,0,0,1,.231-.159l15.578-8.994a4.3,4.3,0,0,1,3.863-.16l16.088,9.288c.913-.653.96-1.543.045-2.071l-16.133-9.315a4.293,4.293,0,0,0-3.863.16l-15.578,8.993C294.022,212.575,293.9,213.574,294.888,214.145Z" transform="translate(-294.22 -202.375)" fill="#396caa"></path></g></g><g id="Group_231" data-name="Group 231" transform="translate(28.9 45.114)"><path id="Path_879" data-name="Path 879" d="M306.217,237.484c0,.6-.42.84-.938.542a2.074,2.074,0,0,1-.937-1.624c0-.6.419-.84.937-.541A2.073,2.073,0,0,1,306.217,237.484Z" transform="translate(-301.436 -234.066)" fill="#d4ecff"></path><path id="Path_880" data-name="Path 880" d="M303.458,235.9c0,.6-.419.84-.938.541a2.07,2.07,0,0,1-.937-1.623c0-.6.419-.84.937-.541A2.068,2.068,0,0,1,303.458,235.9Z" transform="translate(-301.584 -234.151)" fill="#d4ecff"></path><path id="Path_881" data-name="Path 881" d="M306.217,240.814c0,.6-.42.84-.938.541a2.07,2.07,0,0,1-.937-1.623c0-.6.419-.84.937-.542A2.075,2.075,0,0,1,306.217,240.814Z" transform="translate(-301.436 -233.888)" fill="#d4ecff"></path><path id="Path_882" data-name="Path 882" d="M303.458,239.231c0,.6-.419.84-.938.542a2.072,2.072,0,0,1-.937-1.624c0-.6.419-.84.937-.541A2.07,2.07,0,0,1,303.458,239.231Z" transform="translate(-301.584 -233.973)" fill="#d4ecff"></path></g><g id="Group_232" data-name="Group 232" transform="translate(28.9 64.03)"><path id="Path_883" data-name="Path 883" d="M306.217,255.436c0,.6-.42.84-.938.541a2.072,2.072,0,0,1-.937-1.623c0-.6.419-.84.937-.542A2.075,2.075,0,0,1,306.217,255.436Z" transform="translate(-301.436 -252.018)" fill="#d4ecff"></path><path id="Path_884" data-name="Path 884" d="M303.458,253.853c0,.6-.419.84-.938.542a2.072,2.072,0,0,1-.937-1.624c0-.6.419-.839.937-.541A2.07,2.07,0,0,1,303.458,253.853Z" transform="translate(-301.584 -252.103)" fill="#d4ecff"></path><path id="Path_885" data-name="Path 885" d="M306.217,258.765c0,.6-.42.84-.938.542a2.074,2.074,0,0,1-.937-1.624c0-.6.419-.84.937-.541A2.071,2.071,0,0,1,306.217,258.765Z" transform="translate(-301.436 -251.839)" fill="#d4ecff"></path><path id="Path_886" data-name="Path 886" d="M303.458,257.183c0,.6-.419.84-.938.541a2.07,2.07,0,0,1-.937-1.623c0-.6.419-.84.937-.542A2.072,2.072,0,0,1,303.458,257.183Z" transform="translate(-301.584 -251.924)" fill="#d4ecff"></path></g><g id="Group_233" data-name="Group 233" transform="translate(28.9 82.945)"><path id="Path_887" data-name="Path 887" d="M306.217,273.387c0,.6-.42.84-.938.541a2.07,2.07,0,0,1-.937-1.623c0-.6.419-.84.937-.541A2.071,2.071,0,0,1,306.217,273.387Z" transform="translate(-301.436 -269.969)" fill="#d4ecff"></path><path id="Path_888" data-name="Path 888" d="M303.458,271.805c0,.6-.419.84-.938.541a2.07,2.07,0,0,1-.937-1.623c0-.6.419-.84.937-.542A2.072,2.072,0,0,1,303.458,271.805Z" transform="translate(-301.584 -270.054)" fill="#d4ecff"></path><path id="Path_889" data-name="Path 889" d="M306.217,276.717c0,.6-.42.84-.938.541a2.072,2.072,0,0,1-.937-1.623c0-.6.419-.84.937-.542A2.073,2.073,0,0,1,306.217,276.717Z" transform="translate(-301.436 -269.79)" fill="#d4ecff"></path><path id="Path_890" data-name="Path 890" d="M303.458,275.134c0,.6-.419.84-.938.542a2.074,2.074,0,0,1-.937-1.624c0-.6.419-.84.937-.541A2.068,2.068,0,0,1,303.458,275.134Z" transform="translate(-301.584 -269.875)" fill="#d4ecff"></path></g></g><path id="Path_891" data-name="Path 891" d="M313.369,304.97a5.677,5.677,0,0,1-2.851-.765l-17.372-10.082a1.893,1.893,0,0,1,0-3.275l11.424-6.626.846,1.456-11.425,6.627a.208.208,0,0,0,0,.36l17.373,10.083a4.015,4.015,0,0,0,3.983.015l34.027-19.39a5.706,5.706,0,0,1,5.667.023l28.5,16.463a4,4,0,0,0,4.01.006l13.743-7.948.844,1.459L388.4,301.325a5.69,5.69,0,0,1-5.7-.008l-28.5-16.462a4.014,4.014,0,0,0-3.989-.018l-34.027,19.39A5.674,5.674,0,0,1,313.369,304.97Z" transform="translate(569.966 150.561)" fill="#b2d3ea"></path><g id="Group_242" data-name="Group 242" transform="translate(1003.864 415.283)"><path id="Path_892" data-name="Path 892" d="M456.977,366.538l-27.531-15.895c-1.69-.976-1.478-2.68.473-3.806L456.5,331.489a7.328,7.328,0,0,1,6.593-.274l27.531,15.9c1.69.975,1.478,2.68-.473,3.806L463.57,366.265A7.328,7.328,0,0,1,456.977,366.538Z" transform="translate(-420.302 -262.149)" fill="#b2d3ea"></path><g id="Group_236" data-name="Group 236" transform="translate(0 38.019)"><path id="Path_893" data-name="Path 893" d="M500.167,335.7h0V323.8l-26.673-.015-9.22-5.322c-2.116-1.222-5.812-1.07-8.255.341l-8.6,4.966-26.7-.015v12.234a2.394,2.394,0,0,0,1.418,2.212l34.474,19.9c2.116,1.221,5.812,1.068,8.256-.342l33.288-19.219C499.567,337.733,500.246,336.679,500.167,335.7Z" transform="translate(-420.709 -300.862)" fill="#396caa"></path><path id="Path_894" data-name="Path 894" d="M460.444,317.646a9.514,9.514,0,0,0-4.424,1.16l-8.6,4.966-26.7-.015v12.234a2.394,2.394,0,0,0,1.418,2.212l34.474,19.9a7.475,7.475,0,0,0,3.831.819Z" transform="translate(-420.709 -300.861)" fill="#396caa"></path><path id="Path_895" data-name="Path 895" d="M423.742,323.448l-3.022,0V335.68a2.394,2.394,0,0,0,1.418,2.212l1.6.925Z" transform="translate(-420.709 -300.55)" fill="#5793ce"></path><path id="Path_896" data-name="Path 896" d="M455.288,357a9.4,9.4,0,0,0,6.6-.076V343.038h-6.6Z" transform="translate(-418.853 -299.498)" fill="#5793ce"></path><path id="Path_897" data-name="Path 897" d="M456.613,346.773l-34.474-19.9c-2.117-1.221-1.851-3.355.592-4.766l33.289-19.219c2.442-1.411,6.139-1.564,8.255-.342l34.476,19.9c2.116,1.222,1.85,3.356-.593,4.767l-33.288,19.219C462.425,347.841,458.729,347.995,456.613,346.773Z" transform="translate(-420.71 -301.716)" fill="#d4ecff"></path><path id="Path_898" data-name="Path 898" d="M456.906,343l-28.89-16.68c-1.773-1.023-1.551-2.811.5-3.993l27.9-16.106a7.69,7.69,0,0,1,6.917-.288l28.891,16.68c1.772,1.024,1.55,2.812-.5,3.994l-27.9,16.106A7.686,7.686,0,0,1,456.906,343Z" transform="translate(-420.382 -301.527)" fill="#5793ce"></path><g id="Group_235" data-name="Group 235" transform="translate(63.993 31.808)"><path id="Path_899" data-name="Path 899" d="M484.227,337.808a3.079,3.079,0,0,1-1.393,2.412c-.769.444-1.392.084-1.392-.8A3.076,3.076,0,0,1,482.834,337C483.6,336.56,484.227,336.919,484.227,337.808Z" transform="translate(-481.442 -331.64)" fill="#d4ecff"></path><path id="Path_900" data-name="Path 900" d="M488.478,335.353a3.076,3.076,0,0,1-1.392,2.412c-.769.444-1.393.084-1.393-.8a3.079,3.079,0,0,1,1.393-2.412C487.855,334.105,488.478,334.464,488.478,335.353Z" transform="translate(-481.214 -331.772)" fill="#d4ecff"></path><path id="Path_901" data-name="Path 901" d="M492.73,332.9a3.076,3.076,0,0,1-1.392,2.412c-.769.444-1.393.084-1.393-.8a3.079,3.079,0,0,1,1.393-2.412C492.107,331.65,492.73,332.009,492.73,332.9Z" transform="translate(-480.985 -331.904)" fill="#d4ecff"></path></g></g><g id="Group_238" data-name="Group 238" transform="translate(0 19.01)"><path id="Path_902" data-name="Path 902" d="M500.167,317.657h0v-11.9l-26.673-.015-9.22-5.323c-2.116-1.221-5.812-1.067-8.255.342l-8.6,4.967-26.7-.016v12.234a2.394,2.394,0,0,0,1.418,2.212l34.474,19.9c2.116,1.221,5.812,1.068,8.256-.342l33.288-19.219C499.567,319.692,500.246,318.638,500.167,317.657Z" transform="translate(-420.709 -282.821)" fill="#396caa"></path><path id="Path_903" data-name="Path 903" d="M460.444,299.605a9.513,9.513,0,0,0-4.424,1.16l-8.6,4.967-26.7-.016v12.234a2.394,2.394,0,0,0,1.418,2.212l34.474,19.9a7.475,7.475,0,0,0,3.831.819Z" transform="translate(-420.709 -282.82)" fill="#396caa"></path><path id="Path_904" data-name="Path 904" d="M423.742,305.407l-3.022,0v12.234a2.394,2.394,0,0,0,1.418,2.212l1.6.926Z" transform="translate(-420.709 -282.509)" fill="#5793ce"></path><path id="Path_905" data-name="Path 905" d="M455.288,338.964a9.409,9.409,0,0,0,6.6-.076V325h-6.6Z" transform="translate(-418.853 -281.457)" fill="#5793ce"></path><path id="Path_906" data-name="Path 906" d="M456.613,328.732l-34.474-19.9c-2.117-1.221-1.851-3.355.592-4.766l33.289-19.219c2.442-1.411,6.139-1.564,8.255-.342l34.476,19.905c2.116,1.221,1.85,3.355-.593,4.766L464.869,328.39C462.425,329.8,458.729,329.954,456.613,328.732Z" transform="translate(-420.71 -283.675)" fill="#d4ecff"></path><path id="Path_907" data-name="Path 907" d="M456.906,324.96l-28.89-16.68c-1.773-1.023-1.551-2.811.5-3.993l27.9-16.107a7.693,7.693,0,0,1,6.917-.287l28.891,16.681c1.772,1.023,1.55,2.811-.5,3.993l-27.9,16.106A7.686,7.686,0,0,1,456.906,324.96Z" transform="translate(-420.382 -283.486)" fill="#5793ce"></path><g id="Group_237" data-name="Group 237" transform="translate(63.993 31.808)"><path id="Path_908" data-name="Path 908" d="M484.227,319.767a3.079,3.079,0,0,1-1.393,2.412c-.769.444-1.392.084-1.392-.8a3.076,3.076,0,0,1,1.392-2.412C483.6,318.519,484.227,318.878,484.227,319.767Z" transform="translate(-481.442 -313.599)" fill="#d4ecff"></path><path id="Path_909" data-name="Path 909" d="M488.478,317.312a3.076,3.076,0,0,1-1.392,2.412c-.769.444-1.393.084-1.393-.8a3.079,3.079,0,0,1,1.393-2.412C487.855,316.064,488.478,316.423,488.478,317.312Z" transform="translate(-481.214 -313.731)" fill="#d4ecff"></path><path id="Path_910" data-name="Path 910" d="M492.73,314.857a3.076,3.076,0,0,1-1.392,2.412c-.769.444-1.393.084-1.393-.8a3.079,3.079,0,0,1,1.393-2.412C492.107,313.609,492.73,313.968,492.73,314.857Z" transform="translate(-480.985 -313.863)" fill="#d4ecff"></path></g></g><g id="Group_241" data-name="Group 241"><path id="Path_911" data-name="Path 911" d="M500.167,299.616h0v-11.9l-26.673-.015-9.22-5.322c-2.116-1.222-5.812-1.068-8.255.341l-8.6,4.966-26.7-.015V299.91a2.393,2.393,0,0,0,1.418,2.212l34.474,19.9c2.116,1.221,5.812,1.068,8.256-.342l33.288-19.219C499.567,301.651,500.246,300.6,500.167,299.616Z" transform="translate(-420.709 -264.78)" fill="#396caa"></path><path id="Path_912" data-name="Path 912" d="M460.444,281.564a9.526,9.526,0,0,0-4.424,1.16l-8.6,4.966-26.7-.015V299.91a2.393,2.393,0,0,0,1.418,2.212l34.474,19.9a7.475,7.475,0,0,0,3.831.819Z" transform="translate(-420.709 -264.779)" fill="#396caa"></path><path id="Path_913" data-name="Path 913" d="M423.742,287.366l-3.022,0V299.6a2.393,2.393,0,0,0,1.418,2.212l1.6.926Z" transform="translate(-420.709 -264.468)" fill="#5793ce"></path><path id="Path_914" data-name="Path 914" d="M455.288,320.923a9.4,9.4,0,0,0,6.6-.076v-13.89h-6.6Z" transform="translate(-418.853 -263.416)" fill="#5793ce"></path><path id="Path_915" data-name="Path 915" d="M456.613,310.692l-34.474-19.905c-2.117-1.221-1.851-3.355.592-4.766L456.02,266.8c2.442-1.411,6.139-1.564,8.255-.342l34.476,19.905c2.116,1.221,1.85,3.355-.593,4.766l-33.288,19.219C462.425,311.759,458.729,311.913,456.613,310.692Z" transform="translate(-420.71 -265.634)" fill="#d4ecff"></path><path id="Path_916" data-name="Path 916" d="M498.157,287.685,464.869,306.9c-2.444,1.411-6.14,1.564-8.256.342l-34.474-19.9a3.194,3.194,0,0,1-1.056-.937c-.727,1.17-.4,2.438,1.056,3.277l34.474,19.905c2.116,1.221,5.812,1.067,8.256-.342l33.288-19.219c1.9-1.1,2.475-2.628,1.649-3.829A4.615,4.615,0,0,1,498.157,287.685Z" transform="translate(-420.71 -264.531)" fill="#fff"></path><g id="Group_239" data-name="Group 239" transform="translate(63.993 31.808)"><path id="Path_917" data-name="Path 917" d="M484.227,301.726a3.079,3.079,0,0,1-1.393,2.412c-.769.444-1.392.084-1.392-.8a3.076,3.076,0,0,1,1.392-2.412C483.6,300.478,484.227,300.837,484.227,301.726Z" transform="translate(-481.442 -295.558)" fill="#d4ecff"></path><path id="Path_918" data-name="Path 918" d="M488.478,299.271a3.076,3.076,0,0,1-1.392,2.412c-.769.444-1.393.084-1.393-.8a3.079,3.079,0,0,1,1.393-2.412C487.855,298.023,488.478,298.382,488.478,299.271Z" transform="translate(-481.214 -295.69)" fill="#d4ecff"></path><path id="Path_919" data-name="Path 919" d="M492.73,296.816a3.076,3.076,0,0,1-1.392,2.412c-.769.445-1.393.084-1.393-.8a3.08,3.08,0,0,1,1.393-2.412C492.107,295.568,492.73,295.928,492.73,296.816Z" transform="translate(-480.985 -295.822)" fill="#d4ecff"></path></g><g id="Group_240" data-name="Group 240" transform="translate(21.141 11.632)"><path id="Path_920" data-name="Path 920" d="M457.575,297.758l-16.133-9.315c-.99-.571-.866-1.57.277-2.23L457.3,277.22a4.3,4.3,0,0,1,3.863-.16l16.133,9.315c.99.571.866,1.57-.277,2.23L461.438,297.6A4.3,4.3,0,0,1,457.575,297.758Z" transform="translate(-440.773 -276.674)" fill="#5793ce"></path><path id="Path_921" data-name="Path 921" d="M458.3,289.431l-2.233-1.289c-.137-.079-.119-.217.039-.308l2.155-1.244a.593.593,0,0,1,.534-.022l2.233,1.289c.137.079.119.217-.039.309l-2.155,1.244A.592.592,0,0,1,458.3,289.431Z" transform="translate(-439.957 -276.146)" fill="#d4ecff"></path><path id="Path_922" data-name="Path 922" d="M441.442,288.444l.045.026c.076-.054.145-.109.232-.159l15.578-8.993a4.29,4.29,0,0,1,3.863-.16l16.088,9.287c.912-.653.96-1.543.045-2.07L461.16,277.06a4.3,4.3,0,0,0-3.863.16l-15.578,8.994C440.576,286.874,440.452,287.873,441.442,288.444Z" transform="translate(-440.773 -276.674)" fill="#396caa"></path></g></g></g><path id="Path_923" data-name="Path 923" d="M408.237,106.537c0,.6-.419.84-.937.542a2.072,2.072,0,0,1-.938-1.624c0-.6.419-.84.938-.541A2.072,2.072,0,0,1,408.237,106.537Z" transform="translate(580.318 141.013)" fill="#d4ecff"></path><path id="Path_924" data-name="Path 924" d="M416.07,111.287c0,.6-.419.84-.937.542a2.073,2.073,0,0,1-.937-1.624c0-.6.419-.84.937-.541A2.072,2.072,0,0,1,416.07,111.287Z" transform="translate(580.967 141.268)" fill="#d4ecff"></path><path id="Path_925" data-name="Path 925" d="M423.9,116.037c0,.6-.42.84-.938.542a2.073,2.073,0,0,1-.937-1.624c0-.6.419-.84.937-.541A2.073,2.073,0,0,1,423.9,116.037Z" transform="translate(581.616 141.523)" fill="#d4ecff"></path><path id="Path_926" data-name="Path 926" d="M431.738,120.787c0,.6-.419.84-.937.542a2.072,2.072,0,0,1-.938-1.624c0-.6.419-.84.938-.541A2.072,2.072,0,0,1,431.738,120.787Z" transform="translate(582.264 141.778)" fill="#d4ecff"></path></g></svg>