<svg xmlns="http://www.w3.org/2000/svg" width="370.296" height="367.364" viewBox="0 0 370.296 367.364"><g id="QA_engineers-bro" data-name="QA engineers-bro" transform="translate(-58.527 -62.286)"><g id="freepik--background-simple--inject-2" transform="translate(58.527 62.286)"><g id="freepik--background-simple--inject-2-2" data-name="freepik--background-simple--inject-2"><path id="Path_15262" data-name="Path 15262" d="M313.2,65.7c-27.829,6.7-53.415,21.447-82.772,27.443-47.594,9.67-101.261,6.827-136.565,46.066C67.2,168.85,52.138,212.247,61.141,251.777c23.439,102.847,171.153,121.2,250.686,77.5,41.261-22.675,71.178-64.787,92.007-105.951,19.117-37.8,39.433-87.549,10.637-125.909-13.731-18.3-35.314-29.976-57.883-33.757C341.116,61.042,326.883,62.406,313.2,65.7Z" transform="translate(-58.527 -62.286)" fill="#396caa"></path><path id="Path_15263" data-name="Path 15263" d="M313.2,65.7c-27.829,6.7-53.415,21.447-82.772,27.443-47.594,9.67-101.261,6.827-136.565,46.066C67.2,168.85,52.138,212.247,61.141,251.777c23.439,102.847,171.153,121.2,250.686,77.5,41.261-22.675,71.178-64.787,92.007-105.951,19.117-37.8,39.433-87.549,10.637-125.909-13.731-18.3-35.314-29.976-57.883-33.757C341.116,61.042,326.883,62.406,313.2,65.7Z" transform="translate(-58.527 -62.286)" fill="#fff" opacity="0.8"></path></g></g><g id="freepik--Graphics--inject-2" transform="translate(84.406 74.319)"><g id="freepik--graphics--inject-2-2" data-name="freepik--graphics--inject-2"><rect id="Rectangle_517" data-name="Rectangle 517" width="7.803" height="44.094" transform="translate(272.482 240.311)" fill="#396caa"></rect><path id="Path_15264" data-name="Path 15264" d="M375.351,367.811H366.59V322.75h8.761Zm-7.794-.967h6.827V323.717h-6.827Z" transform="translate(-94.582 -82.923)" fill="#263238"></path><rect id="Rectangle_518" data-name="Rectangle 518" width="7.803" height="21.892" transform="translate(282.683 262.512)" fill="#396caa"></rect><path id="Path_15265" data-name="Path 15265" d="M385.9,368.569h-8.77V345.71h8.77Zm-7.8-.967h6.836V346.677H378.1Z" transform="translate(-94.93 -83.681)" fill="#263238"></path><rect id="Rectangle_519" data-name="Rectangle 519" width="7.803" height="36.29" transform="translate(292.585 248.114)" fill="#396caa"></rect><path id="Path_15266" data-name="Path 15266" d="M396.131,368.077H387.37V330.82h8.761Zm-7.794-.967h6.827V331.787h-6.827Z" transform="translate(-95.268 -83.189)" fill="#263238"></path><path id="Path_15267" data-name="Path 15267" d="M403.867,372.577H366.794a.483.483,0,1,1,0-.967h37.073a.483.483,0,1,1,0,.967Z" transform="translate(-94.573 -84.537)" fill="#263238"></path><path id="Path_15268" data-name="Path 15268" d="M402.2,373.79a.483.483,0,0,1-.483-.483V336.233a.483.483,0,1,1,.967,0v37.074A.483.483,0,0,1,402.2,373.79Z" transform="translate(-95.742 -83.352)" fill="#263238"></path><path id="Path_15269" data-name="Path 15269" d="M107.821,77.341a2.62,2.62,0,1,1-2.62-2.611,2.62,2.62,0,0,1,2.62,2.611Z" transform="translate(-85.861 -74.73)" fill="#263238"></path><path id="Path_15270" data-name="Path 15270" d="M137.577,84.1a4.728,4.728,0,1,1-4.738-4.719A4.728,4.728,0,0,1,137.577,84.1Z" transform="translate(-86.705 -74.884)" fill="#263238"></path><path id="Path_15271" data-name="Path 15271" d="M92.523,99.086a3.616,3.616,0,1,1-1.069-2.568A3.616,3.616,0,0,1,92.523,99.086Z" transform="translate(-85.29 -75.415)" fill="#263238"></path><path id="Path_15272" data-name="Path 15272" d="M89.414,98.762l-.774-.58L104.556,76.87l27.936,6.682-.222.938-27.317-6.527Z" transform="translate(-85.401 -74.801)" fill="#263238"></path><path id="Path_15273" data-name="Path 15273" d="M398.875,304.788a17.823,17.823,0,0,0,.484,4.11l-4.129,3.2,4.187,7.378,4.835-1.992a17.559,17.559,0,0,0,7.088,4.158l.7,5.183h8.471l.735-5.2a17.406,17.406,0,0,0,7.136-4.09l4.835,1.992,4.255-7.32-4.11-3.2a17.492,17.492,0,0,0,0-8.219l4.129-3.21L433.3,290.2l-4.835,1.934a17.464,17.464,0,0,0-7.088-4.168l-.687-5.183H412.22l-.735,5.2a17.406,17.406,0,0,0-7.146,4.09l-4.835-1.992L395.3,297.5l4.1,3.21a17.948,17.948,0,0,0-.522,4.081Zm15.375-9.128a7.067,7.067,0,1,0,.01,0Z" transform="translate(-95.528 -81.602)" fill="#263238"></path><path id="Path_15274" data-name="Path 15274" d="M364.259,258.28a9.918,9.918,0,0,0,.251,2.321l-2.33,1.837,2.379,4.129,2.737-1.112a9.853,9.853,0,0,0,4,2.33l.4,2.9h4.758l.416-2.9a9.95,9.95,0,0,0,4.013-2.311l2.727,1.122,2.4-4.119-2.321-1.818a10,10,0,0,0,0-4.632l2.33-1.8-2.379-4.129-2.727,1.1a9.853,9.853,0,0,0-4-2.33l-.387-2.9h-4.748l-.416,2.9a9.766,9.766,0,0,0-4.013,2.3l-2.727-1.122-2.4,4.119,2.321,1.818a9.349,9.349,0,0,0-.28,2.292Zm8.857-5.212a5.28,5.28,0,1,1-4.187,4.148,5.28,5.28,0,0,1,4.187-4.148Z" transform="translate(-94.436 -80.386)" fill="#fff"></path><path id="Path_15275" data-name="Path 15275" d="M124.852,199.394a12.454,12.454,0,0,0,1.4,2.562l-1.876,3.162,4.68,3.694,2.659-2.591a12.155,12.155,0,0,0,5.705.832l1.837,3.191,5.521-2.224-.89-3.587a12.261,12.261,0,0,0,3.568-4.554h3.684l.832-5.9-3.529-.967a12.368,12.368,0,0,0-2.166-5.367l1.837-3.181-4.68-3.7-2.65,2.572a12.426,12.426,0,0,0-5.724-.841l-1.818-3.191-5.531,2.224.9,3.587a12.32,12.32,0,0,0-3.578,4.564h-3.674l-.841,5.9,3.529.967a12.455,12.455,0,0,0,.8,2.853Zm7.61-10.018a6.643,6.643,0,1,1-2.736,6.43,6.527,6.527,0,0,1,2.707-6.43Z" transform="translate(-86.454 -78.184)" fill="#396caa"></path><path id="Path_15276" data-name="Path 15276" d="M129.02,172.54a5.241,5.241,0,0,0,.561,1.054l-.754,1.3,1.934,1.5,1.083-1.054a5.1,5.1,0,0,0,2.34.329l.745,1.305,2.253-.909-.367-1.45a5.193,5.193,0,0,0,1.46-1.866h1.5l.338-2.408-1.441-.416a5.144,5.144,0,0,0-.88-2.185l.754-1.3-1.934-1.5-1.073,1.044a4.97,4.97,0,0,0-2.34-.329l-.745-1.305-2.253.909.358,1.45a5.164,5.164,0,0,0-1.45,1.866H127.6l-.338,2.408,1.441.406a4.728,4.728,0,0,0,.319,1.151Zm3.181-4.158a2.708,2.708,0,1,1-.783,3.742,2.775,2.775,0,0,1-.4-.967A2.737,2.737,0,0,1,132.2,168.382Z" transform="translate(-86.676 -77.69)" fill="#396caa"></path></g></g><g id="freepik--Window--inject-2" transform="translate(104.229 98.367)"><g id="freepik--Screen--inject-2"><path id="Path_15277" data-name="Path 15277" d="M116.241,141.69H374.682a2.9,2.9,0,0,1,2.9,2.9V272.666a2.9,2.9,0,0,1-2.9,2.9H113.34V144.591A2.9,2.9,0,0,1,116.241,141.69Z" transform="translate(-106.039 -100.99)" fill="#396caa"></path><path id="Path_15278" data-name="Path 15278" d="M116.241,141.69H374.682a2.9,2.9,0,0,1,2.9,2.9V272.666a2.9,2.9,0,0,1-2.9,2.9H113.34V144.591A2.9,2.9,0,0,1,116.241,141.69Z" transform="translate(-106.039 -100.99)" opacity="0.2"></path><path id="Path_15279" data-name="Path 15279" d="M379.364,281.293H111.108a5.328,5.328,0,0,1-5.318-5.318V104.918a5.328,5.328,0,0,1,5.318-5.318H380.331a4.361,4.361,0,0,1,4.351,4.351V275.975a5.328,5.328,0,0,1-5.318,5.318ZM111.108,100.567a4.361,4.361,0,0,0-4.351,4.351V275.975a4.361,4.361,0,0,0,4.351,4.351H379.364a4.361,4.361,0,0,0,4.351-4.351V103.951a3.384,3.384,0,0,0-3.384-3.384Z" transform="translate(-105.79 -99.6)" fill="#263238"></path><path id="Path_15280" data-name="Path 15280" d="M116.688,107.7H260.524a3.868,3.868,0,0,1,3.868,3.868v1.383a2.9,2.9,0,0,1-2.9,2.9h-144.8a3.868,3.868,0,0,1-3.868-3.868v-.416A3.868,3.868,0,0,1,116.688,107.7Z" transform="translate(-106.022 -99.868)" fill="#396caa"></path><path id="Path_15281" data-name="Path 15281" d="M261.475,116.309h-144.8a4.351,4.351,0,0,1-4.351-4.351v-.406a4.361,4.361,0,0,1,4.351-4.351H260.508a4.351,4.351,0,0,1,4.351,4.351v1.373a3.384,3.384,0,0,1-3.384,3.384Zm-144.8-8.142a3.384,3.384,0,0,0-3.384,3.384v.406a3.384,3.384,0,0,0,3.384,3.384h144.8a2.417,2.417,0,0,0,2.417-2.417v-1.373a3.384,3.384,0,0,0-3.384-3.384Z" transform="translate(-106.006 -99.851)" fill="#263238"></path><path id="Path_15282" data-name="Path 15282" d="M120.793,127.737a3.036,3.036,0,1,1-3.027-3.027,3.036,3.036,0,0,1,3.027,3.027Z" transform="translate(-106.085 -100.429)" fill="#fff"></path><path id="Path_15283" data-name="Path 15283" d="M117.719,131.24a3.52,3.52,0,1,1,3.51-3.52,3.52,3.52,0,0,1-3.51,3.52Zm0-6.063a2.553,2.553,0,1,0,2.543,2.543,2.553,2.553,0,0,0-2.543-2.543Z" transform="translate(-106.067 -100.413)" fill="#263238"></path><circle id="Ellipse_23" data-name="Ellipse 23" cx="3.027" cy="3.027" r="3.027" transform="translate(18.933 24.281)" fill="#fff"></circle><path id="Path_15284" data-name="Path 15284" d="M128.379,131.24a3.52,3.52,0,1,1,3.51-3.52,3.52,3.52,0,0,1-3.51,3.52Zm0-6.063a2.553,2.553,0,1,0,2.543,2.543,2.553,2.553,0,0,0-2.543-2.543Z" transform="translate(-106.42 -100.413)" fill="#263238"></path><path id="Path_15285" data-name="Path 15285" d="M142.083,127.737a3.036,3.036,0,1,1-3.036-3.027,3.036,3.036,0,0,1,3.036,3.027Z" transform="translate(-106.788 -100.429)" fill="#fff"></path><path id="Path_15286" data-name="Path 15286" d="M139.03,131.24a3.52,3.52,0,1,1,3.52-3.52A3.52,3.52,0,0,1,139.03,131.24Zm0-6.063a2.543,2.543,0,1,0,1.8.741A2.553,2.553,0,0,0,139.03,125.177Z" transform="translate(-106.772 -100.413)" fill="#263238"></path></g></g><g id="freepik--Floor--inject-2" transform="translate(94.375 400.777)"><ellipse id="Ellipse_24" data-name="Ellipse 24" cx="149.3" cy="14.437" rx="149.3" ry="14.437" fill="#396caa"></ellipse><ellipse id="Ellipse_25" data-name="Ellipse 25" cx="149.3" cy="14.437" rx="149.3" ry="14.437" fill="#fff" opacity="0.7"></ellipse></g><g id="freepik--character-2--inject-2" transform="translate(240.057 91.511)"><g id="freepik--character-2--inject-2-2" data-name="freepik--character-2--inject-2"><path id="Path_15287" data-name="Path 15287" d="M254.9,414.585s-6.459,7.813-7.61,13.973.832,5.8,2.4,5.937,5.8-5,6.885-6.982,3.442-13.663,3.442-13.663Z" transform="translate(-246.281 -103.124)" fill="#fff"></path><path id="Path_15288" data-name="Path 15288" d="M317.18,413.3l3.481-2.272s5.57,4.835,10.085,6.2,13.47-.88,15.094,4.574c0,0-8.171,2.843-13.006,2.475s-16.255-.184-16.255-.184Z" transform="translate(-248.581 -103.031)" fill="#fff"></path><path id="Path_15289" data-name="Path 15289" d="M281.449,238.049s-6.769,51.568-8.79,65.918-9.95,52.149-11.42,60.677-7.04,45.119-7.04,45.119l5.86,2.64L302.838,283.8s6.15,47.459,5.86,61.818,5.57,63.51,5.57,63.51l5.85-2.62s7.33-38.4,6.16-52.468,3.22-59.469,1.76-75.878-3.52-41.019-3.52-41.019S308.7,246.839,281.449,238.049Z" transform="translate(-246.52 -97.287)" fill="#263238"></path><path id="Path_15290" data-name="Path 15290" d="M249.19,434.886h-.464a2.475,2.475,0,0,1-2.321-2.011c-1.267-4.922,5.976-17.463,9.225-19.687a.483.483,0,0,1,.667.116.493.493,0,0,1-.126.667c-2.9,2.021-9.979,14.272-8.838,18.672a1.547,1.547,0,0,0,1.489,1.3h.367c6.769,0,9.931-17.492,9.969-17.666a.464.464,0,0,1,.551-.387.474.474,0,0,1,.387.551C259.962,417.19,256.723,434.886,249.19,434.886Z" transform="translate(-246.258 -103.1)" fill="#263238"></path><path id="Path_15291" data-name="Path 15291" d="M304.984,282.831a.493.493,0,0,1-.3-.106.474.474,0,0,1-.068-.667l13.9-17.164a.474.474,0,0,1,.667-.068.464.464,0,0,1,.068.667l-13.963,17.164a.464.464,0,0,1-.309.174Z" transform="translate(-248.182 -98.198)" fill="#fff"></path><path id="Path_15292" data-name="Path 15292" d="M306.464,285.415a.493.493,0,0,1-.416-.242.474.474,0,0,1,.174-.648,37.532,37.532,0,0,0,5.986-4.371.474.474,0,0,1,.677,0,.483.483,0,0,1,0,.677,38.82,38.82,0,0,1-6.14,4.477.454.454,0,0,1-.28.106Z" transform="translate(-248.231 -98.703)" fill="#fff"></path><path id="Path_15293" data-name="Path 15293" d="M332.819,424.683c-2.137,0-4.777-.126-7.33-.242-3.6-.174-8.065-.387-8.654,0a.5.5,0,0,1-.493,0,.484.484,0,0,1-.251-.425l.251-14.882a.435.435,0,0,1,.484-.474.493.493,0,0,1,.474.483l-.242,14.253c1.267-.213,3.868-.116,8.48.1,2.543.116,5.173.242,7.281.242,4.835,0,10.849-1.808,12.445-2.321a4.69,4.69,0,0,0-3.423-2.843,16.053,16.053,0,0,0-3.945-.29h-1.586a22.482,22.482,0,0,1-15.936-7.407.474.474,0,0,1,0-.677.483.483,0,0,1,.677,0,21.447,21.447,0,0,0,15.249,7.088h1.508a16.583,16.583,0,0,1,4.3.406c1.876.464,3.868,1.886,4.226,4.013a.493.493,0,0,1-.319.522C345.679,422.275,338.533,424.683,332.819,424.683Z" transform="translate(-248.565 -102.953)" fill="#263238"></path><path id="Path_15294" data-name="Path 15294" d="M282.45,253.23a2.717,2.717,0,0,1-1.18-.261.474.474,0,0,1,.4-.861,2.717,2.717,0,0,0,3.085-1.073,8.79,8.79,0,0,0,1.315-3.684l1.209-6.044a.483.483,0,0,1,.561-.377.474.474,0,0,1,.367.561l-1.2,6.044a9.67,9.67,0,0,1-1.5,4.081,4.023,4.023,0,0,1-3.056,1.615Z" transform="translate(-247.405 -97.412)" fill="#fff"></path><path id="Path_15295" data-name="Path 15295" d="M331,423.089a36.365,36.365,0,0,1-4.835-.319l-1.363-.2c-2.843-.416-5.8-.861-8.161.464l-.464-.832c2.659-1.479,5.8-1.025,8.761-.571l1.363.193a35.362,35.362,0,0,0,17.947-2.282l.358.89A36.262,36.262,0,0,1,331,423.089Z" transform="translate(-248.568 -103.312)" fill="#263238"></path><path id="Path_15296" data-name="Path 15296" d="M250.6,434.544a5.222,5.222,0,0,1-2.543-2.591,7.9,7.9,0,0,1-.222-2.9,22.734,22.734,0,0,1,6.2-14l.687.667a21.767,21.767,0,0,0-5.937,13.4,7.474,7.474,0,0,0,.184,2.553,4.5,4.5,0,0,0,2.04,2Z" transform="translate(-246.309 -103.164)" fill="#263238"></path><path id="Path_15297" data-name="Path 15297" d="M357.01,180.178l30.218-49.083-33.08-13.035-27.278,40.5Z" transform="translate(-248.921 -93.354)" fill="#fff"></path><path id="Path_15298" data-name="Path 15298" d="M379.765,163.759s2.591-3.317,2.659-6.633-2.108-3.723-1.537-5.657.1-3.046-1.934-5.086-6.6-3.249-6.9-2.166,4.1,2.843,3.674,4.709c0,0-7.832.3-8.2,2.292l-.116,1.383s-1.576.725-1.209,1.576,8.384.725,8.384.725-1.325,5.241.425,6.769Z" transform="translate(-250.218 -94.204)" fill="#fff"></path><path id="Path_15299" data-name="Path 15299" d="M363.156,135.768c8.3,10.936.745,24.706-10.443,31.823s-22.047,3.945-27.665-4.835-1.093-21.844,10.085-28.922S356.832,127.394,363.156,135.768Z" transform="translate(-248.781 -93.714)" fill="#fff"></path><path id="Path_15300" data-name="Path 15300" d="M369.92,161.274l-13.944,31.968-25.393-22.018s-9.254-4.574-10.434-12.309L302.126,156.4s-2.156,8.558-5.86,10.414l-4.042-7.069-.609,8.7s-9.3-3.771-11.923-5.986c0,0-20.78,9.4-24.174,19.658s7.736,34.995,7.736,34.995,4.206,10.762,7.736,11.439,10.637-5.9,10.637-5.9L279.692,235s27.191,10.782,45.167-1.112l-.242-40.081s22.927,11.6,29.821,14.1,9.418,1.508,9.418,1.508,11.778-30.943,13.8-45.244Zm-91.862,47.884-3.51-13.2,5.976,11.207Z" transform="translate(-246.543 -94.62)" fill="#396caa"></path><path id="Path_15301" data-name="Path 15301" d="M329.53,166.842s14.05,5.8,27.481-8.548S361.894,135,361.894,135s11.923,8.21,1.692,22.714-21.525,14.65-27.936,13.538S329.53,166.842,329.53,166.842Z" transform="translate(-249.009 -93.913)" fill="#396caa"></path><path id="Path_15302" data-name="Path 15302" d="M289.813,218.33c-.232,0,0,.348.232.348,3.549.058,7.1-.048,10.637-.338l-9.67,3.771a2.224,2.224,0,0,0-.841.493,2.166,2.166,0,0,0-.377.832c-1.45,5.1-4.438,15.423-4.3,15.471l-4.961-1.828,1.934-12.339Z" transform="translate(-247.39 -96.666)" opacity="0.2"></path><path id="Path_15303" data-name="Path 15303" d="M274.474,194.362l1.8-15.752s5.8,4.419,4.061,9.892,4.409,16.777,4.409,16.777l-3.6,2.62L274,193.1Z" transform="translate(-247.174 -95.354)" opacity="0.2"></path><path id="Path_15304" data-name="Path 15304" d="M327.156,183.87s1.46,7.407,2.021,7.968-.561-6.169.445-6.508,3.7,8.751,3.7,8.751,10.318,6.053,13.8,5.492,8.964-6.769,8.964-6.769l2.118,1.934s-2.118,5.734-4.69,6.856c0,0,4.371,5.8,14.234,4.709,0,0-.7,5.289-4.593,4.487-9.186-1.934-36.126-16.081-36.126-16.081Z" transform="translate(-248.926 -95.528)" opacity="0.2"></path><path id="Path_15305" data-name="Path 15305" d="M261.611,173.34c-4.38,16.274-2.688,21.931,2.543,35.671,0,0,7.185-3.384,13.025-.28l.551,1.528-9.505,5.889s.967,7.591,7.388,10.9c0,0-2.562,2.475-4.583,2.108s-10.008-17.676-11.758-21.177S249.2,186.965,261.611,173.34Z" transform="translate(-246.544 -95.18)" opacity="0.2"></path><path id="Path_15306" data-name="Path 15306" d="M326.627,165.025a15.4,15.4,0,0,1-4.168-13.857c1.634-8.625,10.182-16.98,16.951-19.813s18.372-4.023,22.24,3.423c0,0-8.045-6.1-22.24,1.644S324.539,158.923,326.627,165.025Z" transform="translate(-248.765 -93.721)" fill="#396caa"></path><path id="Path_15307" data-name="Path 15307" d="M358.324,194.582a.512.512,0,0,1-.319-.126l-30.131-27.075a.476.476,0,1,1,.638-.706l30.131,27.075a.474.474,0,0,1,0,.667A.484.484,0,0,1,358.324,194.582Z" transform="translate(-248.949 -94.956)" fill="#263238"></path><path id="Path_15308" data-name="Path 15308" d="M364.147,210.642c-7.736,0-33.844-14.359-37.035-16.129a.476.476,0,0,1,.464-.832c13.48,7.475,34.627,17.86,37.625,15.8,3.384-2.311,11.352-32.432,14.272-44.374l-6.923-3.056-15.471,36.416a.483.483,0,1,1-.88-.377l15.694-36.851a.513.513,0,0,1,.271-.261.484.484,0,0,1,.367,0l7.736,3.413a.474.474,0,0,1,.271.551c-.425,1.721-10.337,42.3-14.756,45.322a2.843,2.843,0,0,1-1.634.377Z" transform="translate(-248.921 -94.77)" fill="#263238"></path><path id="Path_15309" data-name="Path 15309" d="M306.246,241.669c-13.015,0-25.683-5.26-25.876-5.338a.483.483,0,0,1-.29-.512l1.934-12.348a.475.475,0,1,1,.938.145L281.1,235.587c3.355,1.334,30.372,11.468,44.152-1.025l-.155-51.849a.474.474,0,0,1,.474-.483h0a.493.493,0,0,1,.484.474l.155,52.071a.483.483,0,0,1-.155.348C320.692,240.026,313.421,241.669,306.246,241.669Z" transform="translate(-247.375 -95.473)" fill="#263238"></path><path id="Path_15310" data-name="Path 15310" d="M321.1,158.4h-.058l-17.773-2.118a.487.487,0,0,1,.116-.967l17.773,2.118a.474.474,0,0,1,.416.532A.484.484,0,0,1,321.1,158.4Z" transform="translate(-248.127 -94.584)" fill="#263238"></path><path id="Path_15311" data-name="Path 15311" d="M271.586,229.539c-1.982,0-3.616-2.9-4.593-4.564l-.367-.629a103.625,103.625,0,0,1-5.8-11.6c-4.293-9.621-7.939-19.823-5.618-29.193,2.359-9.515,9.592-13.47,17.251-17.647,2.108-1.151,4.293-2.34,6.372-3.655a.476.476,0,1,1,.513.8c-2.108,1.334-4.3,2.533-6.43,3.694-7.465,4.071-14.5,7.919-16.777,17.028s1.344,19.117,5.56,28.584a105.056,105.056,0,0,0,5.744,11.536c.116.184.242.4.377.648.822,1.431,2.34,4.09,3.771,4.09h0c4.11-.1,27.23-20.993,36.184-29.405l-4.139-6.343-32.877,22.057a.474.474,0,0,1-.658-.126.493.493,0,0,1,.126-.667l33.264-22.318a.476.476,0,0,1,.667.126l.077.116,4.545,6.972a.483.483,0,0,1-.068.609c-1.3,1.218-31.746,29.812-37.112,29.976Z" transform="translate(-246.53 -94.811)" fill="#263238"></path><path id="Path_15312" data-name="Path 15312" d="M304.005,128.608a.484.484,0,0,1-.29-.106.464.464,0,0,1-.087-.667c.822-1.064,2.785-4.168,1.934-5.666a1.46,1.46,0,0,0-.967-.861,1.518,1.518,0,0,0-1.1.387.476.476,0,0,1-.648-.7,2.5,2.5,0,0,1,1.934-.638,2.379,2.379,0,0,1,1.654,1.344c1.286,2.311-1.683,6.276-2.031,6.72A.493.493,0,0,1,304.005,128.608Z" transform="translate(-248.122 -93.429)" fill="#263238"></path><path id="Path_15313" data-name="Path 15313" d="M336.5,168.541c-4.97,0-9.128-1.77-11.787-5.067-2.9-3.578-3.665-8.5-2.176-13.866a30.788,30.788,0,0,1,26.05-21.09c5.56-.329,10.211,1.45,13.112,5.028s3.665,8.5,2.176,13.866a30.788,30.788,0,0,1-26.06,21.09C337.368,168.532,336.933,168.541,336.5,168.541Zm13.4-39.1h-1.257a29.831,29.831,0,0,0-25.189,20.393c-1.412,5.057-.7,9.67,2,13.006s7.069,4.99,12.3,4.67a29.841,29.841,0,0,0,25.2-20.384c1.4-5.067.7-9.67-2-13.015C358.477,131.091,354.58,129.437,349.9,129.437Z" transform="translate(-248.753 -93.698)" fill="#263238"></path><path id="Path_15314" data-name="Path 15314" d="M339.707,172.073c-4.835,0-9.08-1.663-11.816-5.048-2.9-3.578-3.665-8.5-2.176-13.866a29.009,29.009,0,0,1,9.921-14.388c10.2-8.258,23.323-9,29.26-1.663,2.9,3.568,3.665,8.5,2.176,13.866a29.009,29.009,0,0,1-9.9,14.4C351.658,169.8,345.305,172.073,339.707,172.073Zm13.334-39.1c-5.386,0-11.517,2.2-16.845,6.508a28.042,28.042,0,0,0-9.583,13.915c-1.4,5.057-.7,9.67,2,13.015,5.6,6.923,18.121,6.111,27.907-1.808a28.042,28.042,0,0,0,9.592-13.915c1.4-5.057.7-9.67-2-13.006C361.579,134.535,357.586,132.969,353.041,132.969Z" transform="translate(-248.858 -93.816)" fill="#263238"></path><path id="Path_15315" data-name="Path 15315" d="M331.611,171.352l-9.969,11.294h0l-12.9,14.621-2.33-5.415-1.035.532s-.387.145-.377.1a4.593,4.593,0,0,0,.638-2.311c.648-.184.048-.861,0-1.093v-1.218l7.494-6.943.425-.445,13.315-13.46h.164a4.1,4.1,0,0,1,.706.145,4.835,4.835,0,0,1,1.586.822,7.01,7.01,0,0,1,2.185,3.007A1.025,1.025,0,0,0,331.611,171.352Z" transform="translate(-248.198 -94.971)" fill="#263238"></path><path id="Path_15316" data-name="Path 15316" d="M337.541,158.8a3.762,3.762,0,0,1-1.634-.358,4.419,4.419,0,0,1-2.417-3.568,9.2,9.2,0,0,1,.338-3.239c.377-1.566.851-3.413,1.479-5.26a1.856,1.856,0,1,1,3.51,1.209c-.581,1.692-1.025,3.442-1.383,4.922a6.1,6.1,0,0,0-.261,1.934.967.967,0,0,0,.29.638c.058,0,.454.126,1.818-.812,6.353-4.4,12.571-9.148,18.508-14.108a1.876,1.876,0,0,1,2.379,2.9c-6.015,5.028-12.329,9.844-18.779,14.3A7.049,7.049,0,0,1,337.541,158.8Z" transform="translate(-249.139 -94.07)" fill="#396caa"></path><path id="Path_15317" data-name="Path 15317" d="M337.524,159.315a4.312,4.312,0,0,1-1.837-.406A4.922,4.922,0,0,1,333,154.964a9.67,9.67,0,0,1,.338-3.394c.387-1.6.861-3.462,1.5-5.318a2.311,2.311,0,0,1,1.189-1.334,2.282,2.282,0,0,1,1.779-.116,2.359,2.359,0,0,1,1.344,1.189,2.321,2.321,0,0,1,.106,1.779c-.58,1.673-1.015,3.4-1.373,4.883a5.8,5.8,0,0,0-.251,1.76.968.968,0,0,0,0,.213,5.387,5.387,0,0,0,1.315-.725c6.343-4.39,12.571-9.128,18.469-14.079a2.33,2.33,0,0,1,3.82,2,2.282,2.282,0,0,1-.822,1.576c-6.024,5.048-12.358,9.873-18.817,14.34a7.552,7.552,0,0,1-4.071,1.576Zm-.483-13.683a1.46,1.46,0,0,0-.6.135,1.373,1.373,0,0,0-.7.793c-.629,1.818-1.093,3.665-1.47,5.222a8.577,8.577,0,0,0-.329,3.065,3.955,3.955,0,0,0,2.147,3.2,3.433,3.433,0,0,0,1.431.309,6.769,6.769,0,0,0,3.578-1.4c6.43-4.448,12.745-9.254,18.749-14.282a1.373,1.373,0,0,0,.483-.967,1.315,1.315,0,0,0-.319-.967,1.383,1.383,0,0,0-.967-.493,1.412,1.412,0,0,0-.967.319c-5.937,4.97-12.174,9.67-18.546,14.127-1.122.774-1.866,1.054-2.292.851a1.276,1.276,0,0,1-.561-.967,6.4,6.4,0,0,1,.271-2.1c.358-1.5.812-3.259,1.4-4.97a1.383,1.383,0,0,0-.861-1.75,1.219,1.219,0,0,0-.454-.174Z" transform="translate(-249.122 -94.054)" fill="#263238"></path><path id="Path_15318" data-name="Path 15318" d="M348.232,175.874a.455.455,0,0,1-.271-.087l-3.868-2.717a.493.493,0,0,1-.116-.667.474.474,0,0,1,.667-.116L348.512,175a.483.483,0,0,1,.106.667.474.474,0,0,1-.387.2Z" transform="translate(-249.483 -95.142)" fill="#263238"></path><path id="Path_15319" data-name="Path 15319" d="M357.807,181.884a.454.454,0,0,1-.271-.087l-5.193-3.665a.483.483,0,0,1-.106-.667.464.464,0,0,1,.658-.116l4.777,3.375,15.52-25.141a.478.478,0,0,1,.812.5l-15.791,25.557a.483.483,0,0,1-.309.213Z" transform="translate(-249.756 -94.586)" fill="#263238"></path><path id="Path_15320" data-name="Path 15320" d="M379.52,145.148a.464.464,0,0,1-.251-.068.484.484,0,0,1-.155-.658l8.074-13.112-32.2-12.677-7.107,10.143a.476.476,0,0,1-.783-.542l7.32-10.463a.483.483,0,0,1,.57-.174l33.08,13.035a.474.474,0,0,1,.271.29.464.464,0,0,1-.048.406l-8.364,13.6a.464.464,0,0,1-.406.222Z" transform="translate(-249.586 -93.337)" fill="#263238"></path><path id="Path_15321" data-name="Path 15321" d="M278.356,210.515a.5.5,0,0,1-.416-.232c-.783-1.315-6.363-23.981-7-26.553a.484.484,0,0,1,.358-.58.464.464,0,0,1,.57.348c2.475,10.056,6.353,25.364,6.895,26.292a.483.483,0,0,1-.164.658A.571.571,0,0,1,278.356,210.515Z" transform="translate(-247.073 -95.503)" fill="#263238"></path><path id="Path_15322" data-name="Path 15322" d="M281.083,208.361a.455.455,0,0,1-.416-.251L273.9,195.336a.478.478,0,1,1,.841-.454l6.769,12.774a.483.483,0,0,1-.2.648A.445.445,0,0,1,281.083,208.361Z" transform="translate(-247.169 -95.883)" fill="#263238"></path><path id="Path_15323" data-name="Path 15323" d="M266.982,212.172a.484.484,0,0,1-.058-.967c2.708-.329,5.425-.764,8.084-1.3a.492.492,0,0,1,.184.967c-2.678.542-5.425.967-8.152,1.315Z" transform="translate(-246.926 -96.387)" fill="#263238"></path><path id="Path_15324" data-name="Path 15324" d="M274.592,196.407a.513.513,0,0,1-.232-.058.571.571,0,0,1-.29-.5.619.619,0,0,1,.155-.367l1.315-12.493a.486.486,0,0,1,.967.106l-1.325,12.571v.126a.474.474,0,0,1-.155.464A.561.561,0,0,1,274.592,196.407ZM274.215,195.565Z" transform="translate(-247.177 -95.484)" fill="#263238"></path><path id="Path_15325" data-name="Path 15325" d="M322.529,182.171c0,1.634-1.692,5.009-1.692,5.009a4.186,4.186,0,0,1-.058.425,10.449,10.449,0,0,1-.387,1.76,8.229,8.229,0,0,1-2.475,3.965l-.851.667a.251.251,0,0,1-.1.068c-2,1.537-5.038,3.655-6.866,4.932l-.967-1.528s-2.62-3.762-3.268-5.048a6.237,6.237,0,0,0,.454-.667,6.248,6.248,0,0,0-.271-2.3c-.068-.28-.126-.532-.164-.764a1.209,1.209,0,0,1,.068-.919,3.157,3.157,0,0,1,.416-.464h0c1.489-1.6,6.208-6.063,6.208-6.063a11.9,11.9,0,0,1,1.47-.8,2.485,2.485,0,0,1,1.16-.3.377.377,0,0,1,.4.319,1.392,1.392,0,0,1,0,.445,27.075,27.075,0,0,1-1.886,4.728c0,.222.2.193.242-.184a46.684,46.684,0,0,1,4.284-2.572l.1-.048c1.866-.967,3.655-1.673,4.071-1.3a.155.155,0,0,1,.058.077,1.637,1.637,0,0,1,.077.232A1.181,1.181,0,0,0,322.529,182.171Z" transform="translate(-248.226 -95.404)" fill="#fff"></path><path id="Path_15326" data-name="Path 15326" d="M310.161,199.615a.474.474,0,0,1-.387-.2.483.483,0,0,1,.116-.667c1.934-1.344,4.98-3.52,6.769-4.835l.116-.087c2.514-1.818,2.824-2.824,3.114-4.322l.048-.251c.068-.309.126-.648.213-.967a2.185,2.185,0,0,1,.145-.561,19.7,19.7,0,0,1,.841-2.147,7.484,7.484,0,0,0,.967-3.143.455.455,0,0,0,0-.155.339.339,0,0,1,0-.126h0s-.851-.087-3.481,1.392a.753.753,0,0,1-.174.077c-2.272,1.315-4.777,3.075-4.835,3.094a.474.474,0,0,1-.677-.648c.135-.2.261-.416.367-.6,1.557-2.553,1.857-3.713,1.837-4.245,0-.3-.106-.348-.145-.367a.967.967,0,0,0-.483-.087h-.29c-.89.135-2.562,1.934-4.042,3.471a32.566,32.566,0,0,1-2.649,2.65,2.8,2.8,0,0,0-.706.89v.058a2.611,2.611,0,0,0-.28,1.015,4.832,4.832,0,0,0,0,.812,4.524,4.524,0,0,0,.135.832,5.144,5.144,0,0,1,.135,1.6,3.7,3.7,0,0,1-.358.89l-.048.087a.476.476,0,0,1-.87-.387l.048-.106c.087-.174.251-.532.29-.648a4.97,4.97,0,0,0-.135-1.257c-.058-.28-.106-.58-.145-.89a4.969,4.969,0,0,1,0-.967,3.577,3.577,0,0,1,.406-1.45h0a3.782,3.782,0,0,1,.909-1.131c.8-.706,1.711-1.663,2.591-2.591,1.808-1.934,3.365-3.568,4.583-3.761h.358a1.779,1.779,0,0,1,1.035.2,1.276,1.276,0,0,1,.629,1.16,7.9,7.9,0,0,1-1.267,3.558c.919-.609,2.069-1.344,3.2-1.982l.1-.048c3.433-1.934,4.293-1.683,4.68-1.18a.735.735,0,0,1,.135.222,1.277,1.277,0,0,1,.087.271,2.057,2.057,0,0,1,.068.358,8.122,8.122,0,0,1-.967,3.616c-.29.687-.6,1.392-.8,2.05-.048.174-.1.338-.126.493-.077.338-.145.658-.2.967l-.048.251c-.329,1.683-.745,2.9-3.423,4.835a2.186,2.186,0,0,1-.251.164c-1.7,1.247-4.786,3.433-6.691,4.777a.5.5,0,0,1-.435.019Zm11.768-17.6Z" transform="translate(-248.215 -95.395)" fill="#263238"></path><path id="Path_15327" data-name="Path 15327" d="M351.764,200.221a.464.464,0,0,1-.4-.222.474.474,0,0,1,.145-.658,28.857,28.857,0,0,0,4.564-3.6.483.483,0,1,1,.667.687,29.655,29.655,0,0,1-4.719,3.713.512.512,0,0,1-.261.077Z" transform="translate(-249.727 -95.914)" fill="#263238"></path><path id="Path_15328" data-name="Path 15328" d="M374.352,161.884a.464.464,0,0,1-.464-.367,12.57,12.57,0,0,1,.068-5.8,25.518,25.518,0,0,1-6.7-.329,1.654,1.654,0,0,1-1.16-.619,1.3,1.3,0,0,1,.222-1.6,2.552,2.552,0,0,1,1.151-.629,35.443,35.443,0,0,1,5.686-1.257,5.106,5.106,0,0,1,2.234,0c1.412.406,2.2,1.779,2.843,3.027a.478.478,0,1,1-.851.435c-.57-1.122-1.218-2.243-2.263-2.543a4.293,4.293,0,0,0-1.818,0,36,36,0,0,0-5.531,1.218,1.934,1.934,0,0,0-.764.387c-.116.126-.174.319-.116.406a1.334,1.334,0,0,0,.532.213,24.677,24.677,0,0,0,7.107.251.483.483,0,0,1,.416.164.493.493,0,0,1,.1.435,12.183,12.183,0,0,0-.222,6.034.474.474,0,0,1-.358.571Z" transform="translate(-250.21 -94.447)" fill="#263238"></path><path id="Path_15329" data-name="Path 15329" d="M367.737,153a.87.87,0,0,1-.561-.2,1.044,1.044,0,0,1-.416-.793,1.547,1.547,0,0,1,.493-1.141,5.037,5.037,0,0,1,2.1-1.209,13.364,13.364,0,0,1,7.078-.512.5.5,0,0,1-.213.967,12.319,12.319,0,0,0-6.556.493,4.061,4.061,0,0,0-1.712.967.667.667,0,0,0-.232.435.106.106,0,0,0,.048.087.464.464,0,0,1,.542.377.5.5,0,0,1-.4.561Z" transform="translate(-250.238 -94.372)" fill="#263238"></path><path id="Path_15330" data-name="Path 15330" d="M380.248,164.081a.493.493,0,0,1-.3-.106.483.483,0,0,1-.068-.677,9.612,9.612,0,0,0,1.441-9.786l-.174-.377a5.561,5.561,0,0,1-.551-1.624,5.423,5.423,0,0,1,.048-1.431,4.215,4.215,0,0,0,0-1.441,3.868,3.868,0,0,0-1.76-1.876,12.29,12.29,0,0,0-5.405-2.427,1.228,1.228,0,0,0-.754.087.58.58,0,0,0-.068.406l2.224,1.315a3.075,3.075,0,0,1,1.441,1.412,3.113,3.113,0,0,1,.145,1.17,3.009,3.009,0,0,0,0,.59.479.479,0,0,1-.948.145,6.546,6.546,0,0,1,0-.754,2.4,2.4,0,0,0-.077-.812,2.34,2.34,0,0,0-1.044-.967l-2.282-1.363a.967.967,0,0,1-.416-.832,1.373,1.373,0,0,1,.512-1.141,2.079,2.079,0,0,1,1.363-.242,13.151,13.151,0,0,1,5.85,2.591,4.651,4.651,0,0,1,2.147,2.408,4.96,4.96,0,0,1,0,1.808,5.084,5.084,0,0,0-.048,1.2,4.834,4.834,0,0,0,.474,1.354l.174.4a10.637,10.637,0,0,1-1.576,10.782A.5.5,0,0,1,380.248,164.081Z" transform="translate(-250.402 -94.188)" fill="#263238"></path><path id="Path_15331" data-name="Path 15331" d="M267.75,123.843l3.762-4.6,2.756,3.636a14.33,14.33,0,0,1-6.517.967Z" transform="translate(-246.968 -93.393)" fill="#fff"></path><path id="Path_15332" data-name="Path 15332" d="M283.6,154.57l-3.046,7.794,11.913,5.986v-8.538l4.738,7.417A57.236,57.236,0,0,0,303,156.3l-3.549-4.071s-4.429,6.972-7.107,6.769S283.6,154.57,283.6,154.57Z" transform="translate(-247.391 -94.482)" fill="#fff"></path><path id="Path_15333" data-name="Path 15333" d="M300.717,113.172l1.073,6.894s3.52.155,3.365,2.611-2.6,6.276-2.6,6.276,1.683,10.8-3.529,16.013v5.328s-3.355,6.7-6.865,8.161c0,0-5.8-2.079-8.577-4.68,0,0-4.081-14.388-5.463-18.982,0,0-2.572,1.576-4.226.087s-4.371-4.97-3.085-6.827,4.506-1.093,4.506-1.093L271.631,119s6.285-8.123,14.563-7.813a72.524,72.524,0,0,1,14.524,1.982Z" transform="translate(-247.058 -93.126)" fill="#fff"></path><path id="Path_15334" data-name="Path 15334" d="M281.665,113.48a16.9,16.9,0,0,1,2.34,10.172c-.174,1.992-.706,3.945-.822,5.937-.164,3.181.745,6.3,1.644,9.351.6,2,1.064,4.651,2.9,5.618.909.483,1.934.126,3.065.89,0,.077.077.309.077.387,0,2.737.512,5.376.126,8.094a7.049,7.049,0,0,1-1.557,3.926l-6.189-4.564s-2.707-10.53-5.357-18.256c0,0-4.4,1.044-6.2-2.437s-1.673-4.932.116-5.376a11.7,11.7,0,0,1,4.371.106l-1.228-8.4L280,113.76Z" transform="translate(-247.056 -93.202)" fill="#396caa"></path><path id="Path_15335" data-name="Path 15335" d="M281.665,113.48a16.9,16.9,0,0,1,2.34,10.172c-.174,1.992-.706,3.945-.822,5.937-.164,3.181.745,6.3,1.644,9.351.6,2,1.064,4.651,2.9,5.618.909.483,1.934.126,3.065.89,0,.077.077.309.077.387,0,2.737.512,5.376.126,8.094a7.049,7.049,0,0,1-1.557,3.926l-6.189-4.564s-2.707-10.53-5.357-18.256c0,0-4.4,1.044-6.2-2.437s-1.673-4.932.116-5.376a11.7,11.7,0,0,1,4.371.106l-1.228-8.4L280,113.76Z" transform="translate(-247.056 -93.202)" fill="#fff" opacity="0.5"></path><path id="Path_15336" data-name="Path 15336" d="M275.279,128.769l2.011-1.189s-1.75-3.462.329-5.1,4.013-3.713,2.524-8.471c0,0,2.969-1.479,7.736-.3s16.777,2.475,21.97-3.017,5.657-7.678,3.578-11.391-5.947,1.634-12.184-1.035-10.985-4.9-21.534,1.934-12.184,12.919-10.1,17.077S273.645,125.056,275.279,128.769Z" transform="translate(-247.003 -92.614)" fill="#263238"></path><path id="Path_15337" data-name="Path 15337" d="M268.19,121.425l1.325-3.036a21.786,21.786,0,0,1-.5-12.3c2.118-8.21,11.236-12.31,16.729-13.064s9.67,1.866,13.818,3.945l7.62,1.547S283.865,101.312,268.19,121.425Z" transform="translate(-246.982 -92.522)" fill="#fff"></path><path id="Path_15338" data-name="Path 15338" d="M295.5,146.565c-3.481,0-9.351-1.363-11.932-3.607l-.077-.087-5.56-7.958a.483.483,0,0,1,.126-.667.464.464,0,0,1,.658.116l5.521,7.91c3.085,2.62,10.782,3.868,12.909,3.162s4.728-2.495,5.357-10.714-1.5-19.194-1.518-19.339a.478.478,0,1,1,.938-.184c0,.106,2.185,11.149,1.538,19.571-.677,8.79-3.578,10.791-6.034,11.6A6.953,6.953,0,0,1,295.5,146.565Z" transform="translate(-247.301 -93.246)" fill="#263238"></path><path id="Path_15339" data-name="Path 15339" d="M275.561,136.309a4.284,4.284,0,0,1-1.934-.474,7.978,7.978,0,0,1-3.317-4.477,4.061,4.061,0,0,1,0-3c1.18-2.156,4.535-.677,4.68-.619a.476.476,0,1,1-.387.87s-2.708-1.151-3.452.2a3.036,3.036,0,0,0,.058,2.263,7.165,7.165,0,0,0,2.824,3.868,3.23,3.23,0,0,0,3.1-.058.483.483,0,0,1,.658.145.464.464,0,0,1-.135.658A4.1,4.1,0,0,1,275.561,136.309Z" transform="translate(-247.043 -93.655)" fill="#263238"></path><path id="Path_15340" data-name="Path 15340" d="M295.814,131.668a.464.464,0,0,1-.464-.377.474.474,0,0,1,.377-.561,2.408,2.408,0,0,0,1.4-.88c.155-.193.3-.493.213-.687a1.258,1.258,0,0,0-.193-.251,10.58,10.58,0,0,1-.967-1.17,3.3,3.3,0,0,1-.716-2.176,17.785,17.785,0,0,1,.174-3.21.479.479,0,0,1,.948.135,17.715,17.715,0,0,0-.174,3.036,3.372,3.372,0,0,0,.106.832,2.9,2.9,0,0,0,.445.841,9.6,9.6,0,0,0,.832,1.044,1.934,1.934,0,0,1,.387.522,1.644,1.644,0,0,1-.319,1.663,3.384,3.384,0,0,1-1.982,1.238Z" transform="translate(-247.879 -93.482)" fill="#263238"></path><path id="Path_15341" data-name="Path 15341" d="M292.639,136.466a5.955,5.955,0,0,1-.89-.068h-.29a7.426,7.426,0,0,1-3-.89.484.484,0,0,1-.184-.658.474.474,0,0,1,.648-.184,6.3,6.3,0,0,0,2.6.783h.348a2.843,2.843,0,0,0,1.557-.087.493.493,0,0,1,.648.213.484.484,0,0,1-.213.638,2.669,2.669,0,0,1-1.228.251Z" transform="translate(-247.644 -93.9)" fill="#263238"></path><path id="Path_15342" data-name="Path 15342" d="M285.714,120.655a.464.464,0,0,1-.251-.068.483.483,0,0,1-.155-.658,9,9,0,0,1,1.615-2.079,4.777,4.777,0,0,1,3.945-1.073.492.492,0,0,1-.184.967,3.81,3.81,0,0,0-3.133.861,7.736,7.736,0,0,0-1.431,1.857A.493.493,0,0,1,285.714,120.655Z" transform="translate(-247.546 -93.309)" fill="#263238"></path><path id="Path_15343" data-name="Path 15343" d="M301.479,120.092a.474.474,0,0,1-.474-.4.822.822,0,0,0-.251-.464,2.02,2.02,0,0,0-.532-.309,3.868,3.868,0,0,0-3.326-.087.477.477,0,1,1-.483-.822,4.7,4.7,0,0,1,4.2,0,2.582,2.582,0,0,1,.8.5,1.77,1.77,0,0,1,.532.967.474.474,0,0,1-.387.551Z" transform="translate(-247.907 -93.336)" fill="#263238"></path><path id="Path_15344" data-name="Path 15344" d="M290.575,124.3c.068.716-.164,1.325-.522,1.354s-.706-.512-.774-1.228.164-1.325.522-1.363S290.508,123.582,290.575,124.3Z" transform="translate(-247.679 -93.519)" fill="#263238"></path><path id="Path_15345" data-name="Path 15345" d="M299.736,123.778c.068.716-.164,1.325-.522,1.354s-.7-.522-.764-1.228.164-1.325.522-1.363S299.668,123.062,299.736,123.778Z" transform="translate(-247.982 -93.502)" fill="#263238"></path><path id="Path_15346" data-name="Path 15346" d="M300.043,152.494a.474.474,0,0,1-.474-.425,33.19,33.19,0,0,1-.28-5.734.464.464,0,0,1,.5-.445.474.474,0,0,1,.445.512,35.4,35.4,0,0,0,.28,5.56.484.484,0,0,1-.425.532Z" transform="translate(-248.009 -94.273)" fill="#263238"></path><path id="Path_15347" data-name="Path 15347" d="M283.42,154.432a.474.474,0,0,1-.474-.416c-.59-4.9-2.108-9.186-3.7-13.721-.542-1.547-1.112-3.143-1.644-4.786a.493.493,0,0,1,.309-.609.474.474,0,0,1,.6.309c.532,1.634,1.093,3.23,1.634,4.767,1.615,4.583,3.143,8.915,3.752,13.924a.483.483,0,0,1-.416.532Z" transform="translate(-247.292 -93.909)" fill="#263238"></path><path id="Path_15348" data-name="Path 15348" d="M267.734,123.613a.358.358,0,0,1-.174,0,.464.464,0,0,1-.29-.551c3.065-13.17,10.724-21.36,23.42-25.035,7.658-2.224,17.492.087,17.908.193a.464.464,0,0,1,.358.493.474.474,0,0,1-.425.445,55.417,55.417,0,0,0-40.39,24.252.464.464,0,0,1-.406.2Zm30.576-25.644a26.892,26.892,0,0,0-7.359.909c-11.449,3.317-18.691,10.414-22.047,21.67A56.935,56.935,0,0,1,305.445,98.54a48.65,48.65,0,0,0-7.136-.57Z" transform="translate(-246.952 -92.66)" fill="#263238"></path><path id="Path_15349" data-name="Path 15349" d="M268.711,124.819a3.868,3.868,0,0,1-1.1-.126.477.477,0,1,1,.29-.909s1.741.483,5.173-1.025a.483.483,0,0,1,.377.88,11.961,11.961,0,0,1-4.738,1.18Z" transform="translate(-246.952 -93.508)" fill="#263238"></path><path id="Path_15350" data-name="Path 15350" d="M268.967,117.98c-.048-.145-4.709-14.708,6.769-21.776,14.04-8.645,23.99.58,24.087.677l-.658.687c-.387-.358-9.534-8.79-22.936-.551-10.84,6.672-6.4,20.529-6.363,20.664Z" transform="translate(-246.976 -92.51)" fill="#263238"></path><path id="Path_15351" data-name="Path 15351" d="M292.441,168.9a.464.464,0,0,1-.193,0c-.416-.174-10.269-4.342-12.242-6.643a.464.464,0,0,1-.077-.5l3.2-7.272a.484.484,0,0,1,.783-.135,20.741,20.741,0,0,0,8.645,5.106.474.474,0,0,1,.358.454v8.548a.493.493,0,0,1-.213.406A.513.513,0,0,1,292.441,168.9Zm-11.478-7.1c1.934,1.847,8.838,4.941,11.023,5.889v-7.455a21.37,21.37,0,0,1-8.229-4.777Z" transform="translate(-247.369 -94.548)" fill="#263238"></path><path id="Path_15352" data-name="Path 15352" d="M297.592,167.667h-.068a.5.5,0,0,1-.338-.222l-4.738-7.417a.513.513,0,0,1-.068-.358.483.483,0,0,1,.213-.3c.058,0,5.55-3.568,6.846-7.861a.483.483,0,0,1,.841-.145l3.471,4.622a.493.493,0,0,1,.077.387c-.068.309-1.76,7.436-5.918,11.168A.445.445,0,0,1,297.592,167.667Zm-4.09-7.736,4.177,6.537c3.268-3.268,4.835-8.915,5.164-10.076l-2.795-3.732c-1.5,3.558-5.3,6.392-6.546,7.252Z" transform="translate(-247.781 -94.448)" fill="#263238"></path><path id="Path_15353" data-name="Path 15353" d="M282.914,108.934a.483.483,0,0,1-.464-.358.474.474,0,0,1,.338-.58,34.018,34.018,0,0,1,10.637-1.073c1.044.068,2.108.174,3.133.28a28.225,28.225,0,0,0,6.991.174c3.075-.435,6.5-2.321,7.194-5.55a.483.483,0,0,1,.561-.367.474.474,0,0,1,.367.571c-.793,3.674-4.583,5.8-7.987,6.295a29.637,29.637,0,0,1-7.233-.164c-1.015-.106-2.06-.222-3.085-.28a32.973,32.973,0,0,0-10.327,1.035Z" transform="translate(-247.453 -92.805)" fill="#fff"></path><path id="Path_15354" data-name="Path 15354" d="M290.033,105.254a.474.474,0,0,1-.222-.9c2.9-1.557,6.266-1.837,9.447-1.992h.261a18.315,18.315,0,0,0,4.187-.522,5.56,5.56,0,0,0,3.365-2.388.493.493,0,0,1,.658-.174.484.484,0,0,1,.174.658,6.546,6.546,0,0,1-3.936,2.824,19.522,19.522,0,0,1-4.4.561h-.261c-3.075.145-6.295.416-9.051,1.876A.445.445,0,0,1,290.033,105.254Z" transform="translate(-247.688 -92.731)" fill="#fff"></path></g></g><g id="freepik--character-1--inject-2" transform="translate(114.535 200.627)"><g id="freepik--character-1--inject-2-2" data-name="freepik--character-1--inject-2" transform="translate(0 0)"><path id="Path_15355" data-name="Path 15355" d="M116.982,302.034c-3.075,1.228,8,19.339,11.681,20.306s15.065-27.365,11.99-28.9-11.062,22.134-12.571,22.134S120.028,300.806,116.982,302.034Z" transform="translate(-116.449 -208.26)" fill="#263238"></path><path id="Path_15356" data-name="Path 15356" d="M239.476,320.4,237.61,333.13s.745,6.894-12.058,9.853c-5.5,1.276-13.538.4-20.9-1.035a168.882,168.882,0,0,1-18.421-4.719l2-4.235,3.075-6.517-.106-.822-.271-2.079-4.061,1.354-31.775,10.5-3.268-7.107,26.737-16.438-.058-4.4-5.115-.213c0-2.466,1.663-6.653,1.663-6.653l2.959-.832s-2.717-29.009-1.721-33.438,10.25-9.979,10.25-9.979a15.752,15.752,0,0,0,8.132,8.867l2.379-5.918,2.282,4.719c5.8-2.562,10.714-12,10.714-12s13.276,3.481,22.888,18.256S239.476,320.4,239.476,320.4Z" transform="translate(-117.617 -206.895)" fill="#396caa"></path><path id="Path_15357" data-name="Path 15357" d="M215.925,326.657c5.908,6.72-18.72,3.172-19.716,3.027a14.582,14.582,0,0,1,9.67,13.47,89.7,89.7,0,0,1-18.488-3.945l2-4.235,2.969-7.339-.271-2.079-2.456-13.625s18.1,2.2,33.67,4.583l-25.5,1.373S209.891,319.811,215.925,326.657Z" transform="translate(-118.792 -208.873)" opacity="0.2"></path><path id="Path_15358" data-name="Path 15358" d="M186.91,298.2l22.54-3.936c-.7-7.214,0-14.6,3.278-21.08a17.56,17.56,0,0,1,3.085-4.264c.551-.58,2.679-.232,2.311,2.65-.745,5.928-.967,5.1-1.847,10.956l-1.886,11.855s12.4-3.123,14.079,7.262a.764.764,0,0,1-1.073.8c-2.9-1.344-10.085-4.5-12.754-3.868,0,0-10.637-.135-14.2.687s-13.112.967-13.112.967Z" transform="translate(-118.776 -207.444)" opacity="0.2"></path><path id="Path_15359" data-name="Path 15359" d="M151.82,330.258l3.278,7.107,35.845-11.855-2.408-13.6-9.979-1.334-.058,3.3Z" transform="translate(-117.617 -208.828)" opacity="0.2"></path><path id="Path_15360" data-name="Path 15360" d="M152.112,333.3l-1.721-1.721s-5.56-.841-8.451.377-11.855,4.632-10.878,5.144,6.131.58,6.131.58S126,344.509,126.13,345.418s10.714,0,12.435-.367,15.036-7.91,15.036-7.91Z" transform="translate(-116.768 -209.513)" fill="#fff"></path><path id="Path_15361" data-name="Path 15361" d="M173.533,307.606l1.489-4.786s-4.98-5.618-7.629-6a14.069,14.069,0,0,0-6.015.967s-4.719-2.649-5.425-1.354.116,4.042.116,4.042-2.118,3.52-.7,4.835a4.6,4.6,0,0,1,1.479,2.978S167.2,310.671,173.533,307.606Z" transform="translate(-117.718 -208.349)" fill="#fff"></path><path id="Path_15362" data-name="Path 15362" d="M155.861,296.992c1.238-1.383,2.2,3.6,3.172,5.173a8.422,8.422,0,0,0,1.741,2.243,7.834,7.834,0,0,0,4.912,1.257,45.11,45.11,0,0,0,7.9-.629l.6,1.934s-5.986,3.172-17.328,1.363a8.161,8.161,0,0,0-1.479-3.123c-1.044-1.2.5-4.09.5-4.09S154.749,298.2,155.861,296.992Z" transform="translate(-117.723 -208.371)" fill="#396caa"></path><path id="Path_15363" data-name="Path 15363" d="M155.861,296.992c1.238-1.383,2.2,3.6,3.172,5.173a8.422,8.422,0,0,0,1.741,2.243,7.834,7.834,0,0,0,4.912,1.257,45.11,45.11,0,0,0,7.9-.629l.6,1.934s-5.986,3.172-17.328,1.363a8.161,8.161,0,0,0-1.479-3.123c-1.044-1.2.5-4.09.5-4.09S154.749,298.2,155.861,296.992Z" transform="translate(-117.723 -208.371)" fill="#fff" opacity="0.5"></path><path id="Path_15364" data-name="Path 15364" d="M151.488,284.438c-2.9,4.09-9.389,4.467-14.5.841s-6.585-9.873-3.713-13.963,8.993-4.477,14.147-.851S154.37,280.309,151.488,284.438Z" transform="translate(-116.956 -207.421)" fill="#fff"></path><path id="Path_15365" data-name="Path 15365" d="M135.581,270.27s-.29,9.882,15.413,12.793c0,0,.58,4.071-4.941,3.394s-11.052-5.715-12.222-8.625S132.284,271.237,135.581,270.27Z" transform="translate(-116.995 -207.497)" fill="#396caa"></path><path id="Path_15366" data-name="Path 15366" d="M135.581,270.27s-.29,9.882,15.413,12.793c0,0,.58,4.071-4.941,3.394s-11.052-5.715-12.222-8.625S132.284,271.237,135.581,270.27Z" transform="translate(-116.995 -207.497)" fill="#fff" opacity="0.4"></path><path id="Path_15367" data-name="Path 15367" d="M146.116,286.816h-.638a14.785,14.785,0,0,1-12.493-10.134,6.866,6.866,0,0,1,7.465-9.235,14.775,14.775,0,0,1,12.571,10.134,7.33,7.33,0,0,1-1.083,6.769,7.127,7.127,0,0,1-5.821,2.466Zm-6.314-18.44a6.228,6.228,0,0,0-5.019,2.127h0a6.44,6.44,0,0,0-.9,5.908,13.857,13.857,0,0,0,11.6,9.438,5.928,5.928,0,0,0,6.5-8.026,13.828,13.828,0,0,0-11.662-9.428Z" transform="translate(-116.98 -207.401)" fill="#263238"></path><path id="Path_15368" data-name="Path 15368" d="M144.618,288.489h-.638a14.785,14.785,0,0,1-12.513-10.124,7.378,7.378,0,0,1,1.073-6.769h0c2.9-3.568,9.235-3.23,14.156.745s6.546,10.1,3.645,13.673A7.185,7.185,0,0,1,144.618,288.489Zm-11.333-16.313a6.44,6.44,0,0,0-.9,5.908,13.818,13.818,0,0,0,11.6,9.438,6.45,6.45,0,0,0,5.6-2.108c2.553-3.162.967-8.7-3.539-12.348S135.837,269,133.285,272.176Z" transform="translate(-116.932 -207.459)" fill="#263238"></path><path id="Path_15369" data-name="Path 15369" d="M163.648,298.713l-7.262-2.079-7.736-8.7a1.257,1.257,0,0,1,.077-.164,3.4,3.4,0,0,1,.967-1.4,2.5,2.5,0,0,1,.745-.387,1.189,1.189,0,0,1,.348-.068h.135Z" transform="translate(-117.512 -208.013)" fill="#263238"></path><path id="Path_15370" data-name="Path 15370" d="M155.082,337.825a.474.474,0,0,1-.425-.28l-3.288-7.107a.474.474,0,0,1,.184-.6L178,313.6l-.068-2.949a.474.474,0,0,1,.474-.484.464.464,0,0,1,.484.464l.077,3.22a.493.493,0,0,1-.232.416l-26.321,16.158,2.9,6.334,35.43-11.72a.474.474,0,0,1,.6.309.464.464,0,0,1-.3.6L155.207,337.8a.4.4,0,0,1-.126.029Z" transform="translate(-117.601 -208.815)" fill="#263238"></path><path id="Path_15371" data-name="Path 15371" d="M178.7,300.46a.483.483,0,0,1-.483-.445l-1.876-32.645a.406.406,0,0,1,0-.213,25.141,25.141,0,0,1,10.637-11.71.483.483,0,0,1,.658.174.474.474,0,0,1-.164.648,24.1,24.1,0,0,0-10.182,11.159l1.876,32.529a.474.474,0,0,1-.454.5Z" transform="translate(-118.427 -207.005)" fill="#263238"></path><path id="Path_15372" data-name="Path 15372" d="M238.462,340.3h-.077a.474.474,0,0,1-.4-.542L241,320.318c0-.261.967-31.736-3.7-44.026-5.135-13.451-19.281-21-25.141-23.633a.476.476,0,1,1,.387-.87c5.957,2.678,20.364,10.376,25.625,24.174,4.757,12.474,3.8,43.156,3.762,44.48l-3.017,19.484A.474.474,0,0,1,238.462,340.3Z" transform="translate(-119.601 -206.885)" fill="#263238"></path><path id="Path_15373" data-name="Path 15373" d="M187.191,301.145a.474.474,0,0,1-.474-.387L182.85,279.91a.491.491,0,0,1,.967-.174l3.868,20.848a.474.474,0,0,1-.377.551Z" transform="translate(-118.642 -207.796)" fill="#263238"></path><path id="Path_15374" data-name="Path 15374" d="M202.464,336.611a.522.522,0,0,1-.348-.135,13.538,13.538,0,0,0-7.349-3.868.493.493,0,0,1-.387-.561.483.483,0,0,1,.551-.387,14.5,14.5,0,0,1,7.871,4.168.464.464,0,0,1,0,.667.435.435,0,0,1-.338.116Z" transform="translate(-119.023 -209.524)" fill="#263238"></path><path id="Path_15375" data-name="Path 15375" d="M215.574,299.208a.474.474,0,0,1-.474-.474c0-.077,0-7.03,2.533-19.252a34.193,34.193,0,0,1,2.253-7.272.474.474,0,0,1,.638-.232.484.484,0,0,1,.232.638,32.877,32.877,0,0,0-2.185,7.059c-2.524,12.106-2.514,18.982-2.514,19.049a.493.493,0,0,1-.474.483Z" transform="translate(-119.707 -207.552)" fill="#263238"></path><path id="Path_15376" data-name="Path 15376" d="M226.708,316.027c-8.79,0-44.829-5.8-52.661-7.117a.474.474,0,0,1-.4-.464c0-5.048,2.108-6.933,2.2-7.011a.406.406,0,0,1,.251-.116c4.235-.493,8.016-.716,11.681-.967s7.417-.425,11.6-.919c7.919-.967,17.783-2.079,25.992,1.934a.474.474,0,1,1-.416.851c-7.958-3.868-17.667-2.766-25.47-1.857-4.226.5-8.006.716-11.662.967s-7.32.416-11.459.9c-.367.4-1.683,2.1-1.779,5.8,20.577,3.365,51.472,7.948,53.415,6.962,1.547-1.035,5.57-18.933,7.736-29.976a.492.492,0,1,1,.967.184c-.967,4.835-5.8,29.009-8.152,30.576A4.168,4.168,0,0,1,226.708,316.027Z" transform="translate(-118.338 -207.971)" fill="#263238"></path><path id="Path_15377" data-name="Path 15377" d="M175.051,303.058a.484.484,0,0,1-.329-.126c-2.3-2.176-5.937-5.3-6.827-5.434a35.542,35.542,0,0,0-6.015.5.464.464,0,0,1-.542-.4.483.483,0,0,1,.406-.542,37.707,37.707,0,0,1,6.285-.5c1.508.213,6.382,4.767,7.349,5.676a.484.484,0,0,1,0,.677.493.493,0,0,1-.329.145Z" transform="translate(-117.931 -208.365)" fill="#263238"></path><path id="Path_15378" data-name="Path 15378" d="M163.684,309.536c-3.558,0-6.624-.29-6.865-.319a.493.493,0,0,1-.435-.474,3.346,3.346,0,0,0-1.228-2.485c-1.537-1.093-.184-4.5.338-5.657a4.177,4.177,0,0,1-.106-3.7,1.344,1.344,0,0,1,.822-.832c1.528-.561,4.7,1.093,7.591,2.785l.609.348a.435.435,0,0,1,.309.184.513.513,0,0,1,0,.619c-.28.309-.445.213-1.373-.329-1.354-.793-5.473-3.191-6.769-2.708a.406.406,0,0,0-.251.251c-.725,2.089.068,2.959.1,2.988a.493.493,0,0,1,.087.542c-.754,1.6-1.518,4.2-.764,4.738a4.1,4.1,0,0,1,1.6,2.824c2.089.174,11.894.89,15.771-1.054a.483.483,0,0,1,.648.213.474.474,0,0,1-.213.638C171.236,309.2,167.223,309.536,163.684,309.536Z" transform="translate(-117.704 -208.345)" fill="#263238"></path><path id="Path_15379" data-name="Path 15379" d="M216.378,277.859a.483.483,0,0,1-.474-.425,32.617,32.617,0,0,1,0-6.769.486.486,0,1,1,.967.1,32.1,32.1,0,0,0,0,6.537.474.474,0,0,1-.425.522Z" transform="translate(-119.728 -207.495)" fill="#263238"></path><path id="Path_15380" data-name="Path 15380" d="M186.725,318.043a.377.377,0,0,1-.174,0l-7.562-3.075a.474.474,0,0,1-.271-.619.483.483,0,0,1,.619-.271l7.6,3.065a.474.474,0,0,1,.271.619A.484.484,0,0,1,186.725,318.043Z" transform="translate(-118.505 -208.943)" fill="#263238"></path><path id="Path_15381" data-name="Path 15381" d="M219.463,298.522a.483.483,0,1,1,0-.967,21.273,21.273,0,0,0,5.715-1.015.477.477,0,0,1,.29.909,22.047,22.047,0,0,1-5.976,1.064Z" transform="translate(-119.836 -208.364)" fill="#263238"></path><path id="Path_15382" data-name="Path 15382" d="M187.8,339.371h-.174a.483.483,0,0,1-.261-.629l4.622-11.42-2.814-15.471a.464.464,0,0,1,.377-.551.474.474,0,0,1,.561.377l2.833,15.587a.522.522,0,0,1,0,.271l-.106.251-4.593,11.265a.464.464,0,0,1-.445.319Z" transform="translate(-118.79 -208.852)" fill="#263238"></path><path id="Path_15383" data-name="Path 15383" d="M206.509,329.432h-.1a45.855,45.855,0,0,0-9.264-1.035,28.487,28.487,0,0,0-4.467.271.474.474,0,0,1-.542-.4.483.483,0,0,1,.406-.541,29.013,29.013,0,0,1,4.612-.28,46.415,46.415,0,0,1,9.457,1.044.486.486,0,0,1-.106.967Z" transform="translate(-118.949 -209.385)" fill="#263238"></path><path id="Path_15384" data-name="Path 15384" d="M129,346.614a11.384,11.384,0,0,1-2.8-.232.822.822,0,0,1-.551-.445c-.145-.387-.367-1.025,9.67-7.649-1.828.106-4.032.077-4.6-.59a.8.8,0,0,1-.164-.745c.242-.87,2.031-1.634,6.034-3.181a30.262,30.262,0,0,0,5.028-2.224c3.046-2.185,9.805.184,10.1.29a.474.474,0,1,1-.319.89c-.068,0-6.575-2.3-9.215-.406a29.116,29.116,0,0,1-5.251,2.34c-1.934.764-4.893,1.934-5.4,2.475.571.3,3.017.329,5.57.048a.493.493,0,0,1,.5.319.474.474,0,0,1-.193.561,121.468,121.468,0,0,0-10.637,7.484c2.069.358,10.366-.058,12.745-1.712,4.129-2.9,13.451-6.943,13.847-7.117a.476.476,0,0,1,.387.87c-.1.048-9.67,4.226-13.683,7.03C138.123,346,132.553,346.614,129,346.614Z" transform="translate(-116.751 -209.49)" fill="#263238"></path><path id="Path_15385" data-name="Path 15385" d="M131.824,346.872a.454.454,0,0,1-.406-.232.474.474,0,0,1,.155-.648l7.407-4.554a.478.478,0,0,1,.5.812l-7.407,4.564a.464.464,0,0,1-.251.058Z" transform="translate(-116.941 -209.845)" fill="#263238"></path><path id="Path_15386" data-name="Path 15386" d="M176.83,267.79s5.048,6.169,6.469,13.276,3.694,19.223,3.694,19.223l-7.881.58Z" transform="translate(-118.443 -207.415)" opacity="0.2"></path><path id="Path_15387" data-name="Path 15387" d="M214.184,413.029s-13.131,13.305-14.775,15.926-3.51,4.206-.4,5.676,12.513.474,14.853-.425c3.036-1.151,11.981-12.8,11.981-12.8L224.7,411.55Z" transform="translate(-119.121 -212.164)" fill="#fff"></path><path id="Path_15388" data-name="Path 15388" d="M204.3,436.325c-4.535,0-7.156-1.2-7.678-3.568-.745-3.336,14.35-16.825,16.081-18.372l.193-.174.251.068,1.151.338a26.688,26.688,0,0,0,11.275,1.151h.474v.474c.155,2.272.435,3.82.435,3.868v.155l-.068.135c-.271.561-6.624,13.789-14.969,15.239A42.877,42.877,0,0,1,204.3,436.325Zm8.838-21.032c-6.769,6.044-16.023,15.288-15.588,17.26.619,2.756,5.637,3.529,13.789,2.108,7.436-1.3,13.538-13.18,14.2-14.582-.068-.416-.251-1.624-.387-3.307a27.442,27.442,0,0,1-11.139-1.218Z" transform="translate(-119.096 -212.251)" fill="#263238"></path><path id="Path_15389" data-name="Path 15389" d="M207.55,433.807a24.4,24.4,0,0,1-9.8-2.369l-.164-.077.309-.9.251.106c2.9,1.334,8.519,3.317,13.654,1.634,4.748-1.547,13.17-15.336,13.257-15.471l.812.5c-.348.58-8.7,14.224-13.779,15.887a14.5,14.5,0,0,1-4.545.687Z" transform="translate(-119.129 -212.335)" fill="#263238"></path><path id="Path_15390" data-name="Path 15390" d="M207.844,392.1s-33.409,27.075-47.149,27.075c0,0-7.475-2.669-10.221-13.325s7.562-26.108,7.562-26.108L185.652,342.9l1.808-2.475s28.448,10.347,47.256-3.868c0,0,1.934,23.207-2.824,32.877S207.844,392.1,207.844,392.1Z" transform="translate(-117.557 -209.686)" fill="#263238"></path><path id="Path_15391" data-name="Path 15391" d="M161.332,418.52a3.48,3.48,0,0,1-.89-.1c-5.473-1.441-9.911-9.8-10.695-15.152s5.318-21.38,12.571-30.585c7.407-9.38,23.729-30.363,23.894-30.576l.754.59c-.164.213-16.487,21.2-23.894,30.576-7.658,9.67-13.054,25.238-12.387,29.86.725,4.97,4.97,13.044,9.989,14.359a2.661,2.661,0,0,0,.716.077c6.45,0,32.48-14.137,42.334-24.174l.677.667C194.915,403.735,168.613,418.52,161.332,418.52Z" transform="translate(-117.546 -209.87)" fill="#263238"></path><path id="Path_15392" data-name="Path 15392" d="M175.913,393.866a.464.464,0,0,1-.358-.164.474.474,0,0,1,0-.667l32.935-29.009a40.613,40.613,0,0,0-6.063-11.671.478.478,0,0,1,.774-.561,41.435,41.435,0,0,1,6.295,12.242.493.493,0,0,1-.145.5l-33.167,29.241a.474.474,0,0,1-.271.087Z" transform="translate(-118.397 -210.183)" fill="#fff"></path><path id="Path_15393" data-name="Path 15393" d="M227.51,403.29c1.789-6.769,13.789-44.906,13.915-51.713.126-7.368-5.357-23.894-12.126-28.526s-15.665,1.083-17.483,5.347c-3.259,7.668.716,83.807.716,83.807l-.706.619a44.326,44.326,0,0,0,14.891,1.189,34.685,34.685,0,0,1,.793-10.724Z" transform="translate(-119.557 -209.183)" fill="#263238"></path><path id="Path_15394" data-name="Path 15394" d="M211.76,381.292a.474.474,0,0,1-.474-.425c-.174-1.847-4.11-45.119,0-53.705a.483.483,0,0,1,.638-.222.474.474,0,0,1,.222.638c-3.994,8.355,0,52.748.087,53.183a.464.464,0,0,1-.425.522Z" transform="translate(-119.52 -209.367)" fill="#fff"></path><path id="Path_15395" data-name="Path 15395" d="M242.764,354.177h0a.493.493,0,0,1-.454-.5,36.84,36.84,0,0,0-1.334-9.06l-.116-.474a.484.484,0,0,1,.358-.58.464.464,0,0,1,.571.358l.116.474a37.9,37.9,0,0,1,1.363,9.322.483.483,0,0,1-.5.464Z" transform="translate(-120.558 -209.917)" fill="#fff"></path><path id="Path_15396" data-name="Path 15396" d="M240.044,340.313a.474.474,0,0,1-.454-.329,62.631,62.631,0,0,0-5.8-12.909.483.483,0,0,1,.155-.658.474.474,0,0,1,.658.145,64.689,64.689,0,0,1,5.908,13.131.483.483,0,0,1-.309.6.377.377,0,0,1-.155.019Z" transform="translate(-120.322 -209.349)" fill="#fff"></path><path id="Path_15397" data-name="Path 15397" d="M206.589,248.17l4.284,2.717s-5.164,8.7-10.714,12l-2.253-4.284-2.408,5.483-5.376-4.622-2.814-4.728.716-3.3s-4.738-4.583-7.89-14.05-3.423-14.717-3.423-14.717,14.611-8.21,17.908-6.063,7.881,7.736,7.881,7.736l5.154-.861s3.3,9.573-1.286,11.439Z" transform="translate(-118.439 -205.712)" fill="#fff"></path><path id="Path_15398" data-name="Path 15398" d="M194.6,220.093c-2.553-.735-5.27.638-7.233,2.427s-3.5,4.042-5.608,5.666a133.441,133.441,0,0,0,6.662,17.2,10.279,10.279,0,0,0,2.765,4.013c2.166,1.634,5.309,1.363,7.736.058a18.962,18.962,0,0,0,5.908-4.835s-4.023,13.741-6.923,13.538l-5.463-4.023a47.68,47.68,0,0,1-5.869-4.071c-2.04-1.808-6.218-12.571-7.339-15.355l-3.056-11.6,15.694-6.43Z" transform="translate(-118.422 -205.727)" fill="#396caa"></path><path id="Path_15399" data-name="Path 15399" d="M194.6,220.093c-2.553-.735-5.27.638-7.233,2.427s-3.5,4.042-5.608,5.666a133.441,133.441,0,0,0,6.662,17.2,10.279,10.279,0,0,0,2.765,4.013c2.166,1.634,5.309,1.363,7.736.058a18.962,18.962,0,0,0,5.908-4.835s-4.023,13.741-6.923,13.538l-5.463-4.023a47.68,47.68,0,0,1-5.869-4.071c-2.04-1.808-6.218-12.571-7.339-15.355l-3.056-11.6,15.694-6.43Z" transform="translate(-118.422 -205.727)" fill="#fff" opacity="0.5"></path><path id="Path_15400" data-name="Path 15400" d="M205.691,235.883a5.173,5.173,0,0,1-1.528-.242.464.464,0,0,1-.309-.59.474.474,0,0,1,.59-.319,3.365,3.365,0,0,0,2.659-.145,4.767,4.767,0,0,0,2.04-3c.609-2.118.29-5.067-.687-6.324a1.315,1.315,0,0,0-1.083-.59c-1.566.068-2.756,3.636-3.046,4.835a.464.464,0,0,1-.57.358.474.474,0,0,1-.358-.571c.135-.561,1.363-5.512,3.936-5.608a2.2,2.2,0,0,1,1.866.967c1.189,1.508,1.566,4.728.861,7.165a5.628,5.628,0,0,1-2.5,3.568A3.868,3.868,0,0,1,205.691,235.883Z" transform="translate(-119.321 -205.958)" fill="#263238"></path><path id="Path_15401" data-name="Path 15401" d="M191.879,245.547h-.416a.483.483,0,1,1,0-.967c3.665.155,4.767-2.06,4.777-2.079a.478.478,0,0,1,.861.416C197.091,243.033,195.834,245.547,191.879,245.547Z" transform="translate(-118.911 -206.571)" fill="#263238"></path><path id="Path_15402" data-name="Path 15402" d="M189.837,241.607a4.912,4.912,0,0,1-2.64-.764,1.982,1.982,0,0,1-.764-.764,2.35,2.35,0,0,1,0-1.644,12.271,12.271,0,0,0,.454-4.071,4.961,4.961,0,0,0-1.644-3.423.474.474,0,0,1-.077-.667.493.493,0,0,1,.677-.077,5.9,5.9,0,0,1,1.992,4.071,13.471,13.471,0,0,1-.474,4.39,1.692,1.692,0,0,0-.048.967,1.218,1.218,0,0,0,.416.387,4.032,4.032,0,0,0,2.9.541.464.464,0,0,1,.561.367.474.474,0,0,1-.367.561A4.594,4.594,0,0,1,189.837,241.607Z" transform="translate(-118.715 -206.17)" fill="#263238"></path><path id="Path_15403" data-name="Path 15403" d="M195.649,228.334a.493.493,0,0,1-.271-.087,7.349,7.349,0,0,0-5.9-.967.464.464,0,0,1-.58-.338.474.474,0,0,1,.338-.58,8.287,8.287,0,0,1,6.682,1.131.483.483,0,0,1-.271.88Z" transform="translate(-118.841 -206.038)" fill="#263238"></path><path id="Path_15404" data-name="Path 15404" d="M178.433,231.657a.455.455,0,0,1-.242-.068.474.474,0,0,1-.193-.658,4.061,4.061,0,0,1,2.562-1.886,4.013,4.013,0,0,1,3.143.551.475.475,0,1,1-.522.793,3.1,3.1,0,0,0-4.361,1.025A.474.474,0,0,1,178.433,231.657Z" transform="translate(-118.48 -206.131)" fill="#263238"></path><path id="Path_15405" data-name="Path 15405" d="M191.776,232.756c.251.706.783,1.17,1.18,1.025s.532-.832.28-1.537-.774-1.17-1.17-1.035S191.534,232.041,191.776,232.756Z" transform="translate(-118.933 -206.206)" fill="#263238"></path><path id="Path_15406" data-name="Path 15406" d="M183.116,235.186c.251.725.783,1.189,1.189,1.054s.542-.851.29-1.566-.783-1.189-1.2-1.054S182.864,234.47,183.116,235.186Z" transform="translate(-118.647 -206.285)" fill="#263238"></path><path id="Path_15407" data-name="Path 15407" d="M192.6,253.974c-2.572,0-5.879-1.354-9.728-8.7-4.139-7.871-6.769-20.616-6.769-20.751a.483.483,0,0,1,.377-.561.474.474,0,0,1,.561.377c0,.126,2.611,12.745,6.682,20.49s7.291,8.384,9.67,8.132,9.283-4.622,11.168-8.451l1.566-9.2a.474.474,0,0,1,.551-.387.464.464,0,0,1,.387.551l-1.576,9.264a.319.319,0,0,1,0,.126c-1.934,3.974-9.157,8.7-11.961,9.041A8.47,8.47,0,0,1,192.6,253.974Z" transform="translate(-118.419 -205.967)" fill="#263238"></path><path id="Path_15408" data-name="Path 15408" d="M207.316,249.362a.474.474,0,0,1-.474-.435,56.635,56.635,0,0,1,.387-13.431.49.49,0,0,1,.967.155,55.117,55.117,0,0,0-.387,13.189.474.474,0,0,1-.425.522Z" transform="translate(-119.427 -206.334)" fill="#263238"></path><path id="Path_15409" data-name="Path 15409" d="M200.65,264.613,198,259.091l.329-.242c3.607-2.63,8.548-9.805,8.6-9.882l.261-.377,5.009,3.172-.145.367c-3.027,7.929-10.637,12.068-10.936,12.242Zm-1.47-5.231,1.886,3.868c1.615-.967,7.349-4.835,9.921-11.13l-3.568-2.263C206.364,251.385,202.419,256.858,199.18,259.381Z" transform="translate(-119.143 -206.781)" fill="#263238"></path><path id="Path_15410" data-name="Path 15410" d="M196.089,265.966l-.483-.28c-.251-.145-6.227-3.694-8.335-9.109v-.106l.3-4.39.967.068-.29,4.177c1.683,4.206,5.986,7.3,7.417,8.239l1.934-4.932c-.967-.406-3.22-1.654-5.86-5.086l.764-.59c3.23,4.216,5.8,4.932,5.8,4.932l.522.145Z" transform="translate(-118.788 -206.896)" fill="#263238"></path><path id="Path_15411" data-name="Path 15411" d="M202.962,228.393c-.261.861-1.644.745-2.466,1.112,0-2.05,0-3.965-1.373-5.637-.8-.967-3.181-.387-4.293-1.189s-.667-2.069-1.325-2.7c-.967-.89-4.593-.4-5.676,0a18.536,18.536,0,0,0-3.936,2.3c-3.046,1.934-7.939,3.433-11.439,1.934-4.313-1.876-4.11-8.877.5-10.192,2.833-.812,6.3-.319,8.915-1.828,3.21-1.857,15.858-12.116,23.391-3.346a18.372,18.372,0,0,1,3.433,18.372S206.172,218.162,202.962,228.393Z" transform="translate(-118.196 -205.352)" fill="#263238"></path><path id="Path_15412" data-name="Path 15412" d="M172.1,224.06a.483.483,0,0,1,0-.967c3.413-.213,6.372-2.321,9.235-4.361.967-.687,1.934-1.4,2.978-2.04a28.285,28.285,0,0,1,5.8-2.795,15.085,15.085,0,0,1,5.038-.967h0a10.84,10.84,0,0,1,9.757,6.527.474.474,0,0,1-.251.629.493.493,0,0,1-.629-.261,9.873,9.873,0,0,0-8.838-5.957,13.48,13.48,0,0,0-4.748.967,27.588,27.588,0,0,0-5.618,2.708c-.967.619-1.934,1.325-2.9,2-2.978,2.118-6.044,4.313-9.737,4.545Z" transform="translate(-118.271 -205.603)" fill="#fff"></path><path id="Path_15413" data-name="Path 15413" d="M177.062,217.5a6.382,6.382,0,0,1-1.644-.2.483.483,0,0,1-.338-.59.474.474,0,0,1,.58-.338c2.649.706,5.454-.822,7.929-2.176,3.355-1.828,7.272-3.684,11.42-3.868,4.554-.2,8.7,1.837,10.569,5.173a.493.493,0,0,1-.184.658.483.483,0,0,1-.648-.184c-1.692-3.036-5.492-4.835-9.67-4.69-3.955.174-7.736,1.934-10.927,3.713C181.906,216.2,179.508,217.5,177.062,217.5Z" transform="translate(-118.385 -205.516)" fill="#fff"></path></g></g></g></svg>