<svg xmlns="http://www.w3.org/2000/svg" width="107.957" height="44" viewBox="0 0 107.957 44"><g id="Group_1013" data-name="Group 1013" transform="translate(-219.676 -381.13)"><path id="Path_14740" data-name="Path 14740" d="M234.12,391.525H222.412a2.738,2.738,0,0,0-2.736,2.736v3.719a2.738,2.738,0,0,0,2.736,2.736h5.253v16.931a2.735,2.735,0,0,0,2.736,2.733h3.719a2.735,2.735,0,0,0,2.736-2.733V394.261A2.738,2.738,0,0,0,234.12,391.525Z" transform="translate(0 0)" fill="#005aa8" style="mix-blend-mode: multiply;isolation: isolate"></path><text id="harav" transform="translate(247.633 417.13)" font-size="33" font-family="SegoeUI, Segoe UI"><tspan x="0" y="0">harav</tspan></text><path id="Path_14741" data-name="Path 14741" d="M235.931,392.244a2.714,2.714,0,0,0-1.811-.719H222.412a2.738,2.738,0,0,0-2.736,2.736v3.719a2.738,2.738,0,0,0,2.736,2.736h5.253S235.076,401.128,235.931,392.244Z" transform="translate(0 0)" fill="#0e7cc2" style="mix-blend-mode: multiply;isolation: isolate"></path><circle id="Ellipse_2" data-name="Ellipse 2" cx="4.511" cy="4.511" r="4.511" transform="translate(237.63 391.612)" fill="#005aa8" style="mix-blend-mode: multiply;isolation: isolate"></circle></g></svg>