<svg xmlns="http://www.w3.org/2000/svg" width="508.56" height="377.48" viewBox="0 0 508.56 377.48"><g id="Operating_system-rafiki" data-name="Operating system-rafiki" transform="translate(0 -55)"><g id="freepik--background-complete--inject-7"><rect id="Rectangle_466" data-name="Rectangle 466" width="500" height="0.25" transform="translate(0 382.4)" fill="#ebebeb"></rect><rect id="Rectangle_467" data-name="Rectangle 467" width="33.12" height="0.25" transform="translate(416.78 398.49)" fill="#ebebeb"></rect><rect id="Rectangle_468" data-name="Rectangle 468" width="8.69" height="0.25" transform="translate(322.53 401.21)" fill="#ebebeb"></rect><rect id="Rectangle_469" data-name="Rectangle 469" width="19.19" height="0.25" transform="translate(396.59 389.21)" fill="#ebebeb"></rect><rect id="Rectangle_470" data-name="Rectangle 470" width="43.19" height="0.25" transform="translate(52.46 390.89)" fill="#ebebeb"></rect><rect id="Rectangle_471" data-name="Rectangle 471" width="6.33" height="0.25" transform="translate(104.56 390.89)" fill="#ebebeb"></rect><rect id="Rectangle_472" data-name="Rectangle 472" width="93.68" height="0.25" transform="translate(131.47 395.11)" fill="#ebebeb"></rect><path id="Path_15150" data-name="Path 15150" d="M237,337.8H43.91a5.71,5.71,0,0,1-5.7-5.71V60.66A5.71,5.71,0,0,1,43.91,55H237a5.71,5.71,0,0,1,5.71,5.71V332.09A5.71,5.71,0,0,1,237,337.8ZM43.91,55.2a5.46,5.46,0,0,0-5.45,5.46V332.09a5.46,5.46,0,0,0,5.45,5.46H237a5.47,5.47,0,0,0,5.46-5.46V60.66A5.47,5.47,0,0,0,237,55.2Z" fill="#ebebeb"></path><path id="Path_15151" data-name="Path 15151" d="M453.31,337.8H260.21a5.72,5.72,0,0,1-5.71-5.71V60.66A5.72,5.72,0,0,1,260.21,55h193.1A5.71,5.71,0,0,1,459,60.66V332.09A5.71,5.71,0,0,1,453.31,337.8ZM260.21,55.2a5.47,5.47,0,0,0-5.46,5.46V332.09a5.47,5.47,0,0,0,5.46,5.46h193.1a5.47,5.47,0,0,0,5.46-5.46V60.66a5.47,5.47,0,0,0-5.46-5.46Z" fill="#ebebeb"></path><path id="Path_15152" data-name="Path 15152" d="M443.18,78.37V74.08L441,73.87a11.531,11.531,0,0,0-1.65-4l1.42-1.71-3-3L436,66.57a11.53,11.53,0,0,0-4-1.65l-.2-2.21h-4.3l-.21,2.21a11.48,11.48,0,0,0-4,1.65l-1.72-1.42-3,3L420,69.9a11.34,11.34,0,0,0-1.65,4l-2.21.21V78.4l2.21.21a11.341,11.341,0,0,0,1.65,4l-1.42,1.71,3,3,1.72-1.42a11.48,11.48,0,0,0,4,1.65l.21,2.21h4.3l.2-2.21a11.53,11.53,0,0,0,4-1.65l1.72,1.42,3-3-1.42-1.71a11.531,11.531,0,0,0,1.65-4ZM429.67,82a5.82,5.82,0,1,1,5.81-5.82A5.82,5.82,0,0,1,429.67,82Z" fill="#e0e0e0"></path><path id="Path_15153" data-name="Path 15153" d="M460.59,90.49V87.13L458.85,87a9,9,0,0,0-1.29-3.1l1.12-1.35-2.38-2.38L455,81.25a8.93,8.93,0,0,0-3.11-1.3l-.16-1.73h-3.36L448.15,80a9,9,0,0,0-3.11,1.3l-1.34-1.12-2.38,2.38,1.11,1.35a9.14,9.14,0,0,0-1.29,3.1l-1.73.17v3.36l1.73.17a9,9,0,0,0,1.29,3.1l-1.11,1.35,2.38,2.38,1.3-1.17a9,9,0,0,0,3.11,1.3l.17,1.73h3.36l.16-1.73a8.93,8.93,0,0,0,3.11-1.3l1.35,1.12,2.38-2.38-1.12-1.35a9,9,0,0,0,1.29-3.1ZM450,93.37a4.56,4.56,0,1,1,4.55-4.56A4.56,4.56,0,0,1,450,93.37Z" fill="#e0e0e0"></path><path id="Path_15154" data-name="Path 15154" d="M443.18,100.05V97.22l-1.45-.14a7.461,7.461,0,0,0-1.09-2.61l.94-1.13-2-2-1.13.94a7.65,7.65,0,0,0-2.61-1.09l-.14-1.45h-2.82l-.14,1.45a7.65,7.65,0,0,0-2.61,1.09L429,91.34l-2,2,.93,1.13a7.63,7.63,0,0,0-1.08,2.61l-1.46.14v2.83l1.46.13a7.63,7.63,0,0,0,1.08,2.61l-.93,1.13,2,2,1.13-.93a7.44,7.44,0,0,0,2.61,1.08l.14,1.46h2.82l.14-1.46a7.44,7.44,0,0,0,2.61-1.08l1.13.93,2-2-.94-1.13a7.461,7.461,0,0,0,1.09-2.61Zm-8.89,2.41a3.83,3.83,0,1,1,3.82-3.83,3.83,3.83,0,0,1-3.82,3.83Z" fill="#e0e0e0"></path><path id="Path_15155" data-name="Path 15155" d="M50.47,381.47,72.81,232.98V381.47h6V232.05l22.38,149.42h6.42l-28-187.03-.8.12v-6.09h-6v6.06l-.82-.09L43.92,381.47Z" fill="#e0e0e0"></path><path id="Path_15156" data-name="Path 15156" d="M106.56,215.18H44.74l5.01-51.65h51.81Z" fill="#ebebeb"></path><text id="_1011100010101000101010101010101010000000111111001011110101" data-name="1011100010101000101010101010101010000000111111001011110101" transform="translate(64.11 78.4)" fill="#e0e0e0" font-size="12" font-family="Segoe UI"><tspan x="0" y="0">1</tspan><tspan y="0">011</tspan><tspan y="0">100</tspan><tspan y="0">0</tspan><tspan y="0">1</tspan><tspan y="0">0</tspan><tspan y="0">1</tspan><tspan y="0">0</tspan><tspan y="0">100</tspan><tspan y="0">0</tspan><tspan y="0">1</tspan><tspan y="0">0</tspan><tspan y="0">1</tspan><tspan y="0">0</tspan><tspan y="0">1</tspan><tspan y="0">0</tspan><tspan y="0">1</tspan><tspan y="0">0</tspan><tspan y="0">1</tspan><tspan y="0">0</tspan><tspan y="0">1</tspan><tspan y="0">0</tspan><tspan y="0">1</tspan><tspan y="0">0</tspan><tspan y="0">1</tspan><tspan y="0">0</tspan><tspan y="0">1000000</tspan><tspan y="0">011111</tspan><tspan y="0">10</tspan><tspan y="0">0</tspan><tspan y="0">1</tspan><tspan y="0">0111</tspan><tspan y="0">1</tspan><tspan y="0">0</tspan><tspan y="0">1</tspan><tspan y="0">0</tspan><tspan y="0">1</tspan></text><text id="_1011100010101000101010101000111110101010000111010100000" data-name="1011100010101000101010101000111110101010000111010100000" transform="translate(142.56 319.29)" fill="#e0e0e0" font-size="12" font-family="Segoe UI"><tspan x="0" y="0">1</tspan><tspan y="0">011</tspan><tspan y="0">100</tspan><tspan y="0">0</tspan><tspan y="0">1</tspan><tspan y="0">0</tspan><tspan y="0">1</tspan><tspan y="0">0</tspan><tspan y="0">100</tspan><tspan y="0">0</tspan><tspan y="0">1</tspan><tspan y="0">0</tspan><tspan y="0">1</tspan><tspan y="0">0</tspan><tspan y="0">1</tspan><tspan y="0">0</tspan><tspan y="0">1</tspan><tspan y="0">0</tspan><tspan y="0">100</tspan><tspan y="0">01111</tspan><tspan y="0">1</tspan><tspan y="0">0</tspan><tspan y="0">1</tspan><tspan y="0">0</tspan><tspan y="0">1</tspan><tspan y="0">0</tspan><tspan y="0">1000</tspan><tspan y="0">011</tspan><tspan y="0">1</tspan><tspan y="0">0</tspan><tspan y="0">1</tspan><tspan y="0">0</tspan><tspan y="0">10000</tspan><tspan y="0">0</tspan></text><text id="_01010100010101010000000111111001011110101" data-name="01010100010101010000000111111001011110101" transform="translate(85.45 115.43)" fill="#e0e0e0" font-size="12" font-family="Segoe UI"><tspan x="0" y="0">0</tspan><tspan y="0">1</tspan><tspan y="0">0</tspan><tspan y="0">1</tspan><tspan y="0">0</tspan><tspan y="0">100</tspan><tspan y="0">0</tspan><tspan y="0">1</tspan><tspan y="0">0</tspan><tspan y="0">1</tspan><tspan y="0">0</tspan><tspan y="0">1</tspan><tspan y="0">0</tspan><tspan y="0">1000000</tspan><tspan y="0">011111</tspan><tspan y="0">10</tspan><tspan y="0">0</tspan><tspan y="0">1</tspan><tspan y="0">0111</tspan><tspan y="0">1</tspan><tspan y="0">0</tspan><tspan y="0">1</tspan><tspan y="0">0</tspan><tspan y="0">1</tspan></text><text id="_01010100010101010000000111111001011110101-2" data-name="01010100010101010000000111111001011110101" transform="translate(163.24 361.49)" fill="#e0e0e0" font-size="12" font-family="Segoe UI"><tspan x="0" y="0">0</tspan><tspan y="0">1</tspan><tspan y="0">0</tspan><tspan y="0">1</tspan><tspan y="0">0</tspan><tspan y="0">100</tspan><tspan y="0">0</tspan><tspan y="0">1</tspan><tspan y="0">0</tspan><tspan y="0">1</tspan><tspan y="0">0</tspan><tspan y="0">1</tspan><tspan y="0">0</tspan><tspan y="0">1000000</tspan><tspan y="0">011111</tspan><tspan y="0">10</tspan><tspan y="0">0</tspan><tspan y="0">1</tspan><tspan y="0">0111</tspan><tspan y="0">1</tspan><tspan y="0">0</tspan><tspan y="0">1</tspan><tspan y="0">0</tspan><tspan y="0">1</tspan></text><text id="_01010100010101010000000111111001011110101-3" data-name="01010100010101010000000111111001011110101" transform="translate(227.31 339.16)" fill="#e0e0e0" font-size="12" font-family="Segoe UI"><tspan x="0" y="0">0</tspan><tspan y="0">1</tspan><tspan y="0">0</tspan><tspan y="0">1</tspan><tspan y="0">0</tspan><tspan y="0">100</tspan><tspan y="0">0</tspan><tspan y="0">1</tspan><tspan y="0">0</tspan><tspan y="0">1</tspan><tspan y="0">0</tspan><tspan y="0">1</tspan><tspan y="0">0</tspan><tspan y="0">1000000</tspan><tspan y="0">011111</tspan><tspan y="0">10</tspan><tspan y="0">0</tspan><tspan y="0">1</tspan><tspan y="0">0111</tspan><tspan y="0">1</tspan><tspan y="0">0</tspan><tspan y="0">1</tspan><tspan y="0">0</tspan><tspan y="0">1</tspan></text><text id="_010101000101010101010101010000000111111001011110101" data-name="010101000101010101010101010000000111111001011110101" transform="translate(85.45 134)" fill="#e0e0e0" font-size="12" font-family="Segoe UI"><tspan x="0" y="0">0</tspan><tspan y="0">1</tspan><tspan y="0">0</tspan><tspan y="0">1</tspan><tspan y="0">0</tspan><tspan y="0">100</tspan><tspan y="0">0</tspan><tspan y="0">1</tspan><tspan y="0">0</tspan><tspan y="0">1</tspan><tspan y="0">0</tspan><tspan y="0">1</tspan><tspan y="0">0</tspan><tspan y="0">1</tspan><tspan y="0">0</tspan><tspan y="0">1</tspan><tspan y="0">0</tspan><tspan y="0">1</tspan><tspan y="0">0</tspan><tspan y="0">1</tspan><tspan y="0">0</tspan><tspan y="0">1</tspan><tspan y="0">0</tspan><tspan y="0">1000000</tspan><tspan y="0">011111</tspan><tspan y="0">10</tspan><tspan y="0">0</tspan><tspan y="0">1</tspan><tspan y="0">0111</tspan><tspan y="0">1</tspan><tspan y="0">0</tspan><tspan y="0">1</tspan><tspan y="0">0</tspan><tspan y="0">1</tspan></text></g><g id="freepik--Shadow--inject-7"><ellipse id="freepik--path--inject-7" cx="193.89" cy="11.32" rx="193.89" ry="11.32" transform="translate(56.11 404.92)" fill="#f5f5f5"></ellipse></g><g id="freepik--Window--inject-7"><path id="Path_15157" data-name="Path 15157" d="M444,92.61V293.86a9.36,9.36,0,0,1-9,9.14H145.39c-4.81,0-8.39-4.32-8.39-9.14V92.61A8.36,8.36,0,0,1,145.39,84H435A8.91,8.91,0,0,1,444,92.61Z" fill="#396caa"></path><path id="Path_15158" data-name="Path 15158" d="M444,117.69V293.86a9.36,9.36,0,0,1-9,9.14H145.39c-4.81,0-8.39-4.32-8.39-9.14V225.29c25.48-49,86.22-56.94,157.33-28.29C395,237.56,437.93,182.51,444,117.69Z" fill="#fff" opacity="0.1"></path></g><g id="freepik--Bar--inject-7"><path id="Path_15159" data-name="Path 15159" d="M364.92,280H218a5,5,0,0,1-5-5h0a5,5,0,0,1,5-5H364.92a5,5,0,0,1,5,5h0A5,5,0,0,1,364.92,280Z" opacity="0.2"></path><path id="Path_15160" data-name="Path 15160" d="M218,279a4,4,0,0,1,0-8h86.84a4,4,0,0,1,0,8Z" fill="#396caa"></path><path id="Path_15161" data-name="Path 15161" d="M218,279a4,4,0,0,1,0-8h86.84a4,4,0,0,1,0,8Z" fill="#fff" opacity="0.7"></path></g><g id="freepik--Character--inject-7"><g id="freepik--group--inject-7"><path id="Path_15162" data-name="Path 15162" d="M159.93,287.26c9.32,7.49,6.07,43.24,7.82,48.74S177,346,177,346l-10.46,12.25s-8.75-1.52-15.4-15.77S159.93,287.26,159.93,287.26Z" fill="#263238"></path><path id="Path_15163" data-name="Path 15163" d="M159.93,287.26c9.32,7.49,6.07,43.24,7.82,48.74S177,346,177,346l-10.46,12.25s-8.75-1.52-15.4-15.77S159.93,287.26,159.93,287.26Z" opacity="0.2"></path><path id="Path_15164" data-name="Path 15164" d="M150,365.75s67-18.69,75.38,4.82S173,412.81,139.37,414,92,391.51,101.92,369.08Z" fill="#396caa"></path><path id="Path_15165" data-name="Path 15165" d="M150,365.75s67-18.69,75.38,4.82S173,412.81,139.37,414,92,391.51,101.92,369.08Z" opacity="0.2"></path><path id="Path_15166" data-name="Path 15166" d="M215.67,403.8a.23.23,0,0,1-.25,0,.17.17,0,0,1-.06-.21c.11-.37,1.23-3.61,2.35-3.95a.74.74,0,0,1,.68.2,1.15,1.15,0,0,1,.39,1.09,3,3,0,0,1-1.05,1.52,12.944,12.944,0,0,1-2.06,1.35Zm.29-.63a4.76,4.76,0,0,0,2.39-2.31.73.73,0,0,0-.28-.74.22.22,0,0,0-.26-.07.61.61,0,0,0-.26.15,9.17,9.17,0,0,0-1.55,2.97Z" fill="#396caa"></path><path id="Path_15167" data-name="Path 15167" d="M215.61,403.84a.2.2,0,0,1-.21-.06c-.11-.09-1.66-2.06-1.4-3.38a1.25,1.25,0,0,1,.53-.81.72.72,0,0,1,.9-.08c.81.57.71,3.19.31,4.19v.1Zm-.89-3.85a.82.82,0,0,0-.26.47c-.17.84.61,2.1,1,2.7.25-1.12.17-3-.31-3.29a.347.347,0,0,0-.39.06l-.08.06Z" fill="#396caa"></path><path id="Path_15168" data-name="Path 15168" d="M147.4,415.69a.24.24,0,0,1,.18-.17.18.18,0,0,1,.19.11c.2.34,1.73,3.4,1.18,4.44a.68.68,0,0,1-.61.34,1.12,1.12,0,0,1-1.05-.47,3,3,0,0,1-.35-1.82,12.7,12.7,0,0,1,.46-2.43Zm.24.64a4.83,4.83,0,0,0,0,3.33.74.74,0,0,0,.73.32.25.25,0,0,0,.24-.14,1,1,0,0,0,.07-.29,9.47,9.47,0,0,0-1.04-3.22Z" fill="#396caa"></path><path id="Path_15169" data-name="Path 15169" d="M163.63,393.07l-11.85,8.69-5.69,4.17,3.71,6.49,5.78-3.16,14.11-7.72Z" fill="#ebb376"></path><path id="Path_15170" data-name="Path 15170" d="M151.64,412.22l-3.58-7.89a.85.85,0,0,0-1.15-.41l-3.86,1.89s-5.37,2.17-6,3.91c-2,5.1,5.49,22.75,7.82,22.76.85,0,1.36-1.32,1.48-2.16.37-2.68.44-9.4.78-11.63.4-2.6,3-4.6,4.25-5.4A.86.86,0,0,0,151.64,412.22Z" fill="#263238"></path><path id="Path_15171" data-name="Path 15171" d="M147.41,415.62a.21.21,0,0,1,.19-.11c.14,0,2.63.25,3.4,1.36a1.28,1.28,0,0,1,.2.95.72.72,0,0,1-.57.7c-1,.18-2.78-1.72-3.21-2.7v-.09a.21.21,0,0,1-.01-.11Zm3.37,2.06a.8.8,0,0,0-.15-.52c-.48-.7-1.93-1-2.65-1.15.62,1,2,2.2,2.56,2.09.06,0,.18,0,.23-.32v-.1Z" fill="#396caa"></path><path id="Path_15172" data-name="Path 15172" d="M163.63,393.07l-11.85,8.69,3.8,7.5,14.11-7.72Z" opacity="0.2"></path><path id="Path_15173" data-name="Path 15173" d="M158.28,409.75l3.9-.87-6.47-12.36-3.62,3.69Z" fill="#396caa"></path><path id="Path_15174" data-name="Path 15174" d="M158.28,409.75l3.9-.87-6.47-12.36-3.62,3.69Z" fill="#fff" opacity="0.6"></path><path id="Path_15175" data-name="Path 15175" d="M188.15,408.03l14.5,2.39,6.97,1.15,2.03-7.2-6.3-1.91-15.38-4.68Z" fill="#ebb376"></path><path id="Path_15176" data-name="Path 15176" d="M210.23,403.2l-3.14,8.07a.87.87,0,0,0,.51,1.12l4.05,1.43s5.31,2.32,7,1.58c5-2.16,12.42-19.84,10.79-21.51-.6-.61-1.89-.05-2.58.46-2.17,1.6-7,6.26-8.85,7.57-2.14,1.54-5.41,1.06-6.83.75a.84.84,0,0,0-.95.53Z" fill="#263238"></path><path id="Path_15177" data-name="Path 15177" d="M188.15,408.03l14.5,2.39,2.7-7.96-15.38-4.68Z" opacity="0.2"></path><path id="Path_15178" data-name="Path 15178" d="M202.85,401s-60.28-35.56-80.68-34.61S100,387.6,108.41,398.85s24,14,24,14-10.58-15-9.05-19.16,7.36,9.94,7.36,9.94,37.35,4.89,69.89,7.65Z" fill="#396caa"></path><path id="Path_15179" data-name="Path 15179" d="M203.81,400.04l-3.35-2.25L196.16,411h5.16Z" fill="#396caa"></path><path id="Path_15180" data-name="Path 15180" d="M203.81,400.04l-3.35-2.25L196.16,411h5.16Z" fill="#fff" opacity="0.6"></path><path id="Path_15181" data-name="Path 15181" d="M157.89,372c-10.91-21-7.44-52.95,2-84.74-6.6-5.51-32.93-9.23-53-3.39,0,0-12.74,47.21-11.24,98.78Z" fill="#263238"></path><path id="Path_15182" data-name="Path 15182" d="M134.73,292.42c-8.77,0-14.48-9.2-14.48-9.2,11.5-4,11.54-16.17,11.54-16.17l4.43,4.33,6.31,6.18c-5.25,3.72-2.77,6.94-1.1,8.37a7.68,7.68,0,0,0,1.1.82S143.5,292.42,134.73,292.42Z" fill="#ebb376"></path><path id="Path_15183" data-name="Path 15183" d="M141.43,285.93c-10.76,1.21-10-14.9-10-14.9a27.388,27.388,0,0,1,4.82.35l6.31,6.18C137.28,281.28,139.76,284.5,141.43,285.93Z" opacity="0.2"></path><path id="Path_15184" data-name="Path 15184" d="M149.83,255c-4.07,1.68-3.29,6.13,3.47,14.24,4.16-3.59,6.42-11.75,4.23-14.37S153.39,253.51,149.83,255Z" fill="#263238"></path><path id="Path_15185" data-name="Path 15185" d="M155.85,273h0a28.429,28.429,0,0,1-1.3,3.18c-4,8.19-15.58,9.78-20.7,1.68l-.06-.08c-3.38-5.45-2.11-10.54-.7-19.36a12.2,12.2,0,0,1,19-8.18C158.83,254.93,158.43,265.47,155.85,273Z" fill="#ebb376"></path><path id="Path_15186" data-name="Path 15186" d="M145.54,263.75c-.16.71.09,1.37.55,1.47s1-.38,1.12-1.09-.09-1.36-.54-1.47S145.74,263.06,145.54,263.75Z" fill="#263238"></path><path id="Path_15187" data-name="Path 15187" d="M153.58,265.57c-.16.7.09,1.36.56,1.46s1-.37,1.13-1.09-.1-1.37-.56-1.47S153.74,264.86,153.58,265.57Z" fill="#263238"></path><path id="Path_15188" data-name="Path 15188" d="M150.88,265.31a25.88,25.88,0,0,0,2,6.82c-1.54.88-3.53-.13-3.53-.13Z" fill="#d58745"></path><path id="Path_15189" data-name="Path 15189" d="M143.91,260.72a.37.37,0,0,1-.25-.12.42.42,0,0,1,0-.6,4.21,4.21,0,0,1,3.77-1,.41.41,0,0,1,.29.5h0a.45.45,0,0,1-.53.29h0a3.35,3.35,0,0,0-3,.79A.44.44,0,0,1,143.91,260.72Z" fill="#263238"></path><path id="Path_15190" data-name="Path 15190" d="M157.85,263.68a.45.45,0,0,1-.32-.33,3.39,3.39,0,0,0-1.92-2.4.44.44,0,0,1-.26-.55.43.43,0,0,1,.54-.26,4.23,4.23,0,0,1,2.46,3,.42.42,0,0,1-.31.51h-.19Z" fill="#263238"></path><path id="Path_15191" data-name="Path 15191" d="M138.28,251.52c3.75,2.31,2.27,6.58-5.69,13.5-3.55-4.2-4.48-12.63-1.89-14.85S135,249.51,138.28,251.52Z" fill="#263238"></path><path id="Path_15192" data-name="Path 15192" d="M127.38,264.48a8.46,8.46,0,0,0,2.83,5.84c2.24,2,4.63.26,5.08-2.52.41-2.51-.28-6.55-3-7.43S127.23,261.73,127.38,264.48Z" fill="#ebb376"></path><path id="Path_15193" data-name="Path 15193" d="M142.53,272.09s.92,3.18,5.18,3.92" fill="none" stroke="#263238" stroke-linecap="round" stroke-linejoin="round" stroke-width="0.557"></path><path id="Path_15194" data-name="Path 15194" d="M150.19,265.37a3,3,0,1,1-3-3A3,3,0,0,1,150.19,265.37Z" fill="none" stroke="#263238" stroke-linecap="round" stroke-linejoin="round" stroke-width="0.557"></path><path id="Path_15195" data-name="Path 15195" d="M158.36,267.05a3,3,0,1,1-3-3A3,3,0,0,1,158.36,267.05Z" fill="none" stroke="#263238" stroke-linecap="round" stroke-linejoin="round" stroke-width="0.557"></path><path id="Path_15196" data-name="Path 15196" d="M150.19,266.19a1.6,1.6,0,0,1,2.11.56" fill="none" stroke="#263238" stroke-linecap="round" stroke-linejoin="round" stroke-width="0.557"></path><path id="Path_15197" data-name="Path 15197" d="M144.19,264.75s-8.69-3.66-10.31-4" fill="none" stroke="#263238" stroke-linecap="round" stroke-linejoin="round" stroke-width="0.557"></path><path id="Path_15198" data-name="Path 15198" d="M130.61,250.29s-.9-7.06,6.31-8.23,16.64.64,19.56-.61a4.59,4.59,0,0,1-2.07,3.06s5.5,2,9.83.28c0,0-1.88,5.21-4.31,7.21H162s-4.1,3.92-9.09,4-9.69-6.79-14.63-4.48S130.61,250.29,130.61,250.29Z" fill="#263238"></path><path id="Path_15199" data-name="Path 15199" d="M155.85,273h0a28.429,28.429,0,0,1-1.3,3.18c-4,8.19-15.58,9.78-20.7,1.68l-.06-.08c-2.64-4.69-.53-9.81-.53-9.81l1.54-5,1.12-1.11s.26,5.07,1.05,6.5,5.29,1.85,6.21,2.1,3.1,2.85,4.18,3.55,5,.12,5.51.7S155.85,273,155.85,273Z" opacity="0.4"></path><path id="Path_15200" data-name="Path 15200" d="M110.89,353.5l20.74,23s22.92-.51,50.76,13.1c0,0,29.87-12.34,32.62-22.59s-62.71-3-62.71-3Z" opacity="0.2"></path><path id="Path_15201" data-name="Path 15201" d="M116.75,346.75,150,357.63S161.88,355,164,355s10.33,6.67,5.69,9-17.31,2.63-18.69,1.88-38.25-9.38-38.25-9.38Z" fill="#ebb376"></path><path id="Path_15202" data-name="Path 15202" d="M106.89,283.87c7.52-1.46-5.53,44.38-2.33,51.13s15.69,11,15.69,11l-5.75,12.69s-17-3.21-26.25-15S94.61,286.25,106.89,283.87Z" fill="#263238"></path><path id="Path_15203" data-name="Path 15203" d="M106.89,283.87c7.52-1.46-5.53,44.38-2.33,51.13s15.69,11,15.69,11l-5.75,12.69s-17-3.21-26.25-15S94.61,286.25,106.89,283.87Z" opacity="0.2"></path><path id="Path_15204" data-name="Path 15204" d="M120.25,345l-7,13.71,6,1.29,5.5-12.62Z" fill="#263238"></path><path id="Path_15205" data-name="Path 15205" d="M120.25,345l-7,13.71,6,1.29,5.5-12.62Z" fill="#fff" opacity="0.2"></path><path id="Path_15206" data-name="Path 15206" d="M134,364v2.18a2.83,2.83,0,0,0,2.7,2.82h80.39a3,3,0,0,0,2.91-2.82V364Z" fill="#263238"></path><path id="Path_15207" data-name="Path 15207" d="M134,364v2.18a2.83,2.83,0,0,0,2.7,2.82h80.39a3,3,0,0,0,2.91-2.82V364Z" fill="#fff" opacity="0.2"></path><path id="Path_15208" data-name="Path 15208" d="M164,364v2.18a2.84,2.84,0,0,0,2.71,2.82h50.38a3,3,0,0,0,2.91-2.82V364Z" fill="#fff" opacity="0.2"></path><path id="Path_15209" data-name="Path 15209" d="M166.71,367h53.11a4.33,4.33,0,0,0,3.86-2.85l12.18-38.21a2.11,2.11,0,0,0-2-2.94H180.71a4.44,4.44,0,0,0-3.86,2.94L164.67,364.1a2.08,2.08,0,0,0,2.04,2.9Z" fill="#263238"></path><path id="Path_15210" data-name="Path 15210" d="M166.71,367h53.11a4.33,4.33,0,0,0,3.86-2.85l12.18-38.21a2.11,2.11,0,0,0-2-2.94H180.71a4.44,4.44,0,0,0-3.86,2.94L164.67,364.1a2.08,2.08,0,0,0,2.04,2.9Z" fill="#fff" opacity="0.2"></path><path id="Path_15211" data-name="Path 15211" d="M168.71,367h51.11a4.33,4.33,0,0,0,3.86-2.85l12.18-38.21a2.11,2.11,0,0,0-2-2.94H182.71a4.44,4.44,0,0,0-3.86,2.94L166.67,364.1a2.08,2.08,0,0,0,2.04,2.9Z" fill="#fff" opacity="0.2"></path><path id="Path_15212" data-name="Path 15212" d="M205.32,340.81l-7.35,5.21,3.18,5.2,7.35-5.2Z" fill="#fff" opacity="0.2"></path></g></g><g id="freepik--Tabs--inject-7"><rect id="Rectangle_473" data-name="Rectangle 473" width="84.73" height="84.73" rx="8.74" transform="translate(166.12 93.7)" opacity="0.2"></rect><rect id="Rectangle_474" data-name="Rectangle 474" width="71" height="71" rx="7.33" transform="translate(189.88 84.4)" fill="#396caa"></rect><rect id="Rectangle_475" data-name="Rectangle 475" width="71" height="71" rx="7.33" transform="translate(189.88 84.4)" fill="#fff" opacity="0.3"></rect><path id="Path_15213" data-name="Path 15213" d="M230.85,111.7v-4.29l-2.21-.21a11.4,11.4,0,0,0-1.65-4l1.42-1.72-3-3L223.7,99.9a11.53,11.53,0,0,0-4-1.65L219.48,96h-4.29L215,98.25a11.53,11.53,0,0,0-4,1.65l-1.71-1.42-3,3,1.42,1.72a11.4,11.4,0,0,0-1.65,4l-2.21.21v4.29l2.21.21a11.53,11.53,0,0,0,1.65,4l-1.42,1.72,3,3,1.71-1.42a11.53,11.53,0,0,0,4,1.65l.21,2.21h4.29l.21-2.21a11.53,11.53,0,0,0,4-1.65l1.71,1.42,3-3L227,115.88a11.531,11.531,0,0,0,1.65-4Zm-13.51,3.67a5.82,5.82,0,1,1,5.81-5.81,5.82,5.82,0,0,1-5.81,5.81Z" fill="#fff"></path><path id="Path_15214" data-name="Path 15214" d="M248.25,123.83v-3.37l-1.73-.16a8.92,8.92,0,0,0-1.29-3.11l1.11-1.34L244,113.47l-1.34,1.11a8.92,8.92,0,0,0-3.11-1.29l-.16-1.74H236l-.16,1.74a8.92,8.92,0,0,0-3.11,1.29l-1.34-1.11L229,115.85l1.11,1.34a8.92,8.92,0,0,0-1.29,3.11l-1.73.16v3.37l1.73.16a8.92,8.92,0,0,0,1.29,3.11L229,128.44l2.38,2.38,1.34-1.11a8.92,8.92,0,0,0,3.11,1.29l.16,1.73h3.37l.16-1.73a8.92,8.92,0,0,0,3.11-1.29l1.34,1.11,2.38-2.38-1.11-1.34a8.92,8.92,0,0,0,1.29-3.11Zm-10.59,2.87a4.56,4.56,0,1,1,4.56-4.56,4.56,4.56,0,0,1-4.56,4.56Z" fill="#fff"></path><path id="Path_15215" data-name="Path 15215" d="M230.85,133.38v-2.83l-1.46-.13a7.44,7.44,0,0,0-1.08-2.61l.93-1.13-2-2-1.13.93a7.6,7.6,0,0,0-2.61-1.08l-.14-1.46h-2.83l-.14,1.46a7.6,7.6,0,0,0-2.61,1.08l-1.13-.93-2,2,.93,1.13a7.44,7.44,0,0,0-1.08,2.61l-1.46.13v2.83l1.46.14a7.6,7.6,0,0,0,1.08,2.61l-.93,1.13,2,2,1.13-.93a7.82,7.82,0,0,0,2.61,1.09l.14,1.45h2.83l.14-1.45a7.82,7.82,0,0,0,2.61-1.09l1.13.93,2-2-.93-1.13a7.6,7.6,0,0,0,1.08-2.61ZM222,135.79a3.83,3.83,0,1,1,3.82-3.82,3.83,3.83,0,0,1-3.82,3.82Z" fill="#fff"></path><rect id="Rectangle_476" data-name="Rectangle 476" width="71" height="71" rx="7.33" transform="translate(192.88 84.4)" fill="#fff" opacity="0.2"></rect><rect id="Rectangle_477" data-name="Rectangle 477" width="78.33" height="78.33" rx="8.08" transform="translate(294 175.94)" opacity="0.2"></rect><rect id="Rectangle_478" data-name="Rectangle 478" width="65.63" height="65.63" rx="6.77" transform="translate(313.68 171.75)" fill="#396caa"></rect><rect id="Rectangle_479" data-name="Rectangle 479" width="65.63" height="65.63" rx="6.77" transform="translate(313.68 171.75)" fill="#fff" opacity="0.2"></rect><path id="Path_15216" data-name="Path 15216" d="M349,215.11a2.37,2.37,0,1,1-2.36-2.37,2.37,2.37,0,0,1,2.36,2.37Z" fill="#fff"></path><path id="Path_15217" data-name="Path 15217" d="M346.43,191.47A23.52,23.52,0,0,0,322.9,215h18.79a4.43,4.43,0,0,1,4.74-4.64,5.111,5.111,0,0,1,1.41.27l8.81-10.23-6.22,12.1a4.46,4.46,0,0,1,.73,2.5H370a23.53,23.53,0,0,0-23.57-23.53Z" fill="#fff"></path><rect id="Rectangle_480" data-name="Rectangle 480" width="65.63" height="65.63" rx="6.77" transform="translate(316.45 171.75)" fill="#fff" opacity="0.2"></rect><rect id="Rectangle_481" data-name="Rectangle 481" width="68.73" height="68.73" rx="7.09" transform="translate(321.7 113.34)" opacity="0.2"></rect><rect id="Rectangle_482" data-name="Rectangle 482" width="57.59" height="57.59" rx="5.94" transform="translate(340.13 107.28)" fill="#396caa"></rect><rect id="Rectangle_483" data-name="Rectangle 483" width="57.59" height="57.59" rx="5.94" transform="translate(340.13 107.28)" fill="#fff" opacity="0.1"></rect><path id="Path_15218" data-name="Path 15218" d="M385,121.89a1.89,1.89,0,0,0-1.89-1.89H354.89a1.89,1.89,0,0,0-1.89,1.89v6.22a1.89,1.89,0,0,0,1.89,1.89h28.22a1.89,1.89,0,0,0,1.89-1.89Zm-9.32,3.37h-1.62v-1.62h1.62Zm4.33.81a1.629,1.629,0,1,0-.01,0Z" fill="#fff"></path><path id="Path_15219" data-name="Path 15219" d="M385,132.89a1.89,1.89,0,0,0-1.89-1.89H354.89a1.89,1.89,0,0,0-1.89,1.89v6.22a1.89,1.89,0,0,0,1.89,1.89h28.22a1.89,1.89,0,0,0,1.89-1.89Zm-9.32,4h-1.62v-1.62h1.62Zm4.33.81a.672.672,0,1,0-.01-.01Z" fill="#fff"></path><path id="Path_15220" data-name="Path 15220" d="M385,143.89a1.89,1.89,0,0,0-1.89-1.89H354.89a1.89,1.89,0,0,0-1.89,1.89v6.22a1.89,1.89,0,0,0,1.89,1.89h28.22a1.89,1.89,0,0,0,1.89-1.89Zm-9.32,4.62h-1.62v-1.62h1.62Zm4.33.81a1.632,1.632,0,1,0-.01,0Z" fill="#fff"></path><rect id="Rectangle_484" data-name="Rectangle 484" width="57.59" height="57.59" rx="5.94" transform="translate(342.57 107.28)" fill="#fff" opacity="0.2"></rect><rect id="Rectangle_485" data-name="Rectangle 485" width="84.73" height="84.73" rx="8.74" transform="translate(209.61 166.56)" opacity="0.2"></rect><rect id="Rectangle_486" data-name="Rectangle 486" width="71" height="71" rx="7.33" transform="translate(229.49 160.57)" fill="#396caa"></rect><rect id="Rectangle_487" data-name="Rectangle 487" width="71" height="71" rx="7.33" transform="translate(229.49 160.57)" fill="#fff" opacity="0.5"></rect><path id="Path_15221" data-name="Path 15221" d="M245.35,215.56h0a5.55,5.55,0,0,1,0-7.85l13-12.94a3.11,3.11,0,0,1,4.42,0l3.42,3.41a3.12,3.12,0,0,1,0,4.43l-12.95,12.95a5.53,5.53,0,0,1-7.89,0Z" fill="#fff"></path><path id="Path_15222" data-name="Path 15222" d="M269.21,194.25l-2.55-2.55,14.63-14.63,3.19-.64-.64,3.19Z" fill="#fff"></path><path id="Path_15223" data-name="Path 15223" d="M267.77,197.64l-4.5-4.51a1,1,0,0,1,0-1.45h0a1,1,0,0,1,1.46,0l4.5,4.5a1,1,0,0,1,0,1.46h0a1,1,0,0,1-1.46,0Z" fill="#fff"></path><path id="Path_15224" data-name="Path 15224" d="M261.71,189l-6.17-6.19c1.15-3.09-1.18-6.89-3.71-7.89l-.05,4.76a2,2,0,0,1-4,0V175a6.58,6.58,0,0,0-4.1,5.76,6.11,6.11,0,0,0,5.34,6,5.27,5.27,0,0,0,3-.42l6.22,6.24Z" fill="#fff"></path><path id="Path_15225" data-name="Path 15225" d="M282.25,212.48v4.73a6.58,6.58,0,0,0,4.1-5.76,6.12,6.12,0,0,0-5.2-6.09,4.81,4.81,0,0,0-2.85.28l-6.46-6.48-3.54,3.54,6.42,6.43c-1.86,3.8,1,7,3.57,8v-4.7a1.98,1.98,0,1,1,3.96.05Z" fill="#fff"></path><rect id="Rectangle_488" data-name="Rectangle 488" width="71" height="71" rx="7.33" transform="translate(232.49 160.57)" fill="#fff" opacity="0.2"></rect><rect id="Rectangle_489" data-name="Rectangle 489" width="85.58" height="85.58" rx="8.83" transform="translate(355 147.72) rotate(180)" fill="#396caa"></rect><rect id="Rectangle_490" data-name="Rectangle 490" width="102.14" height="102.14" rx="10.54" transform="translate(249.67 75.73)" opacity="0.2"></rect><rect id="Rectangle_491" data-name="Rectangle 491" width="85.58" height="85.58" rx="8.83" transform="translate(355 147.72) rotate(180)" fill="#fff" opacity="0.5"></rect><path id="Path_15226" data-name="Path 15226" d="M312.18,78.41,286,88.69s3.31,36,26.21,42.75c22.91-6.75,26.22-42.75,26.22-42.75Zm-.66,34.86a1.85,1.85,0,0,1-1.45.73h0a1.82,1.82,0,0,1-1.45-.76l-9.19-12.67a1.811,1.811,0,1,1,2.93-2.13l7.76,10.68L322.8,92.38a1.81,1.81,0,0,1,2.53-.35,2,2,0,0,1,.35,2.65Z" fill="#fff"></path><rect id="Rectangle_492" data-name="Rectangle 492" width="85.58" height="85.58" rx="8.83" transform="translate(358.61 147.72) rotate(180)" fill="#fff" opacity="0.2"></rect></g><g id="freepik--Promt-2--inject-7"><rect id="Rectangle_493" data-name="Rectangle 493" width="85.25" height="57.53" transform="translate(347.81 284.93)" fill="#396caa"></rect><rect id="Rectangle_494" data-name="Rectangle 494" width="85.25" height="57.53" transform="translate(347.81 284.93)" fill="#fff" opacity="0.7"></rect><rect id="Rectangle_495" data-name="Rectangle 495" width="81.87" height="51.18" transform="translate(349.39 289.36)" fill="#263238"></rect><rect id="Rectangle_496" data-name="Rectangle 496" width="67.31" height="1.5" transform="translate(353.14 297.29)" fill="#e0e0e0"></rect><rect id="Rectangle_497" data-name="Rectangle 497" width="57.3" height="1.5" transform="translate(353.14 301.54)" fill="#e0e0e0"></rect><rect id="Rectangle_498" data-name="Rectangle 498" width="67.31" height="1.5" transform="translate(353.14 305.79)" fill="#e0e0e0"></rect><rect id="Rectangle_499" data-name="Rectangle 499" width="57.3" height="1.5" transform="translate(353.14 310.04)" fill="#e0e0e0"></rect><rect id="Rectangle_500" data-name="Rectangle 500" width="7.27" height="1.5" transform="translate(353.14 314.29)" fill="#e0e0e0"></rect><rect id="Rectangle_501" data-name="Rectangle 501" width="37.29" height="1.5" transform="translate(353.14 318.54)" fill="#e0e0e0"></rect><rect id="Rectangle_502" data-name="Rectangle 502" width="57.3" height="1.5" transform="translate(353.14 322.79)" fill="#e0e0e0"></rect><rect id="Rectangle_503" data-name="Rectangle 503" width="7.27" height="1.5" transform="translate(353.14 327.04)" fill="#e0e0e0"></rect><rect id="Rectangle_504" data-name="Rectangle 504" width="7.27" height="1.5" transform="translate(353.14 331.29)" fill="#e0e0e0"></rect></g><g id="freepik--Promt-1--inject-7"><rect id="Rectangle_505" data-name="Rectangle 505" width="85.25" height="57.53" transform="translate(101.98 165.24)" fill="#396caa"></rect><rect id="Rectangle_506" data-name="Rectangle 506" width="85.25" height="57.53" transform="translate(101.98 165.24)" fill="#fff" opacity="0.7"></rect><rect id="Rectangle_507" data-name="Rectangle 507" width="81.87" height="51.18" transform="translate(103.57 169.67)" fill="#263238"></rect><rect id="Rectangle_508" data-name="Rectangle 508" width="67.31" height="1.5" transform="translate(107.32 177.6)" fill="#e0e0e0"></rect><rect id="Rectangle_509" data-name="Rectangle 509" width="57.3" height="1.5" transform="translate(107.32 181.85)" fill="#e0e0e0"></rect><rect id="Rectangle_510" data-name="Rectangle 510" width="67.31" height="1.5" transform="translate(107.32 186.1)" fill="#e0e0e0"></rect><rect id="Rectangle_511" data-name="Rectangle 511" width="57.3" height="1.5" transform="translate(107.32 190.35)" fill="#e0e0e0"></rect><rect id="Rectangle_512" data-name="Rectangle 512" width="7.27" height="1.5" transform="translate(107.32 194.6)" fill="#e0e0e0"></rect><rect id="Rectangle_513" data-name="Rectangle 513" width="37.29" height="1.5" transform="translate(107.32 198.85)" fill="#e0e0e0"></rect><rect id="Rectangle_514" data-name="Rectangle 514" width="57.3" height="1.5" transform="translate(107.32 203.1)" fill="#e0e0e0"></rect><rect id="Rectangle_515" data-name="Rectangle 515" width="7.27" height="1.5" transform="translate(107.32 207.35)" fill="#e0e0e0"></rect><rect id="Rectangle_516" data-name="Rectangle 516" width="7.27" height="1.5" transform="translate(107.32 211.6)" fill="#e0e0e0"></rect></g></g></svg>