<svg xmlns="http://www.w3.org/2000/svg" width="111.378" height="33.635" viewBox="0 0 111.378 33.635"><g id="QA-express-2-Final-logo" transform="translate(-132.6 -1086.9)"><path id="Path_1545" data-name="Path 1545" d="M2056.925,1118.463h-27.764a3.261,3.261,0,0,1-3.261-3.261v-25.04a3.261,3.261,0,0,1,3.261-3.261h16.29a14.741,14.741,0,0,1,14.739,14.739V1115.2A3.264,3.264,0,0,1,2056.925,1118.463Z" transform="translate(-1816.213)" fill="#626db2"></path><path id="Path_1546" data-name="Path 1546" d="M2005.626,1169.459h-27.764a3.261,3.261,0,0,1-3.261-3.261v-25.036a3.261,3.261,0,0,1,3.261-3.261h16.291a14.741,14.741,0,0,1,14.739,14.739V1166.2A3.263,3.263,0,0,1,2005.626,1169.459Z" transform="translate(-1767.002 -48.923)" fill="#e36c5c"></path><path id="Path_1547" data-name="Path 1547" d="M138.093,1250.832l-4.971-8.428h3.534l2.488,4.475c.261.5.68,1.283,1.075,2.093.391-.786.839-1.6,1.1-2.068l2.512-4.5h3.506l-5,8.453,5.5,9.263h-3.559l-2.932-5.236c-.261-.472-.733-1.335-1.124-2.146l-1.1,2.146-2.932,5.236H132.6Z" transform="translate(0 -149.169)" fill="#231f20"></path><path id="Path_1548" data-name="Path 1548" d="M507.83,1372.272c0-3.99-1.23-5.342-1.23-5.342l2.26-.9a5.237,5.237,0,0,1,1.254,2.935,3.69,3.69,0,0,1,3.937-3.062c3.135,0,4.593,2.459,4.593,6.221,0,3.815-2.41,6.624-6,6.624a17.164,17.164,0,0,1-1.958-.151v5.041l-2.858.5v-11.865Zm2.862,4.19a7,7,0,0,0,1.633.277c2.533,0,3.261-1.832,3.261-4.365,0-2.333-.175-4.466-2.007-4.466-1.657,0-2.887,2.484-2.887,4.943Z" transform="translate(-358.772 -267.64)" fill="#231f20"></path><path id="Path_1549" data-name="Path 1549" d="M848.728,1366.681l-.8,2.785a2.323,2.323,0,0,0-1.23-.277,2.841,2.841,0,0,0-2.508,3.009v6.873H841.33v-6.323c0-3.99-1.23-5.342-1.23-5.342l2.26-.9a5.183,5.183,0,0,1,1.205,2.634,3.641,3.641,0,0,1,3.612-2.736A5.191,5.191,0,0,1,848.728,1366.681Z" transform="translate(-678.693 -268.12)" fill="#231f20"></path><path id="Path_1550" data-name="Path 1550" d="M1084.22,1366.963c0,2.41-2.781,4.466-7.186,4.515.175,1.555.8,2.834,2.781,2.834a11.852,11.852,0,0,0,3.559-.879l.749,1.779a11.262,11.262,0,0,1-4.711,1.156c-3.856,0-5.411-2.459-5.411-6.12,0-4.467,2.63-6.848,6.038-6.848C1083.019,1363.4,1084.22,1364.955,1084.22,1366.963Zm-2.854,0a1.488,1.488,0,0,0-1.555-1.6c-2.2,0-2.805,2.26-2.854,4.316C1080.14,1369.548,1081.366,1368.143,1081.366,1366.963Z" transform="translate(-903.07 -265.242)" fill="#231f20"></path><path id="Path_1551" data-name="Path 1551" d="M1367.131,1372.612c0,1.881-1.6,3.738-4.365,3.738a11.373,11.373,0,0,1-4.466-1.205l.928-2.109a8.51,8.51,0,0,0,3.286,1.205c1.181,0,1.73-.5,1.73-1.279,0-.879-.627-1.633-1.857-2.085-2.561-.953-3.611-2.109-3.611-4.063,0-1.906,1.808-3.514,4.239-3.514a9.769,9.769,0,0,1,3.888.977l-.855,1.958a8.222,8.222,0,0,0-2.96-.827c-.753,0-1.4.375-1.4,1.1,0,.953.651,1.682,2.081,2.231C1365.877,1369.554,1367.131,1370.482,1367.131,1372.612Z" transform="translate(-1175.795 -265.146)" fill="#231f20"></path><path id="Path_1552" data-name="Path 1552" d="M1621.031,1372.612c0,1.881-1.6,3.738-4.365,3.738a11.375,11.375,0,0,1-4.467-1.205l.928-2.109a8.51,8.51,0,0,0,3.286,1.205c1.181,0,1.73-.5,1.73-1.279,0-.879-.627-1.633-1.857-2.085-2.557-.953-3.611-2.109-3.611-4.063,0-1.906,1.808-3.514,4.239-3.514a9.769,9.769,0,0,1,3.888.977l-.851,1.958a8.222,8.222,0,0,0-2.96-.827c-.753,0-1.4.375-1.4,1.1,0,.953.651,1.682,2.085,2.231C1619.777,1369.554,1621.031,1370.482,1621.031,1372.612Z" transform="translate(-1419.357 -265.146)" fill="#231f20"></path><g id="Group_9773" data-name="Group 9773" transform="translate(210.669 1094.367)"><path id="Path_1553" data-name="Path 1553" d="M2059.629,1291.077a9,9,0,0,1-6.258-3.208l.509-1.523a5.771,5.771,0,0,0,1.063.114c3.07,0,5.566-2.887,5.566-7.989,0-3.119-.692-6.05-3.88-6.05-2.679,0-3.742,2.7-3.742,5.774,0,2.818.529,4.434,2.541,4.894l-.3,1.963c-3.717-.232-5.126-3.648-5.126-6.649,0-4.666,2.264-8.1,6.95-8.1,4.617,0,6.51,3.05,6.51,7.919,0,5.725-3.025,9.214-6.49,9.837a3.691,3.691,0,0,0,2.284.741,4.821,4.821,0,0,0,4.735-2.777l2.679.118C2065.932,1290.1,2061.156,1291.118,2059.629,1291.077Z" transform="translate(-2050 -1270.3)" fill="#fff"></path><path id="Path_1554" data-name="Path 1554" d="M2400.776,1275.3l6.026,15.631h-2.932l-1.433-4.088H2396.8l-1.478,4.088H2392.6l6-15.631Zm-1.132,3.07c-.415,1.364-1.156,3.762-2.1,6.441h4.182C2400.751,1282.063,2400.014,1279.64,2399.644,1278.37Z" transform="translate(-2378.651 -1275.096)" fill="#fff"></path></g></g></svg>