<svg xmlns="http://www.w3.org/2000/svg" xmlns:xlink="http://www.w3.org/1999/xlink" id="svg" width="400" height="166.08328304164152" viewBox="0, 0, 400,166.08328304164152"><g id="svgg"><path id="path0" d="M31.167 41.499 C 31.167 41.590,31.315 41.642,31.496 41.614 C 32.018 41.535,32.100 41.333,31.611 41.333 C 31.367 41.333,31.167 41.408,31.167 41.499 M70.500 41.500 C 70.500 41.592,70.725 41.667,71.000 41.667 C 71.275 41.667,71.500 41.592,71.500 41.500 C 71.500 41.408,71.275 41.333,71.000 41.333 C 70.725 41.333,70.500 41.408,70.500 41.500 M94.172 41.780 C 93.670 41.820,93.183 41.915,93.088 41.991 C 92.994 42.067,92.592 42.183,92.195 42.248 C 91.798 42.314,91.273 42.472,91.028 42.599 C 90.783 42.727,90.469 42.832,90.329 42.832 C 90.189 42.833,89.926 42.936,89.745 43.061 C 89.565 43.186,89.233 43.346,89.008 43.416 C 88.783 43.486,88.504 43.628,88.389 43.730 C 88.052 44.029,87.795 44.219,87.042 44.731 C 86.652 44.996,86.333 45.277,86.333 45.356 C 86.333 45.435,86.248 45.500,86.144 45.500 C 85.960 45.500,85.167 46.262,85.167 46.438 C 85.167 46.486,84.960 46.736,84.708 46.993 C 84.456 47.250,84.137 47.628,84.000 47.833 C 83.862 48.038,83.623 48.371,83.469 48.574 C 83.314 48.777,83.137 49.143,83.076 49.388 C 83.014 49.633,82.897 49.833,82.815 49.833 C 82.734 49.833,82.667 49.916,82.667 50.016 C 82.667 50.117,82.558 50.436,82.424 50.725 C 81.942 51.768,81.659 52.770,81.556 53.792 C 81.499 54.365,81.397 54.833,81.331 54.833 C 81.010 54.833,81.469 60.143,81.827 60.577 C 81.906 60.672,82.025 61.050,82.092 61.417 C 82.160 61.783,82.261 62.121,82.317 62.167 C 82.374 62.212,82.642 62.700,82.913 63.250 C 83.185 63.800,83.484 64.341,83.578 64.453 C 83.673 64.564,83.844 64.767,83.958 64.904 C 84.073 65.041,84.167 65.227,84.167 65.318 C 84.167 65.409,84.270 65.543,84.396 65.617 C 84.523 65.690,84.823 66.042,85.063 66.398 C 85.303 66.755,85.500 67.010,85.500 66.966 C 85.500 66.922,85.855 67.212,86.288 67.610 C 86.721 68.008,87.137 68.333,87.212 68.333 C 87.286 68.333,87.508 68.483,87.705 68.667 C 87.902 68.850,88.274 69.093,88.531 69.207 C 88.789 69.321,89.000 69.471,89.000 69.541 C 89.000 69.610,89.079 69.667,89.176 69.667 C 89.273 69.667,89.685 69.819,90.092 70.004 C 90.500 70.190,91.077 70.388,91.375 70.444 C 91.673 70.501,92.006 70.617,92.115 70.702 C 92.224 70.788,92.883 70.901,93.579 70.953 C 94.275 71.006,94.883 71.113,94.932 71.191 C 95.047 71.377,97.333 71.377,97.333 71.191 C 97.333 71.113,97.915 71.000,98.625 70.940 C 99.335 70.880,99.942 70.756,99.972 70.665 C 100.003 70.574,100.211 70.500,100.436 70.500 C 101.137 70.500,103.525 69.367,104.818 68.422 C 106.736 67.019,109.667 63.143,109.667 62.011 C 109.667 61.913,109.735 61.833,109.819 61.833 C 109.902 61.833,110.023 61.515,110.088 61.125 C 110.152 60.735,110.266 60.339,110.342 60.245 C 110.452 60.108,110.844 57.320,110.858 56.583 C 110.870 55.933,110.460 52.734,110.346 52.593 C 110.269 52.496,110.149 52.157,110.081 51.839 C 110.013 51.521,109.903 51.146,109.836 51.005 C 109.082 49.428,108.736 48.736,108.665 48.667 C 108.618 48.621,108.383 48.283,108.141 47.917 C 107.297 46.635,105.318 44.779,103.870 43.912 C 103.400 43.630,102.423 43.099,102.333 43.076 C 102.287 43.065,102.039 42.968,101.781 42.861 C 101.523 42.754,101.204 42.667,101.072 42.667 C 100.941 42.667,100.833 42.599,100.833 42.516 C 100.833 42.433,100.440 42.312,99.958 42.247 C 99.477 42.182,99.007 42.068,98.913 41.993 C 98.706 41.826,95.431 41.680,94.172 41.780 M72.917 42.000 C 72.860 42.092,72.950 42.167,73.118 42.167 C 73.463 42.167,74.600 42.743,74.955 43.098 C 75.084 43.227,75.280 43.333,75.388 43.333 C 76.201 43.333,76.064 45.697,74.987 50.250 C 72.576 60.448,66.031 67.674,56.917 70.201 C 55.813 70.507,55.362 70.607,53.167 71.029 C 52.632 71.132,48.044 71.254,42.167 71.321 L 32.083 71.438 40.622 71.469 L 49.160 71.500 49.205 99.778 C 49.241 122.220,49.293 128.070,49.458 128.125 C 49.573 128.163,49.667 128.346,49.667 128.530 C 49.667 129.646,51.437 132.104,53.005 133.167 C 53.208 133.304,53.462 133.501,53.570 133.603 C 53.677 133.706,53.950 133.846,54.174 133.915 C 54.399 133.984,54.658 134.100,54.750 134.172 C 55.424 134.704,71.399 135.168,71.897 134.670 C 71.990 134.577,72.258 134.497,72.492 134.494 C 72.725 134.491,73.217 134.344,73.583 134.167 C 73.950 133.990,74.344 133.842,74.458 133.839 C 74.573 133.836,74.667 133.758,74.667 133.667 C 74.667 133.575,74.744 133.500,74.838 133.500 C 74.995 133.500,76.026 132.731,76.958 131.919 C 77.165 131.740,77.333 131.497,77.333 131.380 C 77.333 131.262,77.407 131.167,77.497 131.167 C 77.587 131.167,77.706 130.985,77.762 130.762 C 77.818 130.540,77.965 130.318,78.089 130.271 C 78.213 130.223,78.365 129.918,78.426 129.592 C 78.487 129.266,78.600 129.000,78.677 129.000 C 78.754 129.000,78.868 128.548,78.930 127.996 C 78.993 127.444,79.109 126.952,79.189 126.903 C 79.377 126.787,79.379 49.381,79.190 49.265 C 79.112 49.216,79.004 48.805,78.950 48.351 C 78.896 47.897,78.778 47.388,78.686 47.221 C 78.595 47.054,78.362 46.579,78.168 46.167 C 77.973 45.754,77.556 45.117,77.240 44.750 C 76.925 44.383,76.602 44.008,76.524 43.917 C 75.992 43.296,74.177 42.167,73.710 42.167 C 73.594 42.167,73.500 42.092,73.500 42.000 C 73.500 41.908,73.392 41.833,73.260 41.833 C 73.128 41.833,72.973 41.908,72.917 42.000 M25.375 44.735 C 24.949 45.184,24.867 45.485,25.259 45.159 C 25.495 44.963,25.910 44.329,25.798 44.336 C 25.771 44.338,25.581 44.517,25.375 44.735 M23.622 48.267 C 23.555 48.334,23.500 48.504,23.500 48.644 C 23.500 48.832,23.549 48.851,23.685 48.715 C 23.787 48.613,23.842 48.443,23.807 48.337 C 23.772 48.232,23.688 48.201,23.622 48.267 M24.483 66.750 C 24.764 67.294,24.995 67.595,24.994 67.417 C 24.993 67.325,24.839 67.063,24.652 66.833 C 24.425 66.557,24.369 66.529,24.483 66.750 " stroke="none" fill="#045cab" fill-rule="evenodd"></path><path id="path1" d="M31.936 41.453 C 31.875 41.514,31.658 41.585,31.454 41.611 C 30.294 41.757,29.788 41.855,29.534 41.985 C 29.378 42.064,28.814 42.330,28.282 42.575 C 27.749 42.820,27.176 43.157,27.009 43.325 C 26.841 43.492,26.600 43.694,26.473 43.773 C 26.346 43.852,25.935 44.308,25.559 44.786 C 25.184 45.264,24.818 45.601,24.745 45.536 C 24.673 45.470,24.659 45.543,24.714 45.698 C 24.769 45.852,24.759 46.002,24.692 46.031 C 24.484 46.119,23.833 47.786,23.833 48.229 C 23.833 48.459,23.757 48.694,23.664 48.752 C 23.308 48.972,23.464 63.987,23.832 64.955 C 24.007 65.417,24.098 65.852,24.034 65.924 C 23.969 65.995,24.010 65.999,24.125 65.934 C 24.259 65.857,24.335 65.922,24.339 66.115 C 24.342 66.281,24.452 66.559,24.583 66.733 C 24.715 66.907,24.776 67.125,24.719 67.217 C 24.660 67.312,24.698 67.333,24.808 67.266 C 24.918 67.198,25.000 67.247,25.000 67.381 C 25.000 68.257,28.765 71.000,29.967 71.000 C 30.153 71.000,30.332 71.080,30.364 71.177 C 30.438 71.399,47.466 71.391,51.000 71.167 C 63.207 70.394,72.047 62.686,74.987 50.250 C 76.064 45.697,76.201 43.333,75.388 43.333 C 75.280 43.333,75.084 43.227,74.955 43.098 C 74.600 42.743,73.463 42.167,73.118 42.167 C 72.950 42.167,72.854 42.102,72.903 42.022 C 72.993 41.876,71.857 41.667,70.977 41.667 C 70.715 41.667,70.500 41.592,70.500 41.500 C 70.500 41.312,32.124 41.265,31.936 41.453 " stroke="none" fill="#0b7bc3" fill-rule="evenodd"></path><path id="path2" d="M122.000 84.750 L 122.000 124.333 126.489 124.333 L 130.978 124.333 131.031 107.609 C 131.069 95.527,131.135 90.819,131.271 90.651 C 131.374 90.522,131.513 89.967,131.579 89.417 C 131.645 88.867,131.753 88.342,131.820 88.250 C 131.887 88.158,132.034 87.746,132.148 87.333 C 132.343 86.623,133.305 84.512,133.514 84.333 C 133.568 84.287,133.819 83.894,134.072 83.458 C 134.325 83.023,134.598 82.667,134.679 82.667 C 134.761 82.667,134.874 82.479,134.932 82.250 C 134.989 82.021,135.090 81.833,135.155 81.833 C 135.257 81.833,135.643 81.491,137.514 79.746 C 137.659 79.611,137.824 79.500,137.881 79.500 C 137.937 79.500,138.309 79.280,138.706 79.012 C 139.104 78.744,139.633 78.473,139.881 78.411 C 140.130 78.348,140.333 78.234,140.333 78.156 C 140.333 78.079,140.596 77.966,140.917 77.906 C 141.237 77.845,141.500 77.741,141.500 77.673 C 141.500 77.083,148.824 77.069,149.583 77.658 C 149.675 77.729,149.974 77.841,150.248 77.907 C 150.522 77.973,150.785 78.077,150.832 78.138 C 150.879 78.200,151.251 78.429,151.658 78.649 C 152.695 79.207,153.927 80.294,154.500 81.155 C 154.637 81.362,154.881 81.686,155.042 81.874 C 155.202 82.063,155.333 82.319,155.333 82.442 C 155.333 82.566,155.408 82.667,155.500 82.667 C 155.592 82.667,155.667 82.763,155.667 82.881 C 155.667 83.000,155.816 83.389,155.999 83.747 C 156.181 84.105,156.377 84.646,156.434 84.949 C 156.491 85.252,156.596 85.500,156.669 85.500 C 156.741 85.500,156.854 85.969,156.920 86.542 C 156.986 87.115,157.108 87.626,157.190 87.679 C 157.273 87.731,157.388 88.875,157.446 90.220 C 157.504 91.566,157.615 92.667,157.693 92.667 C 157.770 92.667,157.833 99.792,157.833 108.500 L 157.833 124.333 162.260 124.333 L 166.687 124.333 166.635 105.161 C 166.598 91.466,166.531 85.954,166.400 85.869 C 166.299 85.803,166.166 85.193,166.105 84.512 C 166.043 83.832,165.927 83.194,165.848 83.096 C 165.769 82.997,165.651 82.523,165.586 82.042 C 165.522 81.560,165.401 81.167,165.318 81.167 C 165.235 81.167,165.167 81.021,165.167 80.843 C 165.167 80.477,164.334 78.128,164.159 78.000 C 164.096 77.954,163.992 77.748,163.928 77.542 C 163.864 77.335,163.749 77.167,163.674 77.167 C 163.598 77.167,163.489 76.979,163.432 76.750 C 163.374 76.521,163.253 76.333,163.163 76.333 C 163.074 76.333,163.000 76.218,163.000 76.078 C 163.000 75.938,162.887 75.780,162.750 75.727 C 162.612 75.674,162.500 75.538,162.500 75.425 C 162.500 74.901,158.989 71.833,158.390 71.833 C 158.267 71.833,158.167 71.763,158.167 71.678 C 158.167 71.592,157.998 71.470,157.792 71.405 C 157.585 71.341,157.379 71.234,157.333 71.167 C 157.201 70.973,154.737 70.167,154.278 70.167 C 154.049 70.167,153.836 70.091,153.805 69.998 C 153.774 69.906,152.905 69.782,151.874 69.723 C 150.844 69.664,150.000 69.552,150.000 69.475 C 150.000 69.290,147.046 69.290,146.932 69.474 C 146.884 69.552,146.121 69.663,145.235 69.721 C 144.350 69.780,143.541 69.895,143.437 69.978 C 143.334 70.061,142.912 70.184,142.500 70.252 C 141.460 70.421,140.109 70.957,138.309 71.915 C 138.139 72.005,138.000 72.136,138.000 72.206 C 138.000 72.276,137.901 72.333,137.780 72.333 C 137.245 72.333,132.667 76.376,132.667 76.849 C 132.667 76.932,132.535 77.141,132.375 77.314 C 131.859 77.868,131.500 78.396,131.500 78.599 C 131.500 78.708,131.387 78.841,131.250 78.894 C 131.029 78.978,131.000 77.042,131.000 62.078 L 131.000 45.167 126.500 45.167 L 122.000 45.167 122.000 84.750 M199.833 69.474 C 199.833 69.552,198.806 69.664,197.551 69.724 C 196.296 69.785,195.227 69.896,195.176 69.973 C 195.125 70.049,194.410 70.204,193.586 70.317 C 192.763 70.431,192.013 70.585,191.920 70.659 C 191.826 70.734,191.431 70.848,191.042 70.912 C 190.652 70.977,190.333 71.089,190.333 71.163 C 190.333 71.236,190.056 71.348,189.717 71.412 C 189.378 71.475,188.949 71.634,188.763 71.764 C 188.578 71.894,188.255 72.000,188.046 72.000 C 187.837 72.000,187.667 72.075,187.667 72.167 C 187.667 72.258,187.574 72.333,187.461 72.333 C 187.262 72.333,185.503 73.159,185.333 73.332 C 185.287 73.378,184.963 73.563,184.612 73.741 C 183.250 74.435,183.333 74.081,183.333 79.145 C 183.333 84.074,183.366 84.220,184.247 83.269 C 184.449 83.051,184.769 82.823,184.959 82.763 C 185.148 82.703,185.345 82.544,185.396 82.410 C 185.447 82.276,185.604 82.167,185.745 82.167 C 185.885 82.167,186.000 82.088,186.000 81.991 C 186.000 81.895,186.225 81.738,186.500 81.642 C 186.775 81.546,187.000 81.400,187.000 81.317 C 187.000 81.234,187.115 81.167,187.255 81.167 C 187.396 81.167,187.552 81.059,187.602 80.927 C 187.653 80.795,187.913 80.639,188.181 80.580 C 188.448 80.522,188.667 80.413,188.667 80.340 C 188.667 80.266,188.798 80.161,188.958 80.108 C 189.119 80.054,189.362 79.937,189.500 79.848 C 189.976 79.541,191.647 78.833,191.897 78.833 C 192.034 78.833,192.189 78.765,192.241 78.681 C 192.293 78.597,192.635 78.478,193.001 78.417 C 193.367 78.355,193.667 78.243,193.667 78.168 C 193.667 78.093,194.060 77.978,194.542 77.914 C 195.023 77.849,195.492 77.737,195.583 77.666 C 196.362 77.057,204.597 77.062,204.806 77.671 C 204.836 77.760,204.978 77.833,205.121 77.833 C 205.401 77.833,206.796 78.477,207.107 78.750 C 207.211 78.842,207.494 79.060,207.736 79.235 C 208.497 79.787,208.957 80.269,209.075 80.641 C 209.138 80.838,209.254 81.000,209.332 81.000 C 209.484 81.000,210.333 82.688,210.333 82.990 C 210.333 83.087,210.400 83.167,210.481 83.167 C 210.563 83.167,210.682 83.448,210.747 83.791 C 210.811 84.135,210.930 84.457,211.011 84.507 C 211.092 84.557,211.208 85.138,211.270 85.799 C 211.331 86.459,211.445 87.000,211.524 87.000 C 211.602 87.000,211.667 87.703,211.667 88.563 L 211.667 90.125 211.146 90.229 C 210.859 90.286,210.339 90.333,209.989 90.333 C 209.639 90.333,209.313 90.399,209.263 90.478 C 209.214 90.558,208.479 90.676,207.629 90.740 C 206.779 90.805,205.746 90.934,205.333 91.026 C 204.603 91.190,202.300 91.491,198.917 91.866 C 198.000 91.967,197.213 92.105,197.167 92.172 C 197.121 92.239,196.390 92.348,195.542 92.414 C 194.694 92.481,194.000 92.594,194.000 92.665 C 194.000 92.736,193.512 92.847,192.917 92.911 C 192.321 92.974,191.833 93.078,191.833 93.142 C 191.833 93.205,191.358 93.347,190.778 93.458 C 190.197 93.568,189.503 93.772,189.236 93.911 C 188.969 94.051,188.619 94.165,188.458 94.166 C 188.298 94.166,188.167 94.236,188.167 94.320 C 188.167 94.404,187.942 94.523,187.667 94.583 C 187.392 94.644,187.167 94.756,187.167 94.833 C 187.167 94.910,186.942 95.023,186.667 95.083 C 186.392 95.144,186.167 95.256,186.167 95.334 C 186.167 95.411,185.904 95.561,185.583 95.667 C 185.262 95.773,185.000 95.928,185.000 96.013 C 185.000 96.097,184.913 96.167,184.806 96.167 C 184.699 96.167,184.493 96.279,184.347 96.416 C 184.202 96.553,183.604 97.097,183.019 97.625 C 181.944 98.592,180.500 100.395,180.500 100.769 C 180.500 100.881,180.444 100.997,180.375 101.028 C 180.306 101.058,180.123 101.346,179.968 101.667 C 179.287 103.078,179.023 103.804,178.909 104.583 C 178.842 105.042,178.704 105.470,178.602 105.536 C 178.354 105.695,178.341 113.793,178.589 113.964 C 178.684 114.030,178.859 114.571,178.979 115.166 C 179.099 115.762,179.259 116.287,179.335 116.334 C 179.411 116.382,179.525 116.626,179.588 116.877 C 179.651 117.128,179.764 117.333,179.838 117.333 C 179.913 117.333,180.023 117.558,180.083 117.833 C 180.144 118.108,180.262 118.333,180.347 118.333 C 180.431 118.333,180.500 118.448,180.500 118.589 C 180.500 118.729,180.610 118.886,180.744 118.937 C 180.878 118.989,181.037 119.187,181.098 119.378 C 181.209 119.729,183.313 121.871,184.000 122.333 C 184.205 122.471,184.538 122.710,184.741 122.865 C 184.944 123.019,185.310 123.196,185.555 123.258 C 185.800 123.319,186.000 123.430,186.000 123.505 C 186.000 123.579,186.225 123.690,186.500 123.750 C 186.775 123.810,187.000 123.923,187.000 124.000 C 187.000 124.077,187.244 124.192,187.542 124.256 C 187.840 124.320,188.158 124.431,188.250 124.504 C 188.342 124.576,188.792 124.690,189.250 124.758 C 189.708 124.825,190.124 124.942,190.173 125.018 C 190.564 125.619,199.779 125.613,200.162 125.012 C 200.210 124.936,200.644 124.820,201.125 124.755 C 201.606 124.689,202.000 124.574,202.000 124.499 C 202.000 124.424,202.300 124.312,202.667 124.250 C 203.033 124.188,203.333 124.075,203.333 123.999 C 203.333 123.922,203.558 123.810,203.833 123.750 C 204.108 123.690,204.333 123.586,204.333 123.520 C 204.333 123.454,204.596 123.305,204.917 123.189 C 205.237 123.073,205.500 122.908,205.500 122.823 C 205.500 122.737,205.601 122.667,205.724 122.667 C 205.848 122.667,206.129 122.515,206.349 122.330 C 207.472 121.387,208.407 120.541,208.727 120.179 C 208.923 119.957,209.346 119.496,209.667 119.154 C 209.987 118.812,210.362 118.366,210.500 118.164 C 210.637 117.961,210.881 117.623,211.042 117.413 C 211.202 117.203,211.333 116.949,211.333 116.849 C 211.333 116.749,211.408 116.667,211.500 116.667 C 211.606 116.667,211.667 118.056,211.667 120.503 L 211.667 124.339 216.208 124.294 L 220.750 124.250 220.730 106.083 C 220.711 88.594,220.591 83.600,220.182 83.340 C 220.104 83.291,219.986 82.781,219.920 82.208 C 219.854 81.635,219.740 81.167,219.665 81.167 C 219.590 81.167,219.479 80.867,219.417 80.501 C 219.355 80.135,219.236 79.793,219.152 79.741 C 219.068 79.689,219.000 79.531,219.000 79.390 C 219.000 79.038,218.129 77.167,217.965 77.167 C 217.893 77.167,217.833 77.066,217.833 76.942 C 217.833 76.819,217.702 76.563,217.542 76.374 C 217.381 76.186,217.137 75.867,217.000 75.667 C 216.475 74.902,215.205 73.500,215.036 73.500 C 214.968 73.500,214.692 73.294,214.421 73.042 C 213.877 72.536,213.481 72.273,212.792 71.965 C 212.540 71.853,212.333 71.708,212.333 71.643 C 212.333 71.579,212.108 71.477,211.833 71.417 C 211.558 71.356,211.333 71.241,211.333 71.161 C 211.333 71.081,211.070 70.966,210.748 70.905 C 210.426 70.845,210.126 70.736,210.081 70.663 C 210.036 70.590,209.455 70.435,208.791 70.318 C 208.127 70.202,207.541 70.045,207.490 69.970 C 207.439 69.895,206.483 69.785,205.365 69.725 C 204.248 69.665,203.333 69.552,203.333 69.474 C 203.333 69.397,202.546 69.333,201.583 69.333 C 200.621 69.333,199.833 69.397,199.833 69.474 M291.099 69.474 C 291.052 69.551,290.020 69.665,288.806 69.726 C 287.593 69.788,286.559 69.902,286.508 69.980 C 286.458 70.058,285.897 70.177,285.262 70.244 C 284.627 70.311,283.661 70.509,283.115 70.683 C 282.570 70.857,282.021 71.000,281.895 71.000 C 281.769 71.000,281.667 71.066,281.667 71.148 C 281.667 71.229,281.329 71.346,280.917 71.408 C 280.504 71.470,280.167 71.587,280.167 71.669 C 280.167 71.751,279.904 71.867,279.583 71.928 C 279.262 71.988,279.000 72.104,279.000 72.185 C 279.000 72.267,278.906 72.334,278.792 72.335 C 278.677 72.336,278.208 72.521,277.750 72.746 C 277.292 72.972,276.823 73.159,276.708 73.161 C 276.594 73.164,276.500 73.242,276.500 73.333 C 276.500 73.425,276.399 73.500,276.276 73.500 C 276.152 73.500,275.878 73.650,275.667 73.833 C 275.455 74.017,275.189 74.167,275.076 74.167 C 274.705 74.167,274.667 74.636,274.667 79.180 C 274.667 84.070,274.694 84.194,275.569 83.250 C 275.781 83.021,276.023 82.833,276.107 82.833 C 276.191 82.833,276.383 82.702,276.535 82.542 C 276.962 82.089,277.284 81.849,277.744 81.639 C 277.976 81.533,278.167 81.392,278.167 81.325 C 278.167 81.258,278.354 81.156,278.583 81.098 C 278.813 81.041,279.000 80.920,279.000 80.830 C 279.000 80.740,279.107 80.667,279.238 80.667 C 279.369 80.667,279.577 80.573,279.699 80.458 C 280.084 80.099,282.832 78.833,283.227 78.833 C 283.377 78.833,283.500 78.763,283.500 78.677 C 283.500 78.591,283.837 78.470,284.250 78.408 C 284.662 78.346,285.000 78.234,285.000 78.158 C 285.000 78.082,285.356 77.969,285.792 77.906 C 286.227 77.843,286.658 77.733,286.750 77.661 C 287.503 77.074,295.789 77.073,296.166 77.660 C 296.212 77.732,296.494 77.844,296.792 77.909 C 297.090 77.974,297.333 78.087,297.333 78.162 C 297.333 78.236,297.512 78.342,297.731 78.397 C 298.411 78.568,300.225 80.236,300.666 81.097 C 300.804 81.364,300.954 81.621,301.000 81.667 C 301.196 81.862,301.833 83.310,301.833 83.560 C 301.833 83.710,301.904 83.833,301.990 83.833 C 302.076 83.833,302.199 84.190,302.263 84.625 C 302.327 85.060,302.447 85.460,302.529 85.514 C 302.611 85.567,302.725 86.624,302.781 87.863 L 302.882 90.115 302.337 90.224 C 302.037 90.284,301.501 90.333,301.146 90.333 C 300.791 90.333,300.500 90.399,300.500 90.479 C 300.500 90.558,299.806 90.675,298.958 90.737 C 298.110 90.800,296.892 90.954,296.250 91.079 C 295.608 91.205,294.408 91.360,293.583 91.424 C 292.758 91.487,292.008 91.597,291.917 91.668 C 291.825 91.739,291.037 91.851,290.167 91.917 C 289.296 91.983,288.508 92.095,288.417 92.165 C 288.325 92.236,287.594 92.347,286.792 92.412 C 285.991 92.477,285.298 92.589,285.253 92.662 C 285.208 92.735,284.683 92.846,284.086 92.910 C 283.489 92.974,283.000 93.089,283.000 93.164 C 283.000 93.240,282.635 93.352,282.188 93.414 C 281.742 93.475,281.185 93.625,280.950 93.747 C 280.715 93.869,280.292 94.019,280.011 94.081 C 279.730 94.143,279.500 94.262,279.500 94.347 C 279.500 94.431,279.414 94.500,279.310 94.500 C 279.088 94.500,277.624 95.197,277.498 95.362 C 277.452 95.423,277.202 95.527,276.943 95.592 C 276.685 95.656,276.434 95.812,276.385 95.938 C 276.337 96.064,276.192 96.167,276.064 96.167 C 275.935 96.167,275.702 96.317,275.545 96.500 C 275.388 96.683,275.202 96.833,275.133 96.833 C 274.957 96.833,272.667 99.128,272.667 99.304 C 272.667 99.431,272.499 99.663,271.843 100.444 C 271.754 100.551,271.632 100.832,271.572 101.069 C 271.513 101.306,271.405 101.500,271.333 101.500 C 271.262 101.500,271.151 101.705,271.088 101.957 C 271.025 102.208,270.919 102.452,270.852 102.498 C 270.601 102.673,269.987 104.842,269.888 105.901 C 269.831 106.505,269.721 107.000,269.643 107.000 C 269.564 107.000,269.500 108.237,269.500 109.750 C 269.500 111.263,269.564 112.500,269.643 112.500 C 269.721 112.500,269.836 113.040,269.897 113.700 C 269.958 114.359,270.113 115.109,270.241 115.365 C 270.368 115.621,270.522 116.056,270.583 116.332 C 270.644 116.608,270.756 116.833,270.833 116.833 C 270.910 116.833,271.023 117.058,271.083 117.333 C 271.144 117.608,271.254 117.833,271.329 117.833 C 271.403 117.833,271.507 118.002,271.560 118.208 C 271.613 118.415,271.846 118.786,272.078 119.034 C 272.310 119.282,272.500 119.547,272.500 119.622 C 272.500 119.697,272.804 120.057,273.175 120.421 C 273.546 120.785,274.097 121.327,274.400 121.625 C 274.703 121.923,274.995 122.167,275.050 122.167 C 275.105 122.167,275.348 122.351,275.591 122.576 C 275.834 122.801,276.304 123.075,276.637 123.184 C 276.969 123.294,277.342 123.485,277.466 123.608 C 277.589 123.732,277.798 123.833,277.929 123.833 C 278.060 123.833,278.167 123.902,278.167 123.985 C 278.167 124.069,278.467 124.188,278.833 124.250 C 279.200 124.312,279.500 124.424,279.500 124.499 C 279.500 124.574,279.894 124.689,280.375 124.755 C 280.856 124.820,281.292 124.940,281.343 125.020 C 281.724 125.618,291.106 125.613,291.495 125.015 C 291.544 124.941,291.940 124.827,292.375 124.763 C 292.810 124.699,293.167 124.585,293.167 124.511 C 293.167 124.436,293.410 124.329,293.708 124.273 C 294.241 124.172,296.567 123.075,296.936 122.750 C 297.041 122.658,297.294 122.471,297.499 122.333 C 298.442 121.702,300.099 120.130,301.167 118.854 C 301.487 118.470,301.844 118.051,301.958 117.923 C 302.073 117.795,302.167 117.641,302.167 117.580 C 302.167 117.519,302.315 117.280,302.497 117.050 L 302.827 116.630 302.872 120.440 L 302.917 124.250 307.468 124.294 L 312.020 124.339 311.968 104.778 C 311.931 90.556,311.865 85.154,311.728 84.984 C 311.625 84.855,311.487 84.169,311.422 83.458 C 311.358 82.748,311.246 82.167,311.174 82.167 C 311.102 82.167,310.993 81.792,310.932 81.333 C 310.872 80.875,310.758 80.500,310.680 80.500 C 310.602 80.500,310.487 80.162,310.425 79.750 C 310.364 79.337,310.251 79.000,310.175 79.000 C 310.098 79.000,309.985 78.796,309.923 78.548 C 309.563 77.117,307.387 74.297,305.651 73.015 C 305.155 72.649,304.669 72.280,304.571 72.195 C 304.472 72.110,304.209 71.984,303.987 71.915 C 303.765 71.845,303.546 71.742,303.500 71.686 C 303.378 71.535,301.908 70.833,301.716 70.833 C 301.625 70.833,301.333 70.728,301.067 70.599 C 300.801 70.470,300.171 70.311,299.667 70.245 C 299.162 70.180,298.707 70.058,298.654 69.975 C 298.601 69.892,297.682 69.777,296.612 69.720 C 295.542 69.663,294.667 69.552,294.667 69.475 C 294.667 69.290,291.213 69.290,291.099 69.474 M256.833 69.979 C 256.833 70.058,256.445 70.175,255.969 70.238 C 255.494 70.301,254.786 70.499,254.395 70.676 C 254.005 70.854,253.606 71.000,253.509 71.000 C 253.412 71.000,253.333 71.059,253.333 71.130 C 253.333 71.202,253.127 71.349,252.875 71.457 C 252.351 71.683,251.835 72.004,251.587 72.259 C 251.493 72.355,251.042 72.727,250.583 73.086 C 250.125 73.445,249.686 73.842,249.607 73.969 C 249.529 74.096,249.323 74.322,249.149 74.470 C 248.975 74.619,248.833 74.803,248.833 74.878 C 248.833 74.954,248.646 75.190,248.417 75.402 C 248.188 75.614,248.000 75.870,248.000 75.969 C 248.000 76.069,247.906 76.210,247.792 76.283 C 247.677 76.357,247.358 76.867,247.083 77.417 C 246.808 77.967,246.533 78.455,246.472 78.502 C 246.410 78.548,246.308 78.792,246.245 79.043 C 246.182 79.295,246.070 79.500,245.997 79.500 C 245.923 79.500,245.812 79.800,245.750 80.166 C 245.454 81.920,245.333 80.695,245.333 75.927 L 245.333 70.833 240.917 70.833 L 236.500 70.833 236.500 97.583 L 236.500 124.333 240.917 124.333 L 245.333 124.333 245.333 110.083 C 245.333 102.246,245.397 95.833,245.474 95.833 C 245.551 95.833,245.663 94.769,245.722 93.469 C 245.782 92.169,245.897 91.063,245.978 91.011 C 246.060 90.959,246.180 90.448,246.246 89.875 C 246.312 89.302,246.423 88.833,246.494 88.833 C 246.564 88.833,246.719 88.365,246.839 87.792 C 246.958 87.219,247.100 86.712,247.153 86.667 C 247.206 86.621,247.550 85.983,247.917 85.250 C 248.283 84.517,248.677 83.857,248.792 83.783 C 248.906 83.710,249.000 83.557,249.000 83.444 C 249.000 83.194,249.650 82.392,250.692 81.355 C 251.890 80.163,252.382 79.789,253.439 79.268 C 253.977 79.003,254.554 78.718,254.721 78.634 C 254.888 78.550,255.395 78.438,255.846 78.384 C 256.297 78.331,256.667 78.222,256.667 78.143 C 256.667 77.948,259.433 77.961,259.794 78.159 C 259.953 78.246,260.515 78.364,261.042 78.420 C 261.569 78.477,262.000 78.594,262.000 78.679 C 262.000 78.764,262.132 78.833,262.293 78.833 C 262.454 78.833,262.938 79.021,263.369 79.250 C 264.759 79.990,264.678 80.261,264.628 75.042 L 264.583 70.417 263.625 70.265 C 263.098 70.181,262.667 70.050,262.667 69.973 C 262.667 69.896,261.354 69.833,259.750 69.833 C 258.146 69.833,256.833 69.899,256.833 69.979 M319.667 71.238 C 319.667 71.463,319.733 71.688,319.814 71.738 C 319.896 71.789,320.012 72.093,320.072 72.415 C 320.132 72.737,320.253 73.000,320.341 73.000 C 320.428 73.000,320.500 73.131,320.501 73.292 C 320.502 73.452,320.611 73.793,320.745 74.049 C 320.878 74.305,321.036 74.773,321.096 75.090 C 321.155 75.407,321.261 75.667,321.331 75.667 C 321.401 75.667,321.503 75.892,321.558 76.167 C 321.613 76.442,321.810 77.000,321.996 77.408 C 322.181 77.815,322.333 78.261,322.333 78.398 C 322.333 78.535,322.400 78.688,322.481 78.738 C 322.562 78.789,322.678 79.093,322.739 79.415 C 322.799 79.737,322.913 80.000,322.993 80.000 C 323.072 80.000,323.188 80.300,323.250 80.667 C 323.312 81.033,323.425 81.333,323.501 81.333 C 323.577 81.333,323.715 81.652,323.807 82.042 C 324.016 82.920,324.545 84.388,324.695 84.502 C 324.757 84.548,324.861 84.811,324.926 85.085 C 324.992 85.359,325.102 85.658,325.170 85.750 C 325.239 85.842,325.347 86.160,325.411 86.458 C 325.474 86.756,325.589 87.000,325.665 87.000 C 325.742 87.000,325.855 87.300,325.917 87.667 C 325.979 88.033,326.091 88.333,326.168 88.333 C 326.244 88.333,326.382 88.691,326.476 89.128 C 326.570 89.566,326.763 90.147,326.906 90.420 C 327.048 90.693,327.165 91.048,327.166 91.208 C 327.166 91.369,327.241 91.500,327.331 91.500 C 327.422 91.500,327.544 91.800,327.603 92.167 C 327.661 92.533,327.766 92.833,327.836 92.833 C 327.906 92.833,328.012 93.096,328.072 93.417 C 328.133 93.737,328.241 94.000,328.314 94.000 C 328.387 94.000,328.539 94.412,328.652 94.917 C 328.765 95.421,328.927 95.833,329.012 95.833 C 329.097 95.833,329.169 96.002,329.172 96.208 C 329.175 96.415,329.323 96.883,329.500 97.250 C 329.677 97.617,329.825 98.048,329.828 98.208 C 329.831 98.369,329.902 98.500,329.985 98.500 C 330.069 98.500,330.188 98.800,330.250 99.167 C 330.312 99.533,330.423 99.833,330.496 99.833 C 330.570 99.833,330.676 100.077,330.732 100.375 C 330.789 100.673,330.940 101.118,331.069 101.364 C 331.197 101.610,331.352 102.041,331.414 102.322 C 331.476 102.603,331.596 102.833,331.680 102.833 C 331.764 102.833,331.836 103.002,331.839 103.208 C 331.842 103.415,331.990 103.883,332.167 104.250 C 332.344 104.617,332.491 105.048,332.494 105.208 C 332.497 105.369,332.568 105.500,332.652 105.500 C 332.736 105.500,332.855 105.800,332.917 106.167 C 332.979 106.533,333.086 106.833,333.155 106.833 C 333.224 106.833,333.379 107.246,333.500 107.750 C 333.621 108.254,333.775 108.667,333.841 108.667 C 333.908 108.667,334.012 108.929,334.072 109.250 C 334.133 109.571,334.253 109.833,334.341 109.833 C 334.428 109.833,334.503 110.002,334.506 110.208 C 334.509 110.415,334.656 110.883,334.833 111.250 C 335.010 111.617,335.158 112.048,335.161 112.208 C 335.164 112.369,335.229 112.500,335.305 112.500 C 335.381 112.500,335.525 112.819,335.624 113.208 C 335.851 114.098,336.383 115.556,336.521 115.667 C 336.578 115.712,336.678 115.994,336.742 116.292 C 336.807 116.590,336.920 116.833,336.994 116.833 C 337.068 116.833,337.179 117.171,337.241 117.583 C 337.303 117.996,337.415 118.333,337.490 118.333 C 337.565 118.333,337.705 118.615,337.801 118.958 C 338.030 119.777,338.454 120.952,338.757 121.609 C 338.891 121.897,339.000 122.254,339.000 122.400 C 339.000 122.547,339.075 122.667,339.167 122.667 C 339.258 122.667,339.333 122.787,339.333 122.933 C 339.333 123.080,339.454 123.455,339.602 123.766 L 339.871 124.333 344.181 124.333 L 348.492 124.333 348.813 123.625 C 348.989 123.235,349.310 122.392,349.525 121.750 C 349.740 121.108,349.971 120.559,350.036 120.530 C 350.102 120.500,350.204 120.219,350.263 119.905 C 350.322 119.590,350.434 119.333,350.511 119.333 C 350.588 119.333,350.701 119.071,350.761 118.750 C 350.821 118.429,350.936 118.167,351.017 118.167 C 351.097 118.167,351.211 117.867,351.269 117.500 C 351.328 117.133,351.434 116.833,351.505 116.833 C 351.575 116.833,351.723 116.458,351.833 116.000 C 351.943 115.542,352.101 115.167,352.183 115.167 C 352.266 115.167,352.333 115.050,352.333 114.908 C 352.333 114.661,352.829 113.411,353.173 112.794 C 353.261 112.635,353.333 112.424,353.333 112.326 C 353.333 112.165,353.579 111.566,354.264 110.055 C 354.395 109.764,354.549 109.296,354.606 109.013 C 354.662 108.731,354.767 108.500,354.840 108.500 C 354.912 108.500,355.021 108.200,355.083 107.833 C 355.145 107.467,355.261 107.167,355.340 107.167 C 355.420 107.167,355.534 106.904,355.594 106.583 C 355.655 106.263,355.764 106.000,355.839 106.000 C 355.913 106.000,356.026 105.756,356.089 105.458 C 356.153 105.160,356.262 104.842,356.331 104.750 C 356.400 104.658,356.547 104.283,356.657 103.917 C 356.767 103.550,356.922 103.100,357.003 102.917 C 357.083 102.733,357.308 102.208,357.503 101.750 C 357.698 101.292,357.965 100.680,358.095 100.391 C 358.226 100.103,358.333 99.746,358.333 99.600 C 358.333 99.453,358.405 99.333,358.492 99.333 C 358.580 99.333,358.701 99.052,358.761 98.708 C 358.821 98.365,358.965 97.932,359.080 97.748 C 359.195 97.563,359.343 97.169,359.408 96.873 C 359.473 96.576,359.587 96.333,359.661 96.333 C 359.736 96.333,359.845 96.071,359.906 95.750 C 359.966 95.429,360.087 95.167,360.174 95.167 C 360.262 95.167,360.333 95.050,360.333 94.908 C 360.333 94.765,360.476 94.334,360.650 93.949 C 360.824 93.565,361.143 92.725,361.358 92.083 C 361.574 91.442,361.804 90.892,361.870 90.863 C 361.936 90.833,362.038 90.552,362.097 90.238 C 362.156 89.924,362.264 89.667,362.339 89.667 C 362.413 89.667,362.524 89.437,362.586 89.155 C 362.648 88.874,362.803 88.443,362.931 88.197 C 363.060 87.951,363.165 87.619,363.166 87.458 C 363.166 87.298,363.234 87.167,363.317 87.167 C 363.399 87.167,363.557 86.792,363.667 86.333 C 363.777 85.875,363.934 85.500,364.017 85.500 C 364.099 85.500,364.167 85.383,364.167 85.241 C 364.167 84.994,364.663 83.745,365.006 83.127 C 365.094 82.968,365.167 82.758,365.167 82.660 C 365.167 82.562,365.319 82.148,365.504 81.741 C 365.690 81.333,365.887 80.775,365.942 80.500 C 365.997 80.225,366.104 80.000,366.180 80.000 C 366.256 80.000,366.367 79.737,366.428 79.417 C 366.488 79.096,366.597 78.833,366.671 78.833 C 366.744 78.833,366.855 78.533,366.917 78.167 C 366.979 77.800,367.094 77.500,367.174 77.500 C 367.253 77.500,367.367 77.237,367.428 76.917 C 367.488 76.596,367.604 76.333,367.685 76.333 C 367.767 76.333,367.834 76.202,367.834 76.042 C 367.835 75.881,367.939 75.551,368.066 75.308 C 368.193 75.065,368.385 74.577,368.493 74.224 C 368.601 73.872,368.756 73.433,368.836 73.250 C 370.023 70.540,370.477 70.833,365.097 70.833 C 360.179 70.833,360.001 70.853,359.999 71.393 C 359.998 71.589,359.902 71.938,359.784 72.167 C 359.667 72.396,359.350 73.258,359.082 74.083 C 358.813 74.908,358.544 75.621,358.484 75.667 C 358.424 75.712,358.321 75.999,358.255 76.303 C 358.189 76.607,358.030 77.057,357.902 77.303 C 357.774 77.549,357.668 77.881,357.668 78.042 C 357.667 78.202,357.598 78.333,357.515 78.333 C 357.431 78.333,357.312 78.633,357.250 78.999 C 357.188 79.365,357.074 79.704,356.997 79.752 C 356.919 79.800,356.764 80.250,356.651 80.753 C 356.539 81.255,356.384 81.667,356.307 81.667 C 356.230 81.667,356.166 81.798,356.166 81.958 C 356.165 82.119,356.060 82.451,355.931 82.697 C 355.803 82.943,355.644 83.393,355.578 83.697 C 355.512 84.001,355.410 84.287,355.351 84.333 C 355.208 84.445,354.333 87.090,354.333 87.412 C 354.333 87.552,354.259 87.667,354.169 87.667 C 354.078 87.667,353.956 87.967,353.897 88.333 C 353.839 88.700,353.732 89.000,353.660 89.000 C 353.588 89.000,353.479 89.300,353.417 89.667 C 353.355 90.033,353.242 90.333,353.165 90.333 C 353.089 90.333,352.974 90.577,352.911 90.875 C 352.847 91.173,352.738 91.492,352.669 91.583 C 352.600 91.675,352.451 92.144,352.339 92.625 C 352.226 93.106,352.070 93.500,351.994 93.500 C 351.917 93.500,351.803 93.837,351.741 94.250 C 351.679 94.662,351.562 95.000,351.481 95.000 C 351.400 95.000,351.331 95.131,351.328 95.292 C 351.325 95.452,351.177 95.883,351.000 96.250 C 350.823 96.617,350.675 97.085,350.672 97.292 C 350.669 97.498,350.592 97.667,350.500 97.667 C 350.408 97.667,350.331 97.798,350.328 97.958 C 350.325 98.119,350.177 98.550,350.000 98.917 C 349.823 99.283,349.673 99.733,349.667 99.917 C 349.660 100.100,349.510 100.550,349.333 100.917 C 349.156 101.283,349.009 101.715,349.006 101.875 C 349.003 102.035,348.933 102.167,348.852 102.167 C 348.770 102.167,348.655 102.426,348.596 102.743 C 348.536 103.060,348.378 103.529,348.245 103.785 C 348.111 104.041,348.002 104.377,348.001 104.532 C 348.000 104.687,347.930 104.857,347.845 104.910 C 347.759 104.962,347.597 105.417,347.485 105.920 C 347.372 106.422,347.224 106.833,347.155 106.833 C 347.086 106.833,346.979 107.133,346.917 107.500 C 346.855 107.867,346.745 108.167,346.673 108.167 C 346.601 108.167,346.495 108.467,346.436 108.833 C 346.377 109.200,346.260 109.500,346.175 109.500 C 346.090 109.500,345.970 109.838,345.908 110.252 C 345.846 110.666,345.735 111.041,345.662 111.086 C 345.589 111.131,345.479 111.487,345.417 111.876 C 345.356 112.265,345.199 112.953,345.069 113.405 C 344.940 113.857,344.831 114.495,344.827 114.822 L 344.822 115.417 344.587 115.000 C 344.458 114.771,344.302 114.190,344.241 113.708 C 344.179 113.227,344.072 112.833,344.002 112.833 C 343.933 112.833,343.827 112.458,343.766 112.000 C 343.705 111.542,343.591 111.167,343.513 111.167 C 343.435 111.167,343.321 110.829,343.259 110.417 C 343.197 110.004,343.086 109.667,343.011 109.667 C 342.937 109.667,342.789 109.219,342.681 108.672 C 342.573 108.125,342.414 107.633,342.326 107.579 C 342.238 107.525,342.166 107.354,342.166 107.198 C 342.165 107.043,342.055 106.707,341.922 106.451 C 341.788 106.195,341.630 105.727,341.571 105.410 C 341.512 105.093,341.401 104.833,341.325 104.833 C 341.249 104.833,341.136 104.496,341.075 104.083 C 341.013 103.671,340.908 103.333,340.841 103.333 C 340.774 103.333,340.628 102.922,340.515 102.420 C 340.403 101.917,340.247 101.467,340.170 101.419 C 340.092 101.371,339.978 101.032,339.917 100.666 C 339.855 100.300,339.742 100.000,339.667 100.000 C 339.591 100.000,339.479 99.700,339.417 99.334 C 339.355 98.968,339.242 98.630,339.167 98.583 C 339.091 98.537,338.978 98.199,338.917 97.832 C 338.855 97.466,338.742 97.167,338.667 97.167 C 338.591 97.167,338.479 96.867,338.417 96.501 C 338.355 96.135,338.243 95.797,338.169 95.751 C 338.094 95.705,337.941 95.274,337.828 94.792 C 337.715 94.311,337.566 93.842,337.497 93.750 C 337.428 93.658,337.316 93.321,337.248 93.000 C 337.180 92.679,337.078 92.379,337.021 92.333 C 336.963 92.287,336.729 91.688,336.500 91.000 C 336.271 90.313,336.037 89.712,335.980 89.667 C 335.922 89.621,335.789 89.176,335.683 88.678 C 335.577 88.180,335.434 87.693,335.364 87.595 C 335.295 87.497,335.053 86.854,334.827 86.167 C 334.602 85.479,334.364 84.877,334.300 84.828 C 334.235 84.780,334.132 84.424,334.070 84.037 C 334.008 83.650,333.892 83.333,333.812 83.333 C 333.732 83.333,333.667 83.219,333.667 83.079 C 333.667 82.737,332.787 80.107,332.636 79.995 C 332.570 79.946,332.465 79.590,332.403 79.203 C 332.341 78.817,332.232 78.500,332.160 78.500 C 332.088 78.500,331.979 78.200,331.917 77.833 C 331.855 77.467,331.736 77.167,331.652 77.167 C 331.568 77.167,331.500 77.013,331.500 76.824 C 331.500 76.636,331.358 76.167,331.186 75.783 C 331.013 75.398,330.816 74.821,330.750 74.500 C 330.683 74.179,330.570 73.842,330.500 73.750 C 330.430 73.658,330.316 73.321,330.248 73.000 C 330.180 72.679,330.075 72.379,330.013 72.333 C 329.952 72.287,329.830 71.950,329.743 71.583 L 329.583 70.917 324.625 70.873 L 319.667 70.828 319.667 71.238 M211.522 105.229 C 211.439 105.332,211.317 105.885,211.252 106.458 C 211.187 107.031,211.076 107.500,211.004 107.500 C 210.933 107.500,210.828 107.744,210.770 108.042 C 210.654 108.638,209.508 111.050,209.298 111.139 C 209.226 111.169,209.167 111.303,209.167 111.436 C 209.167 111.569,209.054 111.720,208.917 111.773 C 208.779 111.826,208.667 111.943,208.667 112.033 C 208.667 112.582,205.594 115.423,204.333 116.039 C 204.104 116.152,203.879 116.290,203.833 116.347 C 203.787 116.405,203.450 116.547,203.083 116.664 C 202.717 116.781,202.342 116.935,202.250 117.007 C 202.158 117.078,201.783 117.191,201.417 117.257 C 201.050 117.323,200.645 117.461,200.516 117.563 C 200.188 117.825,194.635 117.819,194.317 117.557 C 194.189 117.450,193.801 117.310,193.456 117.246 C 193.112 117.182,192.792 117.068,192.746 116.993 C 192.700 116.919,192.386 116.767,192.049 116.655 C 191.336 116.420,191.312 116.402,189.917 115.073 C 188.882 114.086,188.000 112.745,188.000 112.156 C 188.000 111.994,187.906 111.830,187.792 111.792 C 187.515 111.699,187.494 106.498,187.769 106.151 C 187.871 106.022,188.007 105.692,188.072 105.417 C 188.351 104.233,189.800 102.179,190.363 102.169 C 190.425 102.168,190.576 102.073,190.697 101.958 C 191.138 101.542,193.268 100.540,193.958 100.424 C 194.348 100.358,194.667 100.244,194.667 100.171 C 194.667 100.098,195.078 99.987,195.581 99.924 C 196.083 99.861,196.533 99.748,196.580 99.672 C 196.627 99.596,197.209 99.480,197.874 99.415 C 198.539 99.350,199.158 99.238,199.250 99.167 C 199.342 99.095,200.185 98.983,201.125 98.917 C 202.065 98.851,202.833 98.738,202.833 98.665 C 202.833 98.592,203.621 98.478,204.583 98.413 C 205.546 98.347,206.333 98.240,206.333 98.176 C 206.333 98.111,207.496 97.959,208.917 97.839 C 210.508 97.704,211.515 97.549,211.538 97.435 C 211.560 97.333,211.598 99.003,211.625 101.146 C 211.652 103.311,211.606 105.125,211.522 105.229 M302.807 102.464 C 302.769 105.070,302.689 106.385,302.565 106.464 C 302.463 106.530,302.327 106.940,302.263 107.375 C 302.199 107.810,302.082 108.167,302.004 108.167 C 301.926 108.167,301.812 108.467,301.750 108.833 C 301.688 109.200,301.588 109.500,301.527 109.500 C 301.466 109.501,301.192 109.969,300.918 110.542 C 300.643 111.115,300.324 111.643,300.209 111.717 C 300.094 111.790,299.997 111.940,299.993 112.050 C 299.989 112.160,299.764 112.434,299.493 112.659 C 299.222 112.884,299.000 113.147,299.000 113.244 C 299.000 113.341,298.732 113.644,298.404 113.918 C 298.076 114.192,297.532 114.660,297.196 114.958 C 296.859 115.255,296.539 115.499,296.484 115.499 C 296.429 115.500,296.211 115.650,296.000 115.833 C 295.789 116.017,295.515 116.167,295.391 116.167 C 295.268 116.167,295.167 116.230,295.167 116.307 C 295.167 116.384,294.848 116.542,294.458 116.657 C 294.069 116.773,293.675 116.927,293.583 116.998 C 293.492 117.070,293.079 117.184,292.667 117.252 C 292.254 117.319,291.863 117.459,291.798 117.562 C 291.717 117.690,290.721 117.750,288.667 117.750 C 286.613 117.750,285.617 117.690,285.536 117.562 C 285.470 117.459,285.098 117.321,284.708 117.256 C 284.319 117.191,284.000 117.081,284.000 117.012 C 284.000 116.943,283.707 116.798,283.348 116.691 C 282.588 116.463,281.052 115.182,280.080 113.963 C 279.750 113.550,279.000 111.704,279.000 111.304 C 279.000 111.082,278.920 110.820,278.821 110.721 C 278.395 110.295,278.880 106.130,279.496 104.923 C 279.682 104.560,279.833 104.166,279.833 104.048 C 279.833 103.930,279.908 103.833,280.000 103.833 C 280.092 103.833,280.167 103.747,280.167 103.641 C 280.167 103.412,281.344 102.262,281.730 102.114 C 281.879 102.057,282.000 101.939,282.000 101.852 C 282.000 101.765,282.225 101.644,282.500 101.583 C 282.775 101.523,283.000 101.410,283.000 101.333 C 283.000 101.256,283.225 101.144,283.500 101.083 C 283.775 101.023,284.000 100.912,284.000 100.837 C 284.000 100.761,284.394 100.608,284.875 100.495 C 285.356 100.382,285.827 100.229,285.921 100.156 C 286.015 100.082,286.484 99.969,286.962 99.906 C 287.441 99.842,287.833 99.730,287.833 99.657 C 287.833 99.583,288.433 99.471,289.167 99.407 C 289.900 99.343,290.500 99.233,290.500 99.163 C 290.500 99.094,291.325 98.983,292.333 98.917 C 293.342 98.851,294.167 98.738,294.167 98.666 C 294.167 98.595,294.917 98.482,295.833 98.417 C 296.750 98.351,297.500 98.230,297.500 98.149 C 297.500 98.067,297.856 97.993,298.292 97.984 C 298.727 97.976,299.908 97.882,300.917 97.776 L 302.750 97.583 302.807 98.083 C 302.838 98.358,302.838 100.330,302.807 102.464 " stroke="none" fill="#040404" fill-rule="evenodd"></path><path id="path3" d="" stroke="none" fill="#084434" fill-rule="evenodd"></path><path id="path4" d="" stroke="none" fill="#080438" fill-rule="evenodd"></path></g></svg>