<svg id="Layer_1" data-name="Layer 1" xmlns="http://www.w3.org/2000/svg" viewBox="0 0 153.24 152.3"><defs><style>.cls-1,.cls-2{fill:none;stroke:#37aa7c;stroke-linejoin:round;stroke-width:4px;}.cls-1{fill-rule:evenodd;}</style></defs><title>ZCW-icon-pinji</title><path class="cls-1" d="M78.66,67.05c1.56-8.82-3.77-14-8.52-18.54-3.78-3.65-7.24-7-7.39-11.69m5.54,30.23c1.53-5.62-2.51-9.54-6.79-13.7-4.6-4.46-9.43-9.16-9.28-16.61m56.47,40.13.71-3.45a52.52,52.52,0,0,0,.38-5.48H33.57a49.48,49.48,0,0,0,3.24,17,42.89,42.89,0,0,0,9.42,14.62m21.93-1.87A11,11,0,0,1,70,101.65L116.67,82a4.41,4.41,0,0,0,3-3.91,4.29,4.29,0,0,0-1.54-3.31,4.36,4.36,0,0,0-4.92-.22l-45,23.18Zm5.17,5.89M61,114.36H85.59v-6.11c7.83-4.46,16-11.05,21.11-21.37m-62,24.19c1.27,2.69,4.43,3.88,7.19,4.28,6.64,1,13.93-1.56,17-7.86,2.8-5.67.22-11.21-5.93-12.71-6.83-1.66-13.45,2.29-17,8C44.35,105.6,43.61,108.65,44.74,111.07Z"/><circle class="cls-2" cx="76.15" cy="76.15" r="71.6"/></svg>