<svg id="Layer_1" data-name="Layer 1" xmlns="http://www.w3.org/2000/svg" viewBox="0 0 153.24 152.3"><defs><style>.cls-1,.cls-2{fill:none;stroke:#37aa7c;stroke-linejoin:round;stroke-width:4px;}.cls-2{fill-rule:evenodd;}</style></defs><title>ZCW-icon-brew-haha</title><circle class="cls-1" cx="76.15" cy="76.15" r="71.6"/><path class="cls-2" d="M46.73,106.39c1.51,5,4.77,6.69,8.21,6.69h40.4c3.44,0,6.71-1.73,8.21-6.69h0"/><path class="cls-2" d="M100,96.77c9-.84,15.08-5.55,18-10.9a15.85,15.85,0,0,0,2-7.09,10.14,10.14,0,0,0-1.57-5.91c-1.56-2.33-4.42-3.83-8.64-3.69h0"/><path class="cls-2" d="M60.7,106.45H89.58c8.59-5.14,13.28-13.66,15.81-22a73,73,0,0,0,2.88-20H42a73,73,0,0,0,2.88,20C47.42,92.79,52.11,101.31,60.7,106.45Z"/><line class="cls-1" x1="33.3" y1="106.51" x2="116.98" y2="106.51"/><path class="cls-2" d="M82.51,64.24c1.47-8.31-3.55-13.16-8-17.47-3.57-3.44-6.82-6.58-7-11"/><path class="cls-2" d="M72.74,64.24c1.44-5.29-2.37-9-6.4-12.91-4.33-4.2-8.89-8.63-8.74-15.65"/></svg>