<svg id="Layer_1" data-name="Layer 1" xmlns="http://www.w3.org/2000/svg" viewBox="0 0 153.24 152.3"><defs><style>.cls-1{fill:none;stroke:#e65b4f;stroke-linejoin:round;stroke-width:4px;}</style></defs><title>ZCW-icon-mulrooney</title><circle class="cls-1" cx="76.15" cy="76.15" r="71.6"/><path class="cls-1" d="M47.3,80.89l-3.54-22c-.16-1.45-.37-1.82-.7-2.07a1.41,1.41,0,0,0-1.15-.24L34,58.36a1.41,1.41,0,0,0-1.08,1.58l1.64,10.94M61.2,59.51,60.08,49.43a1.2,1.2,0,0,0-1.18-1H52.73a1.2,1.2,0,0,0-1.19,1.28l.73,9M76.08,71.89l2.08-16.28A1.3,1.3,0,0,0,77,54l-7.21,0a1.3,1.3,0,0,0-1.38,1.22l-1,5.85m-4,22.37L60.76,59.61,67,58.12l3.21,21.69m-21.5,2S49.66,62,49.84,59.44l8.07.81L54.68,84M75,116.74l0,0H57.46l-17.49,0L32.25,70.61h6.18A21.62,21.62,0,0,0,43,78.26l.09.09A18.87,18.87,0,0,0,44.9,80h0a19.4,19.4,0,0,0,12.54,4.14c8.92,0,13.92-4.6,16.6-8.61l0-.07a22.11,22.11,0,0,0,2.41-4.84l6.18,0Z"/><path class="cls-1" d="M105.11,35.54c3.53,0,7.06.64,7.06,1.77v1.77c0,.87,1.77,2.71,1.77,3.53s-1.77,2.44-1.77,3.53c0,.43,1.77,11.62,1.77,17.66,0,3.31,7.06,7.78,7.06,14.13v35.31a3.53,3.53,0,0,1-3.52,3.53H92.75a3.53,3.53,0,0,1-3.53-3.53V77.92c0-6.35,7.06-10.82,7.06-14.13,0-6,1.77-17.23,1.77-17.66,0-1.09-1.77-2.63-1.77-3.53s1.6-2.66,1.77-3.53V37.31C98,36.18,101.58,35.54,105.11,35.54Z"/><rect class="cls-1" x="89.22" y="81.45" width="31.78" height="22.95"/></svg>