<svg id="Layer_1" data-name="Layer 1" xmlns="http://www.w3.org/2000/svg" viewBox="0 0 153.24 152.3"><defs><style>.cls-1{fill:none;stroke:#37aa7c;stroke-linejoin:round;stroke-width:4px;}</style></defs><title>ZCW-icon-chelsea-tavern</title><circle class="cls-1" cx="76.15" cy="76.15" r="71.6"/><path class="cls-1" d="M107.23,88.28c4,0,7.18-2.91,7.18-6.49v-.61a7.26,7.26,0,0,0-7.18-7H93.82l-6.9,6.18-6.55-6.18H45.84a7.08,7.08,0,0,0-7,7v.61c0,3.64,3.08,6.49,7,6.49Z"/><path class="cls-1" d="M111.82,93.7H41.34c-2.43,0-4.13,2.42-4.13,4.59v3.34c0,4.72,3.25,8.42,7.4,8.42h63.94c4.19,0,7.47-3.7,7.47-8.42V98.29C116,96.12,114.23,93.7,111.82,93.7Z"/><path class="cls-1" d="M76.62,34.25a52.66,52.66,0,0,0-15.35,2.23,43.54,43.54,0,0,0-12.73,6.17,31.43,31.43,0,0,0-8.86,9.42A23.11,23.11,0,0,0,36.3,64c0,.19,0,.64,0,.88a4.2,4.2,0,0,0,4.28,3.94h72.08a4.21,4.21,0,0,0,4.28-4V64C116.95,47.59,98.86,34.25,76.62,34.25Z"/><path class="cls-1" d="M55.75,51l4.16,7.21"/><path class="cls-1" d="M63.27,43.17l4.16,7.21"/><path class="cls-1" d="M74.54,52.4l4.16,7.21"/><path class="cls-1" d="M88.69,51.58l4.16,7.21"/><path class="cls-1" d="M96,45.82,100.14,53"/><path class="cls-1" d="M79.52,40.8,83.68,48"/></svg>