<svg id="Layer_1" data-name="Layer 1" xmlns="http://www.w3.org/2000/svg" viewBox="0 0 153.24 152.3"><defs><style>.cls-1{fill:#104d63;}.cls-1,.cls-2{fill-rule:evenodd;}.cls-2,.cls-3{fill:none;stroke:#104d63;stroke-linejoin:round;stroke-width:4px;}</style></defs><title>ZCW-icon-harrys-seafood</title><path class="cls-1" d="M38.15,73.05a3.1,3.1,0,1,1-3.1,3.1,3.1,3.1,0,0,1,3.1-3.1Z"/><path class="cls-2" d="M86.42,70.6h0a5.55,5.55,0,0,1,0,11.09"/><path class="cls-2" d="M73.93,70.6h0a5.55,5.55,0,0,1,0,11.09"/><path class="cls-2" d="M73.93,81.63h0a5.55,5.55,0,0,1,0,11.09"/><path class="cls-2" d="M73.93,59.54h0a5.55,5.55,0,0,1,0,11.09"/><path class="cls-2" d="M80.06,76.14h0a5.55,5.55,0,0,1,0,11.09"/><path class="cls-2" d="M80.06,65.07h0a5.55,5.55,0,0,1,0,11.09"/><path class="cls-2" d="M51.14,76.15h0A17.41,17.41,0,0,1,39.2,92.68"/><path class="cls-2" d="M105.2,86.1l21,14.49.92-1.16c3.4-4.27,1.8-8.45-.07-13.33-1.15-3-2.42-6.32-2.42-10s1.27-6.95,2.42-10c1.87-4.88,3.47-9.06.07-13.33l-.92-1.16-21,14.49a61.26,61.26,0,0,0-12.5-8.33,58.9,58.9,0,0,0-33.42-6C48.28,53.26,38.12,58,30.79,66.2a43.48,43.48,0,0,0-6.63,9.95,43.46,43.46,0,0,0,6.63,9.95C38.12,94.27,48.28,99,59.28,100.42a58.91,58.91,0,0,0,33.42-6A61.24,61.24,0,0,0,105.2,86.1Z"/><circle class="cls-3" cx="76.15" cy="76.15" r="71.6"/></svg>