<svg id="Layer_1" data-name="Layer 1" xmlns="http://www.w3.org/2000/svg" viewBox="0 0 153.24 152.3"><defs><style>.cls-1,.cls-2{fill:none;stroke:#e65b4f;stroke-linejoin:round;stroke-width:4px;}.cls-2{fill-rule:evenodd;}</style></defs><title>ZCW-icon-bar-xii</title><circle class="cls-1" cx="76.15" cy="76.15" r="71.6"/><path class="cls-2" d="M60.77,50.17,56,41.22c-1.51-2.64-3.9-3.17-6.67-2.12L33.62,44.95"/><polygon class="cls-1" points="100.76 50.74 44.56 50.74 72.88 85.66 100.76 50.74"/><line class="cls-1" x1="72.88" y1="85.66" x2="72.88" y2="118.79"/><line class="cls-1" x1="55.96" y1="117.55" x2="89.54" y2="117.55"/><path class="cls-1" d="M84.83,50.86a17.34,17.34,0,1,1,5.63,12.79"/><line class="cls-1" x1="114.75" y1="37.66" x2="101.21" y2="51.2"/><line class="cls-1" x1="89.54" y1="38.98" x2="114.02" y2="63.45"/><line class="cls-1" x1="110.11" y1="50.39" x2="119.63" y2="50.39"/><line class="cls-1" x1="102.11" y1="42.52" x2="102.11" y2="33.58"/><line class="cls-1" x1="101.78" y1="58.51" x2="101.78" y2="68.13"/></svg>